<svg xmlns="http://www.w3.org/2000/svg" viewBox="0 0 64 64"><title>24 Hour Support</title><g id="_24_Hour_Support" data-name="24 Hour Support"><path d="M18.52,27.1,5.79,14.37l1.52-1.52a2,2,0,0,1,2.83,0l9.9,9.9a2,2,0,0,1,0,2.83Z"/><path d="M35.48,46.9,48.21,59.63l-1.3,1.3c-4.69,4.69-21.13,1.5-33.24-10.6S-1.62,21.78,3.07,17.09l1.3-1.3L17.1,28.52,13,32.65C9.16,36.44,27.56,54.84,31.35,51Z"/><path d="M51.15,56.69l-1.52,1.52L36.9,45.48,38.42,44a2,2,0,0,1,2.83,0l9.9,9.9A2,2,0,0,1,51.15,56.69Z"/><path d="M45,1C28.35,1,20.62,21.82,33.32,32.68L29,37H45A18,18,0,0,0,45,1ZM56.62,11.13a1,1,0,0,1,1,1.74A1,1,0,0,1,56.62,11.13ZM51.13,6.38a1,1,0,0,1,1.74,1A1,1,0,0,1,51.13,6.38ZM37.5,6a1,1,0,0,1,1,1.73A1,1,0,0,1,37.5,6ZM32,11.5a1,1,0,0,1,1.73,1A1,1,0,0,1,32,11.5Zm1.37,15.37a1,1,0,0,1-1-1.74A1,1,0,0,1,33.38,26.87ZM33,20H31a1,1,0,0,1,0-2H33A1,1,0,0,1,33,20Zm5.84,11.65a1,1,0,0,1-1.74-1A1,1,0,0,1,38.87,31.62ZM43,24c-5.22,0-5.63.22-5.94-.67s.15-1,3.75-3.86C42.16,18.4,42.54,16,41,16H40a1,1,0,0,0-1,1,1,1,0,0,1-2,0,3,3,0,0,1,3-3h1c3.41,0,4.08,4.62,1.06,7l-1.21,1H43A1,1,0,0,1,43,24Zm3,9a1,1,0,0,1-2,0V30.94a1,1,0,0,1,2,0ZM46,7a1,1,0,0,1-2,0V4.94a1,1,0,0,1,2,0Zm6.5,25a1,1,0,0,1-1-1.73A1,1,0,0,1,52.5,32Zm.5-9a1,1,0,0,1-2,0V21H48a1,1,0,0,1-1-1V15a1,1,0,0,1,2,0v4h2V16a1,1,0,0,1,2,0Zm5,3.5a1,1,0,0,1-1.73-1A1,1,0,0,1,58,26.5ZM59,20H57a1,1,0,0,1,0-2H59A1,1,0,0,1,59,20Z"/></g></svg>