<svg xmlns="http://www.w3.org/2000/svg" viewBox="0 0 64 64"><title>Address</title><g id="Address"><path d="M32,13a3,3,0,0,0-3,3v2h6V16A3,3,0,0,0,32,13Zm0,0a3,3,0,0,0-3,3v2h6V16A3,3,0,0,0,32,13Zm0,0a3,3,0,0,0-3,3v2h6V16A3,3,0,0,0,32,13Zm0-5A17,17,0,1,0,49,25,17,17,0,0,0,32,8ZM42,33a4,4,0,0,1-4,4H26a4,4,0,0,1-4-4V19a1,1,0,0,1,1-1h4V16a5,5,0,0,1,10,0v2h4a1,1,0,0,1,1,1ZM37,22a1,1,0,0,1-2,0V20H29v2a1,1,0,0,1-2,0V20H24V33a2,2,0,0,0,2,2H38a2,2,0,0,0,2-2V20H37Zm-2-6a3,3,0,0,0-6,0v2h6Zm-3-3a3,3,0,0,0-3,3v2h6V16A3,3,0,0,0,32,13Zm0,0a3,3,0,0,0-3,3v2h6V16A3,3,0,0,0,32,13Z"/><path d="M32,1A24,24,0,0,0,8,25C8,45,32,63,32,63S56,45,56,25A24,24,0,0,0,32,1Zm0,43A19,19,0,1,1,51,25,19,19,0,0,1,32,44Z"/></g></svg>