<svg xmlns="http://www.w3.org/2000/svg" viewBox="0 0 64 64"><title>Affiliate</title><g id="Affiliate"><path d="M36,29V27a4,4,0,0,0-8,0v2a4,4,0,0,0,8,0Z"/><path d="M39.73,41c-2-8-13.45-8-15.46,0-.45,1.8-.44,1.94-.64,2.18a14,14,0,0,0,16.74,0C40.19,43,40.23,43,39.73,41Z"/><path d="M32,18C19.58,18,13.37,33.06,22,41.81l.31-1.26a9.91,9.91,0,0,1,6-6.83C25.73,31.7,26,29.18,26,27a6,6,0,0,1,12,0c0,2.36.25,4.72-2.3,6.72a9.91,9.91,0,0,1,6,6.83L42,41.81C50.63,33.05,44.4,18,32,18Z"/><path d="M31,10.9c0,.26,0-.94,0,5.13a16.68,16.68,0,0,1,2,0c0-6.38,0-4.83,0-5.13a5,5,0,1,0-2,0Z"/><path d="M33,53.1c0-.26,0,.93,0-5.14a13.35,13.35,0,0,1-2,0c0,6.38,0,4.84,0,5.14a5,5,0,1,0,2,0Z"/><path d="M58,27a5,5,0,0,0-4.9,4c-.28,0,1,0-5.13,0a13.35,13.35,0,0,1,0,2c5.81,0,4.9,0,5.14,0A5,5,0,1,0,58,27Z"/><path d="M10.9,33c.28,0-1,0,5.14,0a13.35,13.35,0,0,1,0-2c-5.8,0-4.89,0-5.13,0a5,5,0,1,0,0,2Z"/><path d="M42.58,20A15.86,15.86,0,0,1,44,21.42c4.5-4.5,3.43-3.41,3.62-3.64a5,5,0,1,0-1.4-1.4C46,16.55,46.9,15.68,42.58,20Z"/><path d="M21.42,44A14.44,14.44,0,0,1,20,42.58c-4.35,4.33-3.45,3.43-3.63,3.64a5,5,0,1,0,1.4,1.39C18,47.44,17.53,47.89,21.42,44Z"/><path d="M47.62,46.22c-.17-.2.68.66-3.63-3.65A13.58,13.58,0,0,1,42.58,44c4.23,4.23,3.45,3.46,3.64,3.61a5,5,0,1,0,1.4-1.39Z"/><path d="M16.38,17.78c.17.2-.67-.65,3.63,3.64A13.41,13.41,0,0,1,21.42,20c-4.49-4.51-3.41-3.44-3.64-3.63a5,5,0,1,0-1.4,1.4Z"/></g></svg>