<svg xmlns="http://www.w3.org/2000/svg" viewBox="0 0 64 64"><title>Basket Shoping</title><g id="Basket_Shoping" data-name="Basket Shoping"><path d="M63,21v8H1V21H11.18c-2.86,6.2,5.74,9.77,8.36,4.33L21.62,21H42.38l2.08,4.33a4.7,4.7,0,1,0,8.48-4.07C52.77,20.9,51.28,21,63,21Z"/><path d="M3.14,31,6.29,53.82A6,6,0,0,0,12.23,59H51.77a6,6,0,0,0,5.94-5.18L60.86,31ZM17,53a1,1,0,0,1-2,0V36a1,1,0,0,1,2,0Zm8,0a1,1,0,0,1-2,0V36a1,1,0,0,1,2,0Zm8,0a1,1,0,0,1-2,0V36a1,1,0,0,1,2,0Zm8,0a1,1,0,0,1-2,0V36a1,1,0,0,1,2,0Zm8,0a1,1,0,0,1-2,0V36a1,1,0,0,1,2,0Z"/><rect x="12" y="61" width="11" height="2"/><rect x="41" y="61" width="11" height="2"/><path d="M48.7,26a2.72,2.72,0,0,1-2.44-1.53l-9.4-19.6a2.71,2.71,0,0,1,4.88-2.34l9.4,19.6A2.7,2.7,0,0,1,48.7,26Z"/><path d="M15.3,26a2.72,2.72,0,0,0,2.44-1.53l9.4-19.6a2.71,2.71,0,0,0-4.88-2.34l-9.4,19.6A2.7,2.7,0,0,0,15.3,26Z"/></g></svg>