<svg xmlns="http://www.w3.org/2000/svg" viewBox="0 0 64 64"><title>Bill</title><g id="Bill"><path d="M53,1H14.46A5.93,5.93,0,0,1,16,5V63l4.2-2,4.19,2,4.2-2,4.2,2L37,61l4.2,2,4.2-2,4.2,2,4.2-2L58,63V6A5,5,0,0,0,53,1ZM37,16c-4.68,0-5.53-6.72-1-7.87V7a1,1,0,0,1,2,0V8.13c3.08.78,3.88,4.87,2,4.87a1,1,0,0,1-1-1,2,2,0,1,0-2,2c4.68,0,5.53,6.72,1,7.87V23a1,1,0,0,1-2,0V21.87C32.92,21.09,32.12,17,34,17a1,1,0,0,1,1,1,2,2,0,1,0,2-2ZM24,53a1,1,0,0,1,0-2A1,1,0,0,1,24,53Zm0-7a1,1,0,0,1,0-2A1,1,0,0,1,24,46Zm0-7a1,1,0,0,1,0-2A1,1,0,0,1,24,39Zm0-7a1,1,0,0,1,0-2A1,1,0,0,1,24,32ZM50,53H28a1,1,0,0,1,0-2H50A1,1,0,0,1,50,53Zm0-7H28a1,1,0,0,1,0-2H50A1,1,0,0,1,50,46Zm0-7H28a1,1,0,0,1,0-2H50A1,1,0,0,1,50,39Zm0-7H28a1,1,0,0,1,0-2H50A1,1,0,0,1,50,32Z"/><path d="M14,14H6V5a4,4,0,0,1,8,0Z"/></g></svg>