<svg xmlns="http://www.w3.org/2000/svg" viewBox="0 0 64 64"><title>Bitcoin</title><g id="Bitcoin"><path d="M34,29H30V25h4a2,2,0,0,1,0,4Z"/><path d="M41.68,32.64a1,1,0,0,1-.28-1.57A6,6,0,0,0,37,21a1,1,0,0,1-1-1V17H34v3a1,1,0,0,1-1,1H29a1,1,0,0,1-1-1V17H26v3a1,1,0,0,1-1,1H21v2h2a1,1,0,0,1,1,1V41a1,1,0,0,1-1,1H21.78l-.5,2H25a1,1,0,0,1,1,1v3h2V45a1,1,0,0,1,1-1h4a1,1,0,0,1,1,1v3h2V45a1,1,0,0,1,1-1h2A6,6,0,0,0,41.68,32.64ZM28,24a1,1,0,0,1,1-1h5a4,4,0,0,1,2.83,6.83C35.32,31.32,34.15,31,29,31a1,1,0,0,1-1-1ZM38.68,40.68C36.93,42.43,35.32,42,29,42a1,1,0,0,1-1-1V34a1,1,0,0,1,1-1h6.5A4.5,4.5,0,0,1,38.68,40.68ZM35.5,35H30v5c5.75,0,6.29.24,7.26-.73A2.5,2.5,0,0,0,35.5,35Zm6.18-2.36a1,1,0,0,1-.28-1.57A6,6,0,0,0,37,21a1,1,0,0,1-1-1V17H34v3a1,1,0,0,1-1,1H29a1,1,0,0,1-1-1V17H26v3a1,1,0,0,1-1,1H21v2h2a1,1,0,0,1,1,1V41a1,1,0,0,1-1,1H21.78l-.5,2H25a1,1,0,0,1,1,1v3h2V45a1,1,0,0,1,1-1h4a1,1,0,0,1,1,1v3h2V45a1,1,0,0,1,1-1h2A6,6,0,0,0,41.68,32.64ZM28,24a1,1,0,0,1,1-1h5a4,4,0,0,1,2.83,6.83C35.32,31.32,34.15,31,29,31a1,1,0,0,1-1-1ZM38.68,40.68C36.93,42.43,35.32,42,29,42a1,1,0,0,1-1-1V34a1,1,0,0,1,1-1h6.5A4.5,4.5,0,0,1,38.68,40.68ZM35.5,35H30v5c5.75,0,6.29.24,7.26-.73A2.5,2.5,0,0,0,35.5,35ZM32,8A24,24,0,1,0,56,32,24,24,0,0,0,32,8Zm7,38H38v3a1,1,0,0,1-1,1H33a1,1,0,0,1-1-1V46H30v3a1,1,0,0,1-1,1H25a1,1,0,0,1-1-1V46c-6.07,0-5.47.76-4-5.24A1,1,0,0,1,21,40h1V25H20a1,1,0,0,1-1-1V20a1,1,0,0,1,1-1h4V16a1,1,0,0,1,1-1h4a1,1,0,0,1,1,1v3h2V16a1,1,0,0,1,1-1h4a1,1,0,0,1,1,1v3.06a8,8,0,0,1,5.62,12.42A8,8,0,0,1,39,46Zm2.68-13.36a1,1,0,0,1-.28-1.57A6,6,0,0,0,37,21a1,1,0,0,1-1-1V17H34v3a1,1,0,0,1-1,1H29a1,1,0,0,1-1-1V17H26v3a1,1,0,0,1-1,1H21v2h2a1,1,0,0,1,1,1V41a1,1,0,0,1-1,1H21.78l-.5,2H25a1,1,0,0,1,1,1v3h2V45a1,1,0,0,1,1-1h4a1,1,0,0,1,1,1v3h2V45a1,1,0,0,1,1-1h2A6,6,0,0,0,41.68,32.64ZM28,24a1,1,0,0,1,1-1h5a4,4,0,0,1,2.83,6.83C35.32,31.32,34.15,31,29,31a1,1,0,0,1-1-1ZM38.68,40.68C36.93,42.43,35.32,42,29,42a1,1,0,0,1-1-1V34a1,1,0,0,1,1-1h6.5A4.5,4.5,0,0,1,38.68,40.68ZM35.5,35H30v5c5.75,0,6.29.24,7.26-.73A2.5,2.5,0,0,0,35.5,35Z"/><path d="M32,1A31,31,0,1,0,63,32,31,31,0,0,0,32,1Zm0,57A26,26,0,1,1,58,32,26,26,0,0,1,32,58Z"/></g></svg>