<svg xmlns="http://www.w3.org/2000/svg" viewBox="0 0 64 64"><title>Cart correct</title><g id="Cart_correct" data-name="Cart correct"><path d="M48,22.69h.1C48,22.85,48,22.79,48,22.69Z"/><path d="M38,1A12,12,0,1,0,50,13,12,12,0,0,0,38,1Zm6.71,8.71C35,19.43,35.6,19,35,19s-.45,0-4.71-4.29a1,1,0,0,1,1.42-1.42L35,16.59l8.29-8.3A1,1,0,0,1,44.71,9.71Z"/><path d="M63.08,12l-11.21-.88a13.76,13.76,0,0,1,0,4l10.16.8v2l-6-.47v3.4L62,21v2l-6-.12v4.33c2.34-.09,4.38-.16,6-.18v2c-1.61,0-3.65.09-6,.18V33.6l-2,.18v-4.5l-6,.29V34.3l-2,.17V29.68c-2.15.1-5,.28-6,.31v5l-2,.18V30.1l-6,.31v5.28l-2,.17V30.51l-6,.27v5.6l-2,.18v-5.7c-1.92.07-3.65.11-5.12.13l-.32-2c1.53,0,3.38-.06,5.44-.13v-6.7L15.42,22l-.32-2,6.9.15V14.79l-7.85-.62-.33-2,10.18.8A13.93,13.93,0,0,1,24.59,9l-11.43-.9C12.82,6,12.28,2.66,12,.84A1,1,0,0,0,11,0H3A3,3,0,0,0,.87,5.11C2,6.22,2.27,6,10.8,6c5.41,33.26,3.33,20.58,5.13,31.65l-6,6.06C8.69,44.87,9,45.93,9,51a3,3,0,0,0,3,3h.54a6,6,0,1,0,8.92,0H49.54A6,6,0,1,0,54,52H12a1,1,0,0,1-1-1V45.83c0-.65,0-.38,6.45-6.87l45.64-4A1,1,0,0,0,64,34V13A1,1,0,0,0,63.08,12ZM54,56a2,2,0,1,1-2,2A2,2,0,0,1,54,56ZM17,56a2,2,0,1,1-2,2A2,2,0,0,1,17,56Z"/><path d="M24,20.2l2,0A13.85,13.85,0,0,1,24.14,15C23.94,14.94,24,14.34,24,20.2Z"/><path d="M54,17.3l-2.61-.2a13.7,13.7,0,0,1-1.72,3.62l4.33.09Z"/><path d="M24,28.78c1.88-.07,3.9-.17,6-.27v-4c-3.9-2.67-.44-2.17-6-2.28Z"/><path d="M38,28.1V27a13.89,13.89,0,0,1-6-1.35v2.76Z"/><path d="M46,27.67V24.48a13.87,13.87,0,0,1-6,2.38V28Z"/><path d="M48,22.69v4.88c2.11-.11,4.13-.21,6-.29V22.82Z"/></g></svg>