<svg xmlns="http://www.w3.org/2000/svg" viewBox="0 0 64 64"><title>Cart Add</title><g id="Cart_Add" data-name="Cart Add"><path d="M38,1A12,12,0,1,0,50,13,12,12,0,0,0,38,1Zm7,13H39v6a1,1,0,0,1-2,0V14H31a1,1,0,0,1,0-2h6V6a1,1,0,0,1,2,0v6h6A1,1,0,0,1,45,14Z"/><path d="M63.08,12l-11.21-.88a13.76,13.76,0,0,1,0,4l10.16.8v2l-6-.47v3.4L62,21v2l-6-.12v4.33c2.34-.09,4.38-.16,6-.18v2c-1.61,0-3.65.09-6,.18V33.6l-2,.18v-4.5l-6,.29V34.3l-2,.17V29.68c-2.15.1-5,.28-6,.31v5l-2,.18V30.1l-6,.31v5.28l-2,.17V30.51l-6,.27v5.6l-2,.18v-5.7c-1.92.07-3.65.11-5.12.13l-.32-2c1.53,0,3.38-.06,5.44-.13v-6.7L15.42,22l-.32-2,6.9.15V14.79l-7.85-.62-.33-2,10.18.8A13.93,13.93,0,0,1,24.59,9l-11.43-.9C12.82,6,12.28,2.66,12,.84A1,1,0,0,0,11,0H3A3,3,0,0,0,.87,5.11C2,6.22,2.27,6,10.8,6c5.41,33.26,3.33,20.58,5.13,31.65l-6,6.06C8.69,44.87,9,45.93,9,51a3,3,0,0,0,3,3h.54a6,6,0,1,0,8.92,0H49.54A6,6,0,1,0,54,52H12a1,1,0,0,1-1-1V45.83c0-.65,0-.38,6.45-6.87l45.64-4A1,1,0,0,0,64,34V13A1,1,0,0,0,63.08,12ZM54,56a2,2,0,1,1-2,2A2,2,0,0,1,54,56ZM17,56a2,2,0,1,1-2,2A2,2,0,0,1,17,56Z"/><path d="M26,20.24l-2,0c0-5.84-.06-5.26.14-5.25A13.85,13.85,0,0,0,26,20.24Z"/><path d="M54,17.3v3.51l-4.33-.09a13.7,13.7,0,0,0,1.72-3.62Z"/><path d="M30,24.48v4c-2.1.1-4.12.2-6,.27V22.2C29.56,22.31,26.1,21.81,30,24.48Z"/><path d="M38,27v1.1l-6,.31V25.65A13.89,13.89,0,0,0,38,27Z"/><path d="M46,24.48v3.19L40,28V26.86A13.87,13.87,0,0,0,46,24.48Z"/><path d="M54,22.82v4.46c-1.87.08-3.89.18-6,.29,0-5.42,0-4.88.1-4.88Z"/></g></svg>