<svg xmlns="http://www.w3.org/2000/svg" viewBox="0 0 64 64"><title>Cash Back</title><g id="Cash_Back" data-name="Cash Back"><path d="M32,27c-2.21,0-4,2.24-4,5s1.79,5,4,5,4-2.24,4-5S34.21,27,32,27Zm0,0c-2.21,0-4,2.24-4,5s1.79,5,4,5,4-2.24,4-5S34.21,27,32,27Zm13.55-4H18.45A4.6,4.6,0,0,1,15,26.45v11.1A4.6,4.6,0,0,1,18.45,41h27.1A4.6,4.6,0,0,1,49,37.55V26.45A4.6,4.6,0,0,1,45.55,23ZM23,33H19a1,1,0,0,1,0-2h4A1,1,0,0,1,23,33Zm9,6c-3.31,0-6-3.14-6-7s2.69-7,6-7,6,3.14,6,7S35.31,39,32,39Zm13-6H41a1,1,0,0,1,0-2h4A1,1,0,0,1,45,33ZM32,27c-2.21,0-4,2.24-4,5s1.79,5,4,5,4-2.24,4-5S34.21,27,32,27Z"/><path d="M10,18V46H54V18ZM51,38.44a1,1,0,0,1-1,1A2.56,2.56,0,0,0,47.44,42a1,1,0,0,1-1,1H17.56a1,1,0,0,1-1-1A2.56,2.56,0,0,0,14,39.44a1,1,0,0,1-1-1V25.56a1,1,0,0,1,1-1A2.56,2.56,0,0,0,16.56,22a1,1,0,0,1,1-1H46.44a1,1,0,0,1,1,1A2.56,2.56,0,0,0,50,24.56a1,1,0,0,1,1,1Z"/><path d="M32,64A32,32,0,0,1,0,32a1,1,0,0,1,2,0,30,30,0,0,0,60,0C62,4.65,28.3-8.28,9.94,11.68a1,1,0,0,1-1.48-1.36C28.06-11,64,2.84,64,32A32,32,0,0,1,32,64Z"/><path d="M17,12H9a1,1,0,0,1-1-1V3a1,1,0,0,1,2,0v7h7A1,1,0,0,1,17,12Z"/></g></svg>