<svg xmlns="http://www.w3.org/2000/svg" viewBox="0 0 64 64"><title>Cash on Delivey</title><g id="Cash_on_Delivey" data-name="Cash on Delivey"><rect x="48" y="39" width="4" height="4"/><path d="M54,39v5a1,1,0,0,1-1,1H47a1,1,0,0,1-1-1V39H37V63H63V39Zm5,21H55a1,1,0,0,1,0-2h4A1,1,0,0,1,59,60Z"/><path d="M15,29A14,14,0,1,0,1,15,14,14,0,0,0,15,29Zm0-13c-4.68,0-5.53-6.72-1-7.87V7a1,1,0,0,1,2,0V8.13c3.08.78,3.88,4.87,2,4.87a1,1,0,0,1-1-1,2,2,0,1,0-2,2c4.68,0,5.53,6.72,1,7.87V23a1,1,0,0,1-2,0V21.87C10.92,21.09,10.12,17,12,17a1,1,0,0,1,1,1,2,2,0,1,0,2-2Z"/><path d="M33.29,10.71C37.67,15.08,37.44,15,38,15a1,1,0,0,0,.71-1.71L36.41,11H38A19,19,0,0,1,57,30v2a1,1,0,0,0,2,0V30A21,21,0,0,0,38,9H36.41l2.3-2.29a1,1,0,0,0-1.42-1.42c-4.35,4.35-4.1,4.07-4.21,4.33A1,1,0,0,0,33.29,10.71Z"/><path d="M30.92,53.62c-.11-.26.14,0-4.21-4.33a1,1,0,0,0-1.42,1.42L27.59,53H26A19,19,0,0,1,7,34V32a1,1,0,0,0-2,0v2A21,21,0,0,0,26,55h1.59l-2.3,2.29A1,1,0,0,0,26,59c.56,0,.3.12,4.71-4.29A1,1,0,0,0,30.92,53.62Z"/></g></svg>