<svg xmlns="http://www.w3.org/2000/svg" viewBox="0 0 64 64"><title>Cash</title><g id="Cash"><path d="M32,24c-3.86,0-7,3.59-7,8s3.14,8,7,8,7-3.59,7-8S35.86,24,32,24Zm0,0c-3.86,0-7,3.59-7,8s3.14,8,7,8,7-3.59,7-8S35.86,24,32,24Zm21.1-5H10.9A5,5,0,0,1,7,22.9V41.1A5,5,0,0,1,10.9,45H53.1A5,5,0,0,1,57,41.1V22.9A5,5,0,0,1,53.1,19ZM18,33H12a1,1,0,0,1,0-2h6A1,1,0,0,1,18,33Zm14,9c-5,0-9-4.49-9-10s4-10,9-10,9,4.49,9,10S37,42,32,42Zm20-9H46a1,1,0,0,1,0-2h6A1,1,0,0,1,52,33ZM32,24c-3.86,0-7,3.59-7,8s3.14,8,7,8,7-3.59,7-8S35.86,24,32,24Zm21.1-5H10.9A5,5,0,0,1,7,22.9V41.1A5,5,0,0,1,10.9,45H53.1A5,5,0,0,1,57,41.1V22.9A5,5,0,0,1,53.1,19ZM18,33H12a1,1,0,0,1,0-2h6A1,1,0,0,1,18,33Zm14,9c-5,0-9-4.49-9-10s4-10,9-10,9,4.49,9,10S37,42,32,42Zm20-9H46a1,1,0,0,1,0-2h6A1,1,0,0,1,52,33ZM32,24c-3.86,0-7,3.59-7,8s3.14,8,7,8,7-3.59,7-8S35.86,24,32,24ZM1,13V51H63V13ZM59,42a1,1,0,0,1-1,1,3,3,0,0,0-3,3,1,1,0,0,1-1,1H10a1,1,0,0,1-1-1,3,3,0,0,0-3-3,1,1,0,0,1-1-1V22a1,1,0,0,1,1-1,3,3,0,0,0,3-3,1,1,0,0,1,1-1H54a1,1,0,0,1,1,1,3,3,0,0,0,3,3,1,1,0,0,1,1,1ZM53.1,19H10.9A5,5,0,0,1,7,22.9V41.1A5,5,0,0,1,10.9,45H53.1A5,5,0,0,1,57,41.1V22.9A5,5,0,0,1,53.1,19ZM18,33H12a1,1,0,0,1,0-2h6A1,1,0,0,1,18,33Zm14,9c-5,0-9-4.49-9-10s4-10,9-10,9,4.49,9,10S37,42,32,42Zm20-9H46a1,1,0,0,1,0-2h6A1,1,0,0,1,52,33ZM32,24c-3.86,0-7,3.59-7,8s3.14,8,7,8,7-3.59,7-8S35.86,24,32,24Zm0,0c-3.86,0-7,3.59-7,8s3.14,8,7,8,7-3.59,7-8S35.86,24,32,24Zm0,0c-3.86,0-7,3.59-7,8s3.14,8,7,8,7-3.59,7-8S35.86,24,32,24Zm21.1-5H10.9A5,5,0,0,1,7,22.9V41.1A5,5,0,0,1,10.9,45H53.1A5,5,0,0,1,57,41.1V22.9A5,5,0,0,1,53.1,19ZM18,33H12a1,1,0,0,1,0-2h6A1,1,0,0,1,18,33Zm14,9c-5,0-9-4.49-9-10s4-10,9-10,9,4.49,9,10S37,42,32,42Zm20-9H46a1,1,0,0,1,0-2h6A1,1,0,0,1,52,33ZM32,24c-3.86,0-7,3.59-7,8s3.14,8,7,8,7-3.59,7-8S35.86,24,32,24Zm0,0c-3.86,0-7,3.59-7,8s3.14,8,7,8,7-3.59,7-8S35.86,24,32,24Zm0,0c-3.86,0-7,3.59-7,8s3.14,8,7,8,7-3.59,7-8S35.86,24,32,24Zm21.1-5H10.9A5,5,0,0,1,7,22.9V41.1A5,5,0,0,1,10.9,45H53.1A5,5,0,0,1,57,41.1V22.9A5,5,0,0,1,53.1,19ZM18,33H12a1,1,0,0,1,0-2h6A1,1,0,0,1,18,33Zm14,9c-5,0-9-4.49-9-10s4-10,9-10,9,4.49,9,10S37,42,32,42Zm20-9H46a1,1,0,0,1,0-2h6A1,1,0,0,1,52,33ZM32,24c-3.86,0-7,3.59-7,8s3.14,8,7,8,7-3.59,7-8S35.86,24,32,24Z"/></g></svg>