<svg xmlns="http://www.w3.org/2000/svg" viewBox="0 0 64 64"><title>Cash Machine</title><g id="Cash_Machine" data-name="Cash Machine"><path d="M1,63H63V51H1Zm23-7a1,1,0,0,1,2,0v1a1,1,0,0,0,1,1H37a1,1,0,0,0,1-1V56a1,1,0,0,1,2,0v1a3,3,0,0,1-3,3H27a3,3,0,0,1-3-3Z"/><rect x="12" y="21" width="18" height="6"/><path d="M57,17H53v4a1,1,0,0,1,0,2H35a1,1,0,0,1,0-2V17H21V13H17v4H7V31H57ZM32,28a1,1,0,0,1-1,1H11a1,1,0,0,1-1-1V20a1,1,0,0,1,1-1H31a1,1,0,0,1,1,1Zm7-1H37a1,1,0,0,1,0-2h2A1,1,0,0,1,39,27Zm6,0H43a1,1,0,0,1,0-2h2A1,1,0,0,1,45,27Zm6,0H49a1,1,0,0,1,0-2h2A1,1,0,0,1,51,27Z"/><path d="M57,33H7L1,49H63ZM12,46H10a1,1,0,0,1,0-2h2A1,1,0,0,1,12,46Zm0-4H10a1,1,0,0,1,0-2h2A1,1,0,0,1,12,42Zm0-4H10a1,1,0,0,1,0-2h2A1,1,0,0,1,12,38Zm6,8H16a1,1,0,0,1,0-2h2A1,1,0,0,1,18,46Zm0-4H16a1,1,0,0,1,0-2h2A1,1,0,0,1,18,42Zm0-4H16a1,1,0,0,1,0-2h2A1,1,0,0,1,18,38Zm6,8H22a1,1,0,0,1,0-2h2A1,1,0,0,1,24,46Zm0-4H22a1,1,0,0,1,0-2h2A1,1,0,0,1,24,42Zm0-4H22a1,1,0,0,1,0-2h2A1,1,0,0,1,24,38Zm6,8H28a1,1,0,0,1,0-2h2A1,1,0,0,1,30,46Zm0-4H28a1,1,0,0,1,0-2h2A1,1,0,0,1,30,42Zm0-4H28a1,1,0,0,1,0-2h2A1,1,0,0,1,30,38Zm12,8H40a1,1,0,0,1,0-2h2A1,1,0,0,1,42,46Zm0-4H40a1,1,0,0,1,0-2h2A1,1,0,0,1,42,42Zm0-4H40a1,1,0,0,1,0-2h2A1,1,0,0,1,42,38Zm6,8H46a1,1,0,0,1,0-2h2A1,1,0,0,1,48,46Zm0-4H46a1,1,0,0,1,0-2h2A1,1,0,0,1,48,42Zm0-4H46a1,1,0,0,1,0-2h2A1,1,0,0,1,48,38Zm6,8H52a1,1,0,0,1,0-2h2A1,1,0,0,1,54,46Zm0-4H52a1,1,0,0,1,0-2h2A1,1,0,0,1,54,42Zm0-4H52a1,1,0,0,1,0-2h2A1,1,0,0,1,54,38Z"/><rect x="7" y="1" width="24" height="10" rx="2"/><polygon points="51 9 48.66 10 46.33 9 43.99 10 41.66 9 39.33 10 37 9 37 22 51 22 51 9"/></g></svg>