<svg xmlns="http://www.w3.org/2000/svg" viewBox="0 0 64 64"><title>Coupon</title><g id="Coupon"><circle cx="34" cy="26" r="2"/><path d="M46,36a2,2,0,1,0,2,2A2,2,0,0,0,46,36Zm0,0a2,2,0,1,0,2,2A2,2,0,0,0,46,36Zm0,0a2,2,0,1,0,2,2A2,2,0,0,0,46,36Zm0,0a2,2,0,1,0,2,2A2,2,0,0,0,46,36Zm0,0a2,2,0,1,0,2,2A2,2,0,0,0,46,36Zm0,0a2,2,0,1,0,2,2A2,2,0,0,0,46,36Zm0,0a2,2,0,1,0,2,2A2,2,0,0,0,46,36Zm0,0a2,2,0,1,0,2,2A2,2,0,0,0,46,36Zm0,0a2,2,0,1,0,2,2A2,2,0,0,0,46,36Zm0,0a2,2,0,1,0,2,2A2,2,0,0,0,46,36ZM63,26V13H1V26A6,6,0,0,1,1,38V51H63V38a6,6,0,0,1,0-12ZM23,49a1,1,0,0,1,0-2A1,1,0,0,1,23,49Zm0-4a1,1,0,0,1,0-2A1,1,0,0,1,23,45Zm0-4a1,1,0,0,1,0-2A1,1,0,0,1,23,41Zm0-4a1,1,0,0,1,0-2A1,1,0,0,1,23,37Zm0-4a1,1,0,0,1,0-2A1,1,0,0,1,23,33Zm0-4a1,1,0,0,1,0-2A1,1,0,0,1,23,29Zm0-4a1,1,0,0,1,0-2A1,1,0,0,1,23,25Zm0-4a1,1,0,0,1,0-2A1,1,0,0,1,23,21Zm0-4a1,1,0,0,1,0-2A1,1,0,0,1,23,17Zm7,9a4,4,0,1,1,4,4A4,4,0,0,1,30,26Zm3,16a1,1,0,0,1-.79-1.61l14-18a1,1,0,0,1,1.58,1.22C32.57,43.18,33.69,42,33,42Zm13,0a4,4,0,1,1,4-4A4,4,0,0,1,46,42Zm0-6a2,2,0,1,0,2,2A2,2,0,0,0,46,36Zm0,0a2,2,0,1,0,2,2A2,2,0,0,0,46,36Zm0,0a2,2,0,1,0,2,2A2,2,0,0,0,46,36Zm0,0a2,2,0,1,0,2,2A2,2,0,0,0,46,36Zm0,0a2,2,0,1,0,2,2A2,2,0,0,0,46,36Zm0,0a2,2,0,1,0,2,2A2,2,0,0,0,46,36Zm0,0a2,2,0,1,0,2,2A2,2,0,0,0,46,36Zm0,0a2,2,0,1,0,2,2A2,2,0,0,0,46,36Zm0,0a2,2,0,1,0,2,2A2,2,0,0,0,46,36Z"/></g></svg>