<svg xmlns="http://www.w3.org/2000/svg" viewBox="0 0 64 64"><title>Credit Card</title><g id="Credit_Card" data-name="Credit Card"><rect x="47" y="15" width="10" height="4"/><path d="M54,43a3,3,0,1,0,3,3A3,3,0,0,0,54,43Zm0,0a3,3,0,1,0,3,3A3,3,0,0,0,54,43Zm-4.34.51a3,3,0,1,0,0,5A5,5,0,0,1,49.66,43.51Zm0,0a3,3,0,1,0,0,5A5,5,0,0,1,49.66,43.51ZM54,43a3,3,0,1,0,3,3A3,3,0,0,0,54,43Zm0,0a3,3,0,1,0,3,3A3,3,0,0,0,54,43Zm-9,3a3,3,0,0,0,4.66,2.49,5,5,0,0,1,0-5A3,3,0,0,0,45,46ZM60,9H4a3,3,0,0,0-3,3V52a3,3,0,0,0,3,3H60a3,3,0,0,0,3-3V12A3,3,0,0,0,60,9ZM16,38H6a1,1,0,0,1,0-2H16A1,1,0,0,1,16,38Zm1-6a1,1,0,0,1-1,1H6a1,1,0,0,1-1-1V24a1,1,0,0,1,1-1H16a1,1,0,0,1,1,1Zm13,6H20a1,1,0,0,1,0-2H30A1,1,0,0,1,30,38Zm4-2H44a1,1,0,0,1,0,2H34A1,1,0,0,1,34,36ZM51,50a5,5,0,1,1,0-8,5,5,0,1,1,0,8Zm7-12H48a1,1,0,0,1,0-2H58A1,1,0,0,1,58,38Zm1-18a1,1,0,0,1-1,1H46a1,1,0,0,1-1-1V14a1,1,0,0,1,1-1H58a1,1,0,0,1,1,1ZM54,43a3,3,0,1,0,3,3A3,3,0,0,0,54,43Zm-9,3a3,3,0,0,0,4.66,2.49,5,5,0,0,1,0-5A3,3,0,0,0,45,46ZM7,31h8V25H7ZM49.66,43.51a3,3,0,1,0,0,5A5,5,0,0,1,49.66,43.51ZM54,43a3,3,0,1,0,3,3A3,3,0,0,0,54,43Zm0,0a3,3,0,1,0,3,3A3,3,0,0,0,54,43Zm-4.34.51a3,3,0,1,0,0,5A5,5,0,0,1,49.66,43.51Z"/></g></svg>