<svg xmlns="http://www.w3.org/2000/svg" viewBox="0 0 64 64"><title>Delivery</title><g id="Delivery"><path d="M20,12.92c2.9-1.15,2.18-1.13,4-.4V6H16v6.52C17.87,11.78,17.15,11.78,20,12.92Z"/><path d="M26,14a1,1,0,0,1-1,1c-.27,0-.15,0-2.49-.92-3,1.2-2,1.21-5,0l-2.14.85A1,1,0,0,1,14,14V6H1V40H39V6H26Zm4,18h6a1,1,0,0,1,0,2H30A1,1,0,0,1,30,32Zm0,4h6a1,1,0,0,1,0,2H30A1,1,0,0,1,30,36Z"/><path d="M48,36H62.68L58.56,23c-.22.07.53.05-10.56.05Z"/><path d="M61,43v2a1,1,0,0,0,1,1h1V42H62A1,1,0,0,0,61,43Z"/><path d="M47,38a1,1,0,0,1-1-1V22a1,1,0,0,1,1-1H57.94l-.28-.9A3,3,0,0,0,54.8,18H41V52h2a8,8,0,0,1,16,0h4V48H62a3,3,0,0,1-3-3V43a3,3,0,0,1,3-3h1V38Zm2,4H47a1,1,0,0,1,0-2h2A1,1,0,0,1,49,42Z"/><path d="M51,46a6,6,0,1,0,6,6A6,6,0,0,0,51,46Zm0,8a2,2,0,1,1,2-2A2,2,0,0,1,51,54Z"/><path d="M14,46a6,6,0,1,0,6,6A6,6,0,0,0,14,46Zm0,8a2,2,0,1,1,2-2A2,2,0,0,1,14,54Z"/><path d="M1,52H6a8,8,0,0,1,16,0H39V42H1Z"/></g></svg>