<svg xmlns="http://www.w3.org/2000/svg" viewBox="0 0 64 64"><title>Discount</title><g id="Discount"><circle cx="24" cy="25" r="3"/><path d="M32,11A21,21,0,1,0,53,32,21,21,0,0,0,32,11ZM19,25a5,5,0,1,1,5,5A5,5,0,0,1,19,25Zm5.81,18.59a1,1,0,0,1-1.62-1.18l16-22a1,1,0,0,1,1.62,1.18ZM40,44a5,5,0,1,1,5-5A5,5,0,0,1,40,44Zm0-8a3,3,0,1,0,3,3A3,3,0,0,0,40,36Z"/><path d="M63,32c0-2.68-2.53-5-3.19-7.45s.33-5.82-1-8-4.65-3-6.5-4.85-2.58-5.19-4.85-6.5-5.49-.28-8-1S34.68,1,32,1s-5,2.53-7.45,3.19-5.82-.33-8,1-3,4.65-4.85,6.5-5.19,2.58-6.5,4.85-.28,5.49-1,8.05S1,29.32,1,32s2.53,5,3.19,7.45-.33,5.82,1,8,4.65,3,6.5,4.85,2.58,5.19,4.85,6.5,5.49.28,8.05,1S29.32,63,32,63s5-2.53,7.45-3.19,5.82.33,8-1,3-4.65,4.85-6.5,5.19-2.58,6.5-4.85.28-5.49,1-8S63,34.68,63,32ZM32,55A23,23,0,1,1,55,32,23,23,0,0,1,32,55Z"/></g></svg>