<svg xmlns="http://www.w3.org/2000/svg" viewBox="0 0 64 64"><title>Ecommerce</title><g id="Ecommerce"><polygon points="26.54 58 25.2 56 38.8 56 37.46 58 26.54 58"/><path d="M63,58v1a4,4,0,0,1-4,4H5a4,4,0,0,1-4-4V58a2,2,0,0,1,2-2H23a1,1,0,0,0,.17.55C25.29,59.72,25.3,60,26,60c12.79,0,12.42.19,12.83-.45C41,56.37,41,56.4,41,56H61A2,2,0,0,1,63,58Z"/><path d="M40,31V44a2,2,0,0,1-2,2H26a2,2,0,0,1-2-2V31h3v2a1,1,0,0,0,2,0V31h6v2a1,1,0,0,0,2,0V31Z"/><path d="M32,24a3,3,0,0,0-3,3v2h6V27A3,3,0,0,0,32,24Zm0,0a3,3,0,0,0-3,3v2h6V27A3,3,0,0,0,32,24Zm0,0a3,3,0,0,0-3,3v2h6V27A3,3,0,0,0,32,24Zm0,0a3,3,0,0,0-3,3v2h6V27A3,3,0,0,0,32,24Zm0,0a3,3,0,0,0-3,3v2h6V27A3,3,0,0,0,32,24Zm0,0a3,3,0,0,0-3,3v2h6V27A3,3,0,0,0,32,24Zm0,0a3,3,0,0,0-3,3v2h6V27A3,3,0,0,0,32,24Zm0,0a3,3,0,0,0-3,3v2h6V27A3,3,0,0,0,32,24Zm0,0a3,3,0,0,0-3,3v2h6V27A3,3,0,0,0,32,24Zm0,0a3,3,0,0,0-3,3v2h6V27A3,3,0,0,0,32,24Zm0,0a3,3,0,0,0-3,3v2h6V27A3,3,0,0,0,32,24Zm0,0a3,3,0,0,0-3,3v2h6V27A3,3,0,0,0,32,24Zm0,0a3,3,0,0,0-3,3v2h6V27A3,3,0,0,0,32,24Zm0,0a3,3,0,0,0-3,3v2h6V27A3,3,0,0,0,32,24Zm0,0a3,3,0,0,0-3,3v2h6V27A3,3,0,0,0,32,24Zm0,0a3,3,0,0,0-3,3v2h6V27A3,3,0,0,0,32,24Zm16-6a5,5,0,0,1-8,0,5,5,0,0,1-8,0,5,5,0,0,1-8,0,5,5,0,0,1-8,0,4.74,4.74,0,0,1-1,1V50H49V19A4.74,4.74,0,0,1,48,18ZM42,44a4,4,0,0,1-4,4H26a4,4,0,0,1-4-4V30a1,1,0,0,1,1-1h4V27a5,5,0,0,1,10,0v2h4a1,1,0,0,1,1,1ZM32,24a3,3,0,0,0-3,3v2h6V27A3,3,0,0,0,32,24Zm0,0a3,3,0,0,0-3,3v2h6V27A3,3,0,0,0,32,24Zm0,0a3,3,0,0,0-3,3v2h6V27A3,3,0,0,0,32,24Zm0,0a3,3,0,0,0-3,3v2h6V27A3,3,0,0,0,32,24Zm0,0a3,3,0,0,0-3,3v2h6V27A3,3,0,0,0,32,24Zm0,0a3,3,0,0,0-3,3v2h6V27A3,3,0,0,0,32,24Zm0,0a3,3,0,0,0-3,3v2h6V27A3,3,0,0,0,32,24Zm0,0a3,3,0,0,0-3,3v2h6V27A3,3,0,0,0,32,24Zm0,0a3,3,0,0,0-3,3v2h6V27A3,3,0,0,0,32,24Zm0,0a3,3,0,0,0-3,3v2h6V27A3,3,0,0,0,32,24Zm0,0a3,3,0,0,0-3,3v2h6V27A3,3,0,0,0,32,24Zm0,0a3,3,0,0,0-3,3v2h6V27A3,3,0,0,0,32,24Zm0,0a3,3,0,0,0-3,3v2h6V27A3,3,0,0,0,32,24ZM11,20V50h2V20Zm21,4a3,3,0,0,0-3,3v2h6V27A3,3,0,0,0,32,24ZM11,20V50h2V19.89A8.27,8.27,0,0,1,11,20Zm21,4a3,3,0,0,0-3,3v2h6V27A3,3,0,0,0,32,24Zm19-4.11V50h2V20A8.52,8.52,0,0,1,51,19.89ZM32,24a3,3,0,0,0-3,3v2h6V27A3,3,0,0,0,32,24Zm0,0a3,3,0,0,0-3,3v2h6V27A3,3,0,0,0,32,24Zm0,0a3,3,0,0,0-3,3v2h6V27A3,3,0,0,0,32,24Zm0,0a3,3,0,0,0-3,3v2h6V27A3,3,0,0,0,32,24Zm0,0a3,3,0,0,0-3,3v2h6V27A3,3,0,0,0,32,24Zm0,0a3,3,0,0,0-3,3v2h6V27A3,3,0,0,0,32,24Zm0,0a3,3,0,0,0-3,3v2h6V27A3,3,0,0,0,32,24Zm0,0a3,3,0,0,0-3,3v2h6V27A3,3,0,0,0,32,24Zm0,0a3,3,0,0,0-3,3v2h6V27A3,3,0,0,0,32,24Zm0,0a3,3,0,0,0-3,3v2h6V27A3,3,0,0,0,32,24Zm16-6a5,5,0,0,1-8,0,5,5,0,0,1-8,0,5,5,0,0,1-8,0,5,5,0,0,1-8,0,4.74,4.74,0,0,1-1,1V50H49V19A4.74,4.74,0,0,1,48,18ZM42,44a4,4,0,0,1-4,4H26a4,4,0,0,1-4-4V30a1,1,0,0,1,1-1h4V27a5,5,0,0,1,10,0v2h4a1,1,0,0,1,1,1ZM32,24a3,3,0,0,0-3,3v2h6V27A3,3,0,0,0,32,24Zm0,0a3,3,0,0,0-3,3v2h6V27A3,3,0,0,0,32,24Zm0,0a3,3,0,0,0-3,3v2h6V27A3,3,0,0,0,32,24Zm0,0a3,3,0,0,0-3,3v2h6V27A3,3,0,0,0,32,24Zm0,0a3,3,0,0,0-3,3v2h6V27A3,3,0,0,0,32,24Zm0,0a3,3,0,0,0-3,3v2h6V27A3,3,0,0,0,32,24Zm0,0a3,3,0,0,0-3,3v2h6V27A3,3,0,0,0,32,24Zm0,0a3,3,0,0,0-3,3v2h6V27A3,3,0,0,0,32,24Zm0,0a3,3,0,0,0-3,3v2h6V27A3,3,0,0,0,32,24Zm0,0a3,3,0,0,0-3,3v2h6V27A3,3,0,0,0,32,24Zm0,0a3,3,0,0,0-3,3v2h6V27A3,3,0,0,0,32,24ZM11,20V50h2V19.89A8.27,8.27,0,0,1,11,20Zm21,4a3,3,0,0,0-3,3v2h6V27A3,3,0,0,0,32,24ZM11,20V50h2V19.89A8.27,8.27,0,0,1,11,20ZM9,15a3,3,0,0,0,6,0Zm8,0a3,3,0,0,0,6,0Zm8,0a3,3,0,0,0,6,0Zm7,9a3,3,0,0,0-3,3v2h6V27A3,3,0,0,0,32,24Zm1-9a3,3,0,0,0,6,0Zm8,0a3,3,0,0,0,6,0Zm-9,9a3,3,0,0,0-3,3v2h6V27A3,3,0,0,0,32,24Zm0,0a3,3,0,0,0-3,3v2h6V27A3,3,0,0,0,32,24Zm0,0a3,3,0,0,0-3,3v2h6V27A3,3,0,0,0,32,24Zm0,0a3,3,0,0,0-3,3v2h6V27A3,3,0,0,0,32,24Zm0,0a3,3,0,0,0-3,3v2h6V27A3,3,0,0,0,32,24Zm0,0a3,3,0,0,0-3,3v2h6V27A3,3,0,0,0,32,24Zm0,0a3,3,0,0,0-3,3v2h6V27A3,3,0,0,0,32,24Zm0,0a3,3,0,0,0-3,3v2h6V27A3,3,0,0,0,32,24Zm0,0a3,3,0,0,0-3,3v2h6V27A3,3,0,0,0,32,24Zm16-6a5,5,0,0,1-8,0,5,5,0,0,1-8,0,5,5,0,0,1-8,0,5,5,0,0,1-8,0,4.74,4.74,0,0,1-1,1V50H49V19A4.74,4.74,0,0,1,48,18ZM42,44a4,4,0,0,1-4,4H26a4,4,0,0,1-4-4V30a1,1,0,0,1,1-1h4V27a5,5,0,0,1,10,0v2h4a1,1,0,0,1,1,1ZM32,24a3,3,0,0,0-3,3v2h6V27A3,3,0,0,0,32,24Zm0,0a3,3,0,0,0-3,3v2h6V27A3,3,0,0,0,32,24Zm0,0a3,3,0,0,0-3,3v2h6V27A3,3,0,0,0,32,24Zm0,0a3,3,0,0,0-3,3v2h6V27A3,3,0,0,0,32,24Zm0,0a3,3,0,0,0-3,3v2h6V27A3,3,0,0,0,32,24Zm0,0a3,3,0,0,0-3,3v2h6V27A3,3,0,0,0,32,24Zm0,0a3,3,0,0,0-3,3v2h6V27A3,3,0,0,0,32,24Zm0,0a3,3,0,0,0-3,3v2h6V27A3,3,0,0,0,32,24Zm0,0a3,3,0,0,0-3,3v2h6V27A3,3,0,0,0,32,24ZM11,20V50h2V19.89A8.27,8.27,0,0,1,11,20ZM9,15a3,3,0,0,0,6,0Zm8,0a3,3,0,0,0,6,0Zm8,0a3,3,0,0,0,6,0Zm7,9a3,3,0,0,0-3,3v2h6V27A3,3,0,0,0,32,24Zm1-9a3,3,0,0,0,6,0Zm8,0a3,3,0,0,0,6,0Zm-9,9a3,3,0,0,0-3,3v2h6V27A3,3,0,0,0,32,24Zm0,0a3,3,0,0,0-3,3v2h6V27A3,3,0,0,0,32,24Zm0,0a3,3,0,0,0-3,3v2h6V27A3,3,0,0,0,32,24Zm0,0a3,3,0,0,0-3,3v2h6V27A3,3,0,0,0,32,24Zm0,0a3,3,0,0,0-3,3v2h6V27A3,3,0,0,0,32,24Zm0,0a3,3,0,0,0-3,3v2h6V27A3,3,0,0,0,32,24Zm0,0a3,3,0,0,0-3,3v2h6V27A3,3,0,0,0,32,24Zm16-6a5,5,0,0,1-8,0,5,5,0,0,1-8,0,5,5,0,0,1-8,0,5,5,0,0,1-8,0,4.74,4.74,0,0,1-1,1V50H49V19A4.74,4.74,0,0,1,48,18ZM42,44a4,4,0,0,1-4,4H26a4,4,0,0,1-4-4V30a1,1,0,0,1,1-1h4V27a5,5,0,0,1,10,0v2h4a1,1,0,0,1,1,1ZM32,24a3,3,0,0,0-3,3v2h6V27A3,3,0,0,0,32,24Zm0,0a3,3,0,0,0-3,3v2h6V27A3,3,0,0,0,32,24Zm0,0a3,3,0,0,0-3,3v2h6V27A3,3,0,0,0,32,24Zm0,0a3,3,0,0,0-3,3v2h6V27A3,3,0,0,0,32,24Zm0,0a3,3,0,0,0-3,3v2h6V27A3,3,0,0,0,32,24Zm0,0a3,3,0,0,0-3,3v2h6V27A3,3,0,0,0,32,24Zm0,0a3,3,0,0,0-3,3v2h6V27A3,3,0,0,0,32,24Zm19-4.11V50h2V20A8.52,8.52,0,0,1,51,19.89ZM11,20V50h2V19.89A8.27,8.27,0,0,1,11,20ZM9,15a3,3,0,0,0,6,0Zm8,0a3,3,0,0,0,6,0Zm8,0a3,3,0,0,0,6,0Zm7,9a3,3,0,0,0-3,3v2h6V27A3,3,0,0,0,32,24Zm1-9a3,3,0,0,0,6,0Zm8,0a3,3,0,0,0,6,0Zm-9,9a3,3,0,0,0-3,3v2h6V27A3,3,0,0,0,32,24Zm0,0a3,3,0,0,0-3,3v2h6V27A3,3,0,0,0,32,24Zm0,0a3,3,0,0,0-3,3v2h6V27A3,3,0,0,0,32,24Zm0,0a3,3,0,0,0-3,3v2h6V27A3,3,0,0,0,32,24Zm0,0a3,3,0,0,0-3,3v2h6V27A3,3,0,0,0,32,24Zm16-6a5,5,0,0,1-8,0,5,5,0,0,1-8,0,5,5,0,0,1-8,0,5,5,0,0,1-8,0,4.74,4.74,0,0,1-1,1V50H49V19A4.74,4.74,0,0,1,48,18ZM42,44a4,4,0,0,1-4,4H26a4,4,0,0,1-4-4V30a1,1,0,0,1,1-1h4V27a5,5,0,0,1,10,0v2h4a1,1,0,0,1,1,1ZM32,24a3,3,0,0,0-3,3v2h6V27A3,3,0,0,0,32,24Zm0,0a3,3,0,0,0-3,3v2h6V27A3,3,0,0,0,32,24Zm0,0a3,3,0,0,0-3,3v2h6V27A3,3,0,0,0,32,24Zm0,0a3,3,0,0,0-3,3v2h6V27A3,3,0,0,0,32,24Zm0,0a3,3,0,0,0-3,3v2h6V27A3,3,0,0,0,32,24Zm19-4.11V50h2V20A8.52,8.52,0,0,1,51,19.89ZM49,15a3,3,0,0,0,6,0Zm8,.26A4.94,4.94,0,0,1,55,19V51a1,1,0,0,1-1,1H10a1,1,0,0,1-1-1V19a4.94,4.94,0,0,1-2-3.74A2,2,0,0,0,6,17V52a2,2,0,0,0,2,2H56a2,2,0,0,0,2-2V17A2,2,0,0,0,57,15.26ZM49,15a3,3,0,0,0,6,0Zm2,4.89V50h2V20A8.52,8.52,0,0,1,51,19.89ZM32,24a3,3,0,0,0-3,3v2h6V27A3,3,0,0,0,32,24Zm0,0a3,3,0,0,0-3,3v2h6V27A3,3,0,0,0,32,24Zm0,0a3,3,0,0,0-3,3v2h6V27A3,3,0,0,0,32,24Zm0,0a3,3,0,0,0-3,3v2h6V27A3,3,0,0,0,32,24Zm16-6a5,5,0,0,1-8,0,5,5,0,0,1-8,0,5,5,0,0,1-8,0,5,5,0,0,1-8,0,4.74,4.74,0,0,1-1,1V50H49V19A4.74,4.74,0,0,1,48,18ZM42,44a4,4,0,0,1-4,4H26a4,4,0,0,1-4-4V30a1,1,0,0,1,1-1h4V27a5,5,0,0,1,10,0v2h4a1,1,0,0,1,1,1ZM32,24a3,3,0,0,0-3,3v2h6V27A3,3,0,0,0,32,24Zm0,0a3,3,0,0,0-3,3v2h6V27A3,3,0,0,0,32,24Zm0,0a3,3,0,0,0-3,3v2h6V27A3,3,0,0,0,32,24Zm0,0a3,3,0,0,0-3,3v2h6V27A3,3,0,0,0,32,24Zm9-9a3,3,0,0,0,6,0Zm-8,0a3,3,0,0,0,6,0Zm-1,9a3,3,0,0,0-3,3v2h6V27A3,3,0,0,0,32,24Zm-7-9a3,3,0,0,0,6,0Zm-8,0a3,3,0,0,0,6,0ZM9,15a3,3,0,0,0,6,0Zm2,5V50h2V19.89A8.27,8.27,0,0,1,11,20Zm40-.11V50h2V20A8.52,8.52,0,0,1,51,19.89ZM32,24a3,3,0,0,0-3,3v2h6V27A3,3,0,0,0,32,24Zm0,0a3,3,0,0,0-3,3v2h6V27A3,3,0,0,0,32,24Zm0,0a3,3,0,0,0-3,3v2h6V27A3,3,0,0,0,32,24Zm0,0a3,3,0,0,0-3,3v2h6V27A3,3,0,0,0,32,24Zm0,0a3,3,0,0,0-3,3v2h6V27A3,3,0,0,0,32,24Zm0,0a3,3,0,0,0-3,3v2h6V27A3,3,0,0,0,32,24Zm16-6a5,5,0,0,1-8,0,5,5,0,0,1-8,0,5,5,0,0,1-8,0,5,5,0,0,1-8,0,4.74,4.74,0,0,1-1,1V50H49V19A4.74,4.74,0,0,1,48,18ZM42,44a4,4,0,0,1-4,4H26a4,4,0,0,1-4-4V30a1,1,0,0,1,1-1h4V27a5,5,0,0,1,10,0v2h4a1,1,0,0,1,1,1ZM32,24a3,3,0,0,0-3,3v2h6V27A3,3,0,0,0,32,24Zm0,0a3,3,0,0,0-3,3v2h6V27A3,3,0,0,0,32,24Zm0,0a3,3,0,0,0-3,3v2h6V27A3,3,0,0,0,32,24Zm0,0a3,3,0,0,0-3,3v2h6V27A3,3,0,0,0,32,24Zm0,0a3,3,0,0,0-3,3v2h6V27A3,3,0,0,0,32,24Zm0,0a3,3,0,0,0-3,3v2h6V27A3,3,0,0,0,32,24Zm9-9a3,3,0,0,0,6,0Zm-8,0a3,3,0,0,0,6,0Zm-1,9a3,3,0,0,0-3,3v2h6V27A3,3,0,0,0,32,24Zm-7-9a3,3,0,0,0,6,0Zm-8,0a3,3,0,0,0,6,0ZM9,15a3,3,0,0,0,6,0Zm2,5V50h2V19.89A8.27,8.27,0,0,1,11,20Zm21,4a3,3,0,0,0-3,3v2h6V27A3,3,0,0,0,32,24Zm0,0a3,3,0,0,0-3,3v2h6V27A3,3,0,0,0,32,24Zm0,0a3,3,0,0,0-3,3v2h6V27A3,3,0,0,0,32,24Zm0,0a3,3,0,0,0-3,3v2h6V27A3,3,0,0,0,32,24Zm0,0a3,3,0,0,0-3,3v2h6V27A3,3,0,0,0,32,24Zm0,0a3,3,0,0,0-3,3v2h6V27A3,3,0,0,0,32,24Zm0,0a3,3,0,0,0-3,3v2h6V27A3,3,0,0,0,32,24Zm0,0a3,3,0,0,0-3,3v2h6V27A3,3,0,0,0,32,24Zm16-6a5,5,0,0,1-8,0,5,5,0,0,1-8,0,5,5,0,0,1-8,0,5,5,0,0,1-8,0,4.74,4.74,0,0,1-1,1V50H49V19A4.74,4.74,0,0,1,48,18ZM42,44a4,4,0,0,1-4,4H26a4,4,0,0,1-4-4V30a1,1,0,0,1,1-1h4V27a5,5,0,0,1,10,0v2h4a1,1,0,0,1,1,1ZM32,24a3,3,0,0,0-3,3v2h6V27A3,3,0,0,0,32,24Zm0,0a3,3,0,0,0-3,3v2h6V27A3,3,0,0,0,32,24Zm0,0a3,3,0,0,0-3,3v2h6V27A3,3,0,0,0,32,24Zm0,0a3,3,0,0,0-3,3v2h6V27A3,3,0,0,0,32,24Zm0,0a3,3,0,0,0-3,3v2h6V27A3,3,0,0,0,32,24Zm0,0a3,3,0,0,0-3,3v2h6V27A3,3,0,0,0,32,24Zm0,0a3,3,0,0,0-3,3v2h6V27A3,3,0,0,0,32,24Zm0,0a3,3,0,0,0-3,3v2h6V27A3,3,0,0,0,32,24Zm9-9a3,3,0,0,0,6,0Zm-8,0a3,3,0,0,0,6,0Zm-1,9a3,3,0,0,0-3,3v2h6V27A3,3,0,0,0,32,24Zm-7-9a3,3,0,0,0,6,0Zm-8,0a3,3,0,0,0,6,0ZM9,15a3,3,0,0,0,6,0Zm2,5V50h2V19.89A8.27,8.27,0,0,1,11,20Zm21,4a3,3,0,0,0-3,3v2h6V27A3,3,0,0,0,32,24Zm0,0a3,3,0,0,0-3,3v2h6V27A3,3,0,0,0,32,24Zm0,0a3,3,0,0,0-3,3v2h6V27A3,3,0,0,0,32,24Zm0,0a3,3,0,0,0-3,3v2h6V27A3,3,0,0,0,32,24Zm0,0a3,3,0,0,0-3,3v2h6V27A3,3,0,0,0,32,24Zm0,0a3,3,0,0,0-3,3v2h6V27A3,3,0,0,0,32,24Zm0,0a3,3,0,0,0-3,3v2h6V27A3,3,0,0,0,32,24Zm0,0a3,3,0,0,0-3,3v2h6V27A3,3,0,0,0,32,24Zm0,0a3,3,0,0,0-3,3v2h6V27A3,3,0,0,0,32,24Zm0,0a3,3,0,0,0-3,3v2h6V27A3,3,0,0,0,32,24Zm16-6a5,5,0,0,1-8,0,5,5,0,0,1-8,0,5,5,0,0,1-8,0,5,5,0,0,1-8,0,4.74,4.74,0,0,1-1,1V50H49V19A4.74,4.74,0,0,1,48,18ZM42,44a4,4,0,0,1-4,4H26a4,4,0,0,1-4-4V30a1,1,0,0,1,1-1h4V27a5,5,0,0,1,10,0v2h4a1,1,0,0,1,1,1ZM32,24a3,3,0,0,0-3,3v2h6V27A3,3,0,0,0,32,24Zm0,0a3,3,0,0,0-3,3v2h6V27A3,3,0,0,0,32,24Zm0,0a3,3,0,0,0-3,3v2h6V27A3,3,0,0,0,32,24Zm0,0a3,3,0,0,0-3,3v2h6V27A3,3,0,0,0,32,24Zm0,0a3,3,0,0,0-3,3v2h6V27A3,3,0,0,0,32,24Zm0,0a3,3,0,0,0-3,3v2h6V27A3,3,0,0,0,32,24Zm0,0a3,3,0,0,0-3,3v2h6V27A3,3,0,0,0,32,24Zm0,0a3,3,0,0,0-3,3v2h6V27A3,3,0,0,0,32,24Zm0,0a3,3,0,0,0-3,3v2h6V27A3,3,0,0,0,32,24Zm0,0a3,3,0,0,0-3,3v2h6V27A3,3,0,0,0,32,24Zm9-9a3,3,0,0,0,6,0Zm-8,0a3,3,0,0,0,6,0Zm-1,9a3,3,0,0,0-3,3v2h6V27A3,3,0,0,0,32,24Zm-7-9a3,3,0,0,0,6,0Zm-8,0a3,3,0,0,0,6,0Zm-6,5V50h2V19.89A8.27,8.27,0,0,1,11,20Zm21,4a3,3,0,0,0-3,3v2h6V27A3,3,0,0,0,32,24ZM11,20V50h2V20Zm21,4a3,3,0,0,0-3,3v2h6V27A3,3,0,0,0,32,24Zm0,0a3,3,0,0,0-3,3v2h6V27A3,3,0,0,0,32,24Zm0,0a3,3,0,0,0-3,3v2h6V27A3,3,0,0,0,32,24Zm0,0a3,3,0,0,0-3,3v2h6V27A3,3,0,0,0,32,24Zm0,0a3,3,0,0,0-3,3v2h6V27A3,3,0,0,0,32,24Zm0,0a3,3,0,0,0-3,3v2h6V27A3,3,0,0,0,32,24Zm0,0a3,3,0,0,0-3,3v2h6V27A3,3,0,0,0,32,24Zm0,0a3,3,0,0,0-3,3v2h6V27A3,3,0,0,0,32,24Zm0,0a3,3,0,0,0-3,3v2h6V27A3,3,0,0,0,32,24Zm0,0a3,3,0,0,0-3,3v2h6V27A3,3,0,0,0,32,24Zm0,0a3,3,0,0,0-3,3v2h6V27A3,3,0,0,0,32,24Zm0,0a3,3,0,0,0-3,3v2h6V27A3,3,0,0,0,32,24Zm16-6a5,5,0,0,1-8,0,5,5,0,0,1-8,0,5,5,0,0,1-8,0,5,5,0,0,1-8,0,4.74,4.74,0,0,1-1,1V50H49V19A4.74,4.74,0,0,1,48,18ZM42,44a4,4,0,0,1-4,4H26a4,4,0,0,1-4-4V30a1,1,0,0,1,1-1h4V27a5,5,0,0,1,10,0v2h4a1,1,0,0,1,1,1ZM32,24a3,3,0,0,0-3,3v2h6V27A3,3,0,0,0,32,24Zm0,0a3,3,0,0,0-3,3v2h6V27A3,3,0,0,0,32,24Zm0,0a3,3,0,0,0-3,3v2h6V27A3,3,0,0,0,32,24Zm0,0a3,3,0,0,0-3,3v2h6V27A3,3,0,0,0,32,24Zm0,0a3,3,0,0,0-3,3v2h6V27A3,3,0,0,0,32,24Zm0,0a3,3,0,0,0-3,3v2h6V27A3,3,0,0,0,32,24Zm0,0a3,3,0,0,0-3,3v2h6V27A3,3,0,0,0,32,24Zm0,0a3,3,0,0,0-3,3v2h6V27A3,3,0,0,0,32,24Zm0,0a3,3,0,0,0-3,3v2h6V27A3,3,0,0,0,32,24Zm0,0a3,3,0,0,0-3,3v2h6V27A3,3,0,0,0,32,24Zm0,0a3,3,0,0,0-3,3v2h6V27A3,3,0,0,0,32,24Zm19-4.11V50h2V20A8.52,8.52,0,0,1,51,19.89ZM32,24a3,3,0,0,0-3,3v2h6V27A3,3,0,0,0,32,24Zm0,0a3,3,0,0,0-3,3v2h6V27A3,3,0,0,0,32,24Zm0,0a3,3,0,0,0-3,3v2h6V27A3,3,0,0,0,32,24Zm0,0a3,3,0,0,0-3,3v2h6V27A3,3,0,0,0,32,24Zm0,0a3,3,0,0,0-3,3v2h6V27A3,3,0,0,0,32,24Z"/><path d="M12,20c1.15,0,1,0,1-.11A4.71,4.71,0,0,1,12,20Z"/><path d="M51,19.89c0,.15-.15.11,1,.11A4.71,4.71,0,0,1,51,19.89Z"/><path d="M14,1V6H50V1Zm4,4a1,1,0,0,1,0-2A1,1,0,0,1,18,5Zm4,0a1,1,0,0,1,0-2A1,1,0,0,1,22,5Zm4,0a1,1,0,0,1,0-2A1,1,0,0,1,26,5Z"/><path d="M53.83,13H48.58L45.72,8h3.82Z"/><path d="M46.28,13H40.75c-1.39-4.87-1.11-3.89-1.42-5h4.09Z"/><path d="M38.67,13H33V8h4.25C38.64,12.87,38.36,11.89,38.67,13Z"/><path d="M31,8v5H25.33c.3-1.07,0-.11,1.42-5Z"/><path d="M24.67,8c-.3,1.07,0,.11-1.42,5H17.72c2.7-4.72,2.12-3.69,2.86-5Z"/><path d="M18.28,8c-2.7,4.72-2.12,3.69-2.86,5H10.17l4.29-5Z"/></g></svg>