<svg xmlns="http://www.w3.org/2000/svg" viewBox="0 0 64 64"><title>Find Product</title><g id="Find_Product" data-name="Find Product"><path d="M63,59.46A3.54,3.54,0,0,1,57,62L42.42,47.42l5-5L62,57A3.54,3.54,0,0,1,63,59.46Z"/><path d="M24,12a3,3,0,0,0-3,3v2h6V15A3,3,0,0,0,24,12Zm0,0a3,3,0,0,0-3,3v2h6V15A3,3,0,0,0,24,12Zm5,7v2a1,1,0,0,1-2,0V19H21v2a1,1,0,0,1-2,0V19H16V32a2,2,0,0,0,2,2H30a2,2,0,0,0,2-2V19Zm0,0v2a1,1,0,0,1-2,0V19H21v2a1,1,0,0,1-2,0V19H16V32a2,2,0,0,0,2,2H30a2,2,0,0,0,2-2V19Zm-2-4a3,3,0,0,0-6,0v2h6ZM24,7A17,17,0,1,0,41,24,17,17,0,0,0,24,7ZM34,32a4,4,0,0,1-4,4H18a4,4,0,0,1-4-4V18a1,1,0,0,1,1-1h4V15a5,5,0,0,1,10,0v2h4a1,1,0,0,1,1,1ZM29,21a1,1,0,0,1-2,0V19H21v2a1,1,0,0,1-2,0V19H16V32a2,2,0,0,0,2,2H30a2,2,0,0,0,2-2V19H29Zm-2-6a3,3,0,0,0-6,0v2h6Zm-3-3a3,3,0,0,0-3,3v2h6V15A3,3,0,0,0,24,12Zm5,7v2a1,1,0,0,1-2,0V19H21v2a1,1,0,0,1-2,0V19H16V32a2,2,0,0,0,2,2H30a2,2,0,0,0,2-2V19Zm-5-7a3,3,0,0,0-3,3v2h6V15A3,3,0,0,0,24,12Zm5,7v2a1,1,0,0,1-2,0V19H21v2a1,1,0,0,1-2,0V19H16V32a2,2,0,0,0,2,2H30a2,2,0,0,0,2-2V19Z"/><path d="M24,1a23,23,0,0,0,0,46c6,0,12.06-2.66,14.85-5.45C55.07,28,45.52,1,24,1Zm0,42A19,19,0,1,1,43,24,19,19,0,0,1,24,43Z"/><path d="M45,42l-2.91,2.91L40.2,43a23.25,23.25,0,0,0,2.91-2.91Z"/></g></svg>