<svg xmlns="http://www.w3.org/2000/svg" viewBox="0 0 64 64"><title>Gift</title><g id="Gift"><rect x="3" y="15" width="21" height="11"/><rect x="26" y="15" width="12" height="11"/><rect x="40" y="15" width="7" height="11"/><rect x="49" y="15" width="12" height="11"/><rect x="5" y="28" width="21" height="35"/><rect x="28" y="28" width="8" height="35"/><polygon points="53 35.54 53 48 43 48 43 35.54 48 32.2 53 35.54"/><path d="M49,28v2.47l5.55,3.7c.64.41.45-.21.45,14.83a1,1,0,0,1-1,1H42a1,1,0,0,1-1-1V35c0-.72,0-.54,6-4.53V28H38V63H59V28Z"/><path d="M28.4,8.52a4.54,4.54,0,0,0-2.26,2.87,11.37,11.37,0,0,0-9-4.39A4.06,4.06,0,0,0,13,11a4.06,4.06,0,0,0,4.11,4H16A7,7,0,0,1,16,1,14,14,0,0,1,28.4,8.52Z"/><path d="M55,8a7,7,0,0,1-6,6.92.93.93,0,0,0-.12-.41,4,4,0,0,0-2-7.51,11.37,11.37,0,0,0-9,4.39A4.54,4.54,0,0,0,35.6,8.52,14,14,0,0,1,48,1,7,7,0,0,1,55,8Z"/><path d="M30.5,10h3A2.5,2.5,0,0,1,36,12.5V13a0,0,0,0,1,0,0H28a0,0,0,0,1,0,0v-.5A2.5,2.5,0,0,1,30.5,10Z"/></g></svg>