<svg xmlns="http://www.w3.org/2000/svg" viewBox="0 0 64 64"><title>Guarantee</title><g id="Guarantee"><path d="M32,16A13,13,0,1,0,45,29,13,13,0,0,0,32,16Zm7.71,9.21C30,34.93,30.6,34.5,30,34.5s-.36.06-5.71-5.29a1,1,0,0,1,1.42-1.42L30,32.09l8.29-8.3A1,1,0,0,1,39.71,25.21Z"/><path d="M32,7.3a83.41,83.41,0,0,1-20,3.57V27.8A30.5,30.5,0,0,0,32,56.67,30.5,30.5,0,0,0,52,27.8V10.87A83.5,83.5,0,0,1,32,7.3ZM32,44A15,15,0,1,1,47,29,15,15,0,0,1,32,44Z"/><path d="M32,1A78.28,78.28,0,0,1,6,5V27.8A36.84,36.84,0,0,0,32,63,36.84,36.84,0,0,0,58,27.8V5A78.42,78.42,0,0,1,32,1ZM54,27.8A32.47,32.47,0,0,1,32.34,58.67a1,1,0,0,1-.68,0A32.47,32.47,0,0,1,10,27.8V9.92a1,1,0,0,1,1-1C24.62,8.32,31.24,5,32.3,5.3A82.19,82.19,0,0,0,53,8.92a1,1,0,0,1,1,1Z"/></g></svg>