<svg xmlns="http://www.w3.org/2000/svg" viewBox="0 0 64 64"><title>Hanger Fashion</title><g id="Hanger_Fashion" data-name="Hanger Fashion"><path d="M26,17a3.5,3.5,0,0,0,3.23-2.15,3,3,0,1,1,3.92,3.92A3.49,3.49,0,0,0,31,22v1c.19,0,1.74,0,2,0,0-1-.11-2,.92-2.39a5,5,0,1,0-6.54-6.54A1.48,1.48,0,0,1,26,15,1,1,0,0,0,26,17Z"/><path d="M59.19,40.63C54.62,38.88,41.79,33,39.28,28.79A7.83,7.83,0,0,0,32.58,25H31.42a7.83,7.83,0,0,0-6.7,3.79C22.21,33,9.38,38.88,4.81,40.63A6,6,0,0,0,1,46.22V49L32,31,63,49V46.22A6,6,0,0,0,59.19,40.63Z"/><polygon points="48 47 48 46 44 46 44 52 48 52 48 49 59.02 49 55.58 47 48 47"/><polygon points="4.98 49 14 49 14 47 8.42 47 4.98 49"/><polygon points="20 46 16 46 16 52 20 52 20 49 42 49 42 47 20 47 20 46"/></g></svg>