<svg xmlns="http://www.w3.org/2000/svg" viewBox="0 0 64 64"><title>Hot Sale</title><g id="Hot_Sale" data-name="Hot Sale"><circle cx="26" cy="34" r="2"/><path d="M32,25A15,15,0,1,0,47,40,15,15,0,0,0,32,25ZM22,34a4,4,0,1,1,4,4A4,4,0,0,1,22,34Zm3.79,15.61a1,1,0,0,1-1.58-1.22l14-18a1,1,0,0,1,1.58,1.22ZM38,50a4,4,0,1,1,4-4A4,4,0,0,1,38,50Zm0-6a2,2,0,1,0,2,2A2,2,0,0,0,38,44Z"/><path d="M32,1V12c0,8.12-10.76,11.05-14.88,4.08C12.22,22.58,8,30.61,8,39a24,24,0,0,0,48,0C56,19,32,1,32,1Zm0,56A17,17,0,1,1,49,40,17,17,0,0,1,32,57Z"/></g></svg>