<svg xmlns="http://www.w3.org/2000/svg" viewBox="0 0 64 64"><title>Marketing</title><g id="Marketing"><rect x="8" y="19" width="14" height="20"/><path d="M6,21V37H5a4,4,0,0,1-4-4V25a4,4,0,0,1,4-4Z"/><path d="M49,8V50a32.4,32.4,0,0,0-10.25-9C34.28,38.6,29.24,38.06,24,38V20C33.91,19.73,43.11,15.72,49,8Z"/><path d="M54,57a3,3,0,0,1-3-3V4a3,3,0,0,1,6,0V54A3,3,0,0,1,54,57Z"/><polygon points="63 25 63 33 59 34.33 59 23.67 63 25"/><path d="M26,60v3H16.54a3,3,0,0,1-3-2.51L10.33,41h10L23,57A3,3,0,0,1,26,60Z"/><path d="M19,24H11a1,1,0,0,1,0-2h8A1,1,0,0,1,19,24Z"/><path d="M19,28H11a1,1,0,0,1,0-2h8A1,1,0,0,1,19,28Z"/><path d="M19,32H11a1,1,0,0,1,0-2h8A1,1,0,0,1,19,32Z"/><path d="M19,36H11a1,1,0,0,1,0-2h8A1,1,0,0,1,19,36Z"/></g></svg>