<svg xmlns="http://www.w3.org/2000/svg" viewBox="0 0 64 64"><title>Mobile Payment</title><g id="Mobile_Payment" data-name="Mobile Payment"><path d="M21,27V49a5,5,0,0,0,5,5H36v4H6V6h6.17a3,3,0,0,0,.7,1.11C14,8.3,14,8,27,8a3,3,0,0,0,2.83-2H36V22H26A5,5,0,0,0,21,27Z"/><path d="M41,22V5a4,4,0,0,0-4-4H5A4,4,0,0,0,1,5V59a4,4,0,0,0,4,4H37a4,4,0,0,0,4-4V54H38v5a1,1,0,0,1-1,1H5a1,1,0,0,1-1-1V5A1,1,0,0,1,5,4h8a1,1,0,0,1,1,1,1,1,0,0,0,1,1H27a1,1,0,0,0,1-1,1,1,0,0,1,1-1h8a1,1,0,0,1,1,1V22ZM17,5a1,1,0,0,1,0-2A1,1,0,0,1,17,5Zm8,0a1,1,0,0,1,0-2A1,1,0,0,1,25,5Z"/><rect x="29" y="30" width="4" height="2"/><path d="M55.5,43a1.46,1.46,0,0,0-1.22.64A1.5,1.5,0,1,0,55.5,43Zm0,0a1.46,1.46,0,0,0-1.22.64A1.5,1.5,0,1,0,55.5,43Zm-3.25.21a1.5,1.5,0,1,0,0,2.58A3.39,3.39,0,0,1,52.25,43.21ZM60,24H26a3,3,0,0,0-3,3V49a3,3,0,0,0,3,3H60a3,3,0,0,0,3-3V27A3,3,0,0,0,60,24ZM32,39H27a1,1,0,0,1,0-2h5A1,1,0,0,1,32,39Zm2-5H28a1,1,0,0,1-1-1V29a1,1,0,0,1,1-1h6a1,1,0,0,1,1,1v4A1,1,0,0,1,34,34Zm7,5H36a1,1,0,0,1,0-2h5A1,1,0,0,1,41,39Zm4-2h5a1,1,0,0,1,0,2H45A1,1,0,0,1,45,37Zm8.5,10.36a3.49,3.49,0,1,1,0-5.72,3.49,3.49,0,1,1,0,5.72ZM59,39H54a1,1,0,0,1,0-2h5A1,1,0,0,1,59,39Zm-3.5,4a1.46,1.46,0,0,0-1.22.64A1.5,1.5,0,1,0,55.5,43Zm-3.25.21a1.5,1.5,0,1,0,0,2.58A3.39,3.39,0,0,1,52.25,43.21Z"/></g></svg>