<svg xmlns="http://www.w3.org/2000/svg" viewBox="0 0 64 64"><title>Mobile E commerce</title><g id="Mobile_E_commerce" data-name="Mobile E commerce"><path d="M29,32v2a1,1,0,0,1-2,0V32H24V45a2,2,0,0,0,2,2H38a2,2,0,0,0,2-2V32Zm3-7a3,3,0,0,0-3,3v2h6V28A3,3,0,0,0,32,25Zm-3,7v2a1,1,0,0,1-2,0V32H24V45a2,2,0,0,0,2,2H38a2,2,0,0,0,2-2V32Zm3-7a3,3,0,0,0-3,3v2h6V28A3,3,0,0,0,32,25Zm0,0a3,3,0,0,0-3,3v2h6V28A3,3,0,0,0,32,25Zm-3,7v2a1,1,0,0,1-2,0V32H24V45a2,2,0,0,0,2,2H38a2,2,0,0,0,2-2V32Zm0,0v2a1,1,0,0,1-2,0V32H24V45a2,2,0,0,0,2,2H38a2,2,0,0,0,2-2V32Zm3-7a3,3,0,0,0-3,3v2h6V28A3,3,0,0,0,32,25Zm0,0a3,3,0,0,0-3,3v2h6V28A3,3,0,0,0,32,25Zm-3,7v2a1,1,0,0,1-2,0V32H24V45a2,2,0,0,0,2,2H38a2,2,0,0,0,2-2V32Zm0,0v2a1,1,0,0,1-2,0V32H24V45a2,2,0,0,0,2,2H38a2,2,0,0,0,2-2V32Zm3-7a3,3,0,0,0-3,3v2h6V28A3,3,0,0,0,32,25Zm0,0a3,3,0,0,0-3,3v2h6V28A3,3,0,0,0,32,25Zm-3,7v2a1,1,0,0,1-2,0V32H24V45a2,2,0,0,0,2,2H38a2,2,0,0,0,2-2V32Zm0,0v2a1,1,0,0,1-2,0V32H24V45a2,2,0,0,0,2,2H38a2,2,0,0,0,2-2V32Zm3-7a3,3,0,0,0-3,3v2h6V28A3,3,0,0,0,32,25Zm0,0a3,3,0,0,0-3,3v2h6V28A3,3,0,0,0,32,25Zm-3,7v2a1,1,0,0,1-2,0V32H24V45a2,2,0,0,0,2,2H38a2,2,0,0,0,2-2V32Zm0,0v2a1,1,0,0,1-2,0V32H24V45a2,2,0,0,0,2,2H38a2,2,0,0,0,2-2V32Zm3-7a3,3,0,0,0-3,3v2h6V28A3,3,0,0,0,32,25Zm0,0a3,3,0,0,0-3,3v2h6V28A3,3,0,0,0,32,25Zm-3,7v2a1,1,0,0,1-2,0V32H24V45a2,2,0,0,0,2,2H38a2,2,0,0,0,2-2V32Zm0,0v2a1,1,0,0,1-2,0V32H24V45a2,2,0,0,0,2,2H38a2,2,0,0,0,2-2V32Zm6-4a3,3,0,0,0-6,0v2h6Zm2-9.69a6,6,0,0,1-10,0,6,6,0,0,1-10,0V54H47V18.31A6,6,0,0,1,37,18.31ZM42,45a4,4,0,0,1-4,4H26a4,4,0,0,1-4-4V31a1,1,0,0,1,1-1h4V28a5,5,0,0,1,10,0v2h4a1,1,0,0,1,1,1ZM29,34a1,1,0,0,1-2,0V32H24V45a2,2,0,0,0,2,2H38a2,2,0,0,0,2-2V32H29Zm6-6a3,3,0,0,0-6,0v2h6Zm-3-3a3,3,0,0,0-3,3v2h6V28A3,3,0,0,0,32,25Zm-3,7v2a1,1,0,0,1-2,0V32H24V45a2,2,0,0,0,2,2H38a2,2,0,0,0,2-2V32Zm0,0v2a1,1,0,0,1-2,0V32H24V45a2,2,0,0,0,2,2H38a2,2,0,0,0,2-2V32Zm3-7a3,3,0,0,0-3,3v2h6V28A3,3,0,0,0,32,25Zm0,0a3,3,0,0,0-3,3v2h6V28A3,3,0,0,0,32,25Zm-3,7v2a1,1,0,0,1-2,0V32H24V45a2,2,0,0,0,2,2H38a2,2,0,0,0,2-2V32Zm0,0v2a1,1,0,0,1-2,0V32H24V45a2,2,0,0,0,2,2H38a2,2,0,0,0,2-2V32Zm3-7a3,3,0,0,0-3,3v2h6V28A3,3,0,0,0,32,25Zm0,0a3,3,0,0,0-3,3v2h6V28A3,3,0,0,0,32,25Zm-3,7v2a1,1,0,0,1-2,0V32H24V45a2,2,0,0,0,2,2H38a2,2,0,0,0,2-2V32Zm0,0v2a1,1,0,0,1-2,0V32H24V45a2,2,0,0,0,2,2H38a2,2,0,0,0,2-2V32Zm3-7a3,3,0,0,0-3,3v2h6V28A3,3,0,0,0,32,25Zm17-4.82V55a1,1,0,0,1-1,1H16a1,1,0,0,1-1-1V20.18A5.77,5.77,0,0,1,12,21V59a4,4,0,0,0,4,4H48a4,4,0,0,0,4-4V21A5.77,5.77,0,0,1,49,20.18ZM32,61a2,2,0,1,1,2-2A2,2,0,0,1,32,61Zm0-36a3,3,0,0,0-3,3v2h6V28A3,3,0,0,0,32,25Zm-3,7v2a1,1,0,0,1-2,0V32H24V45a2,2,0,0,0,2,2H38a2,2,0,0,0,2-2V32Zm0,0v2a1,1,0,0,1-2,0V32H24V45a2,2,0,0,0,2,2H38a2,2,0,0,0,2-2V32Zm3-7a3,3,0,0,0-3,3v2h6V28A3,3,0,0,0,32,25Zm0,0a3,3,0,0,0-3,3v2h6V28A3,3,0,0,0,32,25Zm-3,7v2a1,1,0,0,1-2,0V32H24V45a2,2,0,0,0,2,2H38a2,2,0,0,0,2-2V32Zm0,0v2a1,1,0,0,1-2,0V32H24V45a2,2,0,0,0,2,2H38a2,2,0,0,0,2-2V32Zm3-7a3,3,0,0,0-3,3v2h6V28A3,3,0,0,0,32,25Zm-3,7v2a1,1,0,0,1-2,0V32H24V45a2,2,0,0,0,2,2H38a2,2,0,0,0,2-2V32Z"/><path d="M37,32v2a1,1,0,0,1-2,0V32Z"/><path d="M26,15a4,4,0,0,1-8,0Z"/><path d="M36,15a4,4,0,0,1-8,0Z"/><path d="M46,15a4,4,0,0,1-8,0Z"/><path d="M56,15a4,4,0,1,1-8,0Z"/><path d="M55.21,13H47.74c-2-6.6-1.25-5.07-3.39-12h4.09Z"/><path d="M45.65,13H37.93c-.52-6.6-.32-5.07-.85-12h5.18C44.29,7.6,43.51,6.07,45.65,13Z"/><path d="M35.92,13H28.08c.5-6.6.31-5.07.85-12h6.14C35.59,7.6,35.39,6.07,35.92,13Z"/><path d="M26.92,1c-.5,6.6-.31,5.07-.85,12H18.35c2-6.6,1.26-5.08,3.39-12Z"/><path d="M19.65,1c-2,6.6-1.26,5.08-3.39,12H8.79L15.56,1Z"/><path d="M16,15a4,4,0,0,1-8,0Z"/></g></svg>