<svg xmlns="http://www.w3.org/2000/svg" viewBox="0 0 64 64"><title>New Product</title><g id="New_Product" data-name="New Product"><path d="M32,11A21,21,0,1,0,53,32,21,21,0,0,0,32,11ZM16,27a1,1,0,0,1,1.86-.51L22,33.39V27a1,1,0,0,1,2,0V37a1,1,0,0,1-1.86.51L18,30.61V37a1,1,0,0,1-2,0Zm16,4a1,1,0,0,1,0,2H28v3h5a1,1,0,0,1,0,2H27a1,1,0,0,1-1-1V27a1,1,0,0,1,1-1h6a1,1,0,0,1,0,2H28v3Zm16-3.8-2,10a1,1,0,0,1-1.88.24L42,33.12l-2.1,4.32A1,1,0,0,1,38,37.2l-2-10a1,1,0,0,1,2-.4l1.42,7.09,1.7-3.49a1,1,0,0,1,1.8,0l1.7,3.49L46,26.8A1,1,0,0,1,48,27.2ZM47,24H17a1,1,0,0,1,0-2H47A1,1,0,0,1,47,24Z"/><path d="M63,32c0-2.68-2.53-5-3.19-7.45s.33-5.82-1-8-4.65-3-6.5-4.85-2.58-5.19-4.85-6.5-5.49-.28-8-1S34.68,1,32,1s-5,2.53-7.45,3.19-5.82-.33-8,1-3,4.65-4.85,6.5-5.19,2.58-6.5,4.85-.28,5.49-1,8.05S1,29.32,1,32s2.53,5,3.19,7.45-.33,5.82,1,8,4.65,3,6.5,4.85,2.58,5.19,4.85,6.5,5.49.28,8.05,1S29.32,63,32,63s5-2.53,7.45-3.19,5.82.33,8-1,3-4.65,4.85-6.5,5.19-2.58,6.5-4.85.28-5.49,1-8S63,34.68,63,32ZM32,55A23,23,0,1,1,55,32,23,23,0,0,1,32,55Z"/></g></svg>