<svg xmlns="http://www.w3.org/2000/svg" viewBox="0 0 64 64"><title>News Letter</title><g id="News_Letter" data-name="News Letter"><path d="M63,27V63H1V27c11.52,8.93,4.63,3.59,31,24Z"/><polygon points="61.37 25.73 56 29.89 56 21.58 61.37 25.73"/><polygon points="8 21.58 8 29.89 2.63 25.73 8 21.58"/><path d="M32,11a3,3,0,0,0-3,3v2h6V14A3,3,0,0,0,32,11Zm0,0a3,3,0,0,0-3,3v2h6V14A3,3,0,0,0,32,11Zm5,7v2a1,1,0,0,1-2,0V18H29v2a1,1,0,0,1-2,0V18H24V31a2,2,0,0,0,2,2H38a2,2,0,0,0,2-2V18Zm0,0v2a1,1,0,0,1-2,0V18H29v2a1,1,0,0,1-2,0V18H24V31a2,2,0,0,0,2,2H38a2,2,0,0,0,2-2V18Zm-2-4a3,3,0,0,0-6,0v2h6ZM10,1V31.44l22,17,22-17V1ZM42,31a4,4,0,0,1-4,4H26a4,4,0,0,1-4-4V17a1,1,0,0,1,1-1h4V14a5,5,0,0,1,10,0v2h4a1,1,0,0,1,1,1ZM37,20a1,1,0,0,1-2,0V18H29v2a1,1,0,0,1-2,0V18H24V31a2,2,0,0,0,2,2H38a2,2,0,0,0,2-2V18H37Zm-2-6a3,3,0,0,0-6,0v2h6Zm-3-3a3,3,0,0,0-3,3v2h6V14A3,3,0,0,0,32,11Zm5,7v2a1,1,0,0,1-2,0V18H29v2a1,1,0,0,1-2,0V18H24V31a2,2,0,0,0,2,2H38a2,2,0,0,0,2-2V18Zm-5-7a3,3,0,0,0-3,3v2h6V14A3,3,0,0,0,32,11Zm5,7v2a1,1,0,0,1-2,0V18H29v2a1,1,0,0,1-2,0V18H24V31a2,2,0,0,0,2,2H38a2,2,0,0,0,2-2V18Z"/></g></svg>