<svg xmlns="http://www.w3.org/2000/svg" viewBox="0 0 64 64"><title>Pay Later</title><g id="Pay_Later" data-name="Pay Later"><path d="M45,32a8,8,0,0,1,8-8h8V13a2,2,0,0,0-2-2H13A5.93,5.93,0,0,1,9,9.46V40h8a3,3,0,0,1,6,0h4V53H59a2,2,0,0,0,2-2V40H53A8,8,0,0,1,45,32Z"/><path d="M13,9H57V3a2,2,0,0,0-2-2H13a4,4,0,0,0,0,8Z"/><path d="M53,31a1,1,0,0,0,0,2A1,1,0,0,0,53,31Z"/><path d="M53,26a6,6,0,0,0-4.24,10.24A5.94,5.94,0,0,0,53,38H63V26Zm0,9a3,3,0,1,1,3-3A3,3,0,0,1,53,35Z"/><path d="M1,63H25V49H1ZM18,51h2a1,1,0,0,1,0,2H18A1,1,0,0,1,18,51Zm0,4h2a1,1,0,0,1,0,2H18A1,1,0,0,1,18,55Zm-6-4h2a1,1,0,0,1,0,2H12A1,1,0,0,1,12,51Zm0,4h2a1,1,0,0,1,0,2H12A1,1,0,0,1,12,55Zm0,4h2a1,1,0,0,1,0,2H12A1,1,0,0,1,12,59ZM6,55H8a1,1,0,0,1,0,2H6A1,1,0,0,1,6,55Zm0,4H8a1,1,0,0,1,0,2H6A1,1,0,0,1,6,59Z"/><path d="M21,40a1,1,0,0,0-2,0v4a1,1,0,0,1-2,0V42H7V40a1,1,0,0,0-2,0v4a1,1,0,0,1-2,0V42H1v5H25V42H21Z"/></g></svg>