<svg xmlns="http://www.w3.org/2000/svg" viewBox="0 0 64 64"><title>Paypal</title><g id="Paypal"><path d="M44.11,24.57C47.46,28.23,46.63,33.7,43,36.8c-4.93,4.19-11.37.74-11.7,3.05L29.91,49h-5c.58-3.72.09-.54,2.35-15h5.78A11.18,11.18,0,0,0,44.11,24.57Z"/><path d="M34.23,15H22.62L17.93,45h5.61l1.9-12.16a1,1,0,0,1,1-.84h6.64a9.16,9.16,0,0,0,9.17-9.44A8,8,0,0,0,34.23,15ZM60,7H4a3,3,0,0,0-3,3V54a3,3,0,0,0,3,3H60a3,3,0,0,0,3-3V10A3,3,0,0,0,60,7ZM44.34,38.32C40.62,41.48,37,41,33.18,41l-1.43,9.15a1,1,0,0,1-1,.85c-7.42,0-7.34.14-7.76-.35s-.25-.6.22-3.65c-6.8,0-6.8.14-7.22-.35s-.69,2.18,4.78-32.8a1,1,0,0,1,1-.85H34.23a10,10,0,0,1,10,9C49.56,26,49.52,33.86,44.34,38.32ZM34.23,15H22.62L17.93,45h5.61l1.9-12.16a1,1,0,0,1,1-.84h6.64a9.16,9.16,0,0,0,9.17-9.44A8,8,0,0,0,34.23,15Z"/><path d="M41.72,29.9a10.27,10.27,0,0,0,1.1-1.62A11.84,11.84,0,0,1,41.72,29.9Z"/></g></svg>