<svg xmlns="http://www.w3.org/2000/svg" viewBox="0 0 64 64"><title>Preorder</title><g id="Preorder"><path d="M38,21.8c3.38-2.27,2.58-2.26,5-.67V16H33v5.13C35.38,19.53,34.57,19.53,38,21.8Z"/><path d="M45,16c0,7.63.18,7.52-.53,7.88s-.94,0-3.48-1.68l-2.43,1.63c-.69.47-.93.12-3.57-1.63-2.2,1.48-2.74,2.09-3.46,1.68S31,23.33,31,16H13V40h4a3,3,0,0,1,6,0h4V55H63V16ZM58,52H50a1,1,0,0,1,0-2h8A1,1,0,0,1,58,52Zm0-4H50a1,1,0,0,1,0-2h8A1,1,0,0,1,58,48Z"/><path d="M1,63H25V49H1ZM18,51h2a1,1,0,0,1,0,2H18A1,1,0,0,1,18,51Zm0,4h2a1,1,0,0,1,0,2H18A1,1,0,0,1,18,55Zm-6-4h2a1,1,0,0,1,0,2H12A1,1,0,0,1,12,51Zm0,4h2a1,1,0,0,1,0,2H12A1,1,0,0,1,12,55Zm0,4h2a1,1,0,0,1,0,2H12A1,1,0,0,1,12,59ZM6,55H8a1,1,0,0,1,0,2H6A1,1,0,0,1,6,55Zm0,4H8a1,1,0,0,1,0,2H6A1,1,0,0,1,6,59Z"/><path d="M21,40a1,1,0,0,0-2,0v4a1,1,0,0,1-2,0V42H7V40a1,1,0,0,0-2,0v4a1,1,0,0,1-2,0V42H1v5H25V42H21Z"/><polygon points="32.91 1 21 1 13.57 14 31.13 14 32.91 1"/><path d="M41.09,1.14c0-.2.74-.14-6.17-.14,0,.1.13-.86-1.77,13h9.7Z"/><polygon points="62.43 14 55 1 43.09 1 44.87 14 62.43 14"/></g></svg>