<svg xmlns="http://www.w3.org/2000/svg" viewBox="0 0 64 64"><title>Price Tag</title><g id="Price_Tag" data-name="Price Tag"><circle cx="38" cy="50" r="2"/><path d="M38.33,14.79c-.59-.49-.37.05.71-1.54a8.49,8.49,0,1,0-13.1,1.19,5.77,5.77,0,0,0,4.2,2.5c.24,0,.14,0,.27-.14A2,2,0,1,1,30.26,19c0-.1-3.55-.18-5.67-2.94L15,25V63H50V25ZM32.05,11a5.36,5.36,0,0,0-3.94,1.76c-.62.58-.47.55-.74.28a6.49,6.49,0,1,1,9.26,0c-.17.17,0,.25-.69-.35A5.47,5.47,0,0,0,32.05,11ZM22,38a4,4,0,1,1,4,4A4,4,0,0,1,22,38Zm3,16a1,1,0,0,1-.79-1.61l14-18a1,1,0,0,1,1.58,1.22C24.57,55.18,25.69,54,25,54Zm13,0a4,4,0,1,1,4-4A4,4,0,0,1,38,54Z"/><circle cx="26" cy="38" r="2"/></g></svg>