<svg xmlns="http://www.w3.org/2000/svg" viewBox="0 0 64 64"><title>Product</title><g id="Product"><path d="M39,18c0,7.63.18,7.52-.53,7.88s-1,0-3.46-1.68c-3.58,2.37-2.47,2.37-6,0-2.51,1.67-2.79,2.05-3.48,1.68S25,25.33,25,18H3V63H61V18Zm4.29,31.29c3-3,2.31-3.11,5.42,0a1,1,0,0,1-1.42,1.42c-.39-.39-.29-1-.29,3.29a1,1,0,0,1-2,0V50.42l-.29.29A1,1,0,0,1,43.29,49.29ZM56,59H44a1,1,0,0,1,0-2H56A1,1,0,0,1,56,59Zm-.71-8.29c-.39-.39-.29-1-.29,3.29a1,1,0,0,1-2,0V50.42l-.29.29a1,1,0,0,1-1.42-1.42c3-3,2.31-3.11,5.42,0A1,1,0,0,1,55.29,50.71ZM27,18v5.13c2.4-1.58,1.57-1.63,5,.67,3.45-2.29,2.63-2.26,5-.67V18Z"/><polygon points="27.47 1 25.14 16 3.75 16 15 1 27.47 1"/><path d="M36.83,16H27.17l2.3-14.85c0-.22-.61-.15,5.05-.15C34.52,1.13,34.35,0,36.83,16Z"/><polygon points="60.25 16 38.86 16 36.53 1 49 1 60.25 16"/></g></svg>