<svg xmlns="http://www.w3.org/2000/svg" viewBox="0 0 64 64"><title>QR code</title><g id="QR_code" data-name="QR code"><path d="M1,14V2A1,1,0,0,1,2,1H14a1,1,0,0,1,0,2H3V14A1,1,0,0,1,1,14Z"/><path d="M62,63H50a1,1,0,0,1,0-2H61V50a1,1,0,0,1,2,0V62A1,1,0,0,1,62,63Z"/><path d="M61,14V3H50a1,1,0,0,1,0-2H62a1,1,0,0,1,1,1V14A1,1,0,0,1,61,14Z"/><path d="M14,63H2a1,1,0,0,1-1-1V50a1,1,0,0,1,2,0V61H14A1,1,0,0,1,14,63Z"/><path d="M63,33H1a1,1,0,0,1,0-2H63A1,1,0,0,1,63,33Z"/><rect x="14" y="14" width="6" height="6"/><path d="M8,8V26H26V8ZM22,21a1,1,0,0,1-1,1H13a1,1,0,0,1-1-1V13a1,1,0,0,1,1-1h8a1,1,0,0,1,1,1Z"/><rect x="44" y="14" width="6" height="6"/><path d="M38,8V26H56V8ZM52,21a1,1,0,0,1-1,1H43a1,1,0,0,1-1-1V13a1,1,0,0,1,1-1h8a1,1,0,0,1,1,1Z"/><rect x="14" y="44" width="6" height="6"/><path d="M8,38V56H26V38ZM22,51a1,1,0,0,1-1,1H13a1,1,0,0,1-1-1V43a1,1,0,0,1,1-1h8a1,1,0,0,1,1,1Z"/><rect x="38" y="38" width="6" height="6"/><rect x="52" y="38" width="4" height="4"/><rect x="45" y="45" width="4" height="4"/><rect x="38" y="52" width="4" height="4"/><rect x="50" y="50" width="6" height="6"/><path d="M31,56V36a1,1,0,0,1,2,0V56A1,1,0,0,1,31,56Z"/><path d="M31,28V8a1,1,0,0,1,2,0V28A1,1,0,0,1,31,28Z"/></g></svg>