<svg xmlns="http://www.w3.org/2000/svg" viewBox="0 0 64 64"><title>Receive Product</title><g id="Receive_Product" data-name="Receive Product"><path d="M39,7.53V1h8V7.52c-1.82-.73-1.11-.75-4,.4C40.13,6.77,40.84,6.79,39,7.53Z"/><path d="M49,1c0,8.73.16,8.41-.44,8.83s-1.12,0-3.05-.75c-3,1.2-2,1.2-5,0-2.29.91-2.51,1.12-3.07.75S37,9.69,37,1H23V37H63V1Zm9,32H52a1,1,0,0,1,0-2h6A1,1,0,0,1,58,33Zm0-4H52a1,1,0,0,1,0-2h6A1,1,0,0,1,58,29Z"/><path d="M63,40.92a3.8,3.8,0,0,1-1.2,2.77L50.2,54.57A9,9,0,0,1,44.05,57H12c-.36,0,.5-.36-11,5.32V44.8L10.22,43c.76-.21,3.46-4,9.44-4h6a6.93,6.93,0,0,1,6.45,4.37c.34.86.38.63,8.93.63,3.85,0,5.06,5,3,5H27a1,1,0,0,0,0,2H44a6.43,6.43,0,0,0,4.17-1.54l11.66-10A1.93,1.93,0,0,1,63,40.92Z"/></g></svg>