<svg xmlns="http://www.w3.org/2000/svg" viewBox="0 0 64 64"><title>Sold</title><g id="Sold"><path d="M53,49V43a3,3,0,0,0-3-3H47V52h3A3,3,0,0,0,53,49Z"/><path d="M26,52a3,3,0,0,0,3-3V43a3,3,0,0,0-6,0v6A3,3,0,0,0,26,52Z"/><path d="M6,58H58V34H6ZM45,39a1,1,0,0,1,1-1h4a5,5,0,0,1,5,5v6a5,5,0,0,1-5,5H46a1,1,0,0,1-1-1ZM33,39a1,1,0,0,1,2,0V52h7a1,1,0,0,1,0,2H34a1,1,0,0,1-1-1ZM21,43a5,5,0,0,1,10,0v6a5,5,0,0,1-10,0Zm-6.5,4h-1a4.5,4.5,0,0,1,0-9H18a1,1,0,0,1,0,2H13.5a2.5,2.5,0,0,0,0,5h1a4.5,4.5,0,0,1,0,9H10a1,1,0,0,1,0-2h4.5a2.5,2.5,0,0,0,0-5Z"/><path d="M1,29V63H63V29ZM60,59a1,1,0,0,1-1,1H5a1,1,0,0,1-1-1V33a1,1,0,0,1,1-1H59a1,1,0,0,1,1,1Z"/><path d="M58.36,27,35.48,5A3.89,3.89,0,0,1,34.1,6.4L55.49,27Z"/><path d="M29.9,6.4A3.89,3.89,0,0,1,28.52,5L5.64,27H8.51Z"/><circle cx="32" cy="3" r="2"/></g></svg>