<svg xmlns="http://www.w3.org/2000/svg" viewBox="0 0 64 64"><title>Stock Product</title><g id="Stock_Product" data-name="Stock Product"><path d="M19,33v5.38c-1.22-.61-.91-.55-3,.5-2.19-1.1-1.85-1.09-3-.49V33Z"/><path d="M21,33c0,7.64.17,7.46-.48,7.85s-.9.08-2.51-.73c-2.34,1.17-1.67,1.17-4,0-1.65.82-1.94,1.09-2.54.73S11,40.64,11,33H1V63H31V33Zm6,28H23a1,1,0,0,1,0-2h4A1,1,0,0,1,27,61Z"/><path d="M45,38.39V33h6v5.38c-1.2-.6-.89-.56-3,.5C45.81,37.78,46.15,37.79,45,38.39Z"/><path d="M53,33c0,7.64.17,7.46-.48,7.85s-.9.08-2.51-.73c-2.34,1.17-1.67,1.17-4,0-1.65.82-1.94,1.09-2.54.73S43,40.64,43,33H33V63H63V33Zm6,28H55a1,1,0,0,1,0-2h4A1,1,0,0,1,59,61Z"/><path d="M29,1V6.39c1.18-.61.86-.58,3,.49,2.18-1.09,1.83-1.08,3-.5V1Zm8,0c0,7.64.17,7.46-.48,7.85s-.9.08-2.51-.73c-2.34,1.17-1.66,1.17-4,0-1.65.82-1.94,1.09-2.54.73S27,8.64,27,1H17V31H47V1Zm6,28H39a1,1,0,0,1,0-2h4A1,1,0,0,1,43,29Z"/></g></svg>