<svg xmlns="http://www.w3.org/2000/svg" viewBox="0 0 64 64"><title>Store</title><g id="Store"><polygon points="16.65 10 13.26 21 3.79 21 10.56 10 16.65 10"/><path d="M25.92,10c-.35,4.62-.17,2.2-.85,11H15.35l3.39-11Z"/><path d="M36.92,21H27.08c.35-4.62.17-2.2.85-11h8.14C36.75,18.8,36.57,16.38,36.92,21Z"/><path d="M48.65,21H38.93c-.68-8.8-.5-6.38-.85-11h7.18Z"/><polygon points="60.21 21 50.74 21 47.35 10 53.44 10 60.21 21"/><path d="M61,23v1a5,5,0,0,1-9.24,2.65A5.93,5.93,0,0,1,51,23Z"/><path d="M49,23a5.94,5.94,0,0,1-.76,3.65,5,5,0,0,1-8.48,0A5.93,5.93,0,0,1,39,23Z"/><path d="M37,23a5.94,5.94,0,0,1-.76,3.65,5,5,0,0,1-8.48,0A5.93,5.93,0,0,1,27,23Z"/><path d="M25,23a5.94,5.94,0,0,1-.76,3.65,5,5,0,0,1-8.48,0A5.93,5.93,0,0,1,15,23Z"/><path d="M13,23a5.94,5.94,0,0,1-.76,3.65A5,5,0,0,1,3,24V23Z"/><path d="M6,28.59V26.65h6.24A5,5,0,0,1,6,28.59Z"/><path d="M15.76,26.65h8.48A5,5,0,0,1,15.76,26.65Z"/><path d="M27.76,26.65h8.48A5,5,0,0,1,27.76,26.65Z"/><path d="M39.76,26.65h8.48A5,5,0,0,1,39.76,26.65Z"/><path d="M58,26.65v1.94a5,5,0,0,1-6.24-1.94Z"/><path d="M39,36V58H51V36Zm4,12a1,1,0,0,1-2,0V46a1,1,0,0,1,2,0Z"/><rect x="13" y="36" width="19" height="15"/><path d="M50,27.59a7,7,0,0,1-12,0,7,7,0,0,1-12,0,7,7,0,0,1-12,0,7,7,0,0,1-8,3.12V58H37V35a1,1,0,0,1,1-1H52a1,1,0,0,1,1,1V58h5V30.71A7,7,0,0,1,50,27.59ZM34,52a1,1,0,0,1-1,1H12a1,1,0,0,1-1-1V35a1,1,0,0,1,1-1H33a1,1,0,0,1,1,1Z"/><rect x="1" y="60" width="62" height="3"/><rect x="14" y="1" width="36" height="7"/></g></svg>