<svg xmlns="http://www.w3.org/2000/svg" viewBox="0 0 64 64"><title>Unboxing</title><g id="Unboxing"><path d="M37,21c0-7.21,6.76-14,12-14a1,1,0,0,0,0-2c-6.8,0-14,8.22-14,16A1,1,0,0,0,37,21Z"/><path d="M15,10c4.11,0,7.23,1.11,9.28,3.29A11.22,11.22,0,0,1,27,20.93a1,1,0,0,0,2,.14,13.16,13.16,0,0,0-3.24-9.13C23.31,9.33,19.69,8,15,8A1,1,0,0,0,15,10Z"/><path d="M30.78,6.38a1,1,0,0,0-1.56,1.24c.15.19,3.66,4.79,1.8,13.16a1,1,0,0,0,2,.44C35.06,11.86,31,6.59,30.78,6.38Z"/><circle cx="58" cy="6" r="5"/><circle cx="6" cy="9" r="5"/><path d="M24,5h1V6a1,1,0,0,0,2,0V5h1a1,1,0,0,0,0-2H27V2a1,1,0,0,0-2,0V3H24A1,1,0,0,0,24,5Z"/><path d="M48,16V15h1a1,1,0,0,0,0-2H48V12a1,1,0,0,0-2,0v1H45a1,1,0,0,0,0,2h1v1A1,1,0,0,0,48,16Z"/><path d="M15,19h1v1a1,1,0,0,0,2,0V19h1a1,1,0,0,0,0-2H18V16a1,1,0,0,0-2,0v1H15A1,1,0,0,0,15,19Z"/><polygon points="8 40.31 8 58 31 62.79 31 29.47 24.12 43.24 8 40.31"/><polygon points="1 37 23 41 31 25 8 26 1 37"/><polygon points="33 29.47 33 62.79 56 58 56 40.31 39.88 43.24 33 29.47"/><polygon points="33 25 41 41 63 37 56 26 33 25"/></g></svg>