<svg xmlns="http://www.w3.org/2000/svg" viewBox="0 0 64 64"><title>Voucher</title><g id="Voucher"><path d="M27.46,49.35l-1.74-6.49L22.26,45.4l3.13,11.67a8,8,0,1,0,2.07-7.72Zm6.69,9.51A4,4,0,1,1,37,54,4,4,0,0,1,34.15,58.86Z"/><path d="M18.5,35H15.33l.78,2.9C18.76,34.9,18.39,35.4,18.5,35Z"/><path d="M25.25,40.71c2.63-9.78,1-3.68,6.73-25.11a6,6,0,0,0-4.24-7.35c-.49,1.84-7,26.17-7.51,28l-3,3.35c-.43,1.62,0,0-2.61,9.73a8,8,0,1,0,2.07,7.72l3.36-12.55C21.51,43.48,25.1,40.82,25.25,40.71ZM12.87,56A4,4,0,1,1,10,51.13,4,4,0,0,1,12.87,56Z"/><path d="M1,1V33H19c1.31-4.77,1-.62,1-25a1,1,0,0,1,2,0V21.93L26.33,5.8l1.93.52a8,8,0,0,1,5.65,9.8L29.39,33H63V1ZM16,27H6a1,1,0,0,1,0-2H16A1,1,0,0,1,16,27Zm0-6H6a1,1,0,0,1,0-2H16A1,1,0,0,1,16,21Zm0-6H6a1,1,0,0,1,0-2H16A1,1,0,0,1,16,15Zm0-6H6A1,1,0,0,1,6,7H16A1,1,0,0,1,16,9Zm21,2a4,4,0,1,1,4,4A4,4,0,0,1,37,11Zm3,16a1,1,0,0,1-.79-1.61l14-18a1,1,0,0,1,1.58,1.22C39.57,28.18,40.69,27,40,27Zm13,0a4,4,0,1,1,4-4A4,4,0,0,1,53,27Z"/><circle cx="41" cy="11" r="2"/><circle cx="53" cy="23" r="2"/></g></svg>