<svg xmlns="http://www.w3.org/2000/svg" viewBox="0 0 64 64"><title>Worldwide Delivery</title><g id="Worldwide_Delivery" data-name="Worldwide Delivery"><path d="M13.55,5.71C13.37,5.53,23.71-1.48,36.34,2c-1.45,1.72-3.4,2.16-3.4,4,0,1.57,1.76,1.76,3.17,1.92,2.3.27,2.16.34,1.88.93-1.37,2.74-1.37,2.74-5.7,2.74-5.85,0-2.94,7.12-5.38,8.34-2.82,1.4-4.58-2.08-6.85.19s2.46,3.75,3.17,7.46c-2.86-2.47-9-4.79-10-5.82-.48-.47.11-2.39.62-4.09C15.22,13.15,16.1,9.64,13.55,5.71Z"/><path d="M10.06,45.46c-2.11.19-3,.27-3.31.53A27.52,27.52,0,0,1,1.6,34.74a11.18,11.18,0,0,1,6.93,3.2C14.85,44.26,15.51,45,10.06,45.46Z"/><path d="M39,48.18v7A28,28,0,0,1,8.14,47.67c2.68-.38,5.44-.19,6.74-1.49,2.72-2.7-1.19-5.9-4.94-9.65a13.13,13.13,0,0,0-8.46-3.8.72.72,0,0,0-.21,0A27.82,27.82,0,0,1,11.9,6.85c3.95,6.08-3.05,13.3-.08,16.27,1.66,1.64,10.34,4.77,11.18,7.22-2.46,3.22.27,9.26,3.9,11.08,2.6,1.31,1.1,2.11,1.1,7.34C28,52.64,31.66,56,33.72,56c1.11,0,2-1,1.11-2.77C33.62,50.81,36.2,49.57,39,48.18Z"/><path d="M42.82,35.59a19.48,19.48,0,0,1-1,5.41H41a2,2,0,0,0-2,2v2.86c-1.18,1-8,3-6.19,7.76A6.41,6.41,0,0,1,30,48.76c0-4.67,1.79-7.13-2.2-9.12-2.68-1.34-4.86-6.17-3.14-8.17.95-.43,6.08-2.61,8.57-.11C36.58,34.67,42.82,33.62,42.82,35.59Z"/><path d="M56.7,33a28,28,0,0,1-2.41,8H44a20.4,20.4,0,0,0,.87-5.41c0-4.41-7.08-2.56-10.17-5.65-2.67-2.67-7-1.71-9.34-.88.26-4.45-3.1-6.61-3.75-7.67.68-.61,2.91,1.94,6.24.27,3.9-2,.8-8.13,4.49-8.13,5.17,0,5.61-.09,7.49-3.85a2.4,2.4,0,0,0,.13-2.31C39.07,5.8,36.5,6,35.1,5.7c.42-.42,2.79-2,3.22-3.1A27.91,27.91,0,0,1,53.16,14.88c-4.65-1.78-7.53-1.61-8.58.5s-4.17,3.79-3.88,6.25c.39,3.46,7.41,5.65,10.76,6.56,5.08,1.39,1.29.4,4.6,4.49A1,1,0,0,0,56.7,33Z"/><path d="M57,30.47a3.83,3.83,0,0,1-.6-1.47c0-2.89-6.65-2.24-12-5.77-2.44-1.63-2-2.18-.18-4.13a12.48,12.48,0,0,0,2.17-2.83c.52-1.06,3.34-.7,7.16.92a1,1,0,0,0,.85,0A27.86,27.86,0,0,1,57,30.47Z"/><path d="M41.82,45.72a9.46,9.46,0,0,1-.82,1V44.15A1,1,0,0,1,41.82,45.72Z"/><path d="M43.26,43c0,.14-.1.27-.16.4a1,1,0,0,1-1.92-.4Z"/><rect x="50" y="43" width="4" height="4"/><path d="M56,43v5a1,1,0,0,1-1,1H49a1,1,0,0,1-1-1V43H41V63H63V43ZM48,60H45a1,1,0,0,1,0-2h3A1,1,0,0,1,48,60Z"/></g></svg>