<?xml version="1.0" encoding="UTF-8"?><svg width="24px" height="24px" stroke-width="1.96" viewBox="0 0 24 24" fill="none" xmlns="http://www.w3.org/2000/svg" color="#772583"><path d="M8 19a2 2 0 100-4 2 2 0 000 4zM18 19a2 2 0 100-4 2 2 0 000 4z" stroke="#772583" stroke-width="1.96" stroke-miterlimit="1.5" stroke-linecap="round" stroke-linejoin="round"></path><path d="M10.05 17H15V6.6a.6.6 0 00-.6-.6H1M5.65 17H3.6a.6.6 0 01-.6-.6v-4.9" stroke="#772583" stroke-width="1.96" stroke-linecap="round"></path><path d="M2 9h4" stroke="#772583" stroke-width="1.96" stroke-linecap="round" stroke-linejoin="round"></path><path d="M15 9h5.61a.6.6 0 01.548.356l1.79 4.028a.6.6 0 01.052.243V16.4a.6.6 0 01-.6.6h-1.9M15 17h1" stroke="#772583" stroke-width="1.96" stroke-linecap="round"></path></svg>