<svg xmlns="http://www.w3.org/2000/svg" viewBox="0 0 64 64"><title>Store</title><g id="Store"><path d="M63,58H59V30.31A7,7,0,0,0,63,24c0-2.15,0-2.21-.15-2.52C54.22,7.46,54.79,8,54,8H51V1a1,1,0,0,0-1-1H14a1,1,0,0,0-1,1V8c-3.12,0-3.47-.14-3.85.48C.47,22.58,1,21.61,1,22v2a7,7,0,0,0,4,6.31V58H1a1,1,0,0,0-1,1v4a1,1,0,0,0,1,1H63a1,1,0,0,0,1-1V59A1,1,0,0,0,63,58ZM61,24a5,5,0,0,1-10,0V23H61ZM45.26,10l3.39,11H38.93c-.44-5.73-.42-5.46-.85-11Zm-9.19,0c.44,5.73.42,5.46.85,11H27.08c.42-5.47.4-5.18.85-11Zm-11,11H15.35l3.39-11h7.18C25.5,15.47,25.52,15.18,25.07,21ZM15,23H25v1a5,5,0,0,1-10,0Zm12,0H37v1a5,5,0,0,1-10,0Zm12,0H49v1a5,5,0,0,1-10,0Zm21.21-2H50.74L47.35,10h6.09ZM15,2H49V8H15Zm-4.44,8h6.09L13.26,21H3.79ZM3,24V23H13v1A5,5,0,0,1,3,24Zm4,6.92a7,7,0,0,0,7-3.33,7,7,0,0,0,12,0,7,7,0,0,0,12,0,7,7,0,0,0,12,0,7,7,0,0,0,7,3.33V58H53V35a1,1,0,0,0-1-1H38a1,1,0,0,0-1,1V58H7ZM51,58H39V36H51Zm11,4H2V60H62Z"/><path d="M43,48V46a1,1,0,0,0-2,0v2A1,1,0,0,0,43,48Z"/><path d="M33,34H12a1,1,0,0,0-1,1V52a1,1,0,0,0,1,1H33a1,1,0,0,0,1-1V35A1,1,0,0,0,33,34ZM32,51H13V36H32Z"/></g></svg>