<svg xmlns="http://www.w3.org/2000/svg" xmlns:xlink="http://www.w3.org/1999/xlink" viewBox="0 0 64 64"><defs><style>.cls-1{fill:url(#linear-gradient);}.cls-2{fill:#5b8dc9;}.cls-3{fill:url(#linear-gradient-2);}.cls-4{fill:#c7cdd8;}.cls-5{fill:#cf4055;}.cls-6{fill:#f6b756;}.cls-7{fill:#8288a1;}</style><linearGradient id="linear-gradient" x1="26.37" y1="63" x2="26.37" y2="12.26" gradientUnits="userSpaceOnUse"><stop offset="0" stop-color="#7aa8d7"/><stop offset="1" stop-color="#c3d2e7"/></linearGradient><linearGradient id="linear-gradient-2" x1="45" y1="37" x2="45" y2="1" gradientUnits="userSpaceOnUse"><stop offset="0" stop-color="#d4d8e1"/><stop offset="1" stop-color="#f3f4f5"/></linearGradient></defs><title>24 Hour Support</title><g id="_24_Hour_Support" data-name="24 Hour Support"><path class="cls-1" d="M51.15,56.69l-1.52,1.52-1.42,1.42-1.3,1.3c-4.69,4.69-21.13,1.5-33.24-10.6S-1.62,21.78,3.07,17.09l4.24-4.24a2,2,0,0,1,2.83,0l9.9,9.9a2,2,0,0,1,0,2.83L18.52,27.1,17.1,28.52,13,32.65c-1.57,1.56.5,6.17,6.36,12s10.46,7.93,12,6.36l4.13-4.13,1.42-1.42L38.42,44a2,2,0,0,1,2.83,0l9.9,9.9A2,2,0,0,1,51.15,56.69Z"/><path class="cls-2" d="M12.11,33.51c-.82-1.81-.85-3.15-.14-3.86l5.13-5.13,1.42-1.42.94-.93.58.58a2,2,0,0,1,0,2.83L18.52,27.1,17.1,28.52Z"/><path class="cls-2" d="M51.15,56.69l-1.52,1.52-1.42,1.42-1.3,1.3c-4.69,4.69-21.13,1.5-33.24-10.6C4.3,41,.28,29,1.11,21.88,1.79,29,5.89,38.55,13.67,46.33c12.11,12.1,28.55,15.29,33.24,10.6l1.3-1.3,1.42-1.42.94-.93.58.58A2,2,0,0,1,51.15,56.69Z"/><path class="cls-3" d="M45,1A18,18,0,0,0,33.32,32.68L29,37H45A18,18,0,0,0,45,1Z"/><path class="cls-3" d="M45,1A18,18,0,0,0,33.32,32.68L29,37H45A18,18,0,0,0,45,1Z"/><path class="cls-4" d="M63,19A18,18,0,0,1,45,37H29l4.32-4.32A18,18,0,0,1,27,19c0-.36,0-.71,0-1.06C27.58,26.34,35.42,33,45,33s17.42-6.66,18-15.06C63,18.29,63,18.64,63,19Z"/><path class="cls-5" d="M43,22H40.85l1.21-1A5.13,5.13,0,0,0,44,17a3,3,0,0,0-3-3H40a3,3,0,0,0-3,3,1,1,0,0,0,2,0,1,1,0,0,1,1-1h1a1,1,0,0,1,1,1,3.12,3.12,0,0,1-1.19,2.47l-3.43,2.75a1,1,0,0,0-.32,1.11A1,1,0,0,0,38,24h5a1,1,0,0,0,0-2Z"/><path class="cls-5" d="M52,15a1,1,0,0,0-1,1v3H49V15a1,1,0,0,0-2,0v5a1,1,0,0,0,1,1h3v2a1,1,0,0,0,2,0V16A1,1,0,0,0,52,15Z"/><path class="cls-6" d="M45,3.94a1,1,0,0,0-1,1V7a1,1,0,0,0,2,0V4.94A1,1,0,0,0,45,3.94Z"/><path class="cls-6" d="M45,29.94a1,1,0,0,0-1,1V33a1,1,0,0,0,2,0V30.94A1,1,0,0,0,45,29.94Z"/><path class="cls-6" d="M59,18H57a1,1,0,0,0,0,2H59a1,1,0,0,0,0-2Z"/><path class="cls-6" d="M33,18H31a1,1,0,0,0,0,2H33a1,1,0,0,0,0-2Z"/><circle class="cls-7" cx="38" cy="6.88" r="1" transform="translate(21.52 41.8) rotate(-75)"/><path class="cls-7" d="M51.5,30.26a1,1,0,1,0,1,1.73,1,1,0,1,0-1-1.73Z"/><circle class="cls-7" cx="52" cy="6.88" r="1" transform="translate(-0.01 13.69) rotate(-15)"/><path class="cls-7" d="M38.5,30.26a1,1,0,1,0,.37,1.36A1,1,0,0,0,38.5,30.26Z"/><path class="cls-7" d="M57.62,12.87a1,1,0,1,0-1.36-.37A1,1,0,0,0,57.62,12.87Z"/><path class="cls-7" d="M32.38,25.13a1,1,0,1,0,1.36.37A1,1,0,0,0,32.38,25.13Z"/><path class="cls-7" d="M57.62,25.13a1,1,0,0,0-1,1.74,1,1,0,0,0,1-1.74Z"/><path class="cls-7" d="M32.38,12.87a1,1,0,0,0,1-1.74,1,1,0,1,0-1,1.74Z"/><rect class="cls-2" x="41.55" y="43.55" width="2.01" height="18" transform="translate(-24.7 45.49) rotate(-45)"/><rect class="cls-2" x="10.44" y="12.44" width="2.01" height="18" transform="translate(-11.81 14.37) rotate(-45)"/></g></svg>