<svg xmlns="http://www.w3.org/2000/svg" xmlns:xlink="http://www.w3.org/1999/xlink" viewBox="0 0 64 64"><defs><style>.cls-1{fill:url(#linear-gradient);}.cls-2{fill:#cf4055;}.cls-3{fill:url(#linear-gradient-2);}.cls-4{fill:#c7cdd8;}.cls-5{fill:url(#linear-gradient-3);}.cls-6{fill:#cba07a;}</style><linearGradient id="linear-gradient" x1="32" y1="63" x2="32" y2="1" gradientUnits="userSpaceOnUse"><stop offset="0" stop-color="#da5466"/><stop offset="1" stop-color="#f4929c"/></linearGradient><linearGradient id="linear-gradient-2" x1="32" y1="43" x2="32" y2="7" gradientUnits="userSpaceOnUse"><stop offset="0" stop-color="#d4d8e1"/><stop offset="1" stop-color="#f3f4f5"/></linearGradient><linearGradient id="linear-gradient-3" x1="32" y1="36" x2="32" y2="19" gradientUnits="userSpaceOnUse"><stop offset="0" stop-color="#deb895"/><stop offset="1" stop-color="#f2d3b8"/></linearGradient></defs><title>Address</title><g id="Address"><path class="cls-1" d="M56,25c0,20-24,38-24,38S8,45,8,25a24,24,0,0,1,48,0Z"/><path class="cls-2" d="M54.14,35C48.5,50.62,32,63,32,63S15.5,50.62,9.86,35C17.09,48.68,32,59,32,59S46.91,48.68,54.14,35Z"/><circle class="cls-3" cx="32" cy="25" r="18"/><path class="cls-4" d="M50,25c0,.33,0,.67,0,1A18,18,0,0,0,14,26c0-.33,0-.67,0-1a18,18,0,0,1,36,0Z"/><path class="cls-5" d="M23,19H41a0,0,0,0,1,0,0V33a3,3,0,0,1-3,3H26a3,3,0,0,1-3-3V19A0,0,0,0,1,23,19Z"/><path class="cls-6" d="M36,23a1,1,0,0,1-1-1V16a3,3,0,0,0-6,0v6a1,1,0,0,1-2,0V16a5,5,0,0,1,10,0v6A1,1,0,0,1,36,23Z"/></g></svg>