<svg xmlns="http://www.w3.org/2000/svg" xmlns:xlink="http://www.w3.org/1999/xlink" viewBox="0 0 64 64"><defs><style>.cls-1{fill:#8288a1;}.cls-2{fill:url(#linear-gradient);}.cls-3{fill:#5b8dc9;}.cls-4{fill:url(#linear-gradient-3);}.cls-5{fill:url(#linear-gradient-4);}.cls-6{fill:url(#linear-gradient-5);}.cls-7{fill:url(#linear-gradient-6);}.cls-8{fill:url(#linear-gradient-7);}.cls-9{fill:url(#linear-gradient-8);}.cls-10{fill:url(#linear-gradient-9);}.cls-11{fill:url(#linear-gradient-10);}.cls-12{fill:#f6b756;}.cls-13{fill:url(#linear-gradient-11);}.cls-14{fill:#dd8b37;}.cls-15{fill:url(#linear-gradient-12);}</style><linearGradient id="linear-gradient" x1="32" y1="46" x2="32" y2="18" gradientUnits="userSpaceOnUse"><stop offset="0" stop-color="#7aa8d7"/><stop offset="1" stop-color="#c3d2e7"/></linearGradient><linearGradient id="linear-gradient-3" x1="32" y1="11" x2="32" y2="1" gradientUnits="userSpaceOnUse"><stop offset="0" stop-color="#fbcc88"/><stop offset="1" stop-color="#ffe5c3"/></linearGradient><linearGradient id="linear-gradient-4" y1="63" y2="53" xlink:href="#linear-gradient-3"/><linearGradient id="linear-gradient-5" x1="58" y1="37" x2="58" y2="27" xlink:href="#linear-gradient-3"/><linearGradient id="linear-gradient-6" x1="6" y1="37" x2="6" y2="27" xlink:href="#linear-gradient-3"/><linearGradient id="linear-gradient-7" x1="50.38" y1="18.62" x2="50.38" y2="8.62" xlink:href="#linear-gradient-3"/><linearGradient id="linear-gradient-8" x1="13.62" y1="55.38" x2="13.62" y2="45.38" xlink:href="#linear-gradient-3"/><linearGradient id="linear-gradient-9" x1="50.38" y1="55.38" x2="50.38" y2="45.38" xlink:href="#linear-gradient-3"/><linearGradient id="linear-gradient-10" x1="13.62" y1="18.62" x2="13.62" y2="8.62" xlink:href="#linear-gradient-3"/><linearGradient id="linear-gradient-11" x1="32" y1="34" x2="32" y2="22" gradientUnits="userSpaceOnUse"><stop offset="0" stop-color="#e9a254"/><stop offset="1" stop-color="#f4bb79"/></linearGradient><linearGradient id="linear-gradient-12" x1="32" y1="46" x2="32" y2="34" xlink:href="#linear-gradient-11"/></defs><title>Affiliate</title><g id="Affiliate"><path class="cls-1" d="M46.85,47.85a1,1,0,0,1-.71-.29l-29.7-29.7a1,1,0,1,1,1.42-1.42l29.7,29.7a1,1,0,0,1,0,1.42A1,1,0,0,1,46.85,47.85Z"/><path class="cls-1" d="M17.15,47.85a1,1,0,0,1-.71-.29,1,1,0,0,1,0-1.42l29.7-29.7a1,1,0,1,1,1.42,1.42l-29.7,29.7A1,1,0,0,1,17.15,47.85Z"/><path class="cls-1" d="M32,54a1,1,0,0,1-1-1V11a1,1,0,0,1,2,0V53A1,1,0,0,1,32,54Z"/><path class="cls-1" d="M53,33H11a1,1,0,0,1,0-2H53a1,1,0,0,1,0,2Z"/><path class="cls-2" d="M46,32A14,14,0,1,1,32,18,14,14,0,0,1,46,32Z"/><path class="cls-2" d="M46,32A14,14,0,1,1,32,18,14,14,0,0,1,46,32Z"/><path class="cls-3" d="M46,32a14,14,0,0,1-28,0c0-.51,0-1,.08-1.52a14,14,0,0,0,27.84,0C46,31,46,31.49,46,32Z"/><circle class="cls-4" cx="32" cy="6" r="5"/><circle class="cls-5" cx="32" cy="58" r="5"/><circle class="cls-6" cx="58" cy="32" r="5"/><circle class="cls-7" cx="6" cy="32" r="5"/><circle class="cls-8" cx="50.38" cy="13.62" r="5"/><circle class="cls-9" cx="13.62" cy="50.38" r="5"/><circle class="cls-10" cx="50.38" cy="50.38" r="5"/><circle class="cls-11" cx="13.62" cy="13.62" r="5"/><path class="cls-12" d="M37,6A5,5,0,0,1,27,6a4.62,4.62,0,0,1,.1-1,5,5,0,0,0,9.8,0A4.62,4.62,0,0,1,37,6Z"/><path class="cls-12" d="M37,58a5,5,0,0,1-10,0,4.62,4.62,0,0,1,.1-1,5,5,0,0,0,9.8,0A4.62,4.62,0,0,1,37,58Z"/><path class="cls-12" d="M63,32a5,5,0,0,1-10,0,4.62,4.62,0,0,1,.1-1,5,5,0,0,0,9.8,0A4.62,4.62,0,0,1,63,32Z"/><path class="cls-12" d="M11,32A5,5,0,0,1,1,32a4.62,4.62,0,0,1,.1-1,5,5,0,0,0,9.8,0A4.62,4.62,0,0,1,11,32Z"/><path class="cls-12" d="M53.92,17.15a5,5,0,0,1-8.43-4.53,5,5,0,0,0,8.43,2.53,4.89,4.89,0,0,0,1.36-2.53A5,5,0,0,1,53.92,17.15Z"/><path class="cls-12" d="M17.15,53.92a5,5,0,0,1-8.43-4.54,4.92,4.92,0,0,0,1.36,2.54,5,5,0,0,0,8.43-2.54A5,5,0,0,1,17.15,53.92Z"/><path class="cls-12" d="M53.92,53.92a5,5,0,0,1-8.43-4.54,5,5,0,0,0,8.43,2.54,4.92,4.92,0,0,0,1.36-2.54A5,5,0,0,1,53.92,53.92Z"/><path class="cls-12" d="M17.15,17.15a5,5,0,0,1-8.43-4.53,4.89,4.89,0,0,0,1.36,2.53,5,5,0,0,0,8.43-2.53A5,5,0,0,1,17.15,17.15Z"/><rect class="cls-13" x="27" y="22" width="10" height="12" rx="5"/><path class="cls-14" d="M37,27v2a5,5,0,0,1-10,0V27a5,5,0,0,0,10,0Z"/><path class="cls-15" d="M41.15,42.59a14,14,0,0,1-18.3,0l.45-1.8a9,9,0,0,1,17.4,0Z"/><path class="cls-14" d="M41.15,42.59a14,14,0,0,1-18.3,0l.45-1.8c.06-.23.13-.46.2-.68a13.95,13.95,0,0,0,17,0c.07.22.14.45.2.68Z"/></g></svg>