<svg xmlns="http://www.w3.org/2000/svg" xmlns:xlink="http://www.w3.org/1999/xlink" viewBox="0 0 64 64"><defs><style>.cls-1{fill:url(#linear-gradient);}.cls-2{fill:#5b8dc9;}.cls-3{fill:url(#linear-gradient-2);}.cls-4{fill:url(#linear-gradient-3);}.cls-5{fill:url(#linear-gradient-4);}.cls-6{fill:#8288a1;}</style><linearGradient id="linear-gradient" x1="32" y1="30" x2="32" y2="20" gradientUnits="userSpaceOnUse"><stop offset="0" stop-color="#7aa8d7"/><stop offset="1" stop-color="#c3d2e7"/></linearGradient><linearGradient id="linear-gradient-2" y1="59" y2="30" xlink:href="#linear-gradient"/><linearGradient id="linear-gradient-3" x1="44" y1="26" x2="44" y2="1" gradientUnits="userSpaceOnUse"><stop offset="0" stop-color="#a0a6ba"/><stop offset="1" stop-color="#c6ccda"/></linearGradient><linearGradient id="linear-gradient-4" x1="20" x2="20" xlink:href="#linear-gradient-3"/></defs><title>Basket Shoping</title><g id="Basket_Shoping" data-name="Basket Shoping"><polygon class="cls-1" points="13.88 20 1 20 1 30 63 30 63 20 50.12 20 44.12 20 19.88 20 13.88 20"/><polygon class="cls-2" points="13.88 27 1 27 1 30 63 30 63 27 50.12 27 44.12 27 19.88 27 13.88 27"/><path class="cls-3" d="M51.77,59H12.23a6,6,0,0,1-5.94-5.18L3,30H61L57.71,53.82A6,6,0,0,1,51.77,59Z"/><path class="cls-2" d="M56.87,56.13A5.92,5.92,0,0,1,51.77,59H12.23a5.92,5.92,0,0,1-5.1-2.87,5.88,5.88,0,0,0,3.1.87H53.77A5.88,5.88,0,0,0,56.87,56.13Z"/><rect class="cls-2" x="12" y="59" width="11" height="4"/><rect class="cls-2" x="41" y="59" width="11" height="4"/><path class="cls-4" d="M48.7,26h0a2.72,2.72,0,0,1-2.44-1.53l-9.4-19.6A2.7,2.7,0,0,1,39.3,1h0a2.72,2.72,0,0,1,2.44,1.53l9.4,19.6A2.7,2.7,0,0,1,48.7,26Z"/><path class="cls-5" d="M15.3,26h0a2.72,2.72,0,0,0,2.44-1.53l9.4-19.6A2.7,2.7,0,0,0,24.7,1h0a2.72,2.72,0,0,0-2.44,1.53l-9.4,19.6A2.7,2.7,0,0,0,15.3,26Z"/><path class="cls-6" d="M48.7,26a2.72,2.72,0,0,1-2.44-1.53l-9.4-19.6A2.64,2.64,0,0,1,37,2.24l9.22,19.23A2.72,2.72,0,0,0,48.7,23,2.66,2.66,0,0,0,51,21.77l.18.36A2.7,2.7,0,0,1,48.7,26Z"/><path class="cls-6" d="M27.14,4.87l-9.4,19.6a2.71,2.71,0,0,1-4.88-2.34l.18-.36A2.66,2.66,0,0,0,15.3,23a2.72,2.72,0,0,0,2.44-1.53L27,2.24A2.64,2.64,0,0,1,27.14,4.87Z"/><path class="cls-2" d="M16,54a1,1,0,0,1-1-1V36a1,1,0,0,1,2,0V53A1,1,0,0,1,16,54Z"/><path class="cls-2" d="M24,54a1,1,0,0,1-1-1V36a1,1,0,0,1,2,0V53A1,1,0,0,1,24,54Z"/><path class="cls-2" d="M32,54a1,1,0,0,1-1-1V36a1,1,0,0,1,2,0V53A1,1,0,0,1,32,54Z"/><path class="cls-2" d="M40,54a1,1,0,0,1-1-1V36a1,1,0,0,1,2,0V53A1,1,0,0,1,40,54Z"/><path class="cls-2" d="M48,54a1,1,0,0,1-1-1V36a1,1,0,0,1,2,0V53A1,1,0,0,1,48,54Z"/></g></svg>