<svg xmlns="http://www.w3.org/2000/svg" xmlns:xlink="http://www.w3.org/1999/xlink" viewBox="0 0 64 64"><defs><style>.cls-1{fill:url(#linear-gradient);}.cls-2{fill:#c7cdd8;}.cls-3{fill:#9ca0ad;}.cls-4{fill:#8288a1;}</style><linearGradient id="linear-gradient" x1="34.5" y1="63" x2="34.5" y2="1" gradientUnits="userSpaceOnUse"><stop offset="0" stop-color="#d4d8e1"/><stop offset="1" stop-color="#f3f4f5"/></linearGradient></defs><title>Bill</title><g id="Bill"><path class="cls-1" d="M16,63l4.2-2,4.19,2,4.2-2,4.2,2L37,61l4.2,2,4.2-2,4.2,2,4.2-2L58,63V6a5,5,0,0,0-5-5H11a5,5,0,0,1,5,5Z"/><polygon class="cls-2" points="58 60 58 63 53.79 61 49.59 63 45.39 61 41.19 63 36.99 61 32.79 63 28.59 61 24.39 63 20.2 61 16 63 16 60 20.2 58 24.39 60 28.59 58 32.79 60 36.99 58 41.19 60 45.39 58 49.59 60 53.79 58 58 60"/><path class="cls-2" d="M16,6v8H6V6A5,5,0,1,1,16,6Z"/><circle class="cls-3" cx="24" cy="31" r="1"/><path class="cls-3" d="M50,32H28a1,1,0,0,1,0-2H50a1,1,0,0,1,0,2Z"/><circle class="cls-3" cx="24" cy="38" r="1"/><path class="cls-3" d="M50,39H28a1,1,0,0,1,0-2H50a1,1,0,0,1,0,2Z"/><circle class="cls-3" cx="24" cy="45" r="1"/><path class="cls-3" d="M50,46H28a1,1,0,0,1,0-2H50a1,1,0,0,1,0,2Z"/><circle class="cls-3" cx="24" cy="52" r="1"/><path class="cls-3" d="M50,53H28a1,1,0,0,1,0-2H50a1,1,0,0,1,0,2Z"/><path class="cls-4" d="M37,14a2,2,0,1,1,2-2,1,1,0,0,0,2,0,4,4,0,0,0-3-3.86V7a1,1,0,0,0-2,0V8.14A4,4,0,0,0,37,16a2,2,0,1,1-2,2,1,1,0,0,0-2,0,4,4,0,0,0,3,3.86V23a1,1,0,0,0,2,0V21.86A4,4,0,0,0,37,14Z"/></g></svg>