<svg xmlns="http://www.w3.org/2000/svg" xmlns:xlink="http://www.w3.org/1999/xlink" viewBox="0 0 64 64"><defs><style>.cls-1{fill:url(#linear-gradient);}.cls-2{fill:#dd8b37;}.cls-3{fill:url(#linear-gradient-3);}.cls-4{fill:url(#linear-gradient-5);}.cls-5{fill:#f6b756;}</style><linearGradient id="linear-gradient" x1="32" y1="63" x2="32" y2="1" gradientUnits="userSpaceOnUse"><stop offset="0" stop-color="#e9a254"/><stop offset="1" stop-color="#f4bb79"/></linearGradient><linearGradient id="linear-gradient-3" x1="32" y1="57" x2="32" y2="7" gradientUnits="userSpaceOnUse"><stop offset="0" stop-color="#fbcc88"/><stop offset="1" stop-color="#ffe5c3"/></linearGradient><linearGradient id="linear-gradient-5" x1="32" y1="7" x2="32" y2="21.34" xlink:href="#linear-gradient-3"/></defs><title>Bitcoin</title><g id="Bitcoin"><circle class="cls-1" cx="32" cy="32" r="31"/><circle class="cls-1" cx="32" cy="32" r="31"/><path class="cls-2" d="M62,39.79a31,31,0,0,1-60,0A32,32,0,0,0,32,60,32,32,0,0,0,62,39.79Z"/><circle class="cls-3" cx="32" cy="32" r="25"/><circle class="cls-3" cx="32" cy="32" r="25"/><path class="cls-4" d="M9.39,21.34a25,25,0,0,1,45.22,0A27.54,27.54,0,0,0,32,10,27.54,27.54,0,0,0,9.39,21.34Z"/><path class="cls-5" d="M42.13,31.75A7,7,0,0,0,37,20V16H33v4H29V16H25v4H20v4h3V41H21l-1,4h5v4h4V45h4v4h4V45h2a7,7,0,0,0,3.13-13.25ZM29,24h5a3,3,0,0,1,0,6H29Zm9,16a3.46,3.46,0,0,1-2.47,1H29V34h6.5A3.5,3.5,0,0,1,39,37.5,3.46,3.46,0,0,1,38,40Z"/></g></svg>