<svg xmlns="http://www.w3.org/2000/svg" xmlns:xlink="http://www.w3.org/1999/xlink" viewBox="0 0 64 64"><defs><style>.cls-1{fill:url(#linear-gradient);}.cls-2{fill:#c7cdd8;}.cls-3{fill:url(#linear-gradient-2);}.cls-4{fill:#8288a1;}.cls-5{fill:#42455e;}.cls-6{fill:url(#linear-gradient-3);}.cls-7{fill:url(#linear-gradient-4);}.cls-8{fill:url(#linear-gradient-5);}.cls-9{fill:url(#linear-gradient-6);}.cls-10{fill:#4da67f;}.cls-11{fill:#fff;}</style><linearGradient id="linear-gradient" x1="37.65" y1="38" x2="37.65" y2="9.02" gradientUnits="userSpaceOnUse"><stop offset="0" stop-color="#d4d8e1"/><stop offset="1" stop-color="#f3f4f5"/></linearGradient><linearGradient id="linear-gradient-2" x1="12.3" y1="13.01" x2="63" y2="13.01" gradientUnits="userSpaceOnUse"><stop offset="0" stop-color="#474f72"/><stop offset="1" stop-color="#878c9f"/></linearGradient><linearGradient id="linear-gradient-3" x1="17" y1="59" x2="17" y2="55" xlink:href="#linear-gradient-2"/><linearGradient id="linear-gradient-4" x1="54" y1="59" x2="54" y2="55" xlink:href="#linear-gradient-2"/><linearGradient id="linear-gradient-5" x1="1" y1="3" x2="12.65" y2="3" gradientUnits="userSpaceOnUse"><stop offset="0" stop-color="#a0a6ba"/><stop offset="1" stop-color="#c6ccda"/></linearGradient><linearGradient id="linear-gradient-6" x1="38" y1="25" x2="38" y2="1" gradientUnits="userSpaceOnUse"><stop offset="0" stop-color="#6ab891"/><stop offset="1" stop-color="#85cba9"/></linearGradient></defs><title>Cart Add</title><g id="Cart_Add" data-name="Cart Add"><polygon class="cls-1" points="63 13 63 34 56 34.61 54.01 34.78 48 35.3 46.01 35.48 40 36 38.01 36.17 32 36.7 30.01 36.87 24 37.39 22.01 37.56 17 38 16.84 37.01 15.86 31 15.54 29.02 14.41 22 14.09 20.06 13.12 14.09 12.8 12.09 12.3 9.02 63 13"/><path class="cls-2" d="M63,31v3L17,38V35Z"/><polygon class="cls-3" points="63 13 63 17 49.63 15.95 26.05 14.1 23 13.86 12.96 13.07 12.3 9.02 26.35 10.12 49.95 11.98 63 13"/><path class="cls-4" d="M55,15.37l-8-.63L13.82,12.13,12.64,4.84a1,1,0,1,0-2,.32l5.27,32.5-6,6A3,3,0,0,0,9,45.83V51a3,3,0,0,0,3,3H54a1,1,0,0,0,0-2H12a1,1,0,0,1-1-1V45.83a1,1,0,0,1,.3-.71L17.45,39l5.45-.5H23l.15,0h.1a0,0,0,0,0,0,0L25,38.29l5.85-.53h.08l.12,0a.88.88,0,0,0,.33-.07h0l7.36-.66h.06a1.43,1.43,0,0,0,.22,0,.89.89,0,0,0,.43-.11h0l7.25-.64h0a1.09,1.09,0,0,0,.26,0,1,1,0,0,0,.45-.12h0l7.2-.63h0a1.07,1.07,0,0,0,.31.06.91.91,0,0,0,.46-.13h0l6.6-.57A1,1,0,0,0,63,34V16Zm-1,5.44-6-.12V16.83l6,.47Zm0,6.47c-1.87.08-3.89.18-6,.29V22.69l6,.13ZM22,36.55l-4.16.37-1-5.93c1.47,0,3.2-.07,5.12-.13ZM16.55,29l-1.13-7,6.58.14v6.7C19.93,28.94,18.09,29,16.55,29ZM24,22.2l6,.12v6.19c-2.1.1-4.12.2-6,.27Zm8,.16,6,.13V28.1l-6,.31Zm8,.17,6,.12v5L40.81,28,40,28Zm6-1.88-6-.12V16.2l6,.47Zm-8-.16-6-.13V15.57L38,16Zm-8-.17-6-.12V14.94l6,.47Zm-8-5.53v5.37L15.1,20l-.95-5.84ZM24.77,36.3l-.77.07V30.78l6-.27v5.32ZM32,30.41l6-.31v5l-6,.53ZM40,30l.91,0L46,29.68v4.71l-6,.54Zm8-.42,6-.29v4.41l-6,.53Zm13,3.51-5,.43V29.19L61,29Zm-5-5.89V22.86l5,.1V27Zm0-6.33v-3.4l5,.39V21Z"/><circle class="cls-5" cx="54" cy="57" r="5"/><circle class="cls-5" cx="17" cy="57" r="5"/><path class="cls-6" d="M17,59a2,2,0,1,1,2-2A2,2,0,0,1,17,59Zm0-2Z"/><path class="cls-7" d="M54,59a2,2,0,1,1,2-2A2,2,0,0,1,54,59Zm0-2Z"/><path class="cls-8" d="M12.65,5H3a2,2,0,0,1-1.41-.59A2,2,0,0,1,1,3,2,2,0,0,1,3,1h9Z"/><circle class="cls-9" cx="38" cy="13" r="12"/><path class="cls-10" d="M50,13a12,12,0,0,1-24,0,10.6,10.6,0,0,1,.1-1.5,12,12,0,0,0,23.8,0A10.6,10.6,0,0,1,50,13Z"/><path class="cls-11" d="M45,12H39V6a1,1,0,0,0-2,0v6H31a1,1,0,0,0,0,2h6v6a1,1,0,0,0,2,0V14h6a1,1,0,0,0,0-2Z"/></g></svg>