<svg xmlns="http://www.w3.org/2000/svg" xmlns:xlink="http://www.w3.org/1999/xlink" viewBox="0 0 64 64"><defs><style>.cls-1{fill:url(#linear-gradient);}.cls-2{fill:#4da67f;}.cls-3{fill:#9fe2bf;}.cls-4{fill:url(#linear-gradient-2);}.cls-5{fill:#f6b756;}</style><linearGradient id="linear-gradient" x1="32" y1="46" x2="32" y2="18" gradientUnits="userSpaceOnUse"><stop offset="0" stop-color="#6ab891"/><stop offset="1" stop-color="#85cba9"/></linearGradient><linearGradient id="linear-gradient-2" x1="32" y1="38" x2="32" y2="26" xlink:href="#linear-gradient"/></defs><title>Cash Back</title><g id="Cash_Back" data-name="Cash Back"><rect class="cls-1" x="10" y="18" width="44" height="28"/><rect class="cls-2" x="10" y="44" width="44" height="2"/><path class="cls-3" d="M46.44,42H17.56A3.57,3.57,0,0,0,14,38.44V25.56A3.57,3.57,0,0,0,17.56,22H46.44A3.57,3.57,0,0,0,50,25.56V38.44A3.57,3.57,0,0,0,46.44,42Z"/><ellipse class="cls-4" cx="32" cy="32" rx="5" ry="6"/><path class="cls-2" d="M36.83,33.55C36.26,36.11,34.31,38,32,38s-4.26-1.89-4.83-4.45a6,6,0,0,0,9.66,0Z"/><path class="cls-2" d="M23,33H19a1,1,0,0,1,0-2h4a1,1,0,0,1,0,2Z"/><path class="cls-2" d="M45,33H41a1,1,0,0,1,0-2h4a1,1,0,0,1,0,2Z"/><path class="cls-5" d="M32,0A32.07,32.07,0,0,0,10,8.78V3A1,1,0,0,0,8,3v8a1,1,0,0,0,1,1h8a1,1,0,0,0,0-2H11.62A30,30,0,1,1,2,32a1,1,0,0,0-2,0A32,32,0,1,0,32,0Z"/></g></svg>