<svg xmlns="http://www.w3.org/2000/svg" xmlns:xlink="http://www.w3.org/1999/xlink" viewBox="0 0 64 64"><defs><style>.cls-1{fill:url(#linear-gradient);}.cls-2{fill:#77cacb;}.cls-3{fill:url(#linear-gradient-3);}.cls-4{fill:#8288a1;}.cls-5{fill:url(#linear-gradient-4);}.cls-6{fill:url(#linear-gradient-5);}.cls-7{fill:url(#linear-gradient-6);}.cls-8{fill:url(#linear-gradient-7);}.cls-9{fill:#c7cdd8;}.cls-10{fill:#f6b756;}.cls-11{fill:#d7dbe2;}</style><linearGradient id="linear-gradient" x1="19" y1="11" x2="19" y2="1" gradientUnits="userSpaceOnUse"><stop offset="0" stop-color="#9dd5df"/><stop offset="1" stop-color="#c3e1f5"/></linearGradient><linearGradient id="linear-gradient-3" x1="32" y1="63" x2="32" y2="49" gradientUnits="userSpaceOnUse"><stop offset="0" stop-color="#a0a6ba"/><stop offset="1" stop-color="#c6ccda"/></linearGradient><linearGradient id="linear-gradient-4" x1="32" y1="33" x2="32" y2="17" xlink:href="#linear-gradient-3"/><linearGradient id="linear-gradient-5" x1="32" y1="49" x2="32" y2="33" xlink:href="#linear-gradient-3"/><linearGradient id="linear-gradient-6" x1="21" y1="29" x2="21" y2="21" xlink:href="#linear-gradient"/><linearGradient id="linear-gradient-7" x1="44" y1="22" x2="44" y2="9" gradientUnits="userSpaceOnUse"><stop offset="0" stop-color="#d4d8e1"/><stop offset="1" stop-color="#f3f4f5"/></linearGradient></defs><title>Cash Machine</title><g id="Cash_Machine" data-name="Cash Machine"><rect class="cls-1" x="7" y="1" width="24" height="10" rx="2"/><rect class="cls-1" x="7" y="1" width="24" height="10" rx="2"/><path class="cls-2" d="M31,6V9a2,2,0,0,1-2,2H9A2,2,0,0,1,7,9V6A2,2,0,0,0,9,8H29A2,2,0,0,0,31,6Z"/><rect class="cls-3" x="1" y="49" width="62" height="14"/><rect class="cls-4" x="1" y="61" width="62" height="2"/><polyline class="cls-5" points="51 17 57 17 57 33 7 33 7 17 37 17"/><polyline class="cls-4" points="51 31 57 31 57 33 7 33 7 31 37 31"/><polygon class="cls-6" points="63 49 1 49 7 33 57 33 63 49"/><rect class="cls-4" x="17" y="11" width="4" height="6"/><rect class="cls-7" x="11" y="21" width="20" height="8"/><rect class="cls-2" x="11" y="27" width="20" height="2"/><polygon class="cls-8" points="51 9 51 22 37 22 37 9 39.33 10 41.66 9 43.99 10 46.33 9 48.66 10 51 9"/><rect class="cls-9" x="37" y="19" width="14" height="3"/><path class="cls-10" d="M39,27H37a1,1,0,0,1,0-2h2a1,1,0,0,1,0,2Z"/><path class="cls-10" d="M45,27H43a1,1,0,0,1,0-2h2a1,1,0,0,1,0,2Z"/><path class="cls-10" d="M51,27H49a1,1,0,0,1,0-2h2a1,1,0,0,1,0,2Z"/><path class="cls-11" d="M42,38H40a1,1,0,0,1,0-2h2a1,1,0,0,1,0,2Z"/><path class="cls-11" d="M48,38H46a1,1,0,0,1,0-2h2a1,1,0,0,1,0,2Z"/><path class="cls-11" d="M54,38H52a1,1,0,0,1,0-2h2a1,1,0,0,1,0,2Z"/><path class="cls-11" d="M42,42H40a1,1,0,0,1,0-2h2a1,1,0,0,1,0,2Z"/><path class="cls-11" d="M48,42H46a1,1,0,0,1,0-2h2a1,1,0,0,1,0,2Z"/><path class="cls-11" d="M54,42H52a1,1,0,0,1,0-2h2a1,1,0,0,1,0,2Z"/><path class="cls-11" d="M42,46H40a1,1,0,0,1,0-2h2a1,1,0,0,1,0,2Z"/><path class="cls-11" d="M48,46H46a1,1,0,0,1,0-2h2a1,1,0,0,1,0,2Z"/><path class="cls-11" d="M54,46H52a1,1,0,0,1,0-2h2a1,1,0,0,1,0,2Z"/><path class="cls-11" d="M12,38H10a1,1,0,0,1,0-2h2a1,1,0,0,1,0,2Z"/><path class="cls-11" d="M18,38H16a1,1,0,0,1,0-2h2a1,1,0,0,1,0,2Z"/><path class="cls-11" d="M24,38H22a1,1,0,0,1,0-2h2a1,1,0,0,1,0,2Z"/><path class="cls-11" d="M12,42H10a1,1,0,0,1,0-2h2a1,1,0,0,1,0,2Z"/><path class="cls-11" d="M18,42H16a1,1,0,0,1,0-2h2a1,1,0,0,1,0,2Z"/><path class="cls-11" d="M24,42H22a1,1,0,0,1,0-2h2a1,1,0,0,1,0,2Z"/><path class="cls-11" d="M12,46H10a1,1,0,0,1,0-2h2a1,1,0,0,1,0,2Z"/><path class="cls-11" d="M18,46H16a1,1,0,0,1,0-2h2a1,1,0,0,1,0,2Z"/><path class="cls-11" d="M24,46H22a1,1,0,0,1,0-2h2a1,1,0,0,1,0,2Z"/><path class="cls-11" d="M30,38H28a1,1,0,0,1,0-2h2a1,1,0,0,1,0,2Z"/><path class="cls-11" d="M30,42H28a1,1,0,0,1,0-2h2a1,1,0,0,1,0,2Z"/><path class="cls-11" d="M30,46H28a1,1,0,0,1,0-2h2a1,1,0,0,1,0,2Z"/><path class="cls-4" d="M37,59H27a3,3,0,0,1-3-3V55a1,1,0,0,1,2,0v1a1,1,0,0,0,1,1H37a1,1,0,0,0,1-1V55a1,1,0,0,1,2,0v1A3,3,0,0,1,37,59Z"/><path class="cls-4" d="M53,23H35a1,1,0,0,1,0-2H53a1,1,0,0,1,0,2Z"/><path class="cls-4" d="M29,12H9A3,3,0,0,1,6,9V3A3,3,0,0,1,9,0H29a3,3,0,0,1,3,3V9A3,3,0,0,1,29,12ZM9,2A1,1,0,0,0,8,3V9a1,1,0,0,0,1,1H29a1,1,0,0,0,1-1V3a1,1,0,0,0-1-1Z"/></g></svg>