<svg xmlns="http://www.w3.org/2000/svg" xmlns:xlink="http://www.w3.org/1999/xlink" viewBox="0 0 64 64"><defs><style>.cls-1{fill:url(#linear-gradient);}.cls-2{fill:url(#linear-gradient-2);}.cls-3{fill:#fff2e3;}.cls-4{fill:url(#linear-gradient-3);}.cls-5{fill:#dd8b37;}.cls-6{fill:#f6b756;}</style><linearGradient id="linear-gradient" x1="50" y1="63" x2="50" y2="39" gradientUnits="userSpaceOnUse"><stop offset="0" stop-color="#deb895"/><stop offset="1" stop-color="#f2d3b8"/></linearGradient><linearGradient id="linear-gradient-2" x1="50" y1="44" x2="50" y2="39" gradientUnits="userSpaceOnUse"><stop offset="0" stop-color="#fbcc88"/><stop offset="1" stop-color="#ffe5c3"/></linearGradient><linearGradient id="linear-gradient-3" x1="15" y1="29" x2="15" y2="1" gradientUnits="userSpaceOnUse"><stop offset="0" stop-color="#e9a254"/><stop offset="1" stop-color="#f4bb79"/></linearGradient></defs><title>Cash on Delivey</title><g id="Cash_on_Delivey" data-name="Cash on Delivey"><rect class="cls-1" x="37" y="39" width="26" height="24"/><rect class="cls-2" x="47" y="39" width="6" height="5"/><path class="cls-3" d="M59,60H55a1,1,0,0,1,0-2h4a1,1,0,0,1,0,2Z"/><circle class="cls-4" cx="15" cy="15" r="14"/><circle class="cls-4" cx="15" cy="15" r="14"/><path class="cls-5" d="M29,15A14,14,0,0,1,1,15a14.76,14.76,0,0,1,.08-1.5,14,14,0,0,0,27.84,0A14.76,14.76,0,0,1,29,15Z"/><path class="cls-3" d="M15,14a2,2,0,1,1,2-2,1,1,0,0,0,2,0,4,4,0,0,0-3-3.86V7a1,1,0,0,0-2,0V8.14A4,4,0,0,0,15,16a2,2,0,1,1-2,2,1,1,0,0,0-2,0,4,4,0,0,0,3,3.86V23a1,1,0,0,0,2,0V21.86A4,4,0,0,0,15,14Z"/><path class="cls-6" d="M38,9H36.41l2.3-2.29a1,1,0,1,0-1.42-1.42l-4,4a1,1,0,0,0-.21.33,1,1,0,0,0,0,.76,1,1,0,0,0,.21.33l4,4a1,1,0,0,0,1.42,0,1,1,0,0,0,0-1.42L36.41,11H38A19,19,0,0,1,57,30v2a1,1,0,0,0,2,0V30A21,21,0,0,0,38,9Z"/><path class="cls-6" d="M30.92,53.62a1,1,0,0,0-.21-.33l-4-4a1,1,0,0,0-1.42,1.42L27.59,53H26A19,19,0,0,1,7,34V32a1,1,0,0,0-2,0v2A21,21,0,0,0,26,55h1.59l-2.3,2.29a1,1,0,0,0,0,1.42,1,1,0,0,0,1.42,0l4-4a1,1,0,0,0,.21-.33A1,1,0,0,0,30.92,53.62Z"/></g></svg>