<svg xmlns="http://www.w3.org/2000/svg" xmlns:xlink="http://www.w3.org/1999/xlink" viewBox="0 0 64 64"><defs><style>.cls-1{fill:url(#linear-gradient);}.cls-2{fill:#4da67f;}.cls-3{fill:#9fe2bf;}.cls-4{fill:url(#linear-gradient-2);}.cls-5{fill:none;stroke:#231f20;stroke-linecap:round;stroke-linejoin:round;stroke-width:2px;}</style><linearGradient id="linear-gradient" x1="32" y1="51" x2="32" y2="13" gradientUnits="userSpaceOnUse"><stop offset="0" stop-color="#6ab891"/><stop offset="1" stop-color="#85cba9"/></linearGradient><linearGradient id="linear-gradient-2" y1="41" y2="23" xlink:href="#linear-gradient"/></defs><title>Cash</title><g id="Cash"><rect class="cls-1" x="1" y="13" width="62" height="38"/><rect class="cls-2" x="1" y="49" width="62" height="2"/><path class="cls-3" d="M54,46H10a4,4,0,0,0-4-4V22a4,4,0,0,0,4-4H54a4,4,0,0,0,4,4V42A4,4,0,0,0,54,46Z"/><ellipse class="cls-4" cx="32" cy="32" rx="8" ry="9"/><path class="cls-2" d="M39.92,33.27C39.37,37.64,36,41,32,41s-7.37-3.36-7.92-7.73a9,9,0,0,0,15.84,0Z"/><line class="cls-5" x1="46" y1="32" x2="52" y2="32"/><line class="cls-5" x1="12" y1="32" x2="18" y2="32"/><path class="cls-2" d="M52,33H46a1,1,0,0,1,0-2h6a1,1,0,0,1,0,2Z"/><path class="cls-2" d="M18,33H12a1,1,0,0,1,0-2h6a1,1,0,0,1,0,2Z"/></g></svg>