<svg xmlns="http://www.w3.org/2000/svg" xmlns:xlink="http://www.w3.org/1999/xlink" viewBox="0 0 64 64"><defs><style>.cls-1{fill:url(#linear-gradient);}.cls-2{fill:#f6b756;}.cls-3{fill:#dd8b37;}.cls-4{fill:#fff;}</style><linearGradient id="linear-gradient" x1="32" y1="51" x2="32" y2="13" gradientUnits="userSpaceOnUse"><stop offset="0" stop-color="#fbcc88"/><stop offset="1" stop-color="#ffe5c3"/></linearGradient></defs><title>Coupon</title><g id="Coupon"><path class="cls-1" d="M57,32a6,6,0,0,0,6,6V51H1V38A6,6,0,0,0,1,26V13H63V26A6,6,0,0,0,57,32Z"/><rect class="cls-2" x="1" y="48" width="62" height="3"/><circle class="cls-3" cx="23" cy="16" r="1"/><circle class="cls-3" cx="23" cy="20" r="1"/><circle class="cls-3" cx="23" cy="24" r="1"/><circle class="cls-3" cx="23" cy="28" r="1"/><circle class="cls-3" cx="23" cy="32" r="1"/><circle class="cls-3" cx="23" cy="36" r="1"/><circle class="cls-3" cx="23" cy="40" r="1"/><circle class="cls-3" cx="23" cy="44" r="1"/><circle class="cls-3" cx="23" cy="48" r="1"/><path class="cls-4" d="M33,42a1,1,0,0,1-.79-1.61l14-18a1,1,0,1,1,1.58,1.22l-14,18A1,1,0,0,1,33,42Z"/><path class="cls-4" d="M46,42a4,4,0,1,1,4-4A4,4,0,0,1,46,42Zm0-6a2,2,0,1,0,2,2A2,2,0,0,0,46,36Z"/><path class="cls-4" d="M34,30a4,4,0,1,1,4-4A4,4,0,0,1,34,30Zm0-6a2,2,0,1,0,2,2A2,2,0,0,0,34,24Z"/></g></svg>