<svg xmlns="http://www.w3.org/2000/svg" xmlns:xlink="http://www.w3.org/1999/xlink" viewBox="0 0 64 64"><defs><style>.cls-1{fill:url(#linear-gradient);}.cls-2{fill:#5b8dc9;}.cls-3{fill:url(#linear-gradient-3);}.cls-4{fill:#d3e0ef;}.cls-5{fill:url(#linear-gradient-4);}.cls-6{fill:url(#linear-gradient-5);}.cls-7{fill:url(#linear-gradient-6);}</style><linearGradient id="linear-gradient" x1="32" y1="55" x2="32" y2="9" gradientUnits="userSpaceOnUse"><stop offset="0" stop-color="#7aa8d7"/><stop offset="1" stop-color="#c3d2e7"/></linearGradient><linearGradient id="linear-gradient-3" x1="11" y1="32" x2="11" y2="24" gradientUnits="userSpaceOnUse"><stop offset="0" stop-color="#fbcc88"/><stop offset="1" stop-color="#ffe5c3"/></linearGradient><linearGradient id="linear-gradient-4" x1="47.5" y1="50" x2="47.5" y2="42" gradientUnits="userSpaceOnUse"><stop offset="0" stop-color="#da5466"/><stop offset="1" stop-color="#f4929c"/></linearGradient><linearGradient id="linear-gradient-5" x1="52" y1="20" x2="52" y2="14" gradientUnits="userSpaceOnUse"><stop offset="0" stop-color="#d4d8e1"/><stop offset="1" stop-color="#f3f4f5"/></linearGradient><linearGradient id="linear-gradient-6" x1="54" y1="50" x2="54" y2="42" gradientUnits="userSpaceOnUse"><stop offset="0" stop-color="#f8aa88"/><stop offset="1" stop-color="#fac2ab"/></linearGradient></defs><title>Credit Card</title><g id="Credit_Card" data-name="Credit Card"><rect class="cls-1" x="1" y="9" width="62" height="46" rx="3"/><rect class="cls-1" x="1" y="9" width="62" height="46" rx="3"/><path class="cls-2" d="M63,49v3a3,3,0,0,1-3,3H4a3,3,0,0,1-3-3V49a3,3,0,0,0,3,3H60A3,3,0,0,0,63,49Z"/><rect class="cls-3" x="6" y="24" width="10" height="8"/><path class="cls-4" d="M16,38H6a1,1,0,0,1,0-2H16a1,1,0,0,1,0,2Z"/><path class="cls-4" d="M30,38H20a1,1,0,0,1,0-2H30a1,1,0,0,1,0,2Z"/><path class="cls-4" d="M44,38H34a1,1,0,0,1,0-2H44a1,1,0,0,1,0,2Z"/><path class="cls-4" d="M58,38H48a1,1,0,0,1,0-2H58a1,1,0,0,1,0,2Z"/><path class="cls-5" d="M51,48.64a4,4,0,1,1,0-5.28Z"/><rect class="cls-6" x="46" y="14" width="12" height="6"/><circle class="cls-7" cx="54" cy="46" r="4"/></g></svg>