<svg xmlns="http://www.w3.org/2000/svg" xmlns:xlink="http://www.w3.org/1999/xlink" viewBox="0 0 64 64"><defs><style>.cls-1{fill:url(#linear-gradient);}.cls-2{fill:url(#linear-gradient-2);}.cls-3{fill:#8288a1;}.cls-4{fill:url(#linear-gradient-3);}.cls-5{fill:#cba07a;}.cls-6{fill:url(#linear-gradient-4);}.cls-7{fill:#c7cdd8;}.cls-8{fill:#42455e;}.cls-9{fill:url(#linear-gradient-5);}.cls-10{fill:url(#linear-gradient-6);}.cls-11{fill:url(#linear-gradient-7);}.cls-12{fill:#f6b756;}.cls-13{fill:#fff2e3;}.cls-14{fill:#77cacb;}.cls-15{fill:url(#linear-gradient-9);}</style><linearGradient id="linear-gradient" x1="52" y1="52" x2="52" y2="18" gradientUnits="userSpaceOnUse"><stop offset="0" stop-color="#a0a6ba"/><stop offset="1" stop-color="#c6ccda"/></linearGradient><linearGradient id="linear-gradient-2" x1="21" x2="21" y2="42" xlink:href="#linear-gradient"/><linearGradient id="linear-gradient-3" x1="21" y1="42" x2="21" y2="6" gradientUnits="userSpaceOnUse"><stop offset="0" stop-color="#deb895"/><stop offset="1" stop-color="#f2d3b8"/></linearGradient><linearGradient id="linear-gradient-4" x1="55" y1="37" x2="55" y2="22" gradientUnits="userSpaceOnUse"><stop offset="0" stop-color="#9dd5df"/><stop offset="1" stop-color="#c3e1f5"/></linearGradient><linearGradient id="linear-gradient-5" x1="14" y1="54" x2="14" y2="50" xlink:href="#linear-gradient"/><linearGradient id="linear-gradient-6" x1="61" y1="48" x2="61" y2="42" gradientUnits="userSpaceOnUse"><stop offset="0" stop-color="#fbcc88"/><stop offset="1" stop-color="#ffe5c3"/></linearGradient><linearGradient id="linear-gradient-7" x1="21" y1="14" x2="21" y2="6" xlink:href="#linear-gradient-6"/><linearGradient id="linear-gradient-9" x1="51" y1="54" x2="51" y2="50" xlink:href="#linear-gradient"/></defs><title>Delivery</title><g id="Delivery"><path class="cls-1" d="M63,37V52H41V18H54.8a3,3,0,0,1,2.86,2.1l.6,1.9,3.79,12Z"/><polyline class="cls-2" points="20 52 41 52 41 42 1 42 1 52 8 52"/><polyline class="cls-3" points="30.45 52 63 52 63 49 1 49 1 52 11.85 52"/><rect class="cls-4" x="1" y="6" width="40" height="36"/><rect class="cls-5" x="1" y="40" width="40" height="2"/><polygon class="cls-6" points="63 37 47 37 47 22 58.26 22 62.05 34 63 37"/><path class="cls-7" d="M49,42H47a1,1,0,0,1,0-2h2a1,1,0,0,1,0,2Z"/><circle class="cls-8" cx="14" cy="52" r="6"/><path class="cls-9" d="M14,54a2,2,0,1,1,2-2A2,2,0,0,1,14,54Zm0-2Z"/><path class="cls-10" d="M61,42h2a0,0,0,0,1,0,0v6a0,0,0,0,1,0,0H61a2,2,0,0,1-2-2V44A2,2,0,0,1,61,42Z"/><polygon class="cls-11" points="26 6 26 14 23.51 13 21 14 18.51 13 16 14 16 6 26 6"/><polygon class="cls-11" points="26 6 26 14 23.51 13 21 14 18.51 13 16 14 16 6 26 6"/><polygon class="cls-12" points="26 12 26 14 23.51 13 21 14 18.51 13 16 14 16 12 18.51 11 21 12 23.51 11 26 12"/><path class="cls-13" d="M36,38H30a1,1,0,0,1,0-2h6a1,1,0,0,1,0,2Z"/><path class="cls-13" d="M36,34H30a1,1,0,0,1,0-2h6a1,1,0,0,1,0,2Z"/><polygon class="cls-14" points="63 37 47 37 47 34 62.05 34 63 37"/><circle class="cls-8" cx="51" cy="52" r="6"/><path class="cls-15" d="M51,54a2,2,0,1,1,2-2A2,2,0,0,1,51,54Zm0-2Z"/></g></svg>