<svg xmlns="http://www.w3.org/2000/svg" xmlns:xlink="http://www.w3.org/1999/xlink" viewBox="0 0 64 64"><defs><style>.cls-1{fill:#cf4055;}.cls-2{fill:url(#linear-gradient);}.cls-3{fill:#fff;}</style><linearGradient id="linear-gradient" x1="32" y1="54" x2="32" y2="10" gradientUnits="userSpaceOnUse"><stop offset="0" stop-color="#da5466"/><stop offset="1" stop-color="#f4929c"/></linearGradient></defs><title>Discount</title><g id="Discount"><path class="cls-1" d="M63,32c0,2.68-2.53,5-3.19,7.45s.33,5.82-1,8-4.65,3-6.5,4.85-2.58,5.19-4.85,6.5-5.49.28-8,1S34.68,63,32,63s-5-2.53-7.45-3.19-5.82.33-8-1-3-4.65-4.85-6.5-5.19-2.58-6.5-4.85-.28-5.49-1-8S1,34.68,1,32s2.53-5,3.19-7.45-.33-5.82,1-8,4.65-3,6.5-4.85,2.58-5.19,4.85-6.5,5.49-.28,8.05-1S29.32,1,32,1s5,2.53,7.45,3.19,5.82-.33,8,1,3,4.65,4.85,6.5,5.19,2.58,6.5,4.85.28,5.49,1,8.05S63,29.32,63,32Z"/><circle class="cls-2" cx="32" cy="32" r="22"/><path class="cls-3" d="M24,30a5,5,0,1,1,5-5A5,5,0,0,1,24,30Zm0-8a3,3,0,1,0,3,3A3,3,0,0,0,24,22Z"/><path class="cls-3" d="M40,44a5,5,0,1,1,5-5A5,5,0,0,1,40,44Zm0-8a3,3,0,1,0,3,3A3,3,0,0,0,40,36Z"/><path class="cls-3" d="M24,44a1,1,0,0,1-.81-1.59l16-22a1,1,0,0,1,1.62,1.18l-16,22A1,1,0,0,1,24,44Z"/></g></svg>