<svg xmlns="http://www.w3.org/2000/svg" xmlns:xlink="http://www.w3.org/1999/xlink" viewBox="0 0 64 64"><defs><style>.cls-1{fill:url(#linear-gradient);}.cls-2{fill:url(#linear-gradient-2);}.cls-3{fill:#42455e;}.cls-4{fill:#9ca0ad;}.cls-5{fill:url(#linear-gradient-3);}.cls-6{fill:url(#linear-gradient-4);}.cls-7{fill:url(#linear-gradient-5);}.cls-8{fill:#77cacb;}.cls-9{fill:url(#linear-gradient-6);}.cls-10{fill:#c7cdd8;}.cls-11{fill:url(#linear-gradient-7);}.cls-12{fill:#cba07a;}.cls-13{fill:url(#linear-gradient-8);}.cls-14{fill:url(#linear-gradient-9);}.cls-15{fill:url(#linear-gradient-10);}.cls-16{fill:url(#linear-gradient-11);}.cls-17{fill:url(#linear-gradient-12);}.cls-18{fill:url(#linear-gradient-13);}.cls-19{fill:url(#linear-gradient-14);}.cls-20{fill:#cf4055;}.cls-21{fill:#f6b756;}.cls-22{fill:#4da67f;}.cls-23{fill:url(#linear-gradient-15);}.cls-24{fill:url(#linear-gradient-16);}.cls-25{fill:url(#linear-gradient-17);}.cls-26{fill:url(#linear-gradient-18);}.cls-27{fill:url(#linear-gradient-19);}.cls-28{fill:url(#linear-gradient-20);}</style><linearGradient id="linear-gradient" x1="32" y1="63" x2="32" y2="55" gradientUnits="userSpaceOnUse"><stop offset="0" stop-color="#a0a6ba"/><stop offset="1" stop-color="#c6ccda"/></linearGradient><linearGradient id="linear-gradient-2" x1="32" y1="63" x2="32" y2="55" gradientUnits="userSpaceOnUse"><stop offset="0" stop-color="#474f72"/><stop offset="1" stop-color="#878c9f"/></linearGradient><linearGradient id="linear-gradient-3" y1="55" y2="15" xlink:href="#linear-gradient-2"/><linearGradient id="linear-gradient-4" x1="12" y1="51" x2="12" y2="19" gradientUnits="userSpaceOnUse"><stop offset="0" stop-color="#9dd5df"/><stop offset="1" stop-color="#c3e1f5"/></linearGradient><linearGradient id="linear-gradient-5" x1="52" x2="52" xlink:href="#linear-gradient-4"/><linearGradient id="linear-gradient-6" x1="32" y1="51" x2="32" y2="14" gradientUnits="userSpaceOnUse"><stop offset="0" stop-color="#d4d8e1"/><stop offset="1" stop-color="#f3f4f5"/></linearGradient><linearGradient id="linear-gradient-7" x1="32" y1="47" x2="32" y2="30" gradientUnits="userSpaceOnUse"><stop offset="0" stop-color="#deb895"/><stop offset="1" stop-color="#f2d3b8"/></linearGradient><linearGradient id="linear-gradient-8" x1="28" y1="19" x2="28" y2="14" gradientUnits="userSpaceOnUse"><stop offset="0" stop-color="#da5466"/><stop offset="1" stop-color="#f4929c"/></linearGradient><linearGradient id="linear-gradient-9" x1="36" x2="36" xlink:href="#linear-gradient-8"/><linearGradient id="linear-gradient-10" x1="44" x2="44" xlink:href="#linear-gradient-8"/><linearGradient id="linear-gradient-11" x1="52" x2="52" xlink:href="#linear-gradient-8"/><linearGradient id="linear-gradient-12" x1="12" x2="12" xlink:href="#linear-gradient-8"/><linearGradient id="linear-gradient-13" x1="20" x2="20" xlink:href="#linear-gradient-8"/><linearGradient id="linear-gradient-14" y1="7" y2="1" xlink:href="#linear-gradient"/><linearGradient id="linear-gradient-15" x1="32" y1="10.5" x2="40" y2="10.5" xlink:href="#linear-gradient-8"/><linearGradient id="linear-gradient-16" x1="38" y1="10.5" x2="48" y2="10.5" xlink:href="#linear-gradient-8"/><linearGradient id="linear-gradient-17" x1="44" y1="10.5" x2="56" y2="10.5" xlink:href="#linear-gradient-8"/><linearGradient id="linear-gradient-18" x1="24" y1="10.5" x2="32" y2="10.5" xlink:href="#linear-gradient-8"/><linearGradient id="linear-gradient-19" x1="16" y1="10.5" x2="26" y2="10.5" xlink:href="#linear-gradient-8"/><linearGradient id="linear-gradient-20" x1="8" y1="10.5" x2="20" y2="10.5" xlink:href="#linear-gradient-8"/></defs><title>Ecommerce</title><g id="Ecommerce"><path class="cls-1" d="M3,55H61a2,2,0,0,1,2,2v2a4,4,0,0,1-4,4H5a4,4,0,0,1-4-4V57A2,2,0,0,1,3,55Z"/><path class="cls-2" d="M3,55H61a2,2,0,0,1,2,2v2a4,4,0,0,1-4,4H5a4,4,0,0,1-4-4V57A2,2,0,0,1,3,55Z"/><path class="cls-3" d="M63,57v2a4,4,0,0,1-4,4H5a4,4,0,0,1-4-4V57a4,4,0,0,0,4,4H59A4,4,0,0,0,63,57Z"/><polygon class="cls-4" points="38 58 26 58 24 55 40 55 38 58"/><rect class="cls-5" x="6" y="15" width="52" height="40" rx="2"/><path class="cls-3" d="M58,51v2a2,2,0,0,1-2,2H8a2,2,0,0,1-2-2V51a2,2,0,0,0,2,2H56A2,2,0,0,0,58,51Z"/><rect class="cls-6" x="10" y="19" width="4" height="32"/><rect class="cls-7" x="50" y="19" width="4" height="32"/><rect class="cls-8" x="10" y="49" width="4" height="2"/><rect class="cls-8" x="50" y="49" width="4" height="2"/><rect class="cls-9" x="14" y="14" width="36" height="37"/><rect class="cls-10" x="14" y="49" width="36" height="2"/><path class="cls-11" d="M23,30H41a0,0,0,0,1,0,0V44a3,3,0,0,1-3,3H26a3,3,0,0,1-3-3V30A0,0,0,0,1,23,30Z"/><path class="cls-12" d="M36,34a1,1,0,0,1-1-1V27a3,3,0,0,0-6,0v6a1,1,0,0,1-2,0V27a5,5,0,0,1,10,0v6A1,1,0,0,1,36,34Z"/><path class="cls-13" d="M24,14h8a0,0,0,0,1,0,0v1a4,4,0,0,1-4,4h0a4,4,0,0,1-4-4V14A0,0,0,0,1,24,14Z"/><path class="cls-14" d="M32,14h8a0,0,0,0,1,0,0v1a4,4,0,0,1-4,4h0a4,4,0,0,1-4-4V14A0,0,0,0,1,32,14Z"/><path class="cls-15" d="M40,14h8a0,0,0,0,1,0,0v1a4,4,0,0,1-4,4h0a4,4,0,0,1-4-4V14A0,0,0,0,1,40,14Z"/><path class="cls-16" d="M48,14h8a0,0,0,0,1,0,0v1a4,4,0,0,1-4,4h0a4,4,0,0,1-4-4V14A0,0,0,0,1,48,14Z"/><path class="cls-17" d="M8,14h8a0,0,0,0,1,0,0v1a4,4,0,0,1-4,4h0a4,4,0,0,1-4-4V14A0,0,0,0,1,8,14Z"/><path class="cls-18" d="M16,14h8a0,0,0,0,1,0,0v1a4,4,0,0,1-4,4h0a4,4,0,0,1-4-4V14a0,0,0,0,1,0,0Z"/><rect class="cls-19" x="14" y="1" width="36" height="6"/><circle class="cls-20" cx="18" cy="4" r="1"/><circle class="cls-21" cx="22" cy="4" r="1"/><circle class="cls-22" cx="26" cy="4" r="1"/><polygon class="cls-23" points="40 14 32 14 32 7 38 7 40 14"/><polygon class="cls-24" points="48 14 40 14 38 7 44 7 48 14"/><polygon class="cls-25" points="56 14 48 14 44 7 50 7 56 14"/><polygon class="cls-26" points="24 14 32 14 32 7 26 7 24 14"/><polygon class="cls-27" points="16 14 24 14 26 7 20 7 16 14"/><polygon class="cls-28" points="8 14 16 14 20 7 14 7 8 14"/></g></svg>