<svg xmlns="http://www.w3.org/2000/svg" xmlns:xlink="http://www.w3.org/1999/xlink" viewBox="0 0 64 64"><defs><style>.cls-1{fill:url(#linear-gradient);}.cls-2{fill:#8288a1;}.cls-3{fill:url(#linear-gradient-3);}.cls-4{fill:#d7dbe2;}.cls-5{fill:url(#linear-gradient-4);}.cls-6{fill:#4da67f;}.cls-7{fill:#fff;}</style><linearGradient id="linear-gradient" x1="32" y1="63" x2="32" y2="1" gradientUnits="userSpaceOnUse"><stop offset="0" stop-color="#a0a6ba"/><stop offset="1" stop-color="#c6ccda"/></linearGradient><linearGradient id="linear-gradient-3" x1="32" y1="57.73" x2="32" y2="6.25" gradientUnits="userSpaceOnUse"><stop offset="0" stop-color="#d4d8e1"/><stop offset="1" stop-color="#f3f4f5"/></linearGradient><linearGradient id="linear-gradient-4" x1="32" y1="43" x2="32" y2="15" gradientUnits="userSpaceOnUse"><stop offset="0" stop-color="#6ab891"/><stop offset="1" stop-color="#85cba9"/></linearGradient></defs><title>Guarantee</title><g id="Guarantee"><path class="cls-1" d="M32,63h0A36.84,36.84,0,0,1,6,27.8V5H7.35A77.93,77.93,0,0,0,32,1h0A77.93,77.93,0,0,0,56.65,5H58V27.8A36.84,36.84,0,0,1,32,63Z"/><path class="cls-1" d="M32,63h0A36.84,36.84,0,0,1,6,27.8V5H7.35A77.93,77.93,0,0,0,32,1h0A77.93,77.93,0,0,0,56.65,5H58V27.8A36.84,36.84,0,0,1,32,63Z"/><path class="cls-2" d="M58,25.8v2A36.84,36.84,0,0,1,32,63,36.84,36.84,0,0,1,6,27.8v-2A36.84,36.84,0,0,0,32,61,36.84,36.84,0,0,0,58,25.8Z"/><path class="cls-3" d="M32,57.73A31.66,31.66,0,0,1,11,27.8V9.92A82.48,82.48,0,0,0,32,6.25,82.48,82.48,0,0,0,53,9.92V27.8A31.66,31.66,0,0,1,32,57.73Z"/><path class="cls-4" d="M53,9.92v3A82.48,82.48,0,0,1,32,9.25a82.48,82.48,0,0,1-21,3.67v-3A82.48,82.48,0,0,0,32,6.25,82.48,82.48,0,0,0,53,9.92Z"/><circle class="cls-5" cx="32" cy="29" r="14"/><path class="cls-6" d="M46,29a14,14,0,0,1-28,0,14.76,14.76,0,0,1,.08-1.5,14,14,0,0,0,27.84,0A14.76,14.76,0,0,1,46,29Z"/><path class="cls-7" d="M30,34.5a1,1,0,0,1-.71-.29l-5-5a1,1,0,0,1,1.42-1.42L30,32.09l8.29-8.3a1,1,0,0,1,1.42,1.42l-9,9A1,1,0,0,1,30,34.5Z"/></g></svg>