<svg xmlns="http://www.w3.org/2000/svg" xmlns:xlink="http://www.w3.org/1999/xlink" viewBox="0 0 64 64"><defs><style>.cls-1{fill:#c7cdd8;}.cls-2{fill:#8288a1;}.cls-3{fill:#cba07a;}.cls-4{fill:url(#linear-gradient);}.cls-5{fill:url(#linear-gradient-2);}.cls-6{fill:url(#linear-gradient-3);}</style><linearGradient id="linear-gradient" x1="32" y1="49" x2="32" y2="25" gradientUnits="userSpaceOnUse"><stop offset="0" stop-color="#deb895"/><stop offset="1" stop-color="#f2d3b8"/></linearGradient><linearGradient id="linear-gradient-2" x1="18" y1="52" x2="18" y2="46" gradientUnits="userSpaceOnUse"><stop offset="0" stop-color="#a0a6ba"/><stop offset="1" stop-color="#c6ccda"/></linearGradient><linearGradient id="linear-gradient-3" x1="46" y1="52" x2="46" y2="46" xlink:href="#linear-gradient-2"/></defs><title>Hanger Fashion</title><g id="Hanger_Fashion" data-name="Hanger Fashion"><path class="cls-1" d="M33.92,20.62A1.48,1.48,0,0,0,33,22v3a1,1,0,0,1-2,0V22a3.49,3.49,0,0,1,2.15-3.23,3,3,0,1,0-3.92-3.92A3.5,3.5,0,0,1,26,17a1,1,0,0,1,0-2,1.48,1.48,0,0,0,1.38-.92,5,5,0,0,1,5.79-2.95,5,5,0,0,1,3.7,3.7A5,5,0,0,1,33.92,20.62Z"/><path class="cls-2" d="M33,23v2a1,1,0,0,1-2,0V23Z"/><path class="cls-3" d="M44,49H20a1,1,0,0,1,0-2H44a1,1,0,0,1,0,2Z"/><path class="cls-3" d="M63,47v2H48a1,1,0,0,1,0-2Z"/><path class="cls-3" d="M17,48a1,1,0,0,1-1,1H1V47H16A1,1,0,0,1,17,48Z"/><path class="cls-4" d="M63,46.22V49l-3.44-2L32,31,4.44,47,1,49V46.22a6,6,0,0,1,3.81-5.59A74.15,74.15,0,0,0,22.73,31a7.81,7.81,0,0,0,2-2.22A7.83,7.83,0,0,1,31.42,25h1.16a7.83,7.83,0,0,1,6.7,3.79,7.81,7.81,0,0,0,2,2.22,74.15,74.15,0,0,0,17.92,9.62A6,6,0,0,1,63,46.22Z"/><rect class="cls-5" x="16" y="46" width="4" height="6"/><rect class="cls-6" x="44" y="46" width="4" height="6"/><rect class="cls-2" x="16" y="50" width="4" height="2"/><rect class="cls-2" x="44" y="50" width="4" height="2"/></g></svg>