<svg xmlns="http://www.w3.org/2000/svg" xmlns:xlink="http://www.w3.org/1999/xlink" viewBox="0 0 64 64"><defs><style>.cls-1{fill:url(#linear-gradient);}.cls-2{fill:#cf4055;}.cls-3{fill:url(#linear-gradient-2);}.cls-4{fill:#f6b756;}</style><linearGradient id="linear-gradient" x1="32" y1="63" x2="32" y2="1" gradientUnits="userSpaceOnUse"><stop offset="0" stop-color="#da5466"/><stop offset="1" stop-color="#f4929c"/></linearGradient><linearGradient id="linear-gradient-2" x1="32" y1="56" x2="32" y2="24" gradientUnits="userSpaceOnUse"><stop offset="0" stop-color="#fbcc88"/><stop offset="1" stop-color="#ffe5c3"/></linearGradient></defs><title>Hot Sale</title><g id="Hot_Sale" data-name="Hot Sale"><path class="cls-1" d="M56,39A24,24,0,0,1,8,39c0-8.39,4.22-16.42,9.12-22.92A8,8,0,0,0,32,12V1S56,19,56,39Z"/><path class="cls-2" d="M56,39A24,24,0,0,1,8,39c0-.51,0-1,.05-1.53a24,24,0,0,0,47.9,0C56,38,56,38.5,56,39Z"/><circle class="cls-3" cx="32" cy="40" r="16"/><path class="cls-4" d="M48,40a16,16,0,0,1-32,0c0-.34,0-.67,0-1A16,16,0,0,0,48,39C48,39.33,48,39.66,48,40Z"/><path class="cls-2" d="M25,50a1,1,0,0,1-.61-.21,1,1,0,0,1-.18-1.4l14-18a1,1,0,0,1,1.58,1.22l-14,18A1,1,0,0,1,25,50Z"/><path class="cls-2" d="M38,50a4,4,0,1,1,4-4A4,4,0,0,1,38,50Zm0-6a2,2,0,1,0,2,2A2,2,0,0,0,38,44Z"/><path class="cls-2" d="M26,38a4,4,0,1,1,4-4A4,4,0,0,1,26,38Zm0-6a2,2,0,1,0,2,2A2,2,0,0,0,26,32Z"/></g></svg>