<svg xmlns="http://www.w3.org/2000/svg" xmlns:xlink="http://www.w3.org/1999/xlink" viewBox="0 0 64 64"><defs><style>.cls-1{fill:url(#linear-gradient);}.cls-2{fill:#cf4055;}.cls-3{fill:url(#linear-gradient-2);}.cls-4{fill:url(#linear-gradient-3);}.cls-5{fill:#c7cdd8;}.cls-6{fill:url(#linear-gradient-6);}.cls-7{fill:url(#linear-gradient-7);}.cls-8{fill:url(#linear-gradient-8);}.cls-9{fill:#8288a1;}</style><linearGradient id="linear-gradient" x1="15" y1="39" x2="15" y2="19" gradientUnits="userSpaceOnUse"><stop offset="0" stop-color="#da5466"/><stop offset="1" stop-color="#f4929c"/></linearGradient><linearGradient id="linear-gradient-2" x1="4" y1="37" x2="4" y2="21" gradientUnits="userSpaceOnUse"><stop offset="0" stop-color="#d4d8e1"/><stop offset="1" stop-color="#f3f4f5"/></linearGradient><linearGradient id="linear-gradient-3" x1="23" y1="29" x2="51" y2="29" xlink:href="#linear-gradient-2"/><linearGradient id="linear-gradient-6" x1="51" y1="29" x2="57" y2="29" xlink:href="#linear-gradient-2"/><linearGradient id="linear-gradient-7" x1="57" y1="29" x2="63" y2="29" gradientUnits="userSpaceOnUse"><stop offset="0" stop-color="#a0a6ba"/><stop offset="1" stop-color="#c6ccda"/></linearGradient><linearGradient id="linear-gradient-8" x1="18" y1="63" x2="18" y2="39" xlink:href="#linear-gradient-7"/></defs><title>Marketing</title><g id="Marketing"><rect class="cls-1" x="7" y="19" width="16" height="20"/><rect class="cls-2" x="7" y="37" width="16" height="2"/><path class="cls-3" d="M5,21H7a0,0,0,0,1,0,0V37a0,0,0,0,1,0,0H5a4,4,0,0,1-4-4V25A4,4,0,0,1,5,21Z"/><path class="cls-4" d="M51,5V53l-.46-.74A32.47,32.47,0,0,0,38.75,41.07C34,38.44,28.6,38,23,38V20c11.2,0,21.61-4.77,27.54-14.26Z"/><path class="cls-3" d="M5,21H7a0,0,0,0,1,0,0V37a0,0,0,0,1,0,0H5a4,4,0,0,1-4-4V25A4,4,0,0,1,5,21Z"/><path class="cls-4" d="M51,5V53l-.46-.74A32.47,32.47,0,0,0,38.75,41.07C34,38.44,28.6,38,23,38V20c11.2,0,21.61-4.77,27.54-14.26Z"/><path class="cls-5" d="M7,34v3H5a4,4,0,0,1-4-4V30a4,4,0,0,0,4,4Z"/><path class="cls-5" d="M51,50v3l-.46-.74A32.47,32.47,0,0,0,38.75,41.07C34,38.44,28.6,38,23,38V35c5.6,0,11,.44,15.75,3.07A32.47,32.47,0,0,1,50.54,49.26Z"/><rect class="cls-6" x="51" y="1" width="6" height="56" rx="3"/><polygon class="cls-7" points="57 23 63 25 63 33 57 35 57 23"/><path class="cls-8" d="M23,57,20,39H10l3.58,21.49a3,3,0,0,0,3,2.51H26V60a3,3,0,0,0-3-3Z"/><path class="cls-9" d="M26,61v2H16.54a3,3,0,0,1-2.87-2.13,2.78,2.78,0,0,0,.87.13Z"/><path class="cls-2" d="M19,24H11a1,1,0,0,1,0-2h8a1,1,0,0,1,0,2Z"/><path class="cls-2" d="M19,28H11a1,1,0,0,1,0-2h8a1,1,0,0,1,0,2Z"/><path class="cls-2" d="M19,32H11a1,1,0,0,1,0-2h8a1,1,0,0,1,0,2Z"/><path class="cls-2" d="M19,36H11a1,1,0,0,1,0-2h8a1,1,0,0,1,0,2Z"/></g></svg>