<svg xmlns="http://www.w3.org/2000/svg" xmlns:xlink="http://www.w3.org/1999/xlink" viewBox="0 0 64 64"><defs><style>.cls-1{fill:url(#linear-gradient);}.cls-2{fill:#c7cdd8;}.cls-3{fill:url(#linear-gradient-3);}.cls-4{fill:#77cacb;}.cls-5{fill:#8288a1;}.cls-6{fill:url(#linear-gradient-4);}.cls-7{fill:#5b8dc9;}.cls-8{fill:url(#linear-gradient-5);}.cls-9{fill:#fff;}.cls-10{fill:url(#linear-gradient-6);}.cls-11{fill:url(#linear-gradient-7);}</style><linearGradient id="linear-gradient" x1="21" y1="63" x2="21" y2="1" gradientUnits="userSpaceOnUse"><stop offset="0" stop-color="#d4d8e1"/><stop offset="1" stop-color="#f3f4f5"/></linearGradient><linearGradient id="linear-gradient-3" x1="21" y1="59" x2="21" y2="5" gradientUnits="userSpaceOnUse"><stop offset="0" stop-color="#9dd5df"/><stop offset="1" stop-color="#c3e1f5"/></linearGradient><linearGradient id="linear-gradient-4" x1="43" y1="52" x2="43" y2="24" gradientUnits="userSpaceOnUse"><stop offset="0" stop-color="#7aa8d7"/><stop offset="1" stop-color="#c3d2e7"/></linearGradient><linearGradient id="linear-gradient-5" x1="51.25" y1="47" x2="51.25" y2="42" gradientUnits="userSpaceOnUse"><stop offset="0" stop-color="#da5466"/><stop offset="1" stop-color="#f4929c"/></linearGradient><linearGradient id="linear-gradient-6" x1="31" y1="33" x2="31" y2="29" gradientUnits="userSpaceOnUse"><stop offset="0" stop-color="#fbcc88"/><stop offset="1" stop-color="#ffe5c3"/></linearGradient><linearGradient id="linear-gradient-7" x1="55.5" y1="47" x2="55.5" y2="42" gradientUnits="userSpaceOnUse"><stop offset="0" stop-color="#f8aa88"/><stop offset="1" stop-color="#fac2ab"/></linearGradient></defs><title>Mobile Payment</title><g id="Mobile_Payment" data-name="Mobile Payment"><path class="cls-1" d="M41,52v7a4,4,0,0,1-4,4H5a4,4,0,0,1-4-4V5A4,4,0,0,1,5,1H37a4,4,0,0,1,4,4V52Z"/><path class="cls-1" d="M41,52v7a4,4,0,0,1-4,4H5a4,4,0,0,1-4-4V5A4,4,0,0,1,5,1H37a4,4,0,0,1,4,4V52Z"/><path class="cls-2" d="M41,57v2a4,4,0,0,1-4,4H5a4,4,0,0,1-4-4V57a4,4,0,0,0,4,4H37A4,4,0,0,0,41,57Z"/><path class="cls-3" d="M37,52v6a1,1,0,0,1-1,1H6a1,1,0,0,1-1-1V6A1,1,0,0,1,6,5h7a2,2,0,0,0,2,2H27a2,2,0,0,0,2-2h7a1,1,0,0,1,1,1V52Z"/><path class="cls-4" d="M37,56v2a1,1,0,0,1-1,1H6a1,1,0,0,1-1-1V56a1,1,0,0,0,1,1H36A1,1,0,0,0,37,56Z"/><circle class="cls-5" cx="17" cy="4" r="1"/><circle class="cls-5" cx="25" cy="4" r="1"/><rect class="cls-6" x="23" y="24" width="40" height="28" rx="3"/><path class="cls-7" d="M63,47v2a3,3,0,0,1-3,3H26a3,3,0,0,1-3-3V47a3,3,0,0,0,3,3H60A3,3,0,0,0,63,47Z"/><path class="cls-8" d="M53.5,46a2.51,2.51,0,1,1,0-3"/><path class="cls-9" d="M32,39H27a1,1,0,0,1,0-2h5a1,1,0,0,1,0,2Z"/><path class="cls-9" d="M41,39H36a1,1,0,0,1,0-2h5a1,1,0,0,1,0,2Z"/><path class="cls-9" d="M50,39H45a1,1,0,0,1,0-2h5a1,1,0,0,1,0,2Z"/><path class="cls-9" d="M59,39H54a1,1,0,0,1,0-2h5a1,1,0,0,1,0,2Z"/><rect class="cls-10" x="28" y="29" width="6" height="4"/><circle class="cls-11" cx="55.5" cy="44.5" r="2.5"/></g></svg>