<svg xmlns="http://www.w3.org/2000/svg" xmlns:xlink="http://www.w3.org/1999/xlink" viewBox="0 0 64 64"><defs><style>.cls-1{fill:url(#linear-gradient);}.cls-2{fill:#c7cdd8;}.cls-3{fill:url(#linear-gradient-2);}.cls-4{fill:url(#linear-gradient-3);}.cls-5{fill:#77cacb;}.cls-6{fill:url(#linear-gradient-4);}.cls-7{fill:#cba07a;}.cls-8{fill:url(#linear-gradient-5);}.cls-9{fill:url(#linear-gradient-6);}.cls-10{fill:url(#linear-gradient-7);}.cls-11{fill:url(#linear-gradient-8);}.cls-12{fill:url(#linear-gradient-9);}.cls-13{fill:url(#linear-gradient-10);}.cls-14{fill:url(#linear-gradient-11);}.cls-15{fill:url(#linear-gradient-12);}.cls-16{fill:url(#linear-gradient-13);}.cls-17{fill:url(#linear-gradient-14);}.cls-18{fill:#8288a1;}</style><linearGradient id="linear-gradient" x1="32" y1="63" x2="32" y2="14" gradientUnits="userSpaceOnUse"><stop offset="0" stop-color="#d4d8e1"/><stop offset="1" stop-color="#f3f4f5"/></linearGradient><linearGradient id="linear-gradient-2" x1="32" y1="55" x2="32" y2="14" gradientUnits="userSpaceOnUse"><stop offset="0" stop-color="#9dd5df"/><stop offset="1" stop-color="#c3e1f5"/></linearGradient><linearGradient id="linear-gradient-3" x1="32" y1="22" x2="32" xlink:href="#linear-gradient-2"/><linearGradient id="linear-gradient-4" x1="32" y1="48" x2="32" y2="31" gradientUnits="userSpaceOnUse"><stop offset="0" stop-color="#deb895"/><stop offset="1" stop-color="#f2d3b8"/></linearGradient><linearGradient id="linear-gradient-5" x1="22" y1="20" x2="22" y2="14" gradientUnits="userSpaceOnUse"><stop offset="0" stop-color="#da5466"/><stop offset="1" stop-color="#f4929c"/></linearGradient><linearGradient id="linear-gradient-6" x1="12" x2="12" xlink:href="#linear-gradient-5"/><linearGradient id="linear-gradient-7" x1="32" x2="32" xlink:href="#linear-gradient-5"/><linearGradient id="linear-gradient-8" x1="42" x2="42" xlink:href="#linear-gradient-5"/><linearGradient id="linear-gradient-9" x1="52" x2="52" xlink:href="#linear-gradient-5"/><linearGradient id="linear-gradient-10" x1="27" y1="7.5" x2="37" y2="7.5" xlink:href="#linear-gradient-5"/><linearGradient id="linear-gradient-11" x1="36" y1="7.5" x2="47" y2="7.5" xlink:href="#linear-gradient-5"/><linearGradient id="linear-gradient-12" x1="43" y1="7.5" x2="57" y2="7.5" xlink:href="#linear-gradient-5"/><linearGradient id="linear-gradient-13" x1="17" y1="7.5" x2="28" y2="7.5" xlink:href="#linear-gradient-5"/><linearGradient id="linear-gradient-14" x1="7" y1="7.5" x2="21" y2="7.5" xlink:href="#linear-gradient-5"/></defs><title>Mobile E commerce</title><g id="Mobile_E_commerce" data-name="Mobile E commerce"><path class="cls-1" d="M52,14V59a4,4,0,0,1-4,4H16a4,4,0,0,1-4-4V14Z"/><path class="cls-2" d="M52,56v3a4,4,0,0,1-4,4H16a4,4,0,0,1-4-4V56a4,4,0,0,0,4,4H48A4,4,0,0,0,52,56Z"/><rect class="cls-3" x="16" y="14" width="32" height="41"/><path class="cls-2" d="M16,14v6.74A7,7,0,0,1,12,22V14Z"/><path class="cls-2" d="M52,14v8a7,7,0,0,1-4-1.26V14Z"/><path class="cls-4" d="M48,14v6.74a7.37,7.37,0,0,1-1-.85,7,7,0,0,1-10,0,7,7,0,0,1-10,0,7,7,0,0,1-10,0,7.37,7.37,0,0,1-1,.85V14Z"/><polyline class="cls-5" points="48 52 48 55 16 55 16 52"/><path class="cls-6" d="M23,31H41a0,0,0,0,1,0,0V45a3,3,0,0,1-3,3H26a3,3,0,0,1-3-3V31A0,0,0,0,1,23,31Z"/><path class="cls-7" d="M36,35a1,1,0,0,1-1-1V28a3,3,0,0,0-6,0v6a1,1,0,0,1-2,0V28a5,5,0,0,1,10,0v6A1,1,0,0,1,36,35Z"/><path class="cls-8" d="M17,14H27a0,0,0,0,1,0,0v1a5,5,0,0,1-5,5h0a5,5,0,0,1-5-5V14A0,0,0,0,1,17,14Z"/><path class="cls-9" d="M7,14H17a0,0,0,0,1,0,0v1a5,5,0,0,1-5,5h0a5,5,0,0,1-5-5V14a0,0,0,0,1,0,0Z"/><path class="cls-10" d="M27,14H37a0,0,0,0,1,0,0v1a5,5,0,0,1-5,5h0a5,5,0,0,1-5-5V14A0,0,0,0,1,27,14Z"/><path class="cls-11" d="M37,14H47a0,0,0,0,1,0,0v1a5,5,0,0,1-5,5h0a5,5,0,0,1-5-5V14A0,0,0,0,1,37,14Z"/><path class="cls-12" d="M47,14H57a0,0,0,0,1,0,0v1a5,5,0,0,1-5,5h0a5,5,0,0,1-5-5V14A0,0,0,0,1,47,14Z"/><polygon class="cls-13" points="37 14 27 14 28 1 36 1 37 14"/><polygon class="cls-14" points="47 14 37 14 36 1 43 1 47 14"/><polygon class="cls-15" points="57 14 47 14 43 1 49 1 57 14"/><polygon class="cls-16" points="17 14 27 14 28 1 21 1 17 14"/><polygon class="cls-17" points="7 14 17 14 21 1 15 1 7 14"/><path class="cls-18" d="M32,61a2,2,0,1,1,2-2A2,2,0,0,1,32,61Zm0-2Z"/></g></svg>