<svg xmlns="http://www.w3.org/2000/svg" xmlns:xlink="http://www.w3.org/1999/xlink" viewBox="0 0 64 64"><defs><style>.cls-1{fill:#cf4055;}.cls-2{fill:url(#linear-gradient);}.cls-3{fill:#fff;}</style><linearGradient id="linear-gradient" x1="32" y1="54" x2="32" y2="10" gradientUnits="userSpaceOnUse"><stop offset="0" stop-color="#da5466"/><stop offset="1" stop-color="#f4929c"/></linearGradient></defs><title>New Product</title><g id="New_Product" data-name="New Product"><path class="cls-1" d="M63,32c0,2.68-2.53,5-3.19,7.45s.33,5.82-1,8-4.65,3-6.5,4.85-2.58,5.19-4.85,6.5-5.49.28-8,1S34.68,63,32,63s-5-2.53-7.45-3.19-5.82.33-8-1-3-4.65-4.85-6.5-5.19-2.58-6.5-4.85-.28-5.49-1-8S1,34.68,1,32s2.53-5,3.19-7.45-.33-5.82,1-8,4.65-3,6.5-4.85,2.58-5.19,4.85-6.5,5.49-.28,8.05-1S29.32,1,32,1s5,2.53,7.45,3.19,5.82-.33,8,1,3,4.65,4.85,6.5,5.19,2.58,6.5,4.85.28,5.49,1,8.05S63,29.32,63,32Z"/><circle class="cls-2" cx="32" cy="32" r="22"/><path class="cls-3" d="M33,28a1,1,0,0,0,0-2H27a1,1,0,0,0-1,1V37a1,1,0,0,0,1,1h6a1,1,0,0,0,0-2H28V33h4a1,1,0,0,0,0-2H28V28Z"/><path class="cls-3" d="M17,38a1,1,0,0,0,1-1V30.61l4.14,6.9A1,1,0,0,0,23,38a.84.84,0,0,0,.27,0A1,1,0,0,0,24,37V27a1,1,0,0,0-2,0v6.39l-4.14-6.9A1,1,0,0,0,16,27V37A1,1,0,0,0,17,38Z"/><path class="cls-3" d="M47.2,26A1,1,0,0,0,46,26.8L44.6,33.89,42.9,30.4a1,1,0,0,0-1.8,0l-1.7,3.49L38,26.8a1,1,0,1,0-2,.4l2,10a1,1,0,0,0,.85.79,1,1,0,0,0,1-.55L42,33.12l2.1,4.32A1,1,0,0,0,45,38h.13A1,1,0,0,0,46,37.2l2-10A1,1,0,0,0,47.2,26Z"/><path class="cls-3" d="M47,40H17a1,1,0,0,0,0,2H47a1,1,0,0,0,0-2Z"/><path class="cls-3" d="M17,24H47a1,1,0,0,0,0-2H17a1,1,0,0,0,0,2Z"/></g></svg>