<svg xmlns="http://www.w3.org/2000/svg" xmlns:xlink="http://www.w3.org/1999/xlink" viewBox="0 0 64 64"><defs><style>.cls-1{fill:url(#linear-gradient);}.cls-2{fill:#f6b756;}.cls-3{fill:url(#linear-gradient-2);}.cls-4{fill:#c7cdd8;}.cls-5{fill:url(#linear-gradient-3);}.cls-6{fill:#cba07a;}</style><linearGradient id="linear-gradient" x1="32" y1="63" x2="32" y2="27" gradientUnits="userSpaceOnUse"><stop offset="0" stop-color="#fbcc88"/><stop offset="1" stop-color="#ffe5c3"/></linearGradient><linearGradient id="linear-gradient-2" x1="32" y1="51" x2="32" y2="1" gradientUnits="userSpaceOnUse"><stop offset="0" stop-color="#d4d8e1"/><stop offset="1" stop-color="#f3f4f5"/></linearGradient><linearGradient id="linear-gradient-3" x1="32" y1="34" x2="32" y2="17" gradientUnits="userSpaceOnUse"><stop offset="0" stop-color="#deb895"/><stop offset="1" stop-color="#f2d3b8"/></linearGradient></defs><title>News Letter</title><g id="News_Letter" data-name="News Letter"><polygon class="cls-1" points="63 27 63 63 1 63 1 27 10 33.97 32 51 54 33.97 63 27"/><polygon class="cls-2" points="63 27 54 33.97 54 20.03 63 27"/><polygon class="cls-2" points="10 20.03 10 33.97 1 27 10 20.03"/><polygon class="cls-3" points="54 1 54 33.97 32 51 10 33.97 10 1 54 1"/><polygon class="cls-4" points="54 29.97 54 33.97 32 51 10 33.97 10 29.97 32 47 54 29.97"/><path class="cls-5" d="M23,17H41a0,0,0,0,1,0,0V31a3,3,0,0,1-3,3H26a3,3,0,0,1-3-3V17A0,0,0,0,1,23,17Z"/><path class="cls-6" d="M36,21a1,1,0,0,1-1-1V14a3,3,0,0,0-6,0v6a1,1,0,0,1-2,0V14a5,5,0,0,1,10,0v6A1,1,0,0,1,36,21Z"/><rect class="cls-2" x="1" y="60" width="62" height="3"/></g></svg>