<svg xmlns="http://www.w3.org/2000/svg" xmlns:xlink="http://www.w3.org/1999/xlink" viewBox="0 0 64 64"><defs><style>.cls-1{fill:url(#linear-gradient);}.cls-2{fill:url(#linear-gradient-2);}.cls-3{fill:#cba07a;}.cls-4{fill:url(#linear-gradient-3);}.cls-5{fill:url(#linear-gradient-4);}.cls-6{fill:url(#linear-gradient-5);}</style><linearGradient id="linear-gradient" x1="32" y1="21" x2="32" y2="1" gradientUnits="userSpaceOnUse"><stop offset="0" stop-color="#6ab891"/><stop offset="1" stop-color="#85cba9"/></linearGradient><linearGradient id="linear-gradient-2" x1="7.25" y1="57.25" x2="35.75" y2="28.75" gradientUnits="userSpaceOnUse"><stop offset="0" stop-color="#deb895"/><stop offset="1" stop-color="#f2d3b8"/></linearGradient><linearGradient id="linear-gradient-3" x1="16.5" y1="41" x2="16.5" y2="25" xlink:href="#linear-gradient-2"/><linearGradient id="linear-gradient-4" x1="27.25" y1="58.25" x2="57.75" y2="27.75" xlink:href="#linear-gradient-2"/><linearGradient id="linear-gradient-5" x1="47.5" y1="41" x2="47.5" y2="25" xlink:href="#linear-gradient-2"/></defs><title>Package</title><g id="Package"><polygon class="cls-1" points="36 13 36 1 28 1 28 13 23 13 32 21 41 13 36 13"/><polygon class="cls-2" points="32 25 32 63 8 58 8 26 32 25"/><polygon class="cls-3" points="32 25 32 29.48 25.12 43.23 8 40.25 8 26 32 25"/><polygon class="cls-4" points="8 26 1 37 24 41 32 25 8 26"/><polygon class="cls-5" points="56 26 56 58 32 63 32 25 56 26"/><polygon class="cls-3" points="32 59.78 32 63 8 58 8 54.78 32 59.78"/><polygon class="cls-3" points="56 54.78 56 58 32 63 32 59.78 56 54.78"/><polygon class="cls-3" points="56 26 56 40.25 38.88 43.23 32 29.48 32 25 56 26"/><polygon class="cls-6" points="56 26 63 37 40 41 32 25 56 26"/></g></svg>