<svg xmlns="http://www.w3.org/2000/svg" xmlns:xlink="http://www.w3.org/1999/xlink" viewBox="0 0 64 64"><defs><style>.cls-1{fill:url(#linear-gradient);}.cls-2{fill:#cba07a;}.cls-3{fill:url(#linear-gradient-3);}.cls-4{fill:#8a6762;}.cls-5{fill:url(#linear-gradient-4);}.cls-6{fill:#d7dbe2;}.cls-7{fill:url(#linear-gradient-6);}.cls-8{fill:url(#linear-gradient-7);}.cls-9{fill:#8288a1;}.cls-10{fill:#9ca0ad;}</style><linearGradient id="linear-gradient" x1="35" y1="53" x2="35" y2="6" gradientUnits="userSpaceOnUse"><stop offset="0" stop-color="#deb895"/><stop offset="1" stop-color="#f2d3b8"/></linearGradient><linearGradient id="linear-gradient-3" x1="33" y1="11" x2="33" y2="1" gradientUnits="userSpaceOnUse"><stop offset="0" stop-color="#9b756d"/><stop offset="1" stop-color="#bc9388"/></linearGradient><linearGradient id="linear-gradient-4" x1="55" y1="38" x2="55" y2="26" xlink:href="#linear-gradient-3"/><linearGradient id="linear-gradient-6" x1="13" y1="63" x2="13" y2="42" gradientUnits="userSpaceOnUse"><stop offset="0" stop-color="#d4d8e1"/><stop offset="1" stop-color="#f3f4f5"/></linearGradient><linearGradient id="linear-gradient-7" x1="13" y1="47" x2="13" y2="42" gradientUnits="userSpaceOnUse"><stop offset="0" stop-color="#da5466"/><stop offset="1" stop-color="#f4929c"/></linearGradient></defs><title>Pay Later</title><g id="Pay_Later" data-name="Pay Later"><path class="cls-1" d="M25,53H59a2,2,0,0,0,2-2V13a2,2,0,0,0-2-2H15L9,6V42Z"/><path class="cls-1" d="M25,53H59a2,2,0,0,0,2-2V13a2,2,0,0,0-2-2H15L9,6V42Z"/><path class="cls-2" d="M61,48v3a2,2,0,0,1-2,2H25L9,42l16,8H59A2,2,0,0,0,61,48Z"/><path class="cls-3" d="M14,1H55a2,2,0,0,1,2,2v8H14A5,5,0,0,1,9,6H9A5,5,0,0,1,14,1Z"/><path class="cls-4" d="M57,9v2H14A5,5,0,0,1,9,6a4.62,4.62,0,0,1,.1-1A5,5,0,0,0,14,9Z"/><path class="cls-5" d="M53,26H63a0,0,0,0,1,0,0V38a0,0,0,0,1,0,0H53a6,6,0,0,1-6-6v0a6,6,0,0,1,6-6Z"/><path class="cls-5" d="M53,26H63a0,0,0,0,1,0,0V38a0,0,0,0,1,0,0H53a6,6,0,0,1-6-6v0a6,6,0,0,1,6-6Z"/><path class="cls-4" d="M63,36v2H53a6,6,0,0,1-6-6,5.47,5.47,0,0,1,.09-1,5.83,5.83,0,0,0,1.67,3.24A5.94,5.94,0,0,0,53,36Z"/><circle class="cls-6" cx="53" cy="32" r="2"/><rect class="cls-7" x="1" y="42" width="24" height="21"/><rect class="cls-8" x="1" y="42" width="24" height="5"/><path class="cls-9" d="M5,45a1,1,0,0,1-1-1V40a1,1,0,0,1,2,0v4A1,1,0,0,1,5,45Z"/><path class="cls-9" d="M21,45a1,1,0,0,1-1-1V40a1,1,0,0,1,2,0v4A1,1,0,0,1,21,45Z"/><path class="cls-10" d="M14,52H12a1,1,0,0,1,0-2h2a1,1,0,0,1,0,2Z"/><path class="cls-10" d="M20,52H18a1,1,0,0,1,0-2h2a1,1,0,0,1,0,2Z"/><path class="cls-10" d="M8,56H6a1,1,0,0,1,0-2H8a1,1,0,0,1,0,2Z"/><path class="cls-10" d="M14,56H12a1,1,0,0,1,0-2h2a1,1,0,0,1,0,2Z"/><path class="cls-10" d="M20,56H18a1,1,0,0,1,0-2h2a1,1,0,0,1,0,2Z"/><path class="cls-10" d="M8,60H6a1,1,0,0,1,0-2H8a1,1,0,0,1,0,2Z"/><path class="cls-10" d="M14,60H12a1,1,0,0,1,0-2h2a1,1,0,0,1,0,2Z"/></g></svg>