<svg id="Premium_Product" data-name="Premium Product" xmlns="http://www.w3.org/2000/svg" xmlns:xlink="http://www.w3.org/1999/xlink" viewBox="0 0 64 64"><defs><style>.cls-1{fill:#cf4055;}.cls-2{fill:url(#linear-gradient);}.cls-3{fill:url(#linear-gradient-2);}.cls-4{fill:url(#linear-gradient-3);}.cls-5{fill:url(#linear-gradient-4);}.cls-6{fill:url(#linear-gradient-5);}.cls-7{fill:url(#linear-gradient-6);}.cls-8{fill:url(#linear-gradient-7);}.cls-9{fill:url(#linear-gradient-8);}.cls-10{fill:url(#linear-gradient-9);}</style><linearGradient id="linear-gradient" x1="32" y1="54" x2="32" y2="10" gradientUnits="userSpaceOnUse"><stop offset="0" stop-color="#da5466"/><stop offset="1" stop-color="#f4929c"/></linearGradient><linearGradient id="linear-gradient-2" x1="16" y1="38.5" x2="32" y2="38.5" gradientUnits="userSpaceOnUse"><stop offset="0" stop-color="#7aa8d7"/><stop offset="1" stop-color="#c3d2e7"/></linearGradient><linearGradient id="linear-gradient-3" x1="32" x2="48" xlink:href="#linear-gradient-2"/><linearGradient id="linear-gradient-4" x1="37" y1="24.5" x2="48" y2="24.5" xlink:href="#linear-gradient-2"/><linearGradient id="linear-gradient-5" x1="32" y1="24.5" x2="42" y2="24.5" xlink:href="#linear-gradient-2"/><linearGradient id="linear-gradient-6" y1="24.5" x2="27" y2="24.5" xlink:href="#linear-gradient-2"/><linearGradient id="linear-gradient-7" x1="27" y1="24.5" x2="37" y2="24.5" xlink:href="#linear-gradient-2"/><linearGradient id="linear-gradient-8" x1="22" y1="24.5" y2="24.5" xlink:href="#linear-gradient-2"/><linearGradient id="linear-gradient-9" x1="27" x2="37" xlink:href="#linear-gradient-2"/></defs><title>Premium Product</title><path class="cls-1" d="M63,32c0,2.68-2.53,5-3.19,7.45s.33,5.82-1,8-4.65,3-6.5,4.85-2.58,5.19-4.85,6.5-5.49.28-8,1S34.68,63,32,63s-5-2.53-7.45-3.19-5.82.33-8-1-3-4.65-4.85-6.5-5.19-2.58-6.5-4.85-.28-5.49-1-8S1,34.68,1,32s2.53-5,3.19-7.45-.33-5.82,1-8,4.65-3,6.5-4.85,2.58-5.19,4.85-6.5,5.49-.28,8.05-1S29.32,1,32,1s5,2.53,7.45,3.19,5.82-.33,8,1,3,4.65,4.85,6.5,5.19,2.58,6.5,4.85.28,5.49,1,8.05S63,29.32,63,32Z"/><circle class="cls-2" cx="32" cy="32" r="22"/><polygon class="cls-3" points="32 48 16 29 27 29 32 48"/><polygon class="cls-4" points="48 29 32 48 37 29 48 29"/><polygon class="cls-5" points="48 29 37 29 42 20 48 29"/><polygon class="cls-6" points="42 20 37 29 32 20 42 20"/><polygon class="cls-7" points="27 29 16 29 22 20 27 29"/><polygon class="cls-8" points="37 29 27 29 32 20 37 29"/><polygon class="cls-9" points="32 20 27 29 22 20 32 20"/><polygon class="cls-10" points="37 29 32 48 27 29 37 29"/></svg>