<svg xmlns="http://www.w3.org/2000/svg" xmlns:xlink="http://www.w3.org/1999/xlink" viewBox="0 0 64 64"><defs><style>.cls-1{fill:url(#linear-gradient);}.cls-2{fill:url(#linear-gradient-2);}.cls-3{fill:#f6b756;}.cls-4{fill:url(#linear-gradient-3);}.cls-5{fill:url(#linear-gradient-4);}.cls-6{fill:#fff2e3;}.cls-7{fill:#cba07a;}.cls-8{fill:url(#linear-gradient-5);}.cls-9{fill:url(#linear-gradient-6);}.cls-10{fill:#8288a1;}.cls-11{fill:#9ca0ad;}</style><linearGradient id="linear-gradient" x1="38" y1="55" x2="38" y2="15" gradientUnits="userSpaceOnUse"><stop offset="0" stop-color="#deb895"/><stop offset="1" stop-color="#f2d3b8"/></linearGradient><linearGradient id="linear-gradient-2" x1="38" y1="23" x2="38" y2="15" gradientUnits="userSpaceOnUse"><stop offset="0" stop-color="#fbcc88"/><stop offset="1" stop-color="#ffe5c3"/></linearGradient><linearGradient id="linear-gradient-3" x1="38" y1="15" x2="38" y2="1" xlink:href="#linear-gradient"/><linearGradient id="linear-gradient-4" x1="38" y1="15" x2="38" y2="1" xlink:href="#linear-gradient-2"/><linearGradient id="linear-gradient-5" x1="13" y1="63" x2="13" y2="42" gradientUnits="userSpaceOnUse"><stop offset="0" stop-color="#d4d8e1"/><stop offset="1" stop-color="#f3f4f5"/></linearGradient><linearGradient id="linear-gradient-6" x1="13" y1="47" x2="13" y2="42" gradientUnits="userSpaceOnUse"><stop offset="0" stop-color="#da5466"/><stop offset="1" stop-color="#f4929c"/></linearGradient></defs><title>Preorder</title><g id="Preorder"><polyline class="cls-1" points="13 42 13 15 63 15 63 55 25 55"/><polygon class="cls-2" points="32 15 32 23 34.99 21 38 23 40.99 21 44 23 44 15 32 15"/><polygon class="cls-3" points="44 21 44 23 40.99 21 38 23 34.99 21 32 23 32 21 34.99 19 38 21 40.99 19 44 21"/><polygon class="cls-4" points="63 15 13 15 21 1 55 1 63 15"/><polygon class="cls-5" points="44 15 32 15 33.92 1 42.08 1 44 15"/><path class="cls-6" d="M58,47H50a1,1,0,0,1,0-2h8a1,1,0,0,1,0,2Z"/><path class="cls-6" d="M58,51H50a1,1,0,0,1,0-2h8a1,1,0,0,1,0,2Z"/><rect class="cls-7" x="25" y="53" width="38" height="2"/><rect class="cls-8" x="1" y="42" width="24" height="21"/><rect class="cls-9" x="1" y="42" width="24" height="5"/><path class="cls-10" d="M5,45a1,1,0,0,1-1-1V40a1,1,0,0,1,2,0v4A1,1,0,0,1,5,45Z"/><path class="cls-10" d="M21,45a1,1,0,0,1-1-1V40a1,1,0,0,1,2,0v4A1,1,0,0,1,21,45Z"/><path class="cls-11" d="M14,52H12a1,1,0,0,1,0-2h2a1,1,0,0,1,0,2Z"/><path class="cls-11" d="M20,52H18a1,1,0,0,1,0-2h2a1,1,0,0,1,0,2Z"/><path class="cls-11" d="M8,56H6a1,1,0,0,1,0-2H8a1,1,0,0,1,0,2Z"/><path class="cls-11" d="M14,56H12a1,1,0,0,1,0-2h2a1,1,0,0,1,0,2Z"/><path class="cls-11" d="M20,56H18a1,1,0,0,1,0-2h2a1,1,0,0,1,0,2Z"/><path class="cls-11" d="M8,60H6a1,1,0,0,1,0-2H8a1,1,0,0,1,0,2Z"/><path class="cls-11" d="M14,60H12a1,1,0,0,1,0-2h2a1,1,0,0,1,0,2Z"/></g></svg>