<svg xmlns="http://www.w3.org/2000/svg" xmlns:xlink="http://www.w3.org/1999/xlink" viewBox="0 0 64 64"><defs><style>.cls-1{fill:url(#linear-gradient);}.cls-2{fill:#42455e;}.cls-3{fill:#fff;}.cls-4{fill:#cf4055;}.cls-5{fill:#c7cdd8;}</style><linearGradient id="linear-gradient" x1="32.5" y1="63" x2="32.5" y2="11" gradientUnits="userSpaceOnUse"><stop offset="0" stop-color="#da5466"/><stop offset="1" stop-color="#f4929c"/></linearGradient></defs><title>Price Tag</title><g id="Price_Tag" data-name="Price Tag"><path class="cls-1" d="M50,63H15V25L28.5,12.4A5.19,5.19,0,0,1,32.05,11h0a5.19,5.19,0,0,1,3.42,1.29L50,25Z"/><path class="cls-2" d="M32,18a2,2,0,1,1,2-2A2,2,0,0,1,32,18Zm0-2h0Zm0,0h0Zm0,0h0Zm0,0h0Zm0,0h0Zm0,0h0Zm0,0h0Zm0,0h0Z"/><path class="cls-3" d="M25,54a1,1,0,0,1-.61-.21,1,1,0,0,1-.18-1.4l14-18a1,1,0,0,1,1.58,1.22l-14,18A1,1,0,0,1,25,54Z"/><path class="cls-3" d="M38,54a4,4,0,1,1,4-4A4,4,0,0,1,38,54Zm0-6a2,2,0,1,0,2,2A2,2,0,0,0,38,48Z"/><path class="cls-3" d="M26,42a4,4,0,1,1,4-4A4,4,0,0,1,26,42Zm0-6a2,2,0,1,0,2,2A2,2,0,0,0,26,36Z"/><rect class="cls-4" x="15" y="60" width="35" height="3"/><path class="cls-5" d="M40.5,8.5a8.38,8.38,0,0,1-2.45,5.95L38,14.5,36.5,13.2s0,0,0,0l.13-.14A6.41,6.41,0,0,0,38.5,8.5a6.5,6.5,0,0,0-13,0A6.37,6.37,0,0,0,27.37,13l.22.21a6.42,6.42,0,0,0,3.55,1.69A5.81,5.81,0,0,0,32,15a1,1,0,0,1,0,2,8.09,8.09,0,0,1-1.15-.08,8.3,8.3,0,0,1-4.73-2.3l-.18-.18A8.37,8.37,0,0,1,23.5,8.5a8.5,8.5,0,0,1,17,0Z"/></g></svg>