<svg xmlns="http://www.w3.org/2000/svg" xmlns:xlink="http://www.w3.org/1999/xlink" viewBox="0 0 64 64"><defs><style>.cls-1{fill:url(#linear-gradient);}.cls-2{fill:#cba07a;}.cls-3{fill:url(#linear-gradient-2);}.cls-4{fill:url(#linear-gradient-3);}.cls-5{fill:url(#linear-gradient-4);}.cls-6{fill:#f6b756;}.cls-7{fill:#fff2e3;}</style><linearGradient id="linear-gradient" x1="32" y1="63" x2="32" y2="17" gradientUnits="userSpaceOnUse"><stop offset="0" stop-color="#deb895"/><stop offset="1" stop-color="#f2d3b8"/></linearGradient><linearGradient id="linear-gradient-2" y1="17" y2="1" xlink:href="#linear-gradient"/><linearGradient id="linear-gradient-3" x1="32" y1="17" x2="32" y2="1" gradientUnits="userSpaceOnUse"><stop offset="0" stop-color="#fbcc88"/><stop offset="1" stop-color="#ffe5c3"/></linearGradient><linearGradient id="linear-gradient-4" y1="25" y2="17" xlink:href="#linear-gradient-3"/></defs><title>Product</title><g id="Product"><rect class="cls-1" x="3" y="17" width="58" height="46"/><rect class="cls-2" x="3" y="61" width="58" height="2"/><polygon class="cls-3" points="61 17 3 17 15 1 49 1 61 17"/><polygon class="cls-4" points="38 17 26 17 28.48 1 35.52 1 38 17"/><polygon class="cls-5" points="38 17 38 25 35.01 23 32 25 29.01 23 26 25 26 17 38 17"/><polygon class="cls-5" points="38 17 38 25 35.01 23 32 25 29.01 23 26 25 26 17 38 17"/><polygon class="cls-5" points="38 17 38 25 35.01 23 32 25 29.01 23 26 25 26 17 38 17"/><polygon class="cls-6" points="38 23 38 25 35.01 23 32 25 29.01 23 26 25 26 23 29.01 21 32 23 35.01 21 38 23"/><path class="cls-7" d="M56,57H44a1,1,0,0,0,0,2H56a1,1,0,0,0,0-2Z"/><path class="cls-7" d="M44.71,50.71l.29-.3V54a1,1,0,0,0,2,0V50.41l.29.3a1,1,0,0,0,1.42,0,1,1,0,0,0,0-1.42l-2-2a1,1,0,0,0-.33-.21,1,1,0,0,0-.76,0,1,1,0,0,0-.33.21l-2,2a1,1,0,0,0,1.42,1.42Z"/><path class="cls-7" d="M52.71,50.71l.29-.3V54a1,1,0,0,0,2,0V50.41l.29.3a1,1,0,0,0,1.42,0,1,1,0,0,0,0-1.42l-2-2a1,1,0,0,0-.33-.21,1,1,0,0,0-.76,0,1,1,0,0,0-.33.21l-2,2a1,1,0,0,0,1.42,1.42Z"/></g></svg>