<svg xmlns="http://www.w3.org/2000/svg" xmlns:xlink="http://www.w3.org/1999/xlink" viewBox="0 0 64 64"><defs><style>.cls-1{fill:#5b8dc9;}.cls-2{fill:#cf4055;}.cls-3{fill:url(#linear-gradient);}.cls-4{fill:#42455e;}.cls-5{fill:url(#linear-gradient-2);}.cls-6{fill:url(#linear-gradient-3);}.cls-7{fill:url(#linear-gradient-4);}.cls-8{fill:url(#linear-gradient-5);}.cls-9{fill:url(#linear-gradient-6);}.cls-10{fill:#c7cdd8;}</style><linearGradient id="linear-gradient" x1="17" y1="26" x2="17" y2="8" gradientUnits="userSpaceOnUse"><stop offset="0" stop-color="#474f72"/><stop offset="1" stop-color="#878c9f"/></linearGradient><linearGradient id="linear-gradient-2" x1="47" x2="47" y2="8" xlink:href="#linear-gradient"/><linearGradient id="linear-gradient-3" y1="56" y2="38" xlink:href="#linear-gradient"/><linearGradient id="linear-gradient-4" x1="54" y1="42" x2="54" y2="38" xlink:href="#linear-gradient"/><linearGradient id="linear-gradient-5" x1="47" y1="49" x2="47" y2="45" xlink:href="#linear-gradient"/><linearGradient id="linear-gradient-6" x1="40" y1="56" x2="40" y2="52" xlink:href="#linear-gradient"/></defs><title>QR code</title><g id="QR_code" data-name="QR code"><path class="cls-1" d="M2,15a1,1,0,0,1-1-1V2A1,1,0,0,1,2,1H14a1,1,0,0,1,0,2H3V14A1,1,0,0,1,2,15Z"/><path class="cls-1" d="M62,63H50a1,1,0,0,1,0-2H61V50a1,1,0,0,1,2,0V62A1,1,0,0,1,62,63Z"/><path class="cls-1" d="M62,15a1,1,0,0,1-1-1V3H50a1,1,0,0,1,0-2H62a1,1,0,0,1,1,1V14A1,1,0,0,1,62,15Z"/><path class="cls-1" d="M14,63H2a1,1,0,0,1-1-1V50a1,1,0,0,1,2,0V61H14a1,1,0,0,1,0,2Z"/><path class="cls-2" d="M62,33H2a1,1,0,0,1,0-2H62a1,1,0,0,1,0,2Z"/><rect class="cls-3" x="8" y="8" width="18" height="18"/><rect class="cls-4" x="13" y="13" width="8" height="8"/><rect class="cls-5" x="38" y="8" width="18" height="18"/><rect class="cls-4" x="43" y="13" width="8" height="8"/><rect class="cls-6" x="8" y="38" width="18" height="18"/><rect class="cls-4" x="13" y="43" width="8" height="8"/><rect class="cls-4" x="38" y="38" width="6" height="6"/><rect class="cls-7" x="52" y="38" width="4" height="4"/><rect class="cls-8" x="45" y="45" width="4" height="4"/><rect class="cls-9" x="38" y="52" width="4" height="4"/><rect class="cls-4" x="50" y="50" width="6" height="6"/><path class="cls-10" d="M32,57a1,1,0,0,1-1-1V36a1,1,0,0,1,2,0V56A1,1,0,0,1,32,57Z"/><path class="cls-10" d="M32,29a1,1,0,0,1-1-1V8a1,1,0,0,1,2,0V28A1,1,0,0,1,32,29Z"/></g></svg>