<svg xmlns="http://www.w3.org/2000/svg" xmlns:xlink="http://www.w3.org/1999/xlink" viewBox="0 0 64 64"><defs><style>.cls-1{fill:url(#linear-gradient);}.cls-2{fill:#eab39b;}.cls-3{fill:url(#linear-gradient-3);}.cls-4{fill:#cba07a;}.cls-5{fill:url(#linear-gradient-4);}.cls-6{fill:#f6b756;}.cls-7{fill:#fff2e3;}</style><linearGradient id="linear-gradient" x1="32" y1="63" x2="32" y2="37" gradientUnits="userSpaceOnUse"><stop offset="0" stop-color="#f2c4b0"/><stop offset="1" stop-color="#ffe3d7"/></linearGradient><linearGradient id="linear-gradient-3" x1="43" y1="37" x2="43" y2="1" gradientUnits="userSpaceOnUse"><stop offset="0" stop-color="#deb895"/><stop offset="1" stop-color="#f2d3b8"/></linearGradient><linearGradient id="linear-gradient-4" x1="43" y1="9" x2="43" y2="1" gradientUnits="userSpaceOnUse"><stop offset="0" stop-color="#fbcc88"/><stop offset="1" stop-color="#ffe5c3"/></linearGradient></defs><title>Receive Product</title><g id="Receive_Product" data-name="Receive Product"><path class="cls-1" d="M1,43l9-2h0a13.65,13.65,0,0,1,9.66-4h4.95A8,8,0,0,1,32,42h8a5,5,0,0,1,5,5,2,2,0,0,1-2,2h0a5.41,5.41,0,0,0,3.52-1.3l11.66-10a2.93,2.93,0,0,1,1.9-.7h0A2.92,2.92,0,0,1,63,39.92h0a4.79,4.79,0,0,1-1.52,3.5L49.88,54.3A10,10,0,0,1,43.05,57H12L1,63"/><path class="cls-1" d="M63,39.92a4.79,4.79,0,0,1-1.52,3.5L49.88,54.3A10,10,0,0,1,43.05,57H12L1,63V43l9-2a13.66,13.66,0,0,1,9.66-4h4.95a8,8,0,0,1,6.56,3.44h0A8,8,0,0,1,32,42h8a5,5,0,0,1,4.94,4.31A3.93,3.93,0,0,1,45,47a2,2,0,0,1-1.8,2,5.35,5.35,0,0,0,3.2-1.2l.12-.09,11.66-10a2.93,2.93,0,0,1,1.9-.7A2.94,2.94,0,0,1,63,39.92Z"/><path class="cls-2" d="M63,39.92a4.79,4.79,0,0,1-1.52,3.5L49.88,54.3A10,10,0,0,1,43.05,57H12L1,63V61l11-6H43.05a10,10,0,0,0,6.83-2.7l11.6-10.88A4.75,4.75,0,0,0,62.86,39,2.91,2.91,0,0,1,63,39.92Z"/><rect class="cls-3" x="23" y="1" width="40" height="36"/><rect class="cls-4" x="23" y="35" width="40" height="2"/><polygon class="cls-5" points="48 1 48 9 45.51 8 43 9 40.51 8 38 9 38 1 48 1"/><polygon class="cls-6" points="48 7 48 9 45.51 8 43 9 40.51 8 38 9 38 7 40.51 6 43 7 45.51 6 48 7"/><path class="cls-7" d="M58,33H52a1,1,0,0,1,0-2h6a1,1,0,0,1,0,2Z"/><path class="cls-7" d="M58,29H52a1,1,0,0,1,0-2h6a1,1,0,0,1,0,2Z"/><path class="cls-2" d="M43.2,49H26a1,1,0,0,1,0-2H44a1,1,0,0,0,.94-.69A3.93,3.93,0,0,1,45,47,2,2,0,0,1,43.2,49Z"/></g></svg>