<svg xmlns="http://www.w3.org/2000/svg" xmlns:xlink="http://www.w3.org/1999/xlink" viewBox="0 0 64 64"><defs><style>.cls-1{fill:url(#linear-gradient);}.cls-2{fill:url(#linear-gradient-2);}.cls-3{fill:#cba07a;}.cls-4{fill:#c7cdd8;}</style><linearGradient id="linear-gradient" x1="32" y1="63" x2="32" y2="19" gradientUnits="userSpaceOnUse"><stop offset="0" stop-color="#7aa8d7"/><stop offset="1" stop-color="#c3d2e7"/></linearGradient><linearGradient id="linear-gradient-2" x1="32" y1="63" x2="32" y2="19" gradientUnits="userSpaceOnUse"><stop offset="0" stop-color="#deb895"/><stop offset="1" stop-color="#f2d3b8"/></linearGradient></defs><title>Shop Bag</title><g id="Shop_Bag" data-name="Shop Bag"><path class="cls-1" d="M53,19H11L8,56.77c0,.15,0,.31,0,.46H8A5.77,5.77,0,0,0,13.77,63H50.23A5.77,5.77,0,0,0,56,57.23h0c0-.15,0-.31,0-.46Z"/><path class="cls-2" d="M53,19H11L8,56.77c0,.15,0,.31,0,.46H8A5.77,5.77,0,0,0,13.77,63H50.23A5.77,5.77,0,0,0,56,57.23h0c0-.15,0-.31,0-.46Z"/><path class="cls-3" d="M56,57.23A5.77,5.77,0,0,1,50.23,63H13.77A5.77,5.77,0,0,1,8,57.23c0-.15,0-.31,0-.46l.11-1.35a5.65,5.65,0,0,0,1.56,2.89A5.73,5.73,0,0,0,13.77,60H50.23a5.75,5.75,0,0,0,5.64-4.58L56,56.77C56,56.92,56,57.08,56,57.23Z"/><path class="cls-4" d="M44,28a1,1,0,0,1-1-1V15a11,11,0,0,0-22,0V27a1,1,0,0,1-2,0V15a13,13,0,0,1,26,0V27A1,1,0,0,1,44,28Z"/><circle class="cls-3" cx="20" cy="27" r="2"/><circle class="cls-3" cx="44" cy="27" r="2"/></g></svg>