<svg xmlns="http://www.w3.org/2000/svg" xmlns:xlink="http://www.w3.org/1999/xlink" viewBox="0 0 64 64"><defs><style>.cls-1{fill:#c7cdd8;}.cls-2{fill:url(#linear-gradient);}.cls-3{fill:#ffabb7;}.cls-4{fill:#cf4055;}.cls-5{fill:#8288a1;}</style><linearGradient id="linear-gradient" x1="32" y1="63" x2="32" y2="29" gradientUnits="userSpaceOnUse"><stop offset="0" stop-color="#da5466"/><stop offset="1" stop-color="#f4929c"/></linearGradient></defs><title>Sold</title><g id="Sold"><path class="cls-1" d="M59,30a1,1,0,0,1-.69-.28L32.75,5.1a1,1,0,1,1,1.38-1.44L59.69,28.28a1,1,0,0,1,0,1.41A1,1,0,0,1,59,30Z"/><path class="cls-1" d="M5,30a1,1,0,0,1-.72-.31,1,1,0,0,1,0-1.41L29.87,3.66A1,1,0,1,1,31.25,5.1L5.69,29.72A1,1,0,0,1,5,30Z"/><rect class="cls-2" x="1" y="29" width="62" height="34"/><rect class="cls-3" x="5" y="33" width="54" height="26"/><path class="cls-4" d="M14.5,54H10a1,1,0,0,1,0-2h4.5a2.5,2.5,0,0,0,0-5h-1a4.5,4.5,0,0,1,0-9H18a1,1,0,0,1,0,2H13.5a2.5,2.5,0,0,0,0,5h1a4.5,4.5,0,0,1,0,9Z"/><path class="cls-4" d="M26,54a5,5,0,0,1-5-5V43a5,5,0,0,1,10,0v6A5,5,0,0,1,26,54Zm0-14a3,3,0,0,0-3,3v6a3,3,0,0,0,6,0V43A3,3,0,0,0,26,40Z"/><path class="cls-4" d="M42,54H34a1,1,0,0,1-1-1V39a1,1,0,0,1,2,0V52h7a1,1,0,0,1,0,2Z"/><path class="cls-4" d="M50,54H46a1,1,0,0,1-1-1V39a1,1,0,0,1,1-1h4a5,5,0,0,1,5,5v6A5,5,0,0,1,50,54Zm-3-2h3a3,3,0,0,0,3-3V43a3,3,0,0,0-3-3H47Z"/><circle class="cls-5" cx="32" cy="3" r="2"/></g></svg>