<svg xmlns="http://www.w3.org/2000/svg" xmlns:xlink="http://www.w3.org/1999/xlink" viewBox="0 0 64 64"><defs><style>.cls-1{fill:url(#linear-gradient);}.cls-2{fill:url(#linear-gradient-2);}.cls-3{fill:#cba07a;}.cls-4{fill:url(#linear-gradient-3);}.cls-5{fill:url(#linear-gradient-4);}.cls-6{fill:url(#linear-gradient-5);}.cls-7{fill:url(#linear-gradient-6);}.cls-8{fill:#f6b756;}.cls-9{fill:#fff2e3;}</style><linearGradient id="linear-gradient" x1="16.5" y1="62" x2="16.5" y2="32" gradientUnits="userSpaceOnUse"><stop offset="0" stop-color="#deb895"/><stop offset="1" stop-color="#f2d3b8"/></linearGradient><linearGradient id="linear-gradient-2" x1="47.5" x2="47.5" y2="32" xlink:href="#linear-gradient"/><linearGradient id="linear-gradient-3" x1="32" y1="32" x2="32" y2="2" xlink:href="#linear-gradient"/><linearGradient id="linear-gradient-4" x1="32" y1="9" x2="32" y2="2" gradientUnits="userSpaceOnUse"><stop offset="0" stop-color="#fbcc88"/><stop offset="1" stop-color="#ffe5c3"/></linearGradient><linearGradient id="linear-gradient-5" x1="48" y1="39" x2="48" y2="32" xlink:href="#linear-gradient-4"/><linearGradient id="linear-gradient-6" x1="16" y1="39" x2="16" y2="32" xlink:href="#linear-gradient-4"/></defs><title>Stock Product</title><g id="Stock_Product" data-name="Stock Product"><rect class="cls-1" x="1" y="32" width="31" height="30"/><rect class="cls-2" x="32" y="32" width="31" height="30"/><rect class="cls-3" x="31" y="32" width="2" height="30"/><rect class="cls-3" x="1" y="60" width="31" height="2"/><rect class="cls-3" x="32" y="60" width="31" height="2"/><rect class="cls-4" x="16" y="2" width="32" height="30"/><rect class="cls-3" x="16" y="30" width="32" height="2"/><polygon class="cls-5" points="36 2 36 9 34.01 8 32 9 30.01 8 28 9 28 2 36 2"/><polygon class="cls-6" points="52 32 52 39 50.01 38 48 39 46.01 38 44 39 44 32 52 32"/><polygon class="cls-7" points="20 32 20 39 18.01 38 16 39 14.01 38 12 39 12 32 20 32"/><polygon class="cls-5" points="36 2 36 9 34.01 8 32 9 30.01 8 28 9 28 2 36 2"/><polygon class="cls-6" points="52 32 52 39 50.01 38 48 39 46.01 38 44 39 44 32 52 32"/><polygon class="cls-7" points="20 32 20 39 18.01 38 16 39 14.01 38 12 39 12 32 20 32"/><polygon class="cls-8" points="36 7 36 9 34.01 8 32 9 30.01 8 28 9 28 7 30.01 6 32 7 34.01 6 36 7"/><polygon class="cls-8" points="52 37 52 39 50.01 38 48 39 46.01 38 44 39 44 37 46.01 36 48 37 50.01 36 52 37"/><polygon class="cls-8" points="20 37 20 39 18.01 38 16 39 14.01 38 12 39 12 37 14.01 36 16 37 18.01 36 20 37"/><path class="cls-9" d="M43,28H39a1,1,0,0,1,0-2h4a1,1,0,0,1,0,2Z"/><path class="cls-9" d="M27,58H23a1,1,0,0,1,0-2h4a1,1,0,0,1,0,2Z"/><path class="cls-9" d="M58,58H54a1,1,0,0,1,0-2h4a1,1,0,0,1,0,2Z"/></g></svg>