<svg xmlns="http://www.w3.org/2000/svg" xmlns:xlink="http://www.w3.org/1999/xlink" viewBox="0 0 64 64"><defs><style>.cls-1{fill:url(#linear-gradient);}.cls-2{fill:#c7cdd8;}.cls-3{fill:url(#linear-gradient-2);}.cls-4{fill:url(#linear-gradient-3);}.cls-5{fill:url(#linear-gradient-4);}.cls-6{fill:url(#linear-gradient-5);}.cls-7{fill:url(#linear-gradient-6);}.cls-8{fill:url(#linear-gradient-7);}.cls-9{fill:url(#linear-gradient-8);}.cls-10{fill:url(#linear-gradient-9);}.cls-11{fill:url(#linear-gradient-10);}.cls-12{fill:url(#linear-gradient-11);}.cls-13{fill:url(#linear-gradient-12);}.cls-14{fill:url(#linear-gradient-13);}.cls-15{fill:#77cacb;}.cls-16{fill:#8288a1;}.cls-17{fill:url(#linear-gradient-14);}.cls-18{fill:url(#linear-gradient-15);}</style><linearGradient id="linear-gradient" x1="32" y1="59" x2="32" y2="22" gradientUnits="userSpaceOnUse"><stop offset="0" stop-color="#d4d8e1"/><stop offset="1" stop-color="#f3f4f5"/></linearGradient><linearGradient id="linear-gradient-2" x1="8" y1="30" x2="8" y2="22" gradientUnits="userSpaceOnUse"><stop offset="0" stop-color="#da5466"/><stop offset="1" stop-color="#f4929c"/></linearGradient><linearGradient id="linear-gradient-3" x1="20" x2="20" xlink:href="#linear-gradient-2"/><linearGradient id="linear-gradient-4" x1="32" x2="32" xlink:href="#linear-gradient-2"/><linearGradient id="linear-gradient-5" x1="44" x2="44" xlink:href="#linear-gradient-2"/><linearGradient id="linear-gradient-6" x1="56" x2="56" xlink:href="#linear-gradient-2"/><linearGradient id="linear-gradient-7" x1="26" y1="15.5" x2="38" y2="15.5" xlink:href="#linear-gradient-2"/><linearGradient id="linear-gradient-8" x1="37" y1="15.5" x2="50" y2="15.5" xlink:href="#linear-gradient-2"/><linearGradient id="linear-gradient-9" x1="46" y1="15.5" x2="62" y2="15.5" xlink:href="#linear-gradient-2"/><linearGradient id="linear-gradient-10" x1="14" y1="15.5" x2="27" y2="15.5" xlink:href="#linear-gradient-2"/><linearGradient id="linear-gradient-11" x1="2" y1="15.5" x2="18" y2="15.5" xlink:href="#linear-gradient-2"/><linearGradient id="linear-gradient-12" x1="32" y1="63" x2="32" y2="59" gradientUnits="userSpaceOnUse"><stop offset="0" stop-color="#474f72"/><stop offset="1" stop-color="#878c9f"/></linearGradient><linearGradient id="linear-gradient-13" x1="45" y1="59" x2="45" y2="35" gradientUnits="userSpaceOnUse"><stop offset="0" stop-color="#9dd5df"/><stop offset="1" stop-color="#c3e1f5"/></linearGradient><linearGradient id="linear-gradient-14" x1="22.5" y1="52" x2="22.5" xlink:href="#linear-gradient-13"/><linearGradient id="linear-gradient-15" x1="32" y1="9" x2="32" y2="1" gradientUnits="userSpaceOnUse"><stop offset="0" stop-color="#a0a6ba"/><stop offset="1" stop-color="#c6ccda"/></linearGradient></defs><title>Store</title><g id="Store"><rect class="cls-1" x="6" y="22" width="52" height="37"/><rect class="cls-2" x="6" y="57" width="52" height="2"/><path class="cls-2" d="M58,22v9.75A8.24,8.24,0,0,1,56,32a8,8,0,0,1-6-2.73,8,8,0,0,1-12,0,8,8,0,0,1-12,0,8,8,0,0,1-12,0A8,8,0,0,1,8,32a8.24,8.24,0,0,1-2-.25V22Z"/><path class="cls-3" d="M2,22H14a0,0,0,0,1,0,0v2a6,6,0,0,1-6,6H8a6,6,0,0,1-6-6V22a0,0,0,0,1,0,0Z"/><path class="cls-4" d="M14,22H26a0,0,0,0,1,0,0v2a6,6,0,0,1-6,6h0a6,6,0,0,1-6-6V22A0,0,0,0,1,14,22Z"/><path class="cls-5" d="M26,22H38a0,0,0,0,1,0,0v2a6,6,0,0,1-6,6h0a6,6,0,0,1-6-6V22A0,0,0,0,1,26,22Z"/><path class="cls-6" d="M38,22H50a0,0,0,0,1,0,0v2a6,6,0,0,1-6,6h0a6,6,0,0,1-6-6V22A0,0,0,0,1,38,22Z"/><path class="cls-7" d="M50,22H62a0,0,0,0,1,0,0v2a6,6,0,0,1-6,6h0a6,6,0,0,1-6-6V22A0,0,0,0,1,50,22Z"/><polygon class="cls-8" points="38 22 26 22 27 9 37 9 38 22"/><polygon class="cls-9" points="50 22 38 22 37 9 46 9 50 22"/><polygon class="cls-10" points="62 22 50 22 46 9 54 9 62 22"/><polygon class="cls-11" points="14 22 26 22 27 9 18 9 14 22"/><polygon class="cls-12" points="2 22 14 22 18 9 10 9 2 22"/><rect class="cls-13" x="1" y="59" width="62" height="4"/><rect class="cls-14" x="38" y="35" width="14" height="24"/><rect class="cls-15" x="38" y="57" width="14" height="2"/><path class="cls-16" d="M42,49a1,1,0,0,1-1-1V46a1,1,0,0,1,2,0v2A1,1,0,0,1,42,49Z"/><rect class="cls-17" x="12" y="35" width="21" height="17"/><rect class="cls-15" x="12" y="50" width="21" height="2"/><rect class="cls-18" x="14" y="1" width="36" height="8"/><rect class="cls-16" x="14" y="7" width="36" height="2"/></g></svg>