<svg xmlns="http://www.w3.org/2000/svg" xmlns:xlink="http://www.w3.org/1999/xlink" viewBox="0 0 64 64"><defs><style>.cls-1{fill:url(#linear-gradient);}.cls-2{fill:#cba07a;}.cls-3{fill:url(#linear-gradient-2);}.cls-4{fill:url(#linear-gradient-3);}.cls-5{fill:url(#linear-gradient-4);}.cls-6{fill:url(#linear-gradient-5);}.cls-7{fill:url(#linear-gradient-6);}.cls-8{fill:url(#linear-gradient-7);}.cls-9{fill:#f6b756;}</style><linearGradient id="linear-gradient" x1="7.25" y1="57.25" x2="35.75" y2="28.75" gradientUnits="userSpaceOnUse"><stop offset="0" stop-color="#deb895"/><stop offset="1" stop-color="#f2d3b8"/></linearGradient><linearGradient id="linear-gradient-2" x1="16.5" y1="41" x2="16.5" y2="25" xlink:href="#linear-gradient"/><linearGradient id="linear-gradient-3" x1="27.25" y1="58.25" x2="57.75" y2="27.75" xlink:href="#linear-gradient"/><linearGradient id="linear-gradient-4" x1="47.5" y1="41" x2="47.5" y2="25" xlink:href="#linear-gradient"/><linearGradient id="linear-gradient-5" x1="42.5" y1="22" x2="42.5" y2="5" gradientUnits="userSpaceOnUse"><stop offset="0" stop-color="#fbcc88"/><stop offset="1" stop-color="#ffe5c3"/></linearGradient><linearGradient id="linear-gradient-6" x1="21.51" x2="21.51" y2="8" xlink:href="#linear-gradient-5"/><linearGradient id="linear-gradient-7" x1="31.28" x2="31.28" y2="6" xlink:href="#linear-gradient-5"/></defs><title>Unboxing</title><g id="Unboxing"><polygon class="cls-1" points="32 25 32 63 8 58 8 26 32 25"/><polygon class="cls-2" points="32 25 32 29.48 25.12 43.23 8 40.25 8 26 32 25"/><polygon class="cls-3" points="8 26 1 37 24 41 32 25 8 26"/><polygon class="cls-4" points="56 26 56 58 32 63 32 25 56 26"/><polygon class="cls-2" points="32 59.78 32 63 8 58 8 54.78 32 59.78"/><polygon class="cls-2" points="56 54.78 56 58 32 63 32 59.78 56 54.78"/><polygon class="cls-2" points="56 26 56 40.25 38.88 43.23 32 29.48 32 25 56 26"/><polygon class="cls-5" points="56 26 63 37 40 41 32 25 56 26"/><path class="cls-6" d="M36,22a1,1,0,0,1-1-1c0-7.78,7.2-16,14-16a1,1,0,0,1,0,2c-5.24,0-12,6.79-12,14A1,1,0,0,1,36,22Z"/><path class="cls-7" d="M28,22h-.07A1,1,0,0,1,27,20.93a11.22,11.22,0,0,0-2.72-7.64C22.23,11.11,19.11,10,15,10a1,1,0,0,1,0-2c4.69,0,8.31,1.33,10.76,3.94A13.16,13.16,0,0,1,29,21.07,1,1,0,0,1,28,22Z"/><path class="cls-8" d="M32,22l-.22,0a1,1,0,0,1-.76-1.2c1.86-8.37-1.65-13-1.8-13.16a1,1,0,0,1,1.56-1.24c.18.21,4.28,5.48,2.2,14.84A1,1,0,0,1,32,22Z"/><path class="cls-9" d="M58,11h0a5,5,0,0,0-5-5h0a5,5,0,0,0,5-5h0a5,5,0,0,0,5,5h0A5,5,0,0,0,58,11Z"/><path class="cls-9" d="M6,14H6A5,5,0,0,0,1,9H1A5,5,0,0,0,6,4H6a5,5,0,0,0,5,5h0A5,5,0,0,0,6,14Z"/><path class="cls-9" d="M28,2H27V1a1,1,0,0,0-2,0V2H24a1,1,0,0,0,0,2h1V5a1,1,0,0,0,2,0V4h1a1,1,0,0,0,0-2Z"/><path class="cls-9" d="M49,13H48V12a1,1,0,0,0-2,0v1H45a1,1,0,0,0,0,2h1v1a1,1,0,0,0,2,0V15h1a1,1,0,0,0,0-2Z"/><path class="cls-9" d="M19,17H18V16a1,1,0,0,0-2,0v1H15a1,1,0,0,0,0,2h1v1a1,1,0,0,0,2,0V19h1a1,1,0,0,0,0-2Z"/></g></svg>