<svg xmlns="http://www.w3.org/2000/svg" xmlns:xlink="http://www.w3.org/1999/xlink" viewBox="0 0 64 64"><defs><style>.cls-1{fill:url(#linear-gradient);}.cls-2{fill:#f6b756;}.cls-3{fill:url(#linear-gradient-2);}.cls-4{fill:url(#linear-gradient-3);}.cls-5{fill:#8288a1;}.cls-6{fill:url(#linear-gradient-4);}.cls-7{fill:#fff;}</style><linearGradient id="linear-gradient" x1="32" y1="33" x2="32" y2="1" gradientUnits="userSpaceOnUse"><stop offset="0" stop-color="#fbcc88"/><stop offset="1" stop-color="#ffe5c3"/></linearGradient><linearGradient id="linear-gradient-2" x1="31.08" y1="63" x2="31.08" y2="40.78" gradientUnits="userSpaceOnUse"><stop offset="0" stop-color="#a0a6ba"/><stop offset="1" stop-color="#c6ccda"/></linearGradient><linearGradient id="linear-gradient-3" x1="17.93" y1="40.78" x2="17.93" y2="33" xlink:href="#linear-gradient-2"/><linearGradient id="linear-gradient-4" x1="16.59" y1="62.99" x2="16.59" y2="8.25" xlink:href="#linear-gradient-2"/></defs><title>Voucher</title><g id="Voucher"><polygon class="cls-1" points="14.8 33 1 33 1 1 63 1 63 33 27.32 33 14.8 33"/><polygon class="cls-2" points="14.8 33 1 33 1 30 63 30 63 33 27.32 33 14.8 33"/><path class="cls-2" d="M21,34a1,1,0,0,1-1-1V8a1,1,0,0,1,2,0V33A1,1,0,0,1,21,34Z"/><path class="cls-3" d="M40.84,52.93a8,8,0,0,0-13.38-3.58l-1.74-6.49-.56-2.07h0l-4.11,3,1,.71.24.88,3.13,11.67a8,8,0,1,0,15.45-4.14Zm-6.69,5.93A4,4,0,1,1,37,54,4,4,0,0,1,34.15,58.86Z"/><polygon class="cls-4" points="21.06 33.17 21.06 33.19 20.23 36.26 17.27 39.61 16.96 40.78 16.87 40.72 16.11 37.9 14.8 33 21.01 33 21.06 33.17"/><path class="cls-5" d="M25.16,40.79h0l-4.11,3,1,.71.24.88,3.46-2.54Zm-4.1-7.62L21,33H19l-.61,2.29L16.11,37.9l.76,2.82.09.06.31-1.17,3-3.35.83-3.07Z"/><path class="cls-6" d="M27.74,8.25,21.1,33l0,.17v0l-.83,3.07-3,3.35L17,40.78l-2.3,8.56A8,8,0,0,0,1.27,52.92a8,8,0,0,0,15.46,4.14l3.36-12.55,1-.7,4.11-3,.09-.07L27.32,33,32,15.6A6,6,0,0,0,27.74,8.25ZM12.87,56A4,4,0,1,1,10,51.13,4,4,0,0,1,12.87,56Z"/><path class="cls-7" d="M40,27a1,1,0,0,1-.79-1.61l14-18a1,1,0,1,1,1.58,1.22l-14,18A1,1,0,0,1,40,27Z"/><path class="cls-7" d="M53,27a4,4,0,1,1,4-4A4,4,0,0,1,53,27Zm0-6a2,2,0,1,0,2,2A2,2,0,0,0,53,21Z"/><path class="cls-7" d="M41,15a4,4,0,1,1,4-4A4,4,0,0,1,41,15Zm0-6a2,2,0,1,0,2,2A2,2,0,0,0,41,9Z"/><path class="cls-7" d="M16,9H6A1,1,0,0,1,6,7H16a1,1,0,0,1,0,2Z"/><path class="cls-7" d="M16,15H6a1,1,0,0,1,0-2H16a1,1,0,0,1,0,2Z"/><path class="cls-7" d="M16,21H6a1,1,0,0,1,0-2H16a1,1,0,0,1,0,2Z"/><path class="cls-7" d="M16,27H6a1,1,0,0,1,0-2H16a1,1,0,0,1,0,2Z"/></g></svg>