<svg xmlns="http://www.w3.org/2000/svg" xmlns:xlink="http://www.w3.org/1999/xlink" viewBox="0 0 64 64"><defs><style>.cls-1{fill:url(#linear-gradient);}.cls-2{fill:#cba07a;}.cls-3{fill:url(#linear-gradient-3);}.cls-4{fill:#8a6762;}.cls-5{fill:url(#linear-gradient-4);}.cls-6{fill:#d7dbe2;}</style><linearGradient id="linear-gradient" x1="31" y1="61" x2="31" y2="9" gradientUnits="userSpaceOnUse"><stop offset="0" stop-color="#deb895"/><stop offset="1" stop-color="#f2d3b8"/></linearGradient><linearGradient id="linear-gradient-3" x1="29" y1="15" x2="29" y2="3" gradientUnits="userSpaceOnUse"><stop offset="0" stop-color="#9b756d"/><stop offset="1" stop-color="#bc9388"/></linearGradient><linearGradient id="linear-gradient-4" x1="55" y1="44" x2="55" y2="32" xlink:href="#linear-gradient-3"/></defs><title>Wallet</title><g id="Wallet"><path class="cls-1" d="M61,44V59a2,2,0,0,1-2,2H7a6,6,0,0,1-6-6V9a6,6,0,0,0,6,6H59a2,2,0,0,1,2,2V44Z"/><path class="cls-1" d="M61,44V59a2,2,0,0,1-2,2H7a6,6,0,0,1-6-6V9a6,6,0,0,0,6,6H59a2,2,0,0,1,2,2V44Z"/><path class="cls-2" d="M61,56v3a2,2,0,0,1-2,2H7a6,6,0,0,1-6-6V52a6,6,0,0,0,6,6H59A2,2,0,0,0,61,56Z"/><path class="cls-3" d="M57,5V15H7A6,6,0,0,1,1,9,6,6,0,0,1,7,3H55A2,2,0,0,1,57,5Z"/><path class="cls-4" d="M57,12v3H7A6,6,0,0,1,1,9a5.71,5.71,0,0,1,.2-1.5A6,6,0,0,0,7,12Z"/><path class="cls-5" d="M53,32H63a0,0,0,0,1,0,0V44a0,0,0,0,1,0,0H53a6,6,0,0,1-6-6v0a6,6,0,0,1,6-6Z"/><path class="cls-5" d="M53,32H63a0,0,0,0,1,0,0V44a0,0,0,0,1,0,0H53a6,6,0,0,1-6-6v0a6,6,0,0,1,6-6Z"/><path class="cls-4" d="M63,42v2H53a6,6,0,0,1-6-6,5.47,5.47,0,0,1,.09-1,5.83,5.83,0,0,0,1.67,3.24A5.94,5.94,0,0,0,53,42Z"/><circle class="cls-6" cx="53" cy="38" r="2"/></g></svg>