<svg xmlns="http://www.w3.org/2000/svg" xmlns:xlink="http://www.w3.org/1999/xlink" viewBox="0 0 64 64"><defs><style>.cls-1{fill:url(#linear-gradient);}.cls-2{fill:#c7cdd8;}.cls-3{fill:url(#linear-gradient-2);}.cls-4{fill:#cf4055;}.cls-5{fill:#f6b756;}.cls-6{fill:#4da67f;}.cls-7{fill:url(#linear-gradient-3);}.cls-8{fill:url(#linear-gradient-4);}.cls-9{fill:url(#linear-gradient-5);}.cls-10{fill:#cba07a;}</style><linearGradient id="linear-gradient" x1="1" y1="32" x2="63" y2="32" gradientUnits="userSpaceOnUse"><stop offset="0" stop-color="#d4d8e1"/><stop offset="1" stop-color="#f3f4f5"/></linearGradient><linearGradient id="linear-gradient-2" x1="32" y1="11" x2="32" y2="3" gradientUnits="userSpaceOnUse"><stop offset="0" stop-color="#a0a6ba"/><stop offset="1" stop-color="#c6ccda"/></linearGradient><linearGradient id="linear-gradient-3" x1="23" y1="55" x2="23" y2="50" gradientUnits="userSpaceOnUse"><stop offset="0" stop-color="#6ab891"/><stop offset="1" stop-color="#85cba9"/></linearGradient><linearGradient id="linear-gradient-4" x1="41" y1="55" x2="41" y2="50" gradientUnits="userSpaceOnUse"><stop offset="0" stop-color="#da5466"/><stop offset="1" stop-color="#f4929c"/></linearGradient><linearGradient id="linear-gradient-5" x1="32" y1="42" x2="32" y2="25" gradientUnits="userSpaceOnUse"><stop offset="0" stop-color="#deb895"/><stop offset="1" stop-color="#f2d3b8"/></linearGradient></defs><title>Website</title><g id="Website"><rect class="cls-1" x="1" y="3" width="62" height="58"/><rect class="cls-2" x="1" y="58" width="62" height="3"/><rect class="cls-3" x="1" y="3" width="62" height="8"/><circle class="cls-4" cx="6" cy="7" r="1"/><circle class="cls-5" cx="10" cy="7" r="1"/><circle class="cls-6" cx="14" cy="7" r="1"/><rect class="cls-7" x="17" y="50" width="12" height="5" rx="2.5"/><rect class="cls-8" x="35" y="50" width="12" height="5" rx="2.5"/><path class="cls-9" d="M23,25H41a0,0,0,0,1,0,0V39a3,3,0,0,1-3,3H26a3,3,0,0,1-3-3V25A0,0,0,0,1,23,25Z"/><path class="cls-10" d="M36,29a1,1,0,0,1-1-1V22a3,3,0,0,0-6,0v6a1,1,0,0,1-2,0V22a5,5,0,0,1,10,0v6A1,1,0,0,1,36,29Z"/></g></svg>