<svg xmlns="http://www.w3.org/2000/svg" xmlns:xlink="http://www.w3.org/1999/xlink" viewBox="0 0 64 64"><defs><style>.cls-1{fill:url(#linear-gradient);}.cls-2{fill:#77cacb;}.cls-3{fill:url(#linear-gradient-3);}.cls-4{fill:url(#linear-gradient-4);}.cls-5{fill:url(#linear-gradient-5);}.cls-6{fill:url(#linear-gradient-6);}.cls-7{fill:url(#linear-gradient-7);}.cls-8{fill:url(#linear-gradient-8);}.cls-9{fill:#fff2e3;}</style><linearGradient id="linear-gradient" x1="1" y1="29" x2="57" y2="29" gradientUnits="userSpaceOnUse"><stop offset="0" stop-color="#9dd5df"/><stop offset="1" stop-color="#c3e1f5"/></linearGradient><linearGradient id="linear-gradient-3" x1="25.61" y1="30.65" x2="25.61" y2="1" gradientUnits="userSpaceOnUse"><stop offset="0" stop-color="#6ab891"/><stop offset="1" stop-color="#85cba9"/></linearGradient><linearGradient id="linear-gradient-4" x1="33.44" y1="55.03" x2="33.44" y2="29.18" xlink:href="#linear-gradient-3"/><linearGradient id="linear-gradient-5" x1="49.34" y1="32.05" x2="49.34" y2="14.67" xlink:href="#linear-gradient-3"/><linearGradient id="linear-gradient-6" x1="8.1" y1="46.77" x2="8.1" y2="33.73" xlink:href="#linear-gradient-3"/><linearGradient id="linear-gradient-7" x1="52" y1="63" x2="52" y2="43" gradientUnits="userSpaceOnUse"><stop offset="0" stop-color="#deb895"/><stop offset="1" stop-color="#f2d3b8"/></linearGradient><linearGradient id="linear-gradient-8" x1="52" y1="48" x2="52" y2="43" gradientUnits="userSpaceOnUse"><stop offset="0" stop-color="#fbcc88"/><stop offset="1" stop-color="#ffe5c3"/></linearGradient></defs><title>Worldwide Delivery</title><g id="Worldwide_Delivery" data-name="Worldwide Delivery"><path class="cls-1" d="M57,29c0,1-.07,2.06-.16,3-.05.39-.1.77-.17,1.15A27.64,27.64,0,0,1,53.24,43L41,54.3a27.94,27.94,0,0,1-26-1.07,27.58,27.58,0,0,1-7.63-6.46c-.16-.2-.33-.39-.49-.61A27.62,27.62,0,0,1,1.41,33.73l0-.3A27.89,27.89,0,0,1,12.68,6.27s0,0,0,0a27.93,27.93,0,0,1,24.66-4l.38.12A27.92,27.92,0,0,1,53.92,16.27,16.72,16.72,0,0,1,54.74,18v0A27.46,27.46,0,0,1,57,29Z"/><path class="cls-1" d="M57,29c0,1-.07,2.06-.16,3-.05.39-.1.77-.17,1.15A27.64,27.64,0,0,1,53.24,43L41,54.3a27.94,27.94,0,0,1-26-1.07,27.58,27.58,0,0,1-7.63-6.46c-.16-.2-.33-.39-.49-.61A27.62,27.62,0,0,1,1.41,33.73l0-.3A27.89,27.89,0,0,1,12.68,6.27s0,0,0,0a27.93,27.93,0,0,1,24.66-4l.38.12A27.92,27.92,0,0,1,53.92,16.27,16.72,16.72,0,0,1,54.74,18v0A27.46,27.46,0,0,1,57,29Z"/><path class="cls-2" d="M57,29.84c0,.75-.08,1.49-.15,2.21-.05.39-.1.77-.17,1.15A27.64,27.64,0,0,1,53.24,43L41,54.3a27.94,27.94,0,0,1-26-1.07,27.58,27.58,0,0,1-7.63-6.46c-.16-.2-.33-.39-.49-.61A27.62,27.62,0,0,1,1.41,33.73l0-.3A28.07,28.07,0,0,1,1,29a27.58,27.58,0,0,1,.27-3.88c0,.29,0,.59,0,.88a28.07,28.07,0,0,0,.36,4.43l0,.3A27.62,27.62,0,0,0,7.14,43.16c.16.22.33.41.49.61A28.12,28.12,0,0,0,29.26,54a27.82,27.82,0,0,0,12-2.7L53.5,40a27.64,27.64,0,0,0,3.43-9.8Z"/><path class="cls-3" d="M38.88,9.24c-1.64,3.29-1.64,3.29-6.59,3.29s-1.64,6.59-4.94,8.23-4.94-1.64-6.59,0,4.95,3.3,3.3,9.89c0-3.3-9.88-6.59-11.53-8.24s1.65-6.59,1.65-11.53a8.57,8.57,0,0,0-1.47-4.63,27.93,27.93,0,0,1,24.66-4c-1.6,2.11-3.43,2.43-3.43,3.66C33.94,7.59,40.53,5.94,38.88,9.24Z"/><path class="cls-4" d="M41,45.15a5.89,5.89,0,0,1-2.12,2c-3.29,1.64-6.59,3.29-4.94,6.59s-4.94,0-4.94-5,1.65-6.58-1.65-8.23-5.76-7.41-3.29-9.88c0,0,6.59-3.3,9.88,0s9.88,1.64,9.88,4.94A20.63,20.63,0,0,1,42.18,43"/><path class="cls-5" d="M57,29c0,1-.07,2.06-.16,3a6.08,6.08,0,0,1-1.49-3c0-1.65-6.59-1.65-11.53-4.94s0-4.94,1.65-8.24c1.1-2.22,5.62-.75,8.45.45A16.72,16.72,0,0,1,54.74,18v0A27.46,27.46,0,0,1,57,29Z"/><path class="cls-6" d="M14.18,45.47c-1,1-3.94.82-6.81,1.3-.16-.2-.33-.39-.49-.61A27.62,27.62,0,0,1,1.41,33.73a12.12,12.12,0,0,1,7.83,3.51C14.18,42.18,15.82,43.82,14.18,45.47Z"/><rect class="cls-7" x="41" y="43" width="22" height="20"/><rect class="cls-8" x="49" y="43" width="6" height="5"/><path class="cls-9" d="M48,60H45a1,1,0,0,1,0-2h3a1,1,0,0,1,0,2Z"/></g></svg>