<svg xmlns="http://www.w3.org/2000/svg" xmlns:xlink="http://www.w3.org/1999/xlink" viewBox="0 0 64 64"><defs><style>.cls-1{fill:url(#linear-gradient);}.cls-2{fill:#5b8dc9;}.cls-3{fill:url(#linear-gradient-2);}.cls-4{fill:#c7cdd8;}</style><linearGradient id="linear-gradient" x1="26.37" y1="63" x2="26.37" y2="12.26" gradientUnits="userSpaceOnUse"><stop offset="0" stop-color="#7aa8d7"/><stop offset="1" stop-color="#c3d2e7"/></linearGradient><linearGradient id="linear-gradient-2" x1="45" y1="37" x2="45" y2="1" gradientUnits="userSpaceOnUse"><stop offset="0" stop-color="#d4d8e1"/><stop offset="1" stop-color="#f3f4f5"/></linearGradient></defs><title>24 Hour Support</title><g id="_24_Hour_Support" data-name="24 Hour Support"><path class="cls-1" d="M51.15,56.69l-1.52,1.52-1.42,1.42-1.3,1.3c-4.69,4.69-21.13,1.5-33.24-10.6S-1.62,21.78,3.07,17.09l4.24-4.24a2,2,0,0,1,2.83,0l9.9,9.9a2,2,0,0,1,0,2.83L18.52,27.1,17.1,28.52,13,32.65c-1.57,1.56.5,6.17,6.36,12s10.46,7.93,12,6.36l4.13-4.13,1.42-1.42L38.42,44a2,2,0,0,1,2.83,0l9.9,9.9A2,2,0,0,1,51.15,56.69Z"/><path class="cls-2" d="M12.11,33.51c-.82-1.81-.85-3.15-.14-3.86l5.13-5.13,1.42-1.42.94-.93.58.58a2,2,0,0,1,0,2.83L18.52,27.1,17.1,28.52Z"/><path class="cls-2" d="M51.15,56.69l-1.52,1.52-1.42,1.42-1.3,1.3c-4.69,4.69-21.13,1.5-33.24-10.6C4.3,41,.28,29,1.11,21.88,1.79,29,5.89,38.55,13.67,46.33c12.11,12.1,28.55,15.29,33.24,10.6l1.3-1.3,1.42-1.42.94-.93.58.58A2,2,0,0,1,51.15,56.69Z"/><path class="cls-3" d="M45,1A18,18,0,0,0,33.32,32.68L29,37H45A18,18,0,0,0,45,1Z"/><path class="cls-3" d="M45,1A18,18,0,0,0,33.32,32.68L29,37H45A18,18,0,0,0,45,1Z"/><path class="cls-4" d="M63,19A18,18,0,0,1,45,37H29l4.32-4.32A18,18,0,0,1,27,19c0-.36,0-.71,0-1.06C27.58,26.34,35.42,33,45,33s17.42-6.66,18-15.06C63,18.29,63,18.64,63,19Z"/><path d="M42,43.26a3,3,0,0,0-4.25,0l-7.07,7.07c-.32.32-1.37.36-3.24-.59-6-3-15.87-14.23-13.73-16.38l7.07-7.07a3,3,0,0,0,0-4.25l-9.9-9.9a3.08,3.08,0,0,0-4.24,0L2.36,16.39C-.27,19-.74,24.55,1.11,31.2c7.22,26,38.37,38.57,46.5,30.44l4.25-4.24a3,3,0,0,0,0-4.24ZM8,13.56a1,1,0,0,1,1.41,0l9.9,9.9a1,1,0,0,1,0,1.41l-1.52,1.52L6.49,15.08ZM33.34,61C7.09,53.67-2.34,23.91,3.77,17.8l1.31-1.31L16.39,27.81l-4.13,4.13C8.1,36.1,20.89,48.68,26.5,51.53c3.16,1.6,4.77,1,5.56.21l4.13-4.13L47.51,58.92,46.2,60.23C44.15,62.28,39.1,62.56,33.34,61Zm17.1-5-1.52,1.53L37.61,46.19l1.52-1.52a1,1,0,0,1,1.41,0c10.74,10.74,9.9,9.8,9.9,9.9A1,1,0,0,1,50.44,56Z"/><path d="M45,0C27.93,0,19.54,20.92,31.87,32.72c-3.74,3.73-4.14,3.84-3.79,4.66S27.93,38,45,38A19,19,0,0,0,45,0Zm0,36H31.41L34,33.39A1,1,0,0,0,34,31.92C22,21.7,29.21,2,45,2a17,17,0,0,1,0,34Z"/><path d="M43,22H40.85l1.21-1c3-2.37,2.42-7-1.06-7H40a3,3,0,0,0-3,3,1,1,0,0,0,2,0,1,1,0,0,1,1-1h1c1.55,0,1.16,2.39-.19,3.47-3.53,2.82-4.06,3-3.75,3.86S37.8,24,43,24A1,1,0,0,0,43,22Z"/><path d="M51,16v3H49V15a1,1,0,0,0-2,0v5a1,1,0,0,0,1,1h3v2a1,1,0,0,0,2,0V16A1,1,0,0,0,51,16Z"/><path d="M44,4.94V7a1,1,0,0,0,2,0V4.94A1,1,0,0,0,44,4.94Z"/><path d="M44,30.94V33a1,1,0,0,0,2,0V30.94A1,1,0,0,0,44,30.94Z"/><path d="M59,18H57a1,1,0,0,0,0,2H59A1,1,0,0,0,59,18Z"/><path d="M33,18H31a1,1,0,0,0,0,2H33A1,1,0,0,0,33,18Z"/><path d="M38.5,7.74A1,1,0,0,0,37.5,6,1,1,0,0,0,38.5,7.74Z"/><path d="M51.5,30.26a1,1,0,0,0,1,1.73A1,1,0,0,0,51.5,30.26Z"/><path d="M51.5,7.74A1,1,0,0,0,52.5,6,1,1,0,0,0,51.5,7.74Z"/><path d="M38.5,30.26a1,1,0,0,0-1,1.73A1,1,0,0,0,38.5,30.26Z"/><path d="M57.62,12.87a1,1,0,0,0-1-1.74A1,1,0,0,0,57.62,12.87Z"/><path d="M32.38,25.13a1,1,0,0,0,1,1.74A1,1,0,0,0,32.38,25.13Z"/><path d="M57.62,25.13a1,1,0,0,0-1,1.74A1,1,0,0,0,57.62,25.13Z"/><path d="M32.38,12.87a1,1,0,0,0,1-1.74A1,1,0,0,0,32.38,12.87Z"/></g></svg>