<svg xmlns="http://www.w3.org/2000/svg" xmlns:xlink="http://www.w3.org/1999/xlink" viewBox="0 0 64 64"><defs><style>.cls-1{fill:url(#linear-gradient);}.cls-2{fill:#cf4055;}.cls-3{fill:url(#linear-gradient-2);}.cls-4{fill:#c7cdd8;}.cls-5{fill:url(#linear-gradient-3);}</style><linearGradient id="linear-gradient" x1="32" y1="63" x2="32" y2="1" gradientUnits="userSpaceOnUse"><stop offset="0" stop-color="#da5466"/><stop offset="1" stop-color="#f4929c"/></linearGradient><linearGradient id="linear-gradient-2" x1="32" y1="43" x2="32" y2="7" gradientUnits="userSpaceOnUse"><stop offset="0" stop-color="#d4d8e1"/><stop offset="1" stop-color="#f3f4f5"/></linearGradient><linearGradient id="linear-gradient-3" x1="32" y1="36" x2="32" y2="19" gradientUnits="userSpaceOnUse"><stop offset="0" stop-color="#deb895"/><stop offset="1" stop-color="#f2d3b8"/></linearGradient></defs><title>Address</title><g id="Address"><path class="cls-1" d="M56,25c0,20-24,38-24,38S8,45,8,25a24,24,0,0,1,48,0Z"/><path class="cls-2" d="M54.14,35C48.5,50.62,32,63,32,63S15.5,50.62,9.86,35C17.09,48.68,32,59,32,59S46.91,48.68,54.14,35Z"/><circle class="cls-3" cx="32" cy="25" r="18"/><path class="cls-4" d="M50,25c0,.33,0,.67,0,1A18,18,0,0,0,14,26c0-.33,0-.67,0-1a18,18,0,0,1,36,0Z"/><path class="cls-5" d="M23,19H41a0,0,0,0,1,0,0V33a3,3,0,0,1-3,3H26a3,3,0,0,1-3-3V19A0,0,0,0,1,23,19Z"/><path d="M32,0A25,25,0,0,0,7,25C7,45.27,30.4,63.05,31.4,63.8a1,1,0,0,0,1.2,0C33.6,63.05,57,45.27,57,25A25,25,0,0,0,32,0Zm0,61.73C28.32,58.79,9,42.52,9,25a23,23,0,0,1,46,0C55,42.52,35.68,58.79,32,61.73Z"/><path d="M32,6A19,19,0,1,0,51,25,19,19,0,0,0,32,6Zm0,36A17,17,0,1,1,49,25,17,17,0,0,1,32,42Z"/><path d="M41,18H37V16a5,5,0,0,0-10,0v2H23a1,1,0,0,0-1,1V33a4,4,0,0,0,4,4H38a4,4,0,0,0,4-4V19A1,1,0,0,0,41,18ZM29,16a3,3,0,0,1,6,0v2H29ZM40,33a2,2,0,0,1-2,2H26a2,2,0,0,1-2-2V20h3v2a1,1,0,0,0,2,0V20h6v2a1,1,0,0,0,2,0V20h3Z"/></g></svg>