<svg xmlns="http://www.w3.org/2000/svg" xmlns:xlink="http://www.w3.org/1999/xlink" viewBox="0 0 64 64"><defs><style>.cls-1{fill:url(#linear-gradient);}.cls-2{fill:#c7cdd8;}</style><linearGradient id="linear-gradient" x1="34.5" y1="63" x2="34.5" y2="1" gradientUnits="userSpaceOnUse"><stop offset="0" stop-color="#d4d8e1"/><stop offset="1" stop-color="#f3f4f5"/></linearGradient></defs><title>Bill</title><g id="Bill"><path class="cls-1" d="M16,63l4.2-2,4.19,2,4.2-2,4.2,2L37,61l4.2,2,4.2-2,4.2,2,4.2-2L58,63V6a5,5,0,0,0-5-5H11a5,5,0,0,1,5,5Z"/><polygon class="cls-2" points="58 60 58 63 53.79 61 49.59 63 45.39 61 41.19 63 36.99 61 32.79 63 28.59 61 24.39 63 20.2 61 16 63 16 60 20.2 58 24.39 60 28.59 58 32.79 60 36.99 58 41.19 60 45.39 58 49.59 60 53.79 58 58 60"/><path class="cls-2" d="M16,6v8H6V6A5,5,0,1,1,16,6Z"/><path d="M24,30a1,1,0,0,0,0,2A1,1,0,0,0,24,30Z"/><path d="M50,30H28a1,1,0,0,0,0,2H50A1,1,0,0,0,50,30Z"/><path d="M24,37a1,1,0,0,0,0,2A1,1,0,0,0,24,37Z"/><path d="M50,37H28a1,1,0,0,0,0,2H50A1,1,0,0,0,50,37Z"/><path d="M24,44a1,1,0,0,0,0,2A1,1,0,0,0,24,44Z"/><path d="M50,44H28a1,1,0,0,0,0,2H50A1,1,0,0,0,50,44Z"/><path d="M24,51a1,1,0,0,0,0,2A1,1,0,0,0,24,51Z"/><path d="M50,51H28a1,1,0,0,0,0,2H50A1,1,0,0,0,50,51Z"/><path d="M37,20a2,2,0,0,1-2-2,1,1,0,0,0-1-1c-1.89,0-1.06,4.06,2,4.86V23a1,1,0,0,0,2,0V21.86A4,4,0,0,0,37,14a2,2,0,1,1,2-2,1,1,0,0,0,1,1c1.89,0,1.06-4.06-2-4.86V7a1,1,0,0,0-2,0V8.14A4,4,0,0,0,37,16a2,2,0,0,1,0,4Z"/><path d="M53,0H11A6,6,0,0,0,5,6v8a1,1,0,0,0,1,1h9V63a1,1,0,0,0,1,1c.33,0,.16,0,4.2-1.89,4,1.92,4.05,2.07,4.62,1.79l3.77-1.79,3.77,1.79c.57.28.58.14,4.63-1.79,4,1.92,4.06,2.07,4.63,1.79l3.77-1.79,3.77,1.79c.57.28.58.14,4.63-1.79,4.19,2,4.14,2.12,4.74,1.74S59,66.79,59,6A6,6,0,0,0,53,0ZM7,13V6a4,4,0,0,1,8,0v7ZM57,61.42c-2.94-1.4-3.07-1.59-3.63-1.32l-3.78,1.79c-4-1.92-4.06-2.07-4.63-1.79l-3.77,1.79L37.42,60.1c-.57-.28-.58-.14-4.63,1.79-4-1.92-4.06-2.07-4.63-1.79l-3.77,1.79L20.63,60.1c-.57-.27-.7-.08-3.63,1.32,0-59.18.64-57-1.52-59.42H53a4,4,0,0,1,4,4Z"/></g></svg>