<svg xmlns="http://www.w3.org/2000/svg" xmlns:xlink="http://www.w3.org/1999/xlink" viewBox="0 0 64 64"><defs><style>.cls-1{fill:url(#linear-gradient);}.cls-2{fill:#dd8b37;}.cls-3{fill:url(#linear-gradient-3);}.cls-4{fill:url(#linear-gradient-5);}.cls-5{fill:#f6b756;}</style><linearGradient id="linear-gradient" x1="32" y1="63" x2="32" y2="1" gradientUnits="userSpaceOnUse"><stop offset="0" stop-color="#e9a254"/><stop offset="1" stop-color="#f4bb79"/></linearGradient><linearGradient id="linear-gradient-3" x1="32" y1="57" x2="32" y2="7" gradientUnits="userSpaceOnUse"><stop offset="0" stop-color="#fbcc88"/><stop offset="1" stop-color="#ffe5c3"/></linearGradient><linearGradient id="linear-gradient-5" x1="32" y1="7" x2="32" y2="21.34" xlink:href="#linear-gradient-3"/></defs><title>Bitcoin</title><g id="Bitcoin"><circle class="cls-1" cx="32" cy="32" r="31"/><circle class="cls-1" cx="32" cy="32" r="31"/><path class="cls-2" d="M62,39.79a31,31,0,0,1-60,0A32,32,0,0,0,32,60,32,32,0,0,0,62,39.79Z"/><circle class="cls-3" cx="32" cy="32" r="25"/><circle class="cls-3" cx="32" cy="32" r="25"/><path class="cls-4" d="M9.39,21.34a25,25,0,0,1,45.22,0A27.54,27.54,0,0,0,32,10,27.54,27.54,0,0,0,9.39,21.34Z"/><path class="cls-5" d="M42.13,31.75A7,7,0,0,0,37,20V16H33v4H29V16H25v4H20v4h3V41H21l-1,4h5v4h4V45h4v4h4V45h2a7,7,0,0,0,3.13-13.25ZM29,24h5a3,3,0,0,1,0,6H29Zm9,16a3.46,3.46,0,0,1-2.47,1H29V34h6.5A3.5,3.5,0,0,1,39,37.5,3.46,3.46,0,0,1,38,40Z"/><path d="M43.62,31.48A8,8,0,0,0,38,19.06V16a1,1,0,0,0-1-1H33a1,1,0,0,0-1,1v3H30V16a1,1,0,0,0-1-1H25a1,1,0,0,0-1,1v3H20a1,1,0,0,0-1,1v4a1,1,0,0,0,1,1h2V40c-2.23,0-1.71-.3-3,4.76A1,1,0,0,0,20,46h4v3a1,1,0,0,0,1,1h4a1,1,0,0,0,1-1V46h2v3a1,1,0,0,0,1,1h4a1,1,0,0,0,1-1V46h1A8,8,0,0,0,43.62,31.48ZM39,44H37a1,1,0,0,0-1,1v3H34V45a1,1,0,0,0-1-1H29a1,1,0,0,0-1,1v3H26V45a1,1,0,0,0-1-1H21.28l.5-2H23a1,1,0,0,0,1-1V24a1,1,0,0,0-1-1H21V21h4a1,1,0,0,0,1-1V17h2v3a1,1,0,0,0,1,1h4a1,1,0,0,0,1-1V17h2v3a1,1,0,0,0,1,1,6,6,0,0,1,4.4,10.07,1,1,0,0,0,.28,1.57A6,6,0,0,1,39,44Z"/><path d="M29,31c4.93,0,6.31.35,7.83-1.17A4,4,0,0,0,34,23H29a1,1,0,0,0-1,1v6A1,1,0,0,0,29,31Zm1-6h4a2,2,0,0,1,0,4H30Z"/><path d="M35.5,33H29a1,1,0,0,0-1,1v7a1,1,0,0,0,1,1c6.59,0,8,.38,9.68-1.32A4.51,4.51,0,0,0,35.5,33Zm1.77,6.26c-1,1-1.49.74-7.27.74V35h5.5A2.5,2.5,0,0,1,37.27,39.26Z"/><path d="M32,0A32,32,0,1,0,64,32,32,32,0,0,0,32,0Zm0,62A30,30,0,1,1,62,32,30,30,0,0,1,32,62Z"/><path d="M32,6A26,26,0,1,0,58,32,26,26,0,0,0,32,6Zm0,50A24,24,0,1,1,56,32,24,24,0,0,1,32,56Z"/></g></svg>