<svg xmlns="http://www.w3.org/2000/svg" xmlns:xlink="http://www.w3.org/1999/xlink" viewBox="0 0 64 64"><defs><style>.cls-1{fill:url(#linear-gradient);}.cls-2{fill:#c7cdd8;}.cls-3{fill:url(#linear-gradient-2);}.cls-4{fill:#42455e;}.cls-5{fill:url(#linear-gradient-3);}</style><linearGradient id="linear-gradient" x1="37.65" y1="38" x2="37.65" y2="9.02" gradientUnits="userSpaceOnUse"><stop offset="0" stop-color="#d4d8e1"/><stop offset="1" stop-color="#f3f4f5"/></linearGradient><linearGradient id="linear-gradient-2" x1="12.3" y1="13.01" x2="63" y2="13.01" gradientUnits="userSpaceOnUse"><stop offset="0" stop-color="#474f72"/><stop offset="1" stop-color="#878c9f"/></linearGradient><linearGradient id="linear-gradient-3" x1="1" y1="3" x2="12.65" y2="3" gradientUnits="userSpaceOnUse"><stop offset="0" stop-color="#a0a6ba"/><stop offset="1" stop-color="#c6ccda"/></linearGradient></defs><title>Cart</title><g id="Cart"><polygon class="cls-1" points="63 13 63 34 56 34.61 54.01 34.78 48 35.3 46.01 35.48 40 36 38.01 36.17 32 36.7 30.01 36.87 24 37.39 22.01 37.56 17 38 16.84 37.01 15.86 31 15.54 29.02 14.41 22 14.09 20.06 13.12 14.09 12.8 12.09 12.3 9.02 63 13"/><path class="cls-2" d="M63,31v3L17,38V35Z"/><polygon class="cls-3" points="63 13 63 17 49.63 15.95 26.05 14.1 23 13.86 12.96 13.07 12.3 9.02 26.35 10.12 49.95 11.98 63 13"/><circle class="cls-4" cx="54" cy="57" r="5"/><circle class="cls-4" cx="17" cy="57" r="5"/><path class="cls-5" d="M12.65,5H3a2,2,0,0,1-1.41-.59A2,2,0,0,1,1,3,2,2,0,0,1,3,1h9Z"/><circle cx="17" cy="58" r="2"/><circle cx="54" cy="58" r="2"/><path d="M63.08,12,13.16,8.08C11.93.49,12.14,0,11,0H3A3,3,0,0,0,.87,5.11C2,6.22,2.29,6,10.8,6l5.13,31.66-6,6.05C8.71,44.87,9,45.75,9,51a3,3,0,0,0,3,3h.54a6,6,0,1,0,8.92,0H49.54A6,6,0,1,0,54,52H12a1,1,0,0,1-1-1V45.83c0-.58-.17-.24,6.45-6.87l45.64-4A1,1,0,0,0,64,34V13A1,1,0,0,0,63.08,12ZM3,4A1,1,0,0,1,3,2h7.15l.32,2ZM21,58a4,4,0,1,1-4-4A4,4,0,0,1,21,58Zm37,0a4,4,0,1,1-4-4A4,4,0,0,1,58,58ZM16.88,31c1.47,0,3.2-.06,5.12-.13v5.7l-4.16.36ZM62,21l-6-.12V17.45l6,.47Zm-8-.17-6-.12V16.83l6,.47Zm-8-.16-6-.12V16.2l6,.47ZM32,22.36l6,.13V28.1l-6,.31Zm-2,6.15-6,.27V22.2l6,.12Zm10-6,6,.12v5L40,28Zm-2-2-6-.13V15.57L38,16Zm-8-.17-6-.12V14.94l6,.47Zm-8-.16L15.1,20l-.95-5.84,7.85.61Zm0,2v6.7c-2.07.07-3.91.12-5.45.14l-1.13-7Zm2,8.62,6-.27v5.36l-6,.52Zm8-.37,6-.31v5.07l-6,.52ZM40,30l6-.31v4.79L40,35Zm8-.42,6-.29v4.5l-6,.52Zm0-2V22.69l6,.13v4.46C52.13,27.36,50.11,27.46,48,27.57Zm8-4.71L62,23v4c-1.61,0-3.66.08-6,.18Zm6-8.94v2L13.82,12.13l-.33-2ZM56,33.6V29.19c2.35-.09,4.39-.16,6-.18v4.07Z"/></g></svg>