<svg xmlns="http://www.w3.org/2000/svg" xmlns:xlink="http://www.w3.org/1999/xlink" viewBox="0 0 64 64"><defs><style>.cls-1{fill:url(#linear-gradient);}.cls-2{fill:#c7cdd8;}.cls-3{fill:url(#linear-gradient-2);}.cls-4{fill:#42455e;}.cls-5{fill:url(#linear-gradient-3);}.cls-6{fill:url(#linear-gradient-4);}.cls-7{fill:#5b8dc9;}</style><linearGradient id="linear-gradient" x1="37.65" y1="38" x2="37.65" y2="9.02" gradientUnits="userSpaceOnUse"><stop offset="0" stop-color="#d4d8e1"/><stop offset="1" stop-color="#f3f4f5"/></linearGradient><linearGradient id="linear-gradient-2" x1="12.3" y1="13.01" x2="63" y2="13.01" gradientUnits="userSpaceOnUse"><stop offset="0" stop-color="#474f72"/><stop offset="1" stop-color="#878c9f"/></linearGradient><linearGradient id="linear-gradient-3" x1="1" y1="3" x2="12.65" y2="3" gradientUnits="userSpaceOnUse"><stop offset="0" stop-color="#a0a6ba"/><stop offset="1" stop-color="#c6ccda"/></linearGradient><linearGradient id="linear-gradient-4" x1="38" y1="25" x2="38" y2="1" gradientUnits="userSpaceOnUse"><stop offset="0" stop-color="#7aa8d7"/><stop offset="1" stop-color="#c3d2e7"/></linearGradient></defs><title>Cart Update</title><g id="Cart_Update" data-name="Cart Update"><polygon class="cls-1" points="63 13 63 34 56 34.61 54.01 34.78 48 35.3 46.01 35.48 40 36 38.01 36.17 32 36.7 30.01 36.87 24 37.39 22.01 37.56 17 38 16.84 37.01 15.86 31 15.54 29.02 14.41 22 14.09 20.06 13.12 14.09 12.8 12.09 12.3 9.02 63 13"/><path class="cls-2" d="M63,31v3L17,38V35Z"/><polygon class="cls-3" points="63 13 63 17 49.63 15.95 26.05 14.1 23 13.86 12.96 13.07 12.3 9.02 26.35 10.12 49.95 11.98 63 13"/><circle class="cls-4" cx="54" cy="57" r="5"/><circle class="cls-4" cx="17" cy="57" r="5"/><path class="cls-5" d="M12.65,5H3a2,2,0,0,1-1.41-.59A2,2,0,0,1,1,3,2,2,0,0,1,3,1h9Z"/><circle class="cls-6" cx="38" cy="13" r="12"/><path class="cls-7" d="M50,13a12,12,0,0,1-24,0,10.6,10.6,0,0,1,.1-1.5,12,12,0,0,0,23.8,0A10.6,10.6,0,0,1,50,13Z"/><circle cx="17" cy="58" r="2"/><circle cx="54" cy="58" r="2"/><path d="M63.08,12l-12.24-.95a13,13,0,0,0-25.23-2l-12.45-1C12.58,4.51,12.28,2.65,12,.84A1,1,0,0,0,11,0H3A3,3,0,0,0,3,6h7.8l5.13,31.66C9.43,44.15,9,44.19,9,45.83V51a3,3,0,0,0,3,3h.54a6,6,0,1,0,8.92,0H49.54A6,6,0,1,0,54,52H12a1,1,0,0,1-1-1c0-5.59-.1-5.48.3-5.88L17.45,39c28.29-2.46-39.37,3.43,45.64-4A1,1,0,0,0,64,34V13A1,1,0,0,0,63.08,12ZM3,4A1,1,0,0,1,3,2h7.15l.32,2ZM21,58a4,4,0,1,1-4-4A4,4,0,0,1,21,58Zm37,0a4,4,0,1,1-4-4A4,4,0,0,1,58,58ZM16.88,31c1.47,0,3.2-.06,5.12-.13v5.7l-4.16.36ZM27.22,20.27,24,20.2V14.94l1.18.09A12.89,12.89,0,0,0,27.22,20.27ZM50.36,17,54,17.3v3.51l-5.55-.11A13.07,13.07,0,0,0,50.36,17ZM62,21l-6-.12V17.45l6,.47ZM46,23.23v4.44L40,28V25.83A12.94,12.94,0,0,0,46,23.23ZM38,28.1l-6,.31V24.52A12.93,12.93,0,0,0,38,26Zm-9.06-5.8a11.75,11.75,0,0,0,1.06.93v5.28l-6,.27V22.2ZM22,20.16,15.1,20l-.95-5.84,7.85.61Zm0,2v6.7c-2.07.07-3.91.12-5.45.14l-1.13-7Zm2,8.62,6-.27v5.36l-6,.52Zm8-.37,6-.31v5.07l-6,.52ZM40,30l6-.31v4.79L40,35Zm8-.42,6-.29v4.5l-6,.52Zm0-2V22.69l6,.13v4.46C52.13,27.36,50.11,27.46,48,27.57Zm8-4.71L62,23v4c-1.61,0-3.66.08-6,.18Zm6-6.94L50.82,15a12.78,12.78,0,0,0,.18-2l11,.86ZM38,2A11,11,0,1,1,27,13,11,11,0,0,1,38,2ZM25.17,11A12.25,12.25,0,0,0,25,13l-11.18-.88-.33-2ZM56,33.6V29.19c2.35-.09,4.39-.16,6-.18v4.07Z"/><path d="M36.29,9.71a1,1,0,0,0,1.42-1.42L37.41,8H38a5,5,0,0,1,4.16,7.77,1,1,0,0,0,1.66,1.12A7,7,0,0,0,38,6c-.74,0-.68.1-.29-.29a1,1,0,0,0-1.42-1.42C33.23,7.36,33.2,6.61,36.29,9.71Z"/><path d="M38,20c.74,0,.68-.1.29.29A1,1,0,0,0,39,22c.54,0,.56-.15,2.71-2.29a1,1,0,0,0,.21-1.09c-.1-.26,0-.16-2.21-2.33a1,1,0,0,0-1.42,1.42l.3.29H38a5,5,0,0,1-4.16-7.76,1,1,0,0,0-1.66-1.12A7,7,0,0,0,38,20Z"/></g></svg>