<svg xmlns="http://www.w3.org/2000/svg" xmlns:xlink="http://www.w3.org/1999/xlink" viewBox="0 0 64 64"><defs><style>.cls-1{fill:url(#linear-gradient);}.cls-2{fill:url(#linear-gradient-2);}.cls-3{fill:url(#linear-gradient-3);}.cls-4{fill:#dd8b37;}</style><linearGradient id="linear-gradient" x1="50" y1="63" x2="50" y2="39" gradientUnits="userSpaceOnUse"><stop offset="0" stop-color="#deb895"/><stop offset="1" stop-color="#f2d3b8"/></linearGradient><linearGradient id="linear-gradient-2" x1="50" y1="44" x2="50" y2="39" gradientUnits="userSpaceOnUse"><stop offset="0" stop-color="#fbcc88"/><stop offset="1" stop-color="#ffe5c3"/></linearGradient><linearGradient id="linear-gradient-3" x1="15" y1="29" x2="15" y2="1" gradientUnits="userSpaceOnUse"><stop offset="0" stop-color="#e9a254"/><stop offset="1" stop-color="#f4bb79"/></linearGradient></defs><title>Cash on Delivey</title><g id="Cash_on_Delivey" data-name="Cash on Delivey"><rect class="cls-1" x="37" y="39" width="26" height="24"/><rect class="cls-2" x="47" y="39" width="6" height="5"/><circle class="cls-3" cx="15" cy="15" r="14"/><circle class="cls-3" cx="15" cy="15" r="14"/><path class="cls-4" d="M29,15A14,14,0,0,1,1,15a14.76,14.76,0,0,1,.08-1.5,14,14,0,0,0,27.84,0A14.76,14.76,0,0,1,29,15Z"/><path d="M63,38H37a1,1,0,0,0-1,1V63a1,1,0,0,0,1,1H63a1,1,0,0,0,1-1V39A1,1,0,0,0,63,38ZM52,40v3H48V40ZM62,62H38V40h8v4a1,1,0,0,0,1,1h6a1,1,0,0,0,1-1V40h8Z"/><path d="M55,60h4a1,1,0,0,0,0-2H55A1,1,0,0,0,55,60Z"/><path d="M30,15A15,15,0,1,0,15,30,15,15,0,0,0,30,15ZM2,15A13,13,0,1,1,15,28,13,13,0,0,1,2,15Z"/><path d="M16,23V21.86A4,4,0,0,0,15,14a2,2,0,1,1,2-2,1,1,0,0,0,2,0,4,4,0,0,0-3-3.86V7a1,1,0,0,0-2,0V8.14A4,4,0,0,0,15,16a2,2,0,1,1-2,2,1,1,0,0,0-2,0,4,4,0,0,0,3,3.86V23A1,1,0,0,0,16,23Z"/><path d="M33.29,10.71C37.67,15.08,37.44,15,38,15a1,1,0,0,0,.71-1.71L36.41,11H38A19,19,0,0,1,57,30v2a1,1,0,0,0,2,0V30A21,21,0,0,0,38,9H36.41l2.3-2.29a1,1,0,0,0-1.42-1.42c-4.35,4.35-4.1,4.07-4.21,4.33A1,1,0,0,0,33.29,10.71Z"/><path d="M30.92,53.62c-.11-.26.14,0-4.21-4.33a1,1,0,0,0-1.42,1.42L27.59,53H26A19,19,0,0,1,7,34V32a1,1,0,0,0-2,0v2A21,21,0,0,0,26,55h1.59l-2.3,2.29A1,1,0,0,0,26,59c.56,0,.3.12,4.71-4.29A1,1,0,0,0,30.92,53.62Z"/></g></svg>