<svg xmlns="http://www.w3.org/2000/svg" xmlns:xlink="http://www.w3.org/1999/xlink" viewBox="0 0 64 64"><defs><style>.cls-1{fill:url(#linear-gradient);}.cls-2{fill:#4da67f;}.cls-3{fill:#9fe2bf;}.cls-4{fill:url(#linear-gradient-2);}</style><linearGradient id="linear-gradient" x1="32" y1="46" x2="32" y2="18" gradientUnits="userSpaceOnUse"><stop offset="0" stop-color="#6ab891"/><stop offset="1" stop-color="#85cba9"/></linearGradient><linearGradient id="linear-gradient-2" x1="32" y1="38" x2="32" y2="26" xlink:href="#linear-gradient"/></defs><title>Cash Back</title><g id="Cash_Back" data-name="Cash Back"><rect class="cls-1" x="10" y="18" width="44" height="28"/><rect class="cls-2" x="10" y="44" width="44" height="2"/><path class="cls-3" d="M46.44,42H17.56A3.57,3.57,0,0,0,14,38.44V25.56A3.57,3.57,0,0,0,17.56,22H46.44A3.57,3.57,0,0,0,50,25.56V38.44A3.57,3.57,0,0,0,46.44,42Z"/><ellipse class="cls-4" cx="32" cy="32" rx="5" ry="6"/><path class="cls-2" d="M36.83,33.55C36.26,36.11,34.31,38,32,38s-4.26-1.89-4.83-4.45a6,6,0,0,0,9.66,0Z"/><path d="M54,47a1,1,0,0,0,1-1V18a1,1,0,0,0-1-1H10a1,1,0,0,0-1,1V46a1,1,0,0,0,1,1ZM11,19H53V45H11Z"/><path d="M50,24.56A2.56,2.56,0,0,1,47.44,22a1,1,0,0,0-1-1H17.56a1,1,0,0,0-1,1A2.56,2.56,0,0,1,14,24.56a1,1,0,0,0-1,1V38.44a1,1,0,0,0,1,1A2.56,2.56,0,0,1,16.56,42a1,1,0,0,0,1,1H46.44a1,1,0,0,0,1-1A2.56,2.56,0,0,1,50,39.44a1,1,0,0,0,1-1V25.56A1,1,0,0,0,50,24.56Zm-1,13A4.6,4.6,0,0,0,45.55,41H18.45A4.6,4.6,0,0,0,15,37.55V26.45A4.6,4.6,0,0,0,18.45,23h27.1A4.6,4.6,0,0,0,49,26.45Z"/><path d="M32,25c-3.31,0-6,3.14-6,7s2.69,7,6,7,6-3.14,6-7S35.31,25,32,25Zm0,12c-2.21,0-4-2.24-4-5s1.79-5,4-5,4,2.24,4,5S34.21,37,32,37Z"/><path d="M23,31H19a1,1,0,0,0,0,2h4A1,1,0,0,0,23,31Z"/><path d="M45,31H41a1,1,0,0,0,0,2h4A1,1,0,0,0,45,31Z"/><path d="M10,8.78V3A1,1,0,0,0,8,3v8a1,1,0,0,0,1,1h8a1,1,0,0,0,0-2H11.62C30.72-7.68,62,5.84,62,32A30,30,0,0,1,2,32a1,1,0,0,0-2,0,32,32,0,0,0,64,0C64,3.94,30.29-10.43,10,8.78Z"/></g></svg>