<svg xmlns="http://www.w3.org/2000/svg" xmlns:xlink="http://www.w3.org/1999/xlink" viewBox="0 0 64 64"><defs><style>.cls-1{fill:url(#linear-gradient);}.cls-2{fill:#77cacb;}.cls-3{fill:url(#linear-gradient-3);}.cls-4{fill:#8288a1;}.cls-5{fill:url(#linear-gradient-4);}.cls-6{fill:url(#linear-gradient-5);}.cls-7{fill:url(#linear-gradient-6);}.cls-8{fill:url(#linear-gradient-7);}.cls-9{fill:#c7cdd8;}</style><linearGradient id="linear-gradient" x1="19" y1="11" x2="19" y2="1" gradientUnits="userSpaceOnUse"><stop offset="0" stop-color="#9dd5df"/><stop offset="1" stop-color="#c3e1f5"/></linearGradient><linearGradient id="linear-gradient-3" x1="32" y1="63" x2="32" y2="49" gradientUnits="userSpaceOnUse"><stop offset="0" stop-color="#a0a6ba"/><stop offset="1" stop-color="#c6ccda"/></linearGradient><linearGradient id="linear-gradient-4" x1="32" y1="33" x2="32" y2="17" xlink:href="#linear-gradient-3"/><linearGradient id="linear-gradient-5" x1="32" y1="49" x2="32" y2="33" xlink:href="#linear-gradient-3"/><linearGradient id="linear-gradient-6" x1="21" y1="29" x2="21" y2="21" xlink:href="#linear-gradient"/><linearGradient id="linear-gradient-7" x1="44" y1="22" x2="44" y2="9" gradientUnits="userSpaceOnUse"><stop offset="0" stop-color="#d4d8e1"/><stop offset="1" stop-color="#f3f4f5"/></linearGradient></defs><title>Cash Machine</title><g id="Cash_Machine" data-name="Cash Machine"><rect class="cls-1" x="7" y="1" width="24" height="10" rx="2"/><rect class="cls-1" x="7" y="1" width="24" height="10" rx="2"/><path class="cls-2" d="M31,6V9a2,2,0,0,1-2,2H9A2,2,0,0,1,7,9V6A2,2,0,0,0,9,8H29A2,2,0,0,0,31,6Z"/><rect class="cls-3" x="1" y="49" width="62" height="14"/><rect class="cls-4" x="1" y="61" width="62" height="2"/><polyline class="cls-5" points="51 17 57 17 57 33 7 33 7 17 37 17"/><polyline class="cls-4" points="51 31 57 31 57 33 7 33 7 31 37 31"/><polygon class="cls-6" points="63 49 1 49 7 33 57 33 63 49"/><rect class="cls-4" x="17" y="11" width="4" height="6"/><rect class="cls-7" x="11" y="21" width="20" height="8"/><rect class="cls-2" x="11" y="27" width="20" height="2"/><polygon class="cls-8" points="51 9 51 22 37 22 37 9 39.33 10 41.66 9 43.99 10 46.33 9 48.66 10 51 9"/><rect class="cls-9" x="37" y="19" width="14" height="3"/><path class="cls-4" d="M29,12H9A3,3,0,0,1,6,9V3A3,3,0,0,1,9,0H29a3,3,0,0,1,3,3V9A3,3,0,0,1,29,12ZM9,2A1,1,0,0,0,8,3V9a1,1,0,0,0,1,1H29a1,1,0,0,0,1-1V3a1,1,0,0,0-1-1Z"/><path d="M64,49c0-.29.39.87-6-16.15V17a1,1,0,0,0-1-1H52V9a1,1,0,0,0-1.39-.92l-2,.83c-2.79-1.2-1.88-1.19-4.67,0-2.78-1.19-1.88-1.19-4.66,0l-1.94-.83A1,1,0,0,0,36,9v7H22V12h7a3,3,0,0,0,3-3V3a3,3,0,0,0-3-3H9A3,3,0,0,0,6,3V9a3,3,0,0,0,3,3h7v4H7a1,1,0,0,0-1,1V32.82C-.36,49.77,0,48.69,0,49s0-1.75,0,14a1,1,0,0,0,1,1H63a1,1,0,0,0,1-1C64,47.22,64,49.14,64,49ZM38,10.52c1.61.69,1,.7,3.66-.43,2.79,1.2,1.88,1.19,4.67,0,2.67,1.14,2.06,1.12,3.67.42V21H38ZM8,9V3A1,1,0,0,1,9,2H29a1,1,0,0,1,1,1V9a1,1,0,0,1-1,1H9A1,1,0,0,1,8,9Zm10,3h2v4H18ZM8,18H36v3H35a1,1,0,0,0,0,2H53a1,1,0,0,0,0-2H52V18h4V32H8ZM7.69,34H56.31l5.25,14H2.44ZM62,62H2V50H62Z"/><path d="M31,20H11a1,1,0,0,0-1,1v8a1,1,0,0,0,1,1H31a1,1,0,0,0,1-1V21A1,1,0,0,0,31,20Zm-1,8H12V22H30Z"/><path d="M39,25H37a1,1,0,0,0,0,2h2A1,1,0,0,0,39,25Z"/><path d="M45,25H43a1,1,0,0,0,0,2h2A1,1,0,0,0,45,25Z"/><path d="M51,25H49a1,1,0,0,0,0,2h2A1,1,0,0,0,51,25Z"/><path d="M42,36H40a1,1,0,0,0,0,2h2A1,1,0,0,0,42,36Z"/><path d="M48,36H46a1,1,0,0,0,0,2h2A1,1,0,0,0,48,36Z"/><path d="M54,36H52a1,1,0,0,0,0,2h2A1,1,0,0,0,54,36Z"/><path d="M42,40H40a1,1,0,0,0,0,2h2A1,1,0,0,0,42,40Z"/><path d="M48,40H46a1,1,0,0,0,0,2h2A1,1,0,0,0,48,40Z"/><path d="M54,40H52a1,1,0,0,0,0,2h2A1,1,0,0,0,54,40Z"/><path d="M42,44H40a1,1,0,0,0,0,2h2A1,1,0,0,0,42,44Z"/><path d="M48,44H46a1,1,0,0,0,0,2h2A1,1,0,0,0,48,44Z"/><path d="M54,44H52a1,1,0,0,0,0,2h2A1,1,0,0,0,54,44Z"/><path d="M12,36H10a1,1,0,0,0,0,2h2A1,1,0,0,0,12,36Z"/><path d="M18,36H16a1,1,0,0,0,0,2h2A1,1,0,0,0,18,36Z"/><path d="M24,36H22a1,1,0,0,0,0,2h2A1,1,0,0,0,24,36Z"/><path d="M12,40H10a1,1,0,0,0,0,2h2A1,1,0,0,0,12,40Z"/><path d="M18,40H16a1,1,0,0,0,0,2h2A1,1,0,0,0,18,40Z"/><path d="M24,40H22a1,1,0,0,0,0,2h2A1,1,0,0,0,24,40Z"/><path d="M12,44H10a1,1,0,0,0,0,2h2A1,1,0,0,0,12,44Z"/><path d="M18,44H16a1,1,0,0,0,0,2h2A1,1,0,0,0,18,44Z"/><path d="M24,44H22a1,1,0,0,0,0,2h2A1,1,0,0,0,24,44Z"/><path d="M30,36H28a1,1,0,0,0,0,2h2A1,1,0,0,0,30,36Z"/><path d="M30,40H28a1,1,0,0,0,0,2h2A1,1,0,0,0,30,40Z"/><path d="M30,44H28a1,1,0,0,0,0,2h2A1,1,0,0,0,30,44Z"/><path d="M27,59H37a3,3,0,0,0,3-3V55a1,1,0,0,0-2,0v1a1,1,0,0,1-1,1H27a1,1,0,0,1-1-1V55a1,1,0,0,0-2,0v1A3,3,0,0,0,27,59Z"/></g></svg>