<svg xmlns="http://www.w3.org/2000/svg" xmlns:xlink="http://www.w3.org/1999/xlink" viewBox="0 0 64 64"><defs><style>.cls-1{fill:url(#linear-gradient);}.cls-2{fill:#4da67f;}.cls-3{fill:#9fe2bf;}.cls-4{fill:url(#linear-gradient-2);}</style><linearGradient id="linear-gradient" x1="32" y1="51" x2="32" y2="13" gradientUnits="userSpaceOnUse"><stop offset="0" stop-color="#6ab891"/><stop offset="1" stop-color="#85cba9"/></linearGradient><linearGradient id="linear-gradient-2" y1="41" y2="23" xlink:href="#linear-gradient"/></defs><title>Cash</title><g id="Cash"><rect class="cls-1" x="1" y="13" width="62" height="38"/><rect class="cls-2" x="1" y="49" width="62" height="2"/><path class="cls-3" d="M54,46H10a4,4,0,0,0-4-4V22a4,4,0,0,0,4-4H54a4,4,0,0,0,4,4V42A4,4,0,0,0,54,46Z"/><ellipse class="cls-4" cx="32" cy="32" rx="8" ry="9"/><path class="cls-2" d="M39.92,33.27C39.37,37.64,36,41,32,41s-7.37-3.36-7.92-7.73a9,9,0,0,0,15.84,0Z"/><path d="M63,12H1a1,1,0,0,0-1,1V51a1,1,0,0,0,1,1H63a1,1,0,0,0,1-1V13A1,1,0,0,0,63,12ZM62,50H2V14H62Z"/><path d="M6,43a3,3,0,0,1,3,3,1,1,0,0,0,1,1H54a1,1,0,0,0,1-1,3,3,0,0,1,3-3,1,1,0,0,0,1-1V22a1,1,0,0,0-1-1,3,3,0,0,1-3-3,1,1,0,0,0-1-1H10a1,1,0,0,0-1,1,3,3,0,0,1-3,3,1,1,0,0,0-1,1V42A1,1,0,0,0,6,43ZM7,22.9A5,5,0,0,0,10.9,19H53.1A5,5,0,0,0,57,22.9V41.1A5,5,0,0,0,53.1,45H10.9A5,5,0,0,0,7,41.1Z"/><path d="M32,42c5,0,9-4.49,9-10s-4-10-9-10-9,4.49-9,10S27,42,32,42Zm0-18c3.86,0,7,3.59,7,8s-3.14,8-7,8-7-3.59-7-8S28.14,24,32,24Z"/><path d="M46,33h6a1,1,0,0,0,0-2H46A1,1,0,0,0,46,33Z"/><path d="M12,33h6a1,1,0,0,0,0-2H12A1,1,0,0,0,12,33Z"/></g></svg>