<svg xmlns="http://www.w3.org/2000/svg" xmlns:xlink="http://www.w3.org/1999/xlink" viewBox="0 0 64 64"><defs><style>.cls-1{fill:url(#linear-gradient);}.cls-2{fill:#f6b756;}</style><linearGradient id="linear-gradient" x1="32" y1="51" x2="32" y2="13" gradientUnits="userSpaceOnUse"><stop offset="0" stop-color="#fbcc88"/><stop offset="1" stop-color="#ffe5c3"/></linearGradient></defs><title>Coupon</title><g id="Coupon"><path class="cls-1" d="M57,32a6,6,0,0,0,6,6V51H1V38A6,6,0,0,0,1,26V13H63V26A6,6,0,0,0,57,32Z"/><rect class="cls-2" x="1" y="48" width="62" height="3"/><path d="M63,27a1,1,0,0,0,1-1V13a1,1,0,0,0-1-1H1a1,1,0,0,0-1,1V26a1,1,0,0,0,1,1A5,5,0,0,1,1,37a1,1,0,0,0-1,1V51a1,1,0,0,0,1,1H63a1,1,0,0,0,1-1V38a1,1,0,0,0-1-1,5,5,0,0,1,0-10Zm-7,5a7,7,0,0,0,6,6.93V50H2V38.93A7,7,0,0,0,2,25.07V14H62V25.07A7,7,0,0,0,56,32Z"/><path d="M23,15a1,1,0,0,0,0,2A1,1,0,0,0,23,15Z"/><path d="M23,19a1,1,0,0,0,0,2A1,1,0,0,0,23,19Z"/><path d="M23,23a1,1,0,0,0,0,2A1,1,0,0,0,23,23Z"/><path d="M23,27a1,1,0,0,0,0,2A1,1,0,0,0,23,27Z"/><path d="M23,31a1,1,0,0,0,0,2A1,1,0,0,0,23,31Z"/><path d="M23,35a1,1,0,0,0,0,2A1,1,0,0,0,23,35Z"/><path d="M23,39a1,1,0,0,0,0,2A1,1,0,0,0,23,39Z"/><path d="M23,43a1,1,0,0,0,0,2A1,1,0,0,0,23,43Z"/><path d="M23,47a1,1,0,0,0,0,2A1,1,0,0,0,23,47Z"/><path d="M46.21,22.39l-14,18A1,1,0,0,0,33,42c.71,0-.44,1.19,14.79-18.39A1,1,0,0,0,46.21,22.39Z"/><path d="M46,34a4,4,0,1,0,4,4A4,4,0,0,0,46,34Zm0,6a2,2,0,1,1,2-2A2,2,0,0,1,46,40Z"/><path d="M38,26a4,4,0,1,0-4,4A4,4,0,0,0,38,26Zm-6,0a2,2,0,1,1,2,2A2,2,0,0,1,32,26Z"/></g></svg>