<svg xmlns="http://www.w3.org/2000/svg" xmlns:xlink="http://www.w3.org/1999/xlink" viewBox="0 0 64 64"><defs><style>.cls-1{fill:url(#linear-gradient);}.cls-2{fill:#5b8dc9;}.cls-3{fill:url(#linear-gradient-3);}.cls-4{fill:url(#linear-gradient-4);}.cls-5{fill:url(#linear-gradient-5);}.cls-6{fill:url(#linear-gradient-6);}</style><linearGradient id="linear-gradient" x1="32" y1="55" x2="32" y2="9" gradientUnits="userSpaceOnUse"><stop offset="0" stop-color="#7aa8d7"/><stop offset="1" stop-color="#c3d2e7"/></linearGradient><linearGradient id="linear-gradient-3" x1="11" y1="32" x2="11" y2="24" gradientUnits="userSpaceOnUse"><stop offset="0" stop-color="#fbcc88"/><stop offset="1" stop-color="#ffe5c3"/></linearGradient><linearGradient id="linear-gradient-4" x1="47.5" y1="50" x2="47.5" y2="42" gradientUnits="userSpaceOnUse"><stop offset="0" stop-color="#da5466"/><stop offset="1" stop-color="#f4929c"/></linearGradient><linearGradient id="linear-gradient-5" x1="52" y1="20" x2="52" y2="14" gradientUnits="userSpaceOnUse"><stop offset="0" stop-color="#d4d8e1"/><stop offset="1" stop-color="#f3f4f5"/></linearGradient><linearGradient id="linear-gradient-6" x1="54" y1="50" x2="54" y2="42" gradientUnits="userSpaceOnUse"><stop offset="0" stop-color="#f8aa88"/><stop offset="1" stop-color="#fac2ab"/></linearGradient></defs><title>Credit Card</title><g id="Credit_Card" data-name="Credit Card"><rect class="cls-1" x="1" y="9" width="62" height="46" rx="3"/><rect class="cls-1" x="1" y="9" width="62" height="46" rx="3"/><path class="cls-2" d="M63,49v3a3,3,0,0,1-3,3H4a3,3,0,0,1-3-3V49a3,3,0,0,0,3,3H60A3,3,0,0,0,63,49Z"/><rect class="cls-3" x="6" y="24" width="10" height="8"/><path class="cls-4" d="M51,48.64a4,4,0,1,1,0-5.28Z"/><rect class="cls-5" x="46" y="14" width="12" height="6"/><circle class="cls-6" cx="54" cy="46" r="4"/><path d="M60,8H4a4,4,0,0,0-4,4V52a4,4,0,0,0,4,4H60a4,4,0,0,0,4-4V12A4,4,0,0,0,60,8Zm2,44a2,2,0,0,1-2,2H4a2,2,0,0,1-2-2V12a2,2,0,0,1,2-2H60a2,2,0,0,1,2,2Z"/><path d="M16,23H6a1,1,0,0,0-1,1v8a1,1,0,0,0,1,1H16a1,1,0,0,0,1-1V24A1,1,0,0,0,16,23Zm-1,8H7V25h8Z"/><path d="M16,36H6a1,1,0,0,0,0,2H16A1,1,0,0,0,16,36Z"/><path d="M30,36H20a1,1,0,0,0,0,2H30A1,1,0,0,0,30,36Z"/><path d="M44,36H34a1,1,0,0,0,0,2H44A1,1,0,0,0,44,36Z"/><path d="M58,36H48a1,1,0,0,0,0,2H58A1,1,0,0,0,58,36Z"/><path d="M51,42a5,5,0,1,0,0,8,5,5,0,1,0,0-8Zm-6,4a3,3,0,0,1,4.68-2.47,4.83,4.83,0,0,0,0,4.94A3,3,0,0,1,45,46Zm9,3a3,3,0,1,1,3-3A3,3,0,0,1,54,49Z"/><path d="M58,13H46a1,1,0,0,0-1,1v6a1,1,0,0,0,1,1H58a1,1,0,0,0,1-1V14A1,1,0,0,0,58,13Zm-1,6H47V15H57Z"/></g></svg>