<svg xmlns="http://www.w3.org/2000/svg" xmlns:xlink="http://www.w3.org/1999/xlink" viewBox="0 0 64 64"><defs><style>.cls-1{fill:url(#linear-gradient);}.cls-2{fill:url(#linear-gradient-2);}.cls-3{fill:#8288a1;}.cls-4{fill:url(#linear-gradient-3);}.cls-5{fill:#cba07a;}.cls-6{fill:url(#linear-gradient-4);}.cls-7{fill:#42455e;}.cls-8{fill:url(#linear-gradient-5);}.cls-9{fill:url(#linear-gradient-6);}.cls-10{fill:#f6b756;}.cls-11{fill:#77cacb;}</style><linearGradient id="linear-gradient" x1="52" y1="52" x2="52" y2="18" gradientUnits="userSpaceOnUse"><stop offset="0" stop-color="#a0a6ba"/><stop offset="1" stop-color="#c6ccda"/></linearGradient><linearGradient id="linear-gradient-2" x1="21" x2="21" y2="42" xlink:href="#linear-gradient"/><linearGradient id="linear-gradient-3" x1="21" y1="42" x2="21" y2="6" gradientUnits="userSpaceOnUse"><stop offset="0" stop-color="#deb895"/><stop offset="1" stop-color="#f2d3b8"/></linearGradient><linearGradient id="linear-gradient-4" x1="55" y1="37" x2="55" y2="22" gradientUnits="userSpaceOnUse"><stop offset="0" stop-color="#9dd5df"/><stop offset="1" stop-color="#c3e1f5"/></linearGradient><linearGradient id="linear-gradient-5" x1="61" y1="48" x2="61" y2="42" gradientUnits="userSpaceOnUse"><stop offset="0" stop-color="#fbcc88"/><stop offset="1" stop-color="#ffe5c3"/></linearGradient><linearGradient id="linear-gradient-6" x1="21" y1="14" x2="21" y2="6" xlink:href="#linear-gradient-5"/></defs><title>Delivery</title><g id="Delivery"><path class="cls-1" d="M63,37V52H41V18H54.8a3,3,0,0,1,2.86,2.1l.6,1.9,3.79,12Z"/><polyline class="cls-2" points="20 52 41 52 41 42 1 42 1 52 8 52"/><polyline class="cls-3" points="30.45 52 63 52 63 49 1 49 1 52 11.85 52"/><rect class="cls-4" x="1" y="6" width="40" height="36"/><rect class="cls-5" x="1" y="40" width="40" height="2"/><polygon class="cls-6" points="63 37 47 37 47 22 58.26 22 62.05 34 63 37"/><circle class="cls-7" cx="14" cy="52" r="6"/><path class="cls-8" d="M61,42h2a0,0,0,0,1,0,0v6a0,0,0,0,1,0,0H61a2,2,0,0,1-2-2V44A2,2,0,0,1,61,42Z"/><polygon class="cls-9" points="26 6 26 14 23.51 13 21 14 18.51 13 16 14 16 6 26 6"/><polygon class="cls-9" points="26 6 26 14 23.51 13 21 14 18.51 13 16 14 16 6 26 6"/><polygon class="cls-10" points="26 12 26 14 23.51 13 21 14 18.51 13 16 14 16 12 18.51 11 21 12 23.51 11 26 12"/><polygon class="cls-11" points="63 37 47 37 47 34 62.05 34 63 37"/><circle class="cls-7" cx="51" cy="52" r="6"/><path d="M64,36.7,58.61,19.8A4,4,0,0,0,54.8,17H42V6a1,1,0,0,0-1-1H1A1,1,0,0,0,0,6V52a1,1,0,0,0,1,1H7.08a7,7,0,0,0,13.84,0H44.08a7,7,0,0,0,13.84,0H63a1,1,0,0,0,1-1C64,35.67,64,36.92,64,36.7ZM61.64,36H48V23h9.53ZM25,7v5.52c-1.83-.73-1.11-.75-4,.4-2.92-1.17-2.14-1.14-4-.4V7ZM2,7H15v7a1,1,0,0,0,1.37.93l2.14-.85c3,1.21,2,1.2,5,0C25.85,15,25.74,15,26,15a1,1,0,0,0,1-1V7H40V41H2ZM2,43H40v8H20.92A7,7,0,0,0,7.08,51H2ZM14,57a5,5,0,1,1,5-5A5,5,0,0,1,14,57Zm37,0a5,5,0,1,1,5-5A5,5,0,0,1,51,57Zm6.92-6a7,7,0,0,0-13.84,0H42V19H54.8a2,2,0,0,1,1.91,1.4l.19.6H47a1,1,0,0,0-1,1V37a1,1,0,0,0,1,1H62v3H61a3,3,0,0,0-3,3v2a3,3,0,0,0,3,3h1v2ZM62,47H61a1,1,0,0,1-1-1V44a1,1,0,0,1,1-1h1Z"/><path d="M49,40H47a1,1,0,0,0,0,2h2A1,1,0,0,0,49,40Z"/><circle cx="51" cy="52" r="2"/><circle cx="14" cy="52" r="2"/><path d="M36,36H30a1,1,0,0,0,0,2h6A1,1,0,0,0,36,36Z"/><path d="M36,32H30a1,1,0,0,0,0,2h6A1,1,0,0,0,36,32Z"/></g></svg>