<svg xmlns="http://www.w3.org/2000/svg" xmlns:xlink="http://www.w3.org/1999/xlink" viewBox="0 0 64 64"><defs><style>.cls-1{fill:#cf4055;}.cls-2{fill:url(#linear-gradient);}</style><linearGradient id="linear-gradient" x1="32" y1="54" x2="32" y2="10" gradientUnits="userSpaceOnUse"><stop offset="0" stop-color="#da5466"/><stop offset="1" stop-color="#f4929c"/></linearGradient></defs><title>Discount</title><g id="Discount"><path class="cls-1" d="M63,32c0,2.68-2.53,5-3.19,7.45s.33,5.82-1,8-4.65,3-6.5,4.85-2.58,5.19-4.85,6.5-5.49.28-8,1S34.68,63,32,63s-5-2.53-7.45-3.19-5.82.33-8-1-3-4.65-4.85-6.5-5.19-2.58-6.5-4.85-.28-5.49-1-8S1,34.68,1,32s2.53-5,3.19-7.45-.33-5.82,1-8,4.65-3,6.5-4.85,2.58-5.19,4.85-6.5,5.49-.28,8.05-1S29.32,1,32,1s5,2.53,7.45,3.19,5.82-.33,8,1,3,4.65,4.85,6.5,5.19,2.58,6.5,4.85.28,5.49,1,8.05S63,29.32,63,32Z"/><circle class="cls-2" cx="32" cy="32" r="22"/><path d="M62.15,27.07c-1.5-2.5-1.64-2.95-1.6-6,.06-4.67-.62-6-4.85-8.35-2.61-1.46-3-1.79-4.41-4.41C48.91,4,47.57,3.39,42.94,3.45c-3.06,0-3.51-.1-6-1.6-4.13-2.47-5.7-2.49-9.86,0-2.49,1.49-2.95,1.64-6,1.6-4.65-.06-6,.6-8.35,4.85-1.46,2.61-1.8,2.95-4.41,4.41-4.24,2.36-4.91,3.69-4.85,8.35,0,3.05-.1,3.51-1.6,6-2.47,4.12-2.49,5.7,0,9.86,1.5,2.5,1.64,3,1.6,6-.06,4.67.62,6,4.85,8.35,2.61,1.46,2.95,1.8,4.41,4.41,2.37,4.25,3.7,4.91,8.35,4.85,3.05,0,3.52.11,6,1.6,4.12,2.46,5.7,2.49,9.86,0,2.48-1.49,3-1.64,6-1.6,4.63.06,6-.58,8.35-4.85,1.46-2.61,1.8-3,4.41-4.41,4.24-2.36,4.91-3.69,4.85-8.35,0-3.07.11-3.52,1.6-6C64.63,32.78,64.62,31.2,62.15,27.07ZM60.43,35.9c-1.68,2.8-1.92,3.62-1.88,7.06.05,4-.29,4.61-3.82,6.58-2.94,1.64-3.55,2.25-5.19,5.19-2,3.52-2.6,3.88-6.58,3.82-3.44,0-4.24.19-7.06,1.88-3.48,2.09-4.3,2.1-7.8,0-2.43-1.45-3.39-1.88-6.23-1.88-1.71,0-3.62.16-4.87-.57-1.94-1.11-2.71-4.39-4.65-6.33S7.13,48.94,6,47s-.15-5.12-.87-7.8C4.5,36.76,2,34.22,2,32s2.45-4.57,3.15-7.19S4.91,18.9,6,17s4.39-2.71,6.33-4.65S15.06,7.13,17,6s5.13-.15,7.8-.87C27.24,4.5,29.78,2,32,2s4.59,2.46,7.2,3.15S45.11,4.92,47,6s2.71,4.39,4.65,6.33S56.86,15.06,58,17s.14,5.13.86,7.8c.65,2.44,3.15,5,3.15,7.2A8.23,8.23,0,0,1,60.43,35.9Z"/><path d="M32,9A23,23,0,1,0,55,32,23,23,0,0,0,32,9Zm0,44A21,21,0,1,1,53,32,21,21,0,0,1,32,53Z"/><path d="M29,25a5,5,0,1,0-5,5A5,5,0,0,0,29,25Zm-8,0a3,3,0,1,1,3,3A3,3,0,0,1,21,25Z"/><path d="M40,34a5,5,0,1,0,5,5A5,5,0,0,0,40,34Zm0,8a3,3,0,1,1,3-3A3,3,0,0,1,40,42Z"/><path d="M39.19,20.41l-16,22A1,1,0,0,0,24,44c.75,0-.42,1.28,16.81-22.41A1,1,0,0,0,39.19,20.41Z"/></g></svg>