<svg xmlns="http://www.w3.org/2000/svg" xmlns:xlink="http://www.w3.org/1999/xlink" viewBox="0 0 64 64"><defs><style>.cls-1{fill:url(#linear-gradient);}.cls-2{fill:url(#linear-gradient-2);}.cls-3{fill:#42455e;}.cls-4{fill:#9ca0ad;}.cls-5{fill:url(#linear-gradient-3);}.cls-6{fill:url(#linear-gradient-4);}.cls-7{fill:url(#linear-gradient-5);}.cls-8{fill:#77cacb;}.cls-9{fill:url(#linear-gradient-6);}.cls-10{fill:#c7cdd8;}.cls-11{fill:url(#linear-gradient-7);}.cls-12{fill:url(#linear-gradient-8);}.cls-13{fill:url(#linear-gradient-9);}.cls-14{fill:url(#linear-gradient-10);}.cls-15{fill:url(#linear-gradient-11);}.cls-16{fill:url(#linear-gradient-12);}.cls-17{fill:url(#linear-gradient-13);}.cls-18{fill:url(#linear-gradient-14);}.cls-19{fill:url(#linear-gradient-15);}.cls-20{fill:url(#linear-gradient-16);}.cls-21{fill:url(#linear-gradient-17);}.cls-22{fill:url(#linear-gradient-18);}.cls-23{fill:url(#linear-gradient-19);}.cls-24{fill:url(#linear-gradient-20);}</style><linearGradient id="linear-gradient" x1="32" y1="63" x2="32" y2="55" gradientUnits="userSpaceOnUse"><stop offset="0" stop-color="#a0a6ba"/><stop offset="1" stop-color="#c6ccda"/></linearGradient><linearGradient id="linear-gradient-2" x1="32" y1="63" x2="32" y2="55" gradientUnits="userSpaceOnUse"><stop offset="0" stop-color="#474f72"/><stop offset="1" stop-color="#878c9f"/></linearGradient><linearGradient id="linear-gradient-3" y1="55" y2="15" xlink:href="#linear-gradient-2"/><linearGradient id="linear-gradient-4" x1="12" y1="51" x2="12" y2="19" gradientUnits="userSpaceOnUse"><stop offset="0" stop-color="#9dd5df"/><stop offset="1" stop-color="#c3e1f5"/></linearGradient><linearGradient id="linear-gradient-5" x1="52" x2="52" xlink:href="#linear-gradient-4"/><linearGradient id="linear-gradient-6" x1="32" y1="51" x2="32" y2="14" gradientUnits="userSpaceOnUse"><stop offset="0" stop-color="#d4d8e1"/><stop offset="1" stop-color="#f3f4f5"/></linearGradient><linearGradient id="linear-gradient-7" x1="32" y1="47" x2="32" y2="30" gradientUnits="userSpaceOnUse"><stop offset="0" stop-color="#deb895"/><stop offset="1" stop-color="#f2d3b8"/></linearGradient><linearGradient id="linear-gradient-8" x1="28" y1="19" x2="28" y2="14" gradientUnits="userSpaceOnUse"><stop offset="0" stop-color="#da5466"/><stop offset="1" stop-color="#f4929c"/></linearGradient><linearGradient id="linear-gradient-9" x1="36" x2="36" xlink:href="#linear-gradient-8"/><linearGradient id="linear-gradient-10" x1="44" x2="44" xlink:href="#linear-gradient-8"/><linearGradient id="linear-gradient-11" x1="52" x2="52" xlink:href="#linear-gradient-8"/><linearGradient id="linear-gradient-12" x1="12" x2="12" xlink:href="#linear-gradient-8"/><linearGradient id="linear-gradient-13" x1="20" x2="20" xlink:href="#linear-gradient-8"/><linearGradient id="linear-gradient-14" y1="7" y2="1" xlink:href="#linear-gradient"/><linearGradient id="linear-gradient-15" x1="32" y1="10.5" x2="40" y2="10.5" xlink:href="#linear-gradient-8"/><linearGradient id="linear-gradient-16" x1="38" y1="10.5" x2="48" y2="10.5" xlink:href="#linear-gradient-8"/><linearGradient id="linear-gradient-17" x1="44" y1="10.5" x2="56" y2="10.5" xlink:href="#linear-gradient-8"/><linearGradient id="linear-gradient-18" x1="24" y1="10.5" x2="32" y2="10.5" xlink:href="#linear-gradient-8"/><linearGradient id="linear-gradient-19" x1="16" y1="10.5" x2="26" y2="10.5" xlink:href="#linear-gradient-8"/><linearGradient id="linear-gradient-20" x1="8" y1="10.5" x2="20" y2="10.5" xlink:href="#linear-gradient-8"/></defs><title>Ecommerce</title><g id="Ecommerce"><path class="cls-1" d="M3,55H61a2,2,0,0,1,2,2v2a4,4,0,0,1-4,4H5a4,4,0,0,1-4-4V57A2,2,0,0,1,3,55Z"/><path class="cls-2" d="M3,55H61a2,2,0,0,1,2,2v2a4,4,0,0,1-4,4H5a4,4,0,0,1-4-4V57A2,2,0,0,1,3,55Z"/><path class="cls-3" d="M63,57v2a4,4,0,0,1-4,4H5a4,4,0,0,1-4-4V57a4,4,0,0,0,4,4H59A4,4,0,0,0,63,57Z"/><polygon class="cls-4" points="38 58 26 58 24 55 40 55 38 58"/><rect class="cls-5" x="6" y="15" width="52" height="40" rx="2"/><path class="cls-3" d="M58,51v2a2,2,0,0,1-2,2H8a2,2,0,0,1-2-2V51a2,2,0,0,0,2,2H56A2,2,0,0,0,58,51Z"/><rect class="cls-6" x="10" y="19" width="4" height="32"/><rect class="cls-7" x="50" y="19" width="4" height="32"/><rect class="cls-8" x="10" y="49" width="4" height="2"/><rect class="cls-8" x="50" y="49" width="4" height="2"/><rect class="cls-9" x="14" y="14" width="36" height="37"/><rect class="cls-10" x="14" y="49" width="36" height="2"/><path class="cls-11" d="M23,30H41a0,0,0,0,1,0,0V44a3,3,0,0,1-3,3H26a3,3,0,0,1-3-3V30A0,0,0,0,1,23,30Z"/><path class="cls-12" d="M24,14h8a0,0,0,0,1,0,0v1a4,4,0,0,1-4,4h0a4,4,0,0,1-4-4V14A0,0,0,0,1,24,14Z"/><path class="cls-13" d="M32,14h8a0,0,0,0,1,0,0v1a4,4,0,0,1-4,4h0a4,4,0,0,1-4-4V14A0,0,0,0,1,32,14Z"/><path class="cls-14" d="M40,14h8a0,0,0,0,1,0,0v1a4,4,0,0,1-4,4h0a4,4,0,0,1-4-4V14A0,0,0,0,1,40,14Z"/><path class="cls-15" d="M48,14h8a0,0,0,0,1,0,0v1a4,4,0,0,1-4,4h0a4,4,0,0,1-4-4V14A0,0,0,0,1,48,14Z"/><path class="cls-16" d="M8,14h8a0,0,0,0,1,0,0v1a4,4,0,0,1-4,4h0a4,4,0,0,1-4-4V14A0,0,0,0,1,8,14Z"/><path class="cls-17" d="M16,14h8a0,0,0,0,1,0,0v1a4,4,0,0,1-4,4h0a4,4,0,0,1-4-4V14a0,0,0,0,1,0,0Z"/><rect class="cls-18" x="14" y="1" width="36" height="6"/><polygon class="cls-19" points="40 14 32 14 32 7 38 7 40 14"/><polygon class="cls-20" points="48 14 40 14 38 7 44 7 48 14"/><polygon class="cls-21" points="56 14 48 14 44 7 50 7 56 14"/><polygon class="cls-22" points="24 14 32 14 32 7 26 7 24 14"/><polygon class="cls-23" points="16 14 24 14 26 7 20 7 16 14"/><polygon class="cls-24" points="8 14 16 14 20 7 14 7 8 14"/><path d="M61,54H58.82c.27-.77.18,1.77.18-37a3,3,0,0,0-2-2.82c0-.76.48,0-6-7.55V1a1,1,0,0,0-1-1H14a1,1,0,0,0-1,1V6.63c-6.42,7.49-6,6.8-6,7.55A3,3,0,0,0,5,17c0,39-.09,36.23.18,37H3a3,3,0,0,0-3,3v2a5,5,0,0,0,5,5H59a5,5,0,0,0,5-5V57A3,3,0,0,0,61,54ZM53,20V50H51V20ZM37.25,8l1.42,5H33V8ZM39,15a3,3,0,0,1-6,0Zm8,0a3,3,0,0,1-6,0ZM43.42,8l2.86,5H40.75L39.33,8ZM31,13H25.33c.33-1.15.07-.25,1.42-5H31Zm0,2a3,3,0,0,1-6,0Zm-7.75-2H17.72l2.86-5h4.09C24.34,9.15,24.6,8.25,23.25,13ZM23,15a3,3,0,0,1-6,0ZM12,18a3,3,0,0,1-3-3h6A3,3,0,0,1,12,18Zm-1,2h2V50H11Zm4-1c0-.11.39-.21,1-1a5,5,0,0,0,8,0,5,5,0,0,0,8,0,5,5,0,0,0,8,0,5,5,0,0,0,8,0c.65.87,1,.92,1,1V50H15Zm37-1a3,3,0,0,1-3-3h6A3,3,0,0,1,52,18Zm-3.42-5L45.72,8h3.82l4.29,5ZM15,2H49V6H15Zm-.54,6h3.82l-2.86,5H10.17ZM7,53c0-38.44-.12-36.16.22-36.6A5.31,5.31,0,0,0,9,19V51a1,1,0,0,0,1,1H54a1,1,0,0,0,1-1c0-42.26,0-29.61,0-32a5.06,5.06,0,0,0,1.78-2.58c.34.44.22-1.94.22,36.6a1,1,0,0,1-1,1H8A1,1,0,0,1,7,53Zm31.13,3-.67,1H26.54l-.67-1ZM62,59a3,3,0,0,1-3,3H5a3,3,0,0,1-3-3V57a1,1,0,0,1,1-1H23.46l1.71,2.55c.42.63,0,.45,12.83.45.69,0,.74-.3,2.54-3H61a1,1,0,0,1,1,1Z"/><path d="M41,29H37V27a5,5,0,0,0-10,0v2H23a1,1,0,0,0-1,1V44a4,4,0,0,0,4,4H38a4,4,0,0,0,4-4V30A1,1,0,0,0,41,29ZM29,27a3,3,0,0,1,6,0v2H29ZM40,44a2,2,0,0,1-2,2H26a2,2,0,0,1-2-2V31h3v2a1,1,0,0,0,2,0V31h6v2a1,1,0,0,0,2,0V31h3Z"/><path d="M18,3a1,1,0,0,0,0,2A1,1,0,0,0,18,3Z"/><path d="M22,5a1,1,0,0,0,0-2A1,1,0,0,0,22,5Z"/><path d="M26,5a1,1,0,0,0,0-2A1,1,0,0,0,26,5Z"/></g></svg>