<svg xmlns="http://www.w3.org/2000/svg" xmlns:xlink="http://www.w3.org/1999/xlink" viewBox="0 0 64 64"><defs><style>.cls-1{fill:#42455e;}.cls-2{fill:url(#linear-gradient);}.cls-3{fill:#8288a1;}.cls-4{fill:url(#linear-gradient-3);}.cls-5{fill:#77cacb;}.cls-6{fill:url(#linear-gradient-4);}.cls-7{fill:url(#linear-gradient-5);}</style><linearGradient id="linear-gradient" x1="24" y1="47" x2="24" y2="1" gradientUnits="userSpaceOnUse"><stop offset="0" stop-color="#a0a6ba"/><stop offset="1" stop-color="#c6ccda"/></linearGradient><linearGradient id="linear-gradient-3" x1="24" y1="42" x2="24" y2="6" gradientUnits="userSpaceOnUse"><stop offset="0" stop-color="#9dd5df"/><stop offset="1" stop-color="#c3e1f5"/></linearGradient><linearGradient id="linear-gradient-4" x1="52" y1="63" x2="52" y2="41" gradientUnits="userSpaceOnUse"><stop offset="0" stop-color="#474f72"/><stop offset="1" stop-color="#878c9f"/></linearGradient><linearGradient id="linear-gradient-5" x1="24" y1="35" x2="24" y2="18" gradientUnits="userSpaceOnUse"><stop offset="0" stop-color="#deb895"/><stop offset="1" stop-color="#f2d3b8"/></linearGradient></defs><title>Find Product</title><g id="Find_Product" data-name="Find Product"><polygon class="cls-1" points="41.69 38.69 45 42 42.09 44.91 38.79 41.61 41.69 38.69"/><circle class="cls-2" cx="24" cy="24" r="23"/><circle class="cls-2" cx="24" cy="24" r="23"/><path class="cls-3" d="M47,24A23,23,0,0,1,1,24c0-.34,0-.67,0-1A23,23,0,0,0,47,23C47,23.33,47,23.66,47,24Z"/><circle class="cls-4" cx="24" cy="24" r="18"/><path class="cls-5" d="M42,24c0,.33,0,.67,0,1A18,18,0,0,0,6,25c0-.33,0-.67,0-1a18,18,0,0,1,36,0Z"/><path class="cls-6" d="M63,59.46h0A3.53,3.53,0,0,1,59.46,63h0A3.54,3.54,0,0,1,57,62L41,46l5-5L62,57A3.54,3.54,0,0,1,63,59.46Z"/><path class="cls-1" d="M63,59.46A3.54,3.54,0,0,1,57,62L41,46l1-1L57,60a3.53,3.53,0,0,0,5.89-1.5A3.37,3.37,0,0,1,63,59.46Z"/><path class="cls-7" d="M15,18H33a0,0,0,0,1,0,0V32a3,3,0,0,1-3,3H18a3,3,0,0,1-3-3V18A0,0,0,0,1,15,18Z"/><path d="M24,5A19,19,0,1,0,43,24,19,19,0,0,0,24,5Zm0,36A17,17,0,1,1,41,24,17,17,0,0,1,24,41Z"/><path d="M62.67,56.26l-16-16a1,1,0,0,0-1.42,0l-.29.3-2-2C55.05,23,44,0,24,0A24,24,0,0,0,0,24C0,44,23.09,55.1,38.71,42.94l2,2-.39.38a1,1,0,0,0,0,1.42l16,16A4.47,4.47,0,0,0,59.46,64,4.54,4.54,0,0,0,62.67,56.26ZM2,24A22,22,0,1,1,24,46,22,22,0,0,1,2,24ZM40.24,41.65q.78-.72,1.5-1.5L43.59,42l-1.5,1.5ZM59.46,62c-1.47,0-.66.39-17.05-16l3.3-3.29c.42-.43-1.41-2,15.55,15A2.54,2.54,0,0,1,59.46,62Z"/><path d="M33,17H29V15a5,5,0,0,0-10,0v2H15a1,1,0,0,0-1,1V32a4,4,0,0,0,4,4H30a4,4,0,0,0,4-4V18A1,1,0,0,0,33,17ZM21,15a3,3,0,0,1,6,0v2H21ZM32,32a2,2,0,0,1-2,2H18a2,2,0,0,1-2-2V19h3v2a1,1,0,0,0,2,0V19h6v2a1,1,0,0,0,2,0V19h3Z"/></g></svg>