<svg xmlns="http://www.w3.org/2000/svg" xmlns:xlink="http://www.w3.org/1999/xlink" viewBox="0 0 64 64"><defs><style>.cls-1{fill:url(#linear-gradient);}.cls-2{fill:url(#linear-gradient-2);}.cls-3{fill:#cf4055;}.cls-4{fill:url(#linear-gradient-5);}.cls-5{fill:#f6b756;}.cls-6{fill:url(#linear-gradient-6);}.cls-7{fill:url(#linear-gradient-7);}.cls-8{fill:url(#linear-gradient-8);}.cls-9{fill:url(#linear-gradient-9);}.cls-10{fill:#cba07a;}</style><linearGradient id="linear-gradient" x1="32" y1="15" x2="32" y2="1" gradientUnits="userSpaceOnUse"><stop offset="0" stop-color="#fbcc88"/><stop offset="1" stop-color="#ffe5c3"/></linearGradient><linearGradient id="linear-gradient-2" x1="32" y1="27" x2="32" y2="15" gradientUnits="userSpaceOnUse"><stop offset="0" stop-color="#da5466"/><stop offset="1" stop-color="#f4929c"/></linearGradient><linearGradient id="linear-gradient-5" y1="27" y2="15" xlink:href="#linear-gradient"/><linearGradient id="linear-gradient-6" y1="63" y2="27" xlink:href="#linear-gradient-2"/><linearGradient id="linear-gradient-7" y1="63" y2="27" xlink:href="#linear-gradient"/><linearGradient id="linear-gradient-8" y2="10" xlink:href="#linear-gradient"/><linearGradient id="linear-gradient-9" x1="48" y1="49" x2="48" y2="31" gradientUnits="userSpaceOnUse"><stop offset="0" stop-color="#deb895"/><stop offset="1" stop-color="#f2d3b8"/></linearGradient></defs><title>Gift</title><g id="Gift"><path class="cls-1" d="M55,8a7,7,0,0,1-7,7H46.89A4.06,4.06,0,0,0,51,11a4.06,4.06,0,0,0-4.11-4,11.37,11.37,0,0,0-9,4.39A10.78,10.78,0,0,0,36,15H28a10.78,10.78,0,0,0-1.86-3.61,11.37,11.37,0,0,0-9-4.39A4.06,4.06,0,0,0,13,11a4.06,4.06,0,0,0,4.11,4H16A7,7,0,1,1,16,1a14,14,0,0,1,9.9,4.1,13.62,13.62,0,0,1,2.5,3.42,12.09,12.09,0,0,1,.81,1.84h5.58a12.09,12.09,0,0,1,.81-1.84A13.62,13.62,0,0,1,38.1,5.1,14,14,0,0,1,48,1a7,7,0,0,1,7,7Z"/><rect class="cls-2" x="3" y="15" width="58" height="12"/><rect class="cls-2" x="3" y="15" width="58" height="12"/><rect class="cls-2" x="3" y="15" width="58" height="12"/><rect class="cls-3" x="3" y="24" width="58" height="3"/><rect class="cls-4" x="25" y="15" width="14" height="12"/><rect class="cls-5" x="25" y="24" width="14" height="3"/><rect class="cls-6" x="5" y="27" width="54" height="36"/><rect class="cls-3" x="5" y="60" width="54" height="3"/><rect class="cls-7" x="27" y="27" width="10" height="36"/><rect class="cls-5" x="27" y="60" width="10" height="3"/><path class="cls-5" d="M37.86,11.39A10.78,10.78,0,0,0,36,15H28a10.78,10.78,0,0,0-1.86-3.61A4.54,4.54,0,0,1,28.4,8.52a12.09,12.09,0,0,1,.81,1.84h5.58a12.09,12.09,0,0,1,.81-1.84A4.54,4.54,0,0,1,37.86,11.39Z"/><path class="cls-8" d="M30.5,10h3A2.5,2.5,0,0,1,36,12.5V15a0,0,0,0,1,0,0H28a0,0,0,0,1,0,0V12.5A2.5,2.5,0,0,1,30.5,10Z"/><polygon class="cls-9" points="54 49 42 49 42 35 48 31 54 35 54 49"/><rect class="cls-10" x="42" y="46" width="12" height="3"/><path d="M61,14H53.27A8,8,0,0,0,48,0,14.9,14.9,0,0,0,34.24,9.08a24.8,24.8,0,0,0-4.48,0C26,.38,15.17-2.48,10.34,2.34A8,8,0,0,0,10.73,14H3a1,1,0,0,0-1,1V27a1,1,0,0,0,1,1H4V63a1,1,0,0,0,1,1H59a1,1,0,0,0,1-1V28h1a1,1,0,0,0,1-1V15A1,1,0,0,0,61,14ZM26,26V16H38V26ZM14,11c0-5,9.59-3.6,12.57,3H17.11A3.07,3.07,0,0,1,14,11Zm32.89,3H37.43C40.41,7.41,50,6,50,11A3.07,3.07,0,0,1,46.89,14ZM40,16h7V26H40ZM52.24,3.76a6,6,0,0,1-.58,9A5,5,0,0,0,46.89,6a12.47,12.47,0,0,0-10.15,5.2A3.35,3.35,0,0,0,36,10.06C39.13,2.48,48.45,0,52.24,3.76ZM33.5,11A1.5,1.5,0,0,1,35,12.5V14H29V12.5A1.5,1.5,0,0,1,30.5,11ZM16,2a12.91,12.91,0,0,1,12,8.06,3.35,3.35,0,0,0-.74,1.14A12.47,12.47,0,0,0,17.11,6a5,5,0,0,0-4.77,6.74A6,6,0,0,1,16,2ZM4,16H24V26H4ZM6,28H26V62H6ZM28,62V28h8V62Zm30,0H38V28h9v2.46l-5.55,3.71C40.81,34.59,41,34,41,49a1,1,0,0,0,1,1H54a1,1,0,0,0,1-1V35c0-.73,0-.55-6-4.54V28h9ZM48,32.2l5,3.34V48H43V35.54ZM60,26H49V16H60Z"/></g></svg>