<svg xmlns="http://www.w3.org/2000/svg" xmlns:xlink="http://www.w3.org/1999/xlink" viewBox="0 0 64 64"><defs><style>.cls-1{fill:url(#linear-gradient);}.cls-2{fill:#8288a1;}.cls-3{fill:url(#linear-gradient-3);}.cls-4{fill:#d7dbe2;}.cls-5{fill:url(#linear-gradient-4);}.cls-6{fill:#4da67f;}</style><linearGradient id="linear-gradient" x1="32" y1="63" x2="32" y2="1" gradientUnits="userSpaceOnUse"><stop offset="0" stop-color="#a0a6ba"/><stop offset="1" stop-color="#c6ccda"/></linearGradient><linearGradient id="linear-gradient-3" x1="32" y1="57.73" x2="32" y2="6.25" gradientUnits="userSpaceOnUse"><stop offset="0" stop-color="#d4d8e1"/><stop offset="1" stop-color="#f3f4f5"/></linearGradient><linearGradient id="linear-gradient-4" x1="32" y1="43" x2="32" y2="15" gradientUnits="userSpaceOnUse"><stop offset="0" stop-color="#6ab891"/><stop offset="1" stop-color="#85cba9"/></linearGradient></defs><title>Guarantee</title><g id="Guarantee"><path class="cls-1" d="M32,63h0A36.84,36.84,0,0,1,6,27.8V5H7.35A77.93,77.93,0,0,0,32,1h0A77.93,77.93,0,0,0,56.65,5H58V27.8A36.84,36.84,0,0,1,32,63Z"/><path class="cls-1" d="M32,63h0A36.84,36.84,0,0,1,6,27.8V5H7.35A77.93,77.93,0,0,0,32,1h0A77.93,77.93,0,0,0,56.65,5H58V27.8A36.84,36.84,0,0,1,32,63Z"/><path class="cls-2" d="M58,25.8v2A36.84,36.84,0,0,1,32,63,36.84,36.84,0,0,1,6,27.8v-2A36.84,36.84,0,0,0,32,61,36.84,36.84,0,0,0,58,25.8Z"/><path class="cls-3" d="M32,57.73A31.66,31.66,0,0,1,11,27.8V9.92A82.48,82.48,0,0,0,32,6.25,82.48,82.48,0,0,0,53,9.92V27.8A31.66,31.66,0,0,1,32,57.73Z"/><path class="cls-4" d="M53,9.92v3A82.48,82.48,0,0,1,32,9.25a82.48,82.48,0,0,1-21,3.67v-3A82.48,82.48,0,0,0,32,6.25,82.48,82.48,0,0,0,53,9.92Z"/><circle class="cls-5" cx="32" cy="29" r="14"/><path class="cls-6" d="M46,29a14,14,0,0,1-28,0,14.76,14.76,0,0,1,.08-1.5,14,14,0,0,0,27.84,0A14.76,14.76,0,0,1,46,29Z"/><path d="M58,4A77.23,77.23,0,0,1,32.32.05C30.76-.46,24.4,4,6,4A1,1,0,0,0,5,5V27.8A37.65,37.65,0,0,0,31.71,64a1.14,1.14,0,0,0,.58,0A37.65,37.65,0,0,0,59,27.8V5A1,1,0,0,0,58,4ZM57,27.8A35.64,35.64,0,0,1,32,62,35.64,35.64,0,0,1,7,27.8C7,3.61,6.84,6,7.35,6A78.79,78.79,0,0,0,32,2.05,78.79,78.79,0,0,0,56.65,6C57.16,6,57,3.61,57,27.8Z"/><path d="M53,8.92C39.28,8.32,32.77,5,31.7,5.3A82,82,0,0,1,11,8.92a1,1,0,0,0-1,1V27.8A32.47,32.47,0,0,0,31.66,58.67a1,1,0,0,0,.68,0A32.47,32.47,0,0,0,54,27.8V9.92A1,1,0,0,0,53,8.92ZM52,27.8A30.5,30.5,0,0,1,32,56.67,30.5,30.5,0,0,1,12,27.8V10.87A83.41,83.41,0,0,0,32,7.3a83.5,83.5,0,0,0,20,3.57Z"/><path d="M17,29A15,15,0,1,0,32,14,15,15,0,0,0,17,29Zm28,0A13,13,0,1,1,32,16,13,13,0,0,1,45,29Z"/><path d="M25.71,27.79a1,1,0,0,0-1.42,1.42c5.24,5.23,5.12,5.29,5.71,5.29s-.07.49,9.71-9.29a1,1,0,0,0-1.42-1.42L30,32.09Z"/></g></svg>