<svg xmlns="http://www.w3.org/2000/svg" xmlns:xlink="http://www.w3.org/1999/xlink" viewBox="0 0 64 64"><defs><style>.cls-1{fill:url(#linear-gradient);}.cls-2{fill:url(#linear-gradient-2);}.cls-3{fill:url(#linear-gradient-3);}.cls-4{fill:#8288a1;}</style><linearGradient id="linear-gradient" x1="32" y1="49" x2="32" y2="25" gradientUnits="userSpaceOnUse"><stop offset="0" stop-color="#deb895"/><stop offset="1" stop-color="#f2d3b8"/></linearGradient><linearGradient id="linear-gradient-2" x1="18" y1="52" x2="18" y2="46" gradientUnits="userSpaceOnUse"><stop offset="0" stop-color="#a0a6ba"/><stop offset="1" stop-color="#c6ccda"/></linearGradient><linearGradient id="linear-gradient-3" x1="46" y1="52" x2="46" y2="46" xlink:href="#linear-gradient-2"/></defs><title>Hanger Fashion</title><g id="Hanger_Fashion" data-name="Hanger Fashion"><path class="cls-1" d="M63,46.22V49l-3.44-2L32,31,4.44,47,1,49V46.22a6,6,0,0,1,3.81-5.59A74.15,74.15,0,0,0,22.73,31a7.81,7.81,0,0,0,2-2.22A7.83,7.83,0,0,1,31.42,25h1.16a7.83,7.83,0,0,1,6.7,3.79,7.81,7.81,0,0,0,2,2.22,74.15,74.15,0,0,0,17.92,9.62A6,6,0,0,1,63,46.22Z"/><rect class="cls-2" x="16" y="46" width="4" height="6"/><rect class="cls-3" x="44" y="46" width="4" height="6"/><rect class="cls-4" x="16" y="50" width="4" height="2"/><rect class="cls-4" x="44" y="50" width="4" height="2"/><path d="M59.55,39.7a73.41,73.41,0,0,1-17.67-9.49,6.56,6.56,0,0,1-1.74-1.94A8.88,8.88,0,0,0,33,24c0-1.65-.27-2.92.92-3.41a5,5,0,1,0-6.54-6.54A1.48,1.48,0,0,1,26,15a1,1,0,0,0-1,1c0,1.71,3.25,1.19,4.23-1.15a3,3,0,1,1,3.92,3.92C30.67,19.81,31,22.18,31,24a8.87,8.87,0,0,0-7.14,4.25,6.76,6.76,0,0,1-1.73,1.93A73.77,73.77,0,0,1,4.45,39.7,7,7,0,0,0,0,46.22V49a1,1,0,0,0,1.5.86C3.37,48.78,2.9,49,3,49H15v3a1,1,0,0,0,1,1h4a1,1,0,0,0,1-1V49H43v3a1,1,0,0,0,1,1h4a1,1,0,0,0,1-1V49H61c1.59.92,1.88,1.22,2.49.87s.5-.75.5-3.65A7,7,0,0,0,59.55,39.7ZM2,46.22a5,5,0,0,1,3.17-4.66C10.58,39.49,23,33.74,25.58,29.31A6.87,6.87,0,0,1,31.42,26h1.16a6.88,6.88,0,0,1,5.84,3.3c2.63,4.43,15,10.18,20.41,12.26A5,5,0,0,1,62,46.22c0,1.51,3,2.8-29.5-16.08-.78-.46.94-1.13-30.5,17.12ZM19,51H17V47h2Zm28,0H45V47h2Zm2-4V46a1,1,0,0,0-1-1H44a1,1,0,0,0-1,1v1H21V46a1,1,0,0,0-1-1H16a1,1,0,0,0-1,1v1H6.44L32,32.16,57.56,47Z"/></g></svg>