<svg xmlns="http://www.w3.org/2000/svg" xmlns:xlink="http://www.w3.org/1999/xlink" viewBox="0 0 64 64"><defs><style>.cls-1{fill:url(#linear-gradient);}.cls-2{fill:#cf4055;}.cls-3{fill:url(#linear-gradient-2);}.cls-4{fill:#f6b756;}</style><linearGradient id="linear-gradient" x1="32" y1="63" x2="32" y2="1" gradientUnits="userSpaceOnUse"><stop offset="0" stop-color="#da5466"/><stop offset="1" stop-color="#f4929c"/></linearGradient><linearGradient id="linear-gradient-2" x1="32" y1="56" x2="32" y2="24" gradientUnits="userSpaceOnUse"><stop offset="0" stop-color="#fbcc88"/><stop offset="1" stop-color="#ffe5c3"/></linearGradient></defs><title>Hot Sale</title><g id="Hot_Sale" data-name="Hot Sale"><path class="cls-1" d="M56,39A24,24,0,0,1,8,39c0-8.39,4.22-16.42,9.12-22.92A8,8,0,0,0,32,12V1S56,19,56,39Z"/><path class="cls-2" d="M56,39A24,24,0,0,1,8,39c0-.51,0-1,.05-1.53a24,24,0,0,0,47.9,0C56,38,56,38.5,56,39Z"/><circle class="cls-3" cx="32" cy="40" r="16"/><path class="cls-4" d="M48,40a16,16,0,0,1-32,0c0-.34,0-.67,0-1A16,16,0,0,0,48,39C48,39.33,48,39.66,48,40Z"/><path d="M32.6.2A1,1,0,0,0,31,1V12a7,7,0,0,1-13,3.57,1,1,0,0,0-1.66-.09C-4.49,43.09,13.79,64,32,64A25,25,0,0,0,57,39C57,18.73,33.6,1,32.6.2ZM32,62C15.49,62-1.33,43.32,17.11,17.78A9,9,0,0,0,33,12V3.09C38.31,7.51,55,22.72,55,39A23,23,0,0,1,32,62Z"/><path d="M32,23A17,17,0,1,0,49,40,17,17,0,0,0,32,23Zm0,32A15,15,0,1,1,47,40,15,15,0,0,1,32,55Z"/><path d="M38.21,30.39l-14,18A1,1,0,0,0,25,50c.71,0-.44,1.19,14.79-18.39A1,1,0,0,0,38.21,30.39Z"/><path d="M38,42a4,4,0,1,0,4,4A4,4,0,0,0,38,42Zm0,6a2,2,0,1,1,2-2A2,2,0,0,1,38,48Z"/><path d="M30,34a4,4,0,1,0-4,4A4,4,0,0,0,30,34Zm-6,0a2,2,0,1,1,2,2A2,2,0,0,1,24,34Z"/></g></svg>