<svg xmlns="http://www.w3.org/2000/svg" xmlns:xlink="http://www.w3.org/1999/xlink" viewBox="0 0 64 64"><defs><style>.cls-1{fill:url(#linear-gradient);}.cls-2{fill:#cf4055;}.cls-3{fill:url(#linear-gradient-2);}.cls-4{fill:url(#linear-gradient-3);}.cls-5{fill:#c7cdd8;}.cls-6{fill:url(#linear-gradient-6);}.cls-7{fill:url(#linear-gradient-7);}.cls-8{fill:url(#linear-gradient-8);}.cls-9{fill:#8288a1;}</style><linearGradient id="linear-gradient" x1="15" y1="39" x2="15" y2="19" gradientUnits="userSpaceOnUse"><stop offset="0" stop-color="#da5466"/><stop offset="1" stop-color="#f4929c"/></linearGradient><linearGradient id="linear-gradient-2" x1="4" y1="37" x2="4" y2="21" gradientUnits="userSpaceOnUse"><stop offset="0" stop-color="#d4d8e1"/><stop offset="1" stop-color="#f3f4f5"/></linearGradient><linearGradient id="linear-gradient-3" x1="23" y1="29" x2="51" y2="29" xlink:href="#linear-gradient-2"/><linearGradient id="linear-gradient-6" x1="51" y1="29" x2="57" y2="29" xlink:href="#linear-gradient-2"/><linearGradient id="linear-gradient-7" x1="57" y1="29" x2="63" y2="29" gradientUnits="userSpaceOnUse"><stop offset="0" stop-color="#a0a6ba"/><stop offset="1" stop-color="#c6ccda"/></linearGradient><linearGradient id="linear-gradient-8" x1="18" y1="63" x2="18" y2="39" xlink:href="#linear-gradient-7"/></defs><title>Marketing</title><g id="Marketing"><rect class="cls-1" x="7" y="19" width="16" height="20"/><rect class="cls-2" x="7" y="37" width="16" height="2"/><path class="cls-3" d="M5,21H7a0,0,0,0,1,0,0V37a0,0,0,0,1,0,0H5a4,4,0,0,1-4-4V25A4,4,0,0,1,5,21Z"/><path class="cls-4" d="M51,5V53l-.46-.74A32.47,32.47,0,0,0,38.75,41.07C34,38.44,28.6,38,23,38V20c11.2,0,21.61-4.77,27.54-14.26Z"/><path class="cls-3" d="M5,21H7a0,0,0,0,1,0,0V37a0,0,0,0,1,0,0H5a4,4,0,0,1-4-4V25A4,4,0,0,1,5,21Z"/><path class="cls-4" d="M51,5V53l-.46-.74A32.47,32.47,0,0,0,38.75,41.07C34,38.44,28.6,38,23,38V20c11.2,0,21.61-4.77,27.54-14.26Z"/><path class="cls-5" d="M7,34v3H5a4,4,0,0,1-4-4V30a4,4,0,0,0,4,4Z"/><path class="cls-5" d="M51,50v3l-.46-.74A32.47,32.47,0,0,0,38.75,41.07C34,38.44,28.6,38,23,38V35c5.6,0,11,.44,15.75,3.07A32.47,32.47,0,0,1,50.54,49.26Z"/><rect class="cls-6" x="51" y="1" width="6" height="56" rx="3"/><polygon class="cls-7" points="57 23 63 25 63 33 57 35 57 23"/><path class="cls-8" d="M23,57,20,39H10l3.58,21.49a3,3,0,0,0,3,2.51H26V60a3,3,0,0,0-3-3Z"/><path class="cls-9" d="M26,61v2H16.54a3,3,0,0,1-2.87-2.13,2.78,2.78,0,0,0,.87.13Z"/><path d="M63.32,24.05,58,22.28V4a4,4,0,0,0-8,0c0,.86.08.59-.31,1.21C44.38,13.72,35.05,18.69,24,19a1,1,0,0,0-1-1H7a1,1,0,0,0-1,1v1H5a5,5,0,0,0-5,5v8a5,5,0,0,0,5,5H6v1a1,1,0,0,0,1,1H9.15L12.6,60.66A4,4,0,0,0,16.54,64H26a1,1,0,0,0,1-1V60a4,4,0,0,0-3.14-3.91L21.18,40H23a1,1,0,0,0,1-1c4.86.05,9.89.51,14.26,2.93A31.55,31.55,0,0,1,49.69,52.79c.39.62.31.35.31,1.21a4,4,0,0,0,8,0V35.72L63.32,34A1,1,0,0,0,64,33V25A1,1,0,0,0,63.32,24.05ZM5,36a3,3,0,0,1-3-3V25a3,3,0,0,1,3-3H6V36ZM22,57.16A1,1,0,0,0,23,58a2,2,0,0,1,2,2v2H16.54a2,2,0,0,1-2-1.67L11.18,40h8ZM8,38V20H22V38Zm31.23,2.2C34.47,37.56,29.13,37.06,24,37V21c10.85-.27,20.16-4.82,26-12.69V49.68A33.35,33.35,0,0,0,39.23,40.2ZM56,54a2,2,0,0,1-4,0V4a2,2,0,0,1,4,0Zm6-21.72-4,1.33V24.39l4,1.33Z"/><path d="M19,22H11a1,1,0,0,0,0,2h8A1,1,0,0,0,19,22Z"/><path d="M19,26H11a1,1,0,0,0,0,2h8A1,1,0,0,0,19,26Z"/><path d="M19,30H11a1,1,0,0,0,0,2h8A1,1,0,0,0,19,30Z"/><path d="M19,34H11a1,1,0,0,0,0,2h8A1,1,0,0,0,19,34Z"/></g></svg>