<svg xmlns="http://www.w3.org/2000/svg" xmlns:xlink="http://www.w3.org/1999/xlink" viewBox="0 0 64 64"><defs><style>.cls-1{fill:url(#linear-gradient);}.cls-2{fill:#c7cdd8;}.cls-3{fill:url(#linear-gradient-3);}.cls-4{fill:#77cacb;}.cls-5{fill:url(#linear-gradient-4);}.cls-6{fill:#5b8dc9;}.cls-7{fill:url(#linear-gradient-5);}.cls-8{fill:url(#linear-gradient-6);}.cls-9{fill:url(#linear-gradient-7);}</style><linearGradient id="linear-gradient" x1="21" y1="63" x2="21" y2="1" gradientUnits="userSpaceOnUse"><stop offset="0" stop-color="#d4d8e1"/><stop offset="1" stop-color="#f3f4f5"/></linearGradient><linearGradient id="linear-gradient-3" x1="21" y1="59" x2="21" y2="5" gradientUnits="userSpaceOnUse"><stop offset="0" stop-color="#9dd5df"/><stop offset="1" stop-color="#c3e1f5"/></linearGradient><linearGradient id="linear-gradient-4" x1="43" y1="52" x2="43" y2="24" gradientUnits="userSpaceOnUse"><stop offset="0" stop-color="#7aa8d7"/><stop offset="1" stop-color="#c3d2e7"/></linearGradient><linearGradient id="linear-gradient-5" x1="51.25" y1="47" x2="51.25" y2="42" gradientUnits="userSpaceOnUse"><stop offset="0" stop-color="#da5466"/><stop offset="1" stop-color="#f4929c"/></linearGradient><linearGradient id="linear-gradient-6" x1="31" y1="33" x2="31" y2="29" gradientUnits="userSpaceOnUse"><stop offset="0" stop-color="#fbcc88"/><stop offset="1" stop-color="#ffe5c3"/></linearGradient><linearGradient id="linear-gradient-7" x1="55.5" y1="47" x2="55.5" y2="42" gradientUnits="userSpaceOnUse"><stop offset="0" stop-color="#f8aa88"/><stop offset="1" stop-color="#fac2ab"/></linearGradient></defs><title>Mobile Payment</title><g id="Mobile_Payment" data-name="Mobile Payment"><path class="cls-1" d="M41,52v7a4,4,0,0,1-4,4H5a4,4,0,0,1-4-4V5A4,4,0,0,1,5,1H37a4,4,0,0,1,4,4V52Z"/><path class="cls-1" d="M41,52v7a4,4,0,0,1-4,4H5a4,4,0,0,1-4-4V5A4,4,0,0,1,5,1H37a4,4,0,0,1,4,4V52Z"/><path class="cls-2" d="M41,57v2a4,4,0,0,1-4,4H5a4,4,0,0,1-4-4V57a4,4,0,0,0,4,4H37A4,4,0,0,0,41,57Z"/><path class="cls-3" d="M37,52v6a1,1,0,0,1-1,1H6a1,1,0,0,1-1-1V6A1,1,0,0,1,6,5h7a2,2,0,0,0,2,2H27a2,2,0,0,0,2-2h7a1,1,0,0,1,1,1V52Z"/><path class="cls-4" d="M37,56v2a1,1,0,0,1-1,1H6a1,1,0,0,1-1-1V56a1,1,0,0,0,1,1H36A1,1,0,0,0,37,56Z"/><rect class="cls-5" x="23" y="24" width="40" height="28" rx="3"/><path class="cls-6" d="M63,47v2a3,3,0,0,1-3,3H26a3,3,0,0,1-3-3V47a3,3,0,0,0,3,3H60A3,3,0,0,0,63,47Z"/><path class="cls-7" d="M53.5,46a2.51,2.51,0,1,1,0-3"/><rect class="cls-8" x="28" y="29" width="6" height="4"/><circle class="cls-9" cx="55.5" cy="44.5" r="2.5"/><path d="M17,5a1,1,0,0,0,0-2A1,1,0,0,0,17,5Z"/><path d="M25,5a1,1,0,0,0,0-2A1,1,0,0,0,25,5Z"/><path d="M60,23H42V5a5,5,0,0,0-5-5H5A5,5,0,0,0,0,5V59a5,5,0,0,0,5,5H37a5,5,0,0,0,5-5V53H60a4,4,0,0,0,4-4V27A4,4,0,0,0,60,23ZM40,59a3,3,0,0,1-3,3H5a3,3,0,0,1-3-3V5A3,3,0,0,1,5,2H37a3,3,0,0,1,3,3V23H38V5a1,1,0,0,0-1-1H29a1,1,0,0,0-1,1,1,1,0,0,1-1,1c-13,0-12.29.12-12.71-.31A.93.93,0,0,1,14,5a1,1,0,0,0-1-1H5A1,1,0,0,0,4,5V59a1,1,0,0,0,1,1H37a1,1,0,0,0,1-1V53h2ZM26,23a4,4,0,0,0-4,4V49a4,4,0,0,0,4,4H36v5H6V6h6.17A3,3,0,0,0,15,8H27a3,3,0,0,0,2.83-2H36V23ZM62,49a2,2,0,0,1-2,2H26a2,2,0,0,1-2-2V27a2,2,0,0,1,2-2H60a2,2,0,0,1,2,2Z"/><path d="M53.48,41.65a3.49,3.49,0,1,0,0,5.71,3.5,3.5,0,1,0,0-5.71ZM50,44.5a1.49,1.49,0,0,1,2.25-1.29,3.44,3.44,0,0,0,0,2.58A1.49,1.49,0,0,1,50,44.5ZM55.5,46a1.5,1.5,0,0,1,0-3A1.5,1.5,0,0,1,55.5,46Z"/><path d="M32,37H27a1,1,0,0,0,0,2h5A1,1,0,0,0,32,37Z"/><path d="M41,37H36a1,1,0,0,0,0,2h5A1,1,0,0,0,41,37Z"/><path d="M50,37H45a1,1,0,0,0,0,2h5A1,1,0,0,0,50,37Z"/><path d="M59,37H54a1,1,0,0,0,0,2h5A1,1,0,0,0,59,37Z"/><path d="M35,29a1,1,0,0,0-1-1H28a1,1,0,0,0-1,1v4a1,1,0,0,0,1,1h6a1,1,0,0,0,1-1Zm-2,3H29V30h4Z"/></g></svg>