<svg xmlns="http://www.w3.org/2000/svg" xmlns:xlink="http://www.w3.org/1999/xlink" viewBox="0 0 64 64"><defs><style>.cls-1{fill:url(#linear-gradient);}.cls-2{fill:url(#linear-gradient-2);}.cls-3{fill:#cba07a;}.cls-4{fill:url(#linear-gradient-3);}.cls-5{fill:url(#linear-gradient-4);}.cls-6{fill:url(#linear-gradient-5);}</style><linearGradient id="linear-gradient" x1="32" y1="21" x2="32" y2="1" gradientUnits="userSpaceOnUse"><stop offset="0" stop-color="#6ab891"/><stop offset="1" stop-color="#85cba9"/></linearGradient><linearGradient id="linear-gradient-2" x1="7.25" y1="57.25" x2="35.75" y2="28.75" gradientUnits="userSpaceOnUse"><stop offset="0" stop-color="#deb895"/><stop offset="1" stop-color="#f2d3b8"/></linearGradient><linearGradient id="linear-gradient-3" x1="16.5" y1="41" x2="16.5" y2="25" xlink:href="#linear-gradient-2"/><linearGradient id="linear-gradient-4" x1="27.25" y1="58.25" x2="57.75" y2="27.75" xlink:href="#linear-gradient-2"/><linearGradient id="linear-gradient-5" x1="47.5" y1="41" x2="47.5" y2="25" xlink:href="#linear-gradient-2"/></defs><title>Package</title><g id="Package"><polygon class="cls-1" points="36 13 36 1 28 1 28 13 23 13 32 21 41 13 36 13"/><polygon class="cls-2" points="32 25 32 63 8 58 8 26 32 25"/><polygon class="cls-3" points="32 25 32 29.48 25.12 43.23 8 40.25 8 26 32 25"/><polygon class="cls-4" points="8 26 1 37 24 41 32 25 8 26"/><polygon class="cls-5" points="56 26 56 58 32 63 32 25 56 26"/><polygon class="cls-3" points="32 59.78 32 63 8 58 8 54.78 32 59.78"/><polygon class="cls-3" points="56 54.78 56 58 32 63 32 59.78 56 54.78"/><polygon class="cls-3" points="56 26 56 40.25 38.88 43.23 32 29.48 32 25 56 26"/><polygon class="cls-6" points="56 26 63 37 40 41 32 25 56 26"/><path d="M63.84,36.46c-7.35-11.56-7-11.11-7.35-11.32s1-.08-24.43-1.14c-.1,0-24.15.91-24.55,1.14s.14-.45-7.35,11.32A1,1,0,0,0,.83,38L7,39.06V58a1,1,0,0,0,.8,1C33.49,64.33,31.9,64,32.2,64l24-5a1,1,0,0,0,.8-1V39.06L63.17,38A1,1,0,0,0,63.84,36.46ZM8.56,27l21.79-.91L23.44,39.89,2.65,36.27ZM9,39.41C25.06,42.2,23.87,42,24,42c.88,0,.46.31,7-12.76V61.77L9,57.19ZM55,57.19,33,61.77V29.24C39.5,42.24,39.12,42,40,42c.14,0-.73.14,15-2.59ZM40.56,39.89,33.65,26.07,55.44,27l5.91,9.29Z"/><path d="M31.34,21.75a1,1,0,0,0,1.32,0l9-8a1,1,0,0,0,.27-1.11c-.34-.89-1-.64-4.93-.64V1a1,1,0,0,0-1-1H28a1,1,0,0,0-1,1V12H23a1,1,0,0,0-.66,1.75ZM28,14a1,1,0,0,0,1-1V2h6V13a1,1,0,0,0,1,1h2.37L32,19.66,25.63,14Z"/></g></svg>