<svg xmlns="http://www.w3.org/2000/svg" xmlns:xlink="http://www.w3.org/1999/xlink" viewBox="0 0 64 64"><defs><style>.cls-1{fill:url(#linear-gradient);}.cls-2{fill:#cba07a;}.cls-3{fill:url(#linear-gradient-3);}.cls-4{fill:#8a6762;}.cls-5{fill:url(#linear-gradient-4);}.cls-6{fill:url(#linear-gradient-6);}.cls-7{fill:url(#linear-gradient-7);}</style><linearGradient id="linear-gradient" x1="35" y1="53" x2="35" y2="6" gradientUnits="userSpaceOnUse"><stop offset="0" stop-color="#deb895"/><stop offset="1" stop-color="#f2d3b8"/></linearGradient><linearGradient id="linear-gradient-3" x1="33" y1="11" x2="33" y2="1" gradientUnits="userSpaceOnUse"><stop offset="0" stop-color="#9b756d"/><stop offset="1" stop-color="#bc9388"/></linearGradient><linearGradient id="linear-gradient-4" x1="55" y1="38" x2="55" y2="26" xlink:href="#linear-gradient-3"/><linearGradient id="linear-gradient-6" x1="13" y1="63" x2="13" y2="42" gradientUnits="userSpaceOnUse"><stop offset="0" stop-color="#d4d8e1"/><stop offset="1" stop-color="#f3f4f5"/></linearGradient><linearGradient id="linear-gradient-7" x1="13" y1="47" x2="13" y2="42" gradientUnits="userSpaceOnUse"><stop offset="0" stop-color="#da5466"/><stop offset="1" stop-color="#f4929c"/></linearGradient></defs><title>Pay Later</title><g id="Pay_Later" data-name="Pay Later"><path class="cls-1" d="M25,53H59a2,2,0,0,0,2-2V13a2,2,0,0,0-2-2H15L9,6V42Z"/><path class="cls-1" d="M25,53H59a2,2,0,0,0,2-2V13a2,2,0,0,0-2-2H15L9,6V42Z"/><path class="cls-2" d="M61,48v3a2,2,0,0,1-2,2H25L9,42l16,8H59A2,2,0,0,0,61,48Z"/><path class="cls-3" d="M14,1H55a2,2,0,0,1,2,2v8H14A5,5,0,0,1,9,6H9A5,5,0,0,1,14,1Z"/><path class="cls-4" d="M57,9v2H14A5,5,0,0,1,9,6a4.62,4.62,0,0,1,.1-1A5,5,0,0,0,14,9Z"/><path class="cls-5" d="M53,26H63a0,0,0,0,1,0,0V38a0,0,0,0,1,0,0H53a6,6,0,0,1-6-6v0a6,6,0,0,1,6-6Z"/><path class="cls-5" d="M53,26H63a0,0,0,0,1,0,0V38a0,0,0,0,1,0,0H53a6,6,0,0,1-6-6v0a6,6,0,0,1,6-6Z"/><path class="cls-4" d="M63,36v2H53a6,6,0,0,1-6-6,5.47,5.47,0,0,1,.09-1,5.83,5.83,0,0,0,1.67,3.24A5.94,5.94,0,0,0,53,36Z"/><rect class="cls-6" x="1" y="42" width="24" height="21"/><rect class="cls-7" x="1" y="42" width="24" height="5"/><path d="M63,25H62V13a3,3,0,0,0-3-3H58V3a3,3,0,0,0-3-3H14A6,6,0,0,0,8,6V41H6V40a1,1,0,0,0-2,0v1H1a1,1,0,0,0-1,1V63a1,1,0,0,0,1,1H25a1,1,0,0,0,1-1V54H59a3,3,0,0,0,3-3V39h1a1,1,0,0,0,1-1V26A1,1,0,0,0,63,25ZM14,2H55a1,1,0,0,1,1,1v7H14a4,4,0,0,1,0-8ZM2,43H4v1a1,1,0,0,0,2,0V43H20v1a1,1,0,0,0,2,0V43h2v3H2ZM24,62H2V48H24ZM60,51a1,1,0,0,1-1,1H26V42a1,1,0,0,0-1-1H22V40a1,1,0,0,0-2,0v1H10V10.46A6.53,6.53,0,0,0,15,12H59a1,1,0,0,1,1,1V25H53a7,7,0,0,0,0,14h7Zm2-14H53a5,5,0,0,1,0-10h9Z"/><path d="M53,29a3,3,0,1,0,3,3A3,3,0,0,0,53,29Zm0,4a1,1,0,0,1,0-2A1,1,0,0,1,53,33Z"/><path d="M14,50H12a1,1,0,0,0,0,2h2A1,1,0,0,0,14,50Z"/><path d="M20,50H18a1,1,0,0,0,0,2h2A1,1,0,0,0,20,50Z"/><path d="M8,54H6a1,1,0,0,0,0,2H8A1,1,0,0,0,8,54Z"/><path d="M14,54H12a1,1,0,0,0,0,2h2A1,1,0,0,0,14,54Z"/><path d="M20,54H18a1,1,0,0,0,0,2h2A1,1,0,0,0,20,54Z"/><path d="M8,58H6a1,1,0,0,0,0,2H8A1,1,0,0,0,8,58Z"/><path d="M14,58H12a1,1,0,0,0,0,2h2A1,1,0,0,0,14,58Z"/></g></svg>