<svg xmlns="http://www.w3.org/2000/svg" xmlns:xlink="http://www.w3.org/1999/xlink" viewBox="0 0 64 64"><defs><style>.cls-1{fill:url(#linear-gradient);}.cls-2{fill:#c7cdd8;}.cls-3{fill:url(#linear-gradient-2);}.cls-4{fill:url(#linear-gradient-3);}</style><linearGradient id="linear-gradient" x1="32" y1="57" x2="32" y2="7" gradientUnits="userSpaceOnUse"><stop offset="0" stop-color="#d4d8e1"/><stop offset="1" stop-color="#f3f4f5"/></linearGradient><linearGradient id="linear-gradient-2" x1="30" y1="46" x2="30" y2="14" gradientUnits="userSpaceOnUse"><stop offset="0" stop-color="#7aa8d7"/><stop offset="1" stop-color="#c3d2e7"/></linearGradient><linearGradient id="linear-gradient-3" x1="35.5" y1="50" x2="35.5" y2="22.51" gradientUnits="userSpaceOnUse"><stop offset="0" stop-color="#9dd5df"/><stop offset="1" stop-color="#c3e1f5"/></linearGradient></defs><title>Paypal</title><g id="Paypal"><rect class="cls-1" x="1" y="7" width="62" height="50" rx="3"/><path class="cls-2" d="M63,50v4a3,3,0,0,1-3,3H4a3,3,0,0,1-3-3V50a3,3,0,0,0,3,3H60A3,3,0,0,0,63,50Z"/><path class="cls-3" d="M43.22,22.51a9.3,9.3,0,0,1-.1,1.89A10.16,10.16,0,0,1,33.42,33h-7l-1.1,7-.93,6H16.76l2-13,3-19H34.23A9,9,0,0,1,43.22,22.51Z"/><path class="cls-4" d="M47.12,31.4A10.17,10.17,0,0,1,37.06,40H32.32L30.76,50h-7l.63-4,.93-6,1.1-7h7a10.16,10.16,0,0,0,9.7-8.59,9.3,9.3,0,0,0,.1-1.89A9,9,0,0,1,47.12,31.4Z"/><path d="M60,6H4a4,4,0,0,0-4,4V54a4,4,0,0,0,4,4H60a4,4,0,0,0,4-4V10A4,4,0,0,0,60,6Zm2,48a2,2,0,0,1-2,2H4a2,2,0,0,1-2-2V10A2,2,0,0,1,4,8H60a2,2,0,0,1,2,2Z"/><path d="M44.17,22a10,10,0,0,0-9.94-9H21.76a1,1,0,0,0-1,.85l-5,32a1,1,0,0,0,1,1.15h6.46l-.44,2.84a1,1,0,0,0,1,1.16h7a1,1,0,0,0,1-.85L33.18,41h3.88C47.33,41,52.32,28,44.17,22ZM17.93,45l4.69-30H34.23a8,8,0,0,1,8,8.41A9.16,9.16,0,0,1,33.06,32H26.42a1,1,0,0,0-1,.84L23.53,45Zm19.13-6H32.32a1,1,0,0,0-1,.85L29.91,49h-5c.12-.71,1.76-11.25,2.35-15h5.78a11.19,11.19,0,0,0,11-9.43C49.1,30,44.71,39,37.06,39Z"/></g></svg>