<svg xmlns="http://www.w3.org/2000/svg" xmlns:xlink="http://www.w3.org/1999/xlink" viewBox="0 0 64 64"><defs><style>.cls-1{fill:url(#linear-gradient);}.cls-2{fill:url(#linear-gradient-2);}.cls-3{fill:#f6b756;}.cls-4{fill:url(#linear-gradient-3);}.cls-5{fill:url(#linear-gradient-4);}.cls-6{fill:#cba07a;}.cls-7{fill:url(#linear-gradient-5);}.cls-8{fill:url(#linear-gradient-6);}</style><linearGradient id="linear-gradient" x1="38" y1="55" x2="38" y2="15" gradientUnits="userSpaceOnUse"><stop offset="0" stop-color="#deb895"/><stop offset="1" stop-color="#f2d3b8"/></linearGradient><linearGradient id="linear-gradient-2" x1="38" y1="23" x2="38" y2="15" gradientUnits="userSpaceOnUse"><stop offset="0" stop-color="#fbcc88"/><stop offset="1" stop-color="#ffe5c3"/></linearGradient><linearGradient id="linear-gradient-3" x1="38" y1="15" x2="38" y2="1" xlink:href="#linear-gradient"/><linearGradient id="linear-gradient-4" x1="38" y1="15" x2="38" y2="1" xlink:href="#linear-gradient-2"/><linearGradient id="linear-gradient-5" x1="13" y1="63" x2="13" y2="42" gradientUnits="userSpaceOnUse"><stop offset="0" stop-color="#d4d8e1"/><stop offset="1" stop-color="#f3f4f5"/></linearGradient><linearGradient id="linear-gradient-6" x1="13" y1="47" x2="13" y2="42" gradientUnits="userSpaceOnUse"><stop offset="0" stop-color="#da5466"/><stop offset="1" stop-color="#f4929c"/></linearGradient></defs><title>Preorder</title><g id="Preorder"><polyline class="cls-1" points="13 42 13 15 63 15 63 55 25 55"/><polygon class="cls-2" points="32 15 32 23 34.99 21 38 23 40.99 21 44 23 44 15 32 15"/><polygon class="cls-3" points="44 21 44 23 40.99 21 38 23 34.99 21 32 23 32 21 34.99 19 38 21 40.99 19 44 21"/><polygon class="cls-4" points="63 15 13 15 21 1 55 1 63 15"/><polygon class="cls-5" points="44 15 32 15 33.92 1 42.08 1 44 15"/><rect class="cls-6" x="25" y="53" width="38" height="2"/><rect class="cls-7" x="1" y="42" width="24" height="21"/><rect class="cls-8" x="1" y="42" width="24" height="5"/><path d="M64,15c0-.4.39.43-8.13-14.49C55.44-.25,57.74,0,21,0c-.82,0-.24-.6-8.87,14.5-.19.35-.13-.07-.13,26.5H6V40a1,1,0,0,0-2,0v1H1a1,1,0,0,0-1,1V63a1,1,0,0,0,1,1H25a1,1,0,0,0,1-1V56H63a1,1,0,0,0,1-1Zm-2.72-1H44.87L43.23,2H54.42ZM33,16H43v5.13c-2.41-1.6-1.61-1.6-5,.67-3.46-2.3-2.64-2.25-5-.67ZM41.21,2l1.64,12h-9.7L34.79,2ZM21.58,2H32.77L31.13,14H14.72ZM2,43H4v1a1,1,0,0,0,2,0V43H20v1a1,1,0,0,0,2,0V43h2v3H2ZM24,62H2V48H24Zm38-8H26V42a1,1,0,0,0-1-1H22V40a1,1,0,0,0-2,0v1H14V16H31c0,7.59-.18,7.5.53,7.88s.95,0,3.46-1.68c3.56,2.37,2.44,2.38,6,0,2.48,1.65,2.79,2.06,3.48,1.68S45,23.29,45,16H62Z"/><path d="M14,50H12a1,1,0,0,0,0,2h2A1,1,0,0,0,14,50Z"/><path d="M8,50H6a1,1,0,0,0,0,2H8A1,1,0,0,0,8,50Z"/><path d="M20,54H18a1,1,0,0,0,0,2h2A1,1,0,0,0,20,54Z"/><path d="M14,54H12a1,1,0,0,0,0,2h2A1,1,0,0,0,14,54Z"/><path d="M8,54H6a1,1,0,0,0,0,2H8A1,1,0,0,0,8,54Z"/><path d="M20,58H18a1,1,0,0,0,0,2h2A1,1,0,0,0,20,58Z"/><path d="M14,58H12a1,1,0,0,0,0,2h2A1,1,0,0,0,14,58Z"/><path d="M50,48h8a1,1,0,0,0,0-2H50A1,1,0,0,0,50,48Z"/><path d="M58,50H50a1,1,0,0,0,0,2h8A1,1,0,0,0,58,50Z"/></g></svg>