<svg xmlns="http://www.w3.org/2000/svg" xmlns:xlink="http://www.w3.org/1999/xlink" viewBox="0 0 64 64"><defs><style>.cls-1{fill:url(#linear-gradient);}.cls-2{fill:#cf4055;}</style><linearGradient id="linear-gradient" x1="32.5" y1="63" x2="32.5" y2="11" gradientUnits="userSpaceOnUse"><stop offset="0" stop-color="#da5466"/><stop offset="1" stop-color="#f4929c"/></linearGradient></defs><title>Price Tag</title><g id="Price_Tag" data-name="Price Tag"><path class="cls-1" d="M50,63H15V25L28.5,12.4A5.19,5.19,0,0,1,32.05,11h0a5.19,5.19,0,0,1,3.42,1.29L50,25Z"/><rect class="cls-2" x="15" y="60" width="35" height="3"/><path d="M50.66,24.25l-12-10.5a8.49,8.49,0,1,0-13.23.14L14.32,24.27C13.84,24.72,14,22.43,14,63a1,1,0,0,0,1,1H50a1,1,0,0,0,1-1C51,22.53,51.16,24.69,50.66,24.25ZM32,2a6.5,6.5,0,0,1,5.16,10.43l-1-.9a6.19,6.19,0,0,0-8.31.14l-.91.85A6.5,6.5,0,0,1,32,2ZM49,62H16V25.43L26.88,15.28a8.46,8.46,0,0,0,3.29,1.52,2,2,0,1,0,.25-2,6.33,6.33,0,0,1-2-.9l.81-.75A4.3,4.3,0,0,1,34.81,13L49,25.45Z"/><path d="M25.79,53.61l14-18a1,1,0,0,0-1.58-1.22l-14,18A1,1,0,0,0,25.79,53.61Z"/><path d="M34,50a4,4,0,1,0,4-4A4,4,0,0,0,34,50Zm6,0a2,2,0,1,1-2-2A2,2,0,0,1,40,50Z"/><path d="M30,38a4,4,0,1,0-4,4A4,4,0,0,0,30,38Zm-6,0a2,2,0,1,1,2,2A2,2,0,0,1,24,38Z"/></g></svg>