<svg xmlns="http://www.w3.org/2000/svg" xmlns:xlink="http://www.w3.org/1999/xlink" viewBox="0 0 64 64"><defs><style>.cls-1{fill:url(#linear-gradient);}.cls-2{fill:#cba07a;}.cls-3{fill:url(#linear-gradient-2);}.cls-4{fill:url(#linear-gradient-3);}.cls-5{fill:url(#linear-gradient-4);}.cls-6{fill:#f6b756;}</style><linearGradient id="linear-gradient" x1="32" y1="63" x2="32" y2="17" gradientUnits="userSpaceOnUse"><stop offset="0" stop-color="#deb895"/><stop offset="1" stop-color="#f2d3b8"/></linearGradient><linearGradient id="linear-gradient-2" y1="17" y2="1" xlink:href="#linear-gradient"/><linearGradient id="linear-gradient-3" x1="32" y1="17" x2="32" y2="1" gradientUnits="userSpaceOnUse"><stop offset="0" stop-color="#fbcc88"/><stop offset="1" stop-color="#ffe5c3"/></linearGradient><linearGradient id="linear-gradient-4" y1="25" y2="17" xlink:href="#linear-gradient-3"/></defs><title>Product</title><g id="Product"><rect class="cls-1" x="3" y="17" width="58" height="46"/><rect class="cls-2" x="3" y="61" width="58" height="2"/><polygon class="cls-3" points="61 17 3 17 15 1 49 1 61 17"/><polygon class="cls-4" points="38 17 26 17 28.48 1 35.52 1 38 17"/><polygon class="cls-5" points="38 17 38 25 35.01 23 32 25 29.01 23 26 25 26 17 38 17"/><polygon class="cls-5" points="38 17 38 25 35.01 23 32 25 29.01 23 26 25 26 17 38 17"/><polygon class="cls-5" points="38 17 38 25 35.01 23 32 25 29.01 23 26 25 26 17 38 17"/><polygon class="cls-6" points="38 23 38 25 35.01 23 32 25 29.01 23 26 25 26 23 29.01 21 32 23 35.01 21 38 23"/><path d="M62,17c0-.49.69.61-12.19-16.57-.45-.6,2-.4-34.8-.4-.72,0,.26-1-12.8,16.4C1.91,16.79,2,14,2,63a1,1,0,0,0,1,1H61a1,1,0,0,0,1-1C62,4.22,62.09,19.61,62,17Zm-3-1H38.86L36.68,2H48.5ZM27,18H37v5.13c-2.4-1.61-1.61-1.58-5,.67-3.39-2.27-2.59-2.27-5-.67ZM34.66,2l2.17,14H27.17L29.34,2ZM15.5,2H27.32L25.14,16H5ZM60,62H4V18H25v7a1,1,0,0,0,1.55.83L29,24.2c3.55,2.38,2.44,2.37,6,0C37.63,26,37.58,26,38,26a1,1,0,0,0,1-1V18H60Z"/><path d="M56,57H44a1,1,0,0,0,0,2H56A1,1,0,0,0,56,57Z"/><path d="M44.71,50.71c.42-.42.29-1,.29,3.29a1,1,0,0,0,2,0V50.41l.29.3a1,1,0,0,0,1.42-1.42c-3.07-3.07-2.34-3.08-5.42,0A1,1,0,0,0,44.71,50.71Z"/><path d="M52.71,50.71c.42-.42.29-1,.29,3.29a1,1,0,0,0,2,0V50.41l.29.3a1,1,0,0,0,1.42-1.42c-3.07-3.07-2.34-3.08-5.42,0A1,1,0,0,0,52.71,50.71Z"/></g></svg>