<svg xmlns="http://www.w3.org/2000/svg" xmlns:xlink="http://www.w3.org/1999/xlink" viewBox="0 0 64 64"><defs><style>.cls-1{fill:url(#linear-gradient);}.cls-2{fill:url(#linear-gradient-2);}.cls-3{fill:url(#linear-gradient-3);}.cls-4{fill:url(#linear-gradient-4);}.cls-5{fill:#f6b756;}.cls-6{fill:#dd8b37;}</style><linearGradient id="linear-gradient" x1="40" y1="63" x2="40" y2="35" gradientTransform="translate(80 98) rotate(-180)" gradientUnits="userSpaceOnUse"><stop offset="0" stop-color="#fbcc88"/><stop offset="1" stop-color="#ffe5c3"/></linearGradient><linearGradient id="linear-gradient-2" x1="24" y1="63" x2="24" y2="29" gradientTransform="translate(48 92) rotate(-180)" xlink:href="#linear-gradient"/><linearGradient id="linear-gradient-3" x1="56" y1="63" x2="56" y2="18" gradientTransform="matrix(1, 0, 0, 1, 0, 0)" xlink:href="#linear-gradient"/><linearGradient id="linear-gradient-4" x1="8" y1="63" x2="8" y2="43" gradientTransform="matrix(1, 0, 0, 1, 0, 0)" xlink:href="#linear-gradient"/></defs><title>Sales Analytic</title><g id="Sales_Analytic" data-name="Sales Analytic"><rect class="cls-1" x="36" y="35" width="8" height="28" transform="translate(80 98) rotate(180)"/><rect class="cls-2" x="20" y="29" width="8" height="34" transform="translate(48 92) rotate(180)"/><rect class="cls-3" x="52" y="18" width="8" height="45"/><rect class="cls-4" x="4" y="43" width="8" height="20"/><rect class="cls-5" x="4" y="60" width="8" height="3"/><rect class="cls-5" x="20" y="60" width="8" height="3"/><rect class="cls-5" x="36" y="60" width="8" height="3"/><rect class="cls-5" x="52" y="60" width="8" height="3"/><path class="cls-6" d="M63,64H1a1,1,0,0,1,0-2H63a1,1,0,0,1,0,2Z"/><path d="M63,62H61V18a1,1,0,0,0-1-1H52a1,1,0,0,0-1,1V62H45V35a1,1,0,0,0-1-1H36a1,1,0,0,0-1,1V62H29V29a1,1,0,0,0-1-1H20a1,1,0,0,0-1,1V62H13V43a1,1,0,0,0-1-1H4a1,1,0,0,0-1,1V62H1a1,1,0,0,0,0,2H63A1,1,0,0,0,63,62ZM5,62V44h6V62Zm16,0V30h6V62Zm16,0V36h6V62Zm16,0V19h6V62Z"/><path d="M64,1a1,1,0,0,0-.87-1C62.83,0,64.4,0,55,0a1,1,0,0,0,0,2h5.65L39,24.57,27.71,13.29a1,1,0,0,0-1.42,0l-26,26a1,1,0,0,0,1.42,1.42L27,15.41l11.29,11.3a1,1,0,0,0,1.43,0L62,3.49V9a1,1,0,0,0,2,0Z"/></g></svg>