<svg xmlns="http://www.w3.org/2000/svg" xmlns:xlink="http://www.w3.org/1999/xlink" viewBox="0 0 64 64"><defs><style>.cls-1{fill:url(#linear-gradient);}.cls-2{fill:#ffabb7;}.cls-3{fill:#8288a1;}</style><linearGradient id="linear-gradient" x1="32" y1="63" x2="32" y2="29" gradientUnits="userSpaceOnUse"><stop offset="0" stop-color="#da5466"/><stop offset="1" stop-color="#f4929c"/></linearGradient></defs><title>Sold</title><g id="Sold"><rect class="cls-1" x="1" y="29" width="62" height="34"/><rect class="cls-2" x="5" y="33" width="54" height="26"/><circle class="cls-3" cx="32" cy="3" r="2"/><path d="M63,28H59.4L34.73,4.23a3,3,0,1,0-5.46,0L4.6,28H1a1,1,0,0,0-1,1V63a1,1,0,0,0,1,1H63a1,1,0,0,0,1-1V29A1,1,0,0,0,63,28ZM32,2a1,1,0,0,1,.72,1.69,1,1,0,0,1-1.44,0A1,1,0,0,1,32,2ZM30.66,5.67a2.89,2.89,0,0,0,2.68,0L56.52,28h-49ZM62,62H2V30H62Z"/><path d="M5,32a1,1,0,0,0-1,1V59a1,1,0,0,0,1,1H59a1,1,0,0,0,1-1V33a1,1,0,0,0-1-1ZM58,58H6V34H58Z"/><path d="M14.5,52H10a1,1,0,0,0,0,2h4.5a4.5,4.5,0,0,0,0-9h-1a2.5,2.5,0,0,1,0-5H18a1,1,0,0,0,0-2H13.5a4.5,4.5,0,0,0,0,9h1a2.5,2.5,0,0,1,0,5Z"/><path d="M26,54a5,5,0,0,0,5-5V43a5,5,0,0,0-10,0v6A5,5,0,0,0,26,54ZM23,43a3,3,0,0,1,6,0v6a3,3,0,0,1-6,0Z"/><path d="M34,54h8a1,1,0,0,0,0-2H35V39a1,1,0,0,0-2,0V53A1,1,0,0,0,34,54Z"/><path d="M46,54h4a5,5,0,0,0,5-5V43a5,5,0,0,0-5-5H46a1,1,0,0,0-1,1V53A1,1,0,0,0,46,54Zm1-14h3a3,3,0,0,1,3,3v6a3,3,0,0,1-3,3H47Z"/></g></svg>