<svg xmlns="http://www.w3.org/2000/svg" xmlns:xlink="http://www.w3.org/1999/xlink" viewBox="0 0 64 64"><defs><style>.cls-1{fill:url(#linear-gradient);}.cls-2{fill:url(#linear-gradient-2);}.cls-3{fill:#cba07a;}.cls-4{fill:url(#linear-gradient-3);}.cls-5{fill:url(#linear-gradient-4);}.cls-6{fill:url(#linear-gradient-5);}.cls-7{fill:url(#linear-gradient-6);}.cls-8{fill:#f6b756;}</style><linearGradient id="linear-gradient" x1="16.5" y1="62" x2="16.5" y2="32" gradientUnits="userSpaceOnUse"><stop offset="0" stop-color="#deb895"/><stop offset="1" stop-color="#f2d3b8"/></linearGradient><linearGradient id="linear-gradient-2" x1="47.5" x2="47.5" y2="32" xlink:href="#linear-gradient"/><linearGradient id="linear-gradient-3" x1="32" y1="32" x2="32" y2="2" xlink:href="#linear-gradient"/><linearGradient id="linear-gradient-4" x1="32" y1="9" x2="32" y2="2" gradientUnits="userSpaceOnUse"><stop offset="0" stop-color="#fbcc88"/><stop offset="1" stop-color="#ffe5c3"/></linearGradient><linearGradient id="linear-gradient-5" x1="48" y1="39" x2="48" y2="32" xlink:href="#linear-gradient-4"/><linearGradient id="linear-gradient-6" x1="16" y1="39" x2="16" y2="32" xlink:href="#linear-gradient-4"/></defs><title>Stock Product</title><g id="Stock_Product" data-name="Stock Product"><rect class="cls-1" x="1" y="32" width="31" height="30"/><rect class="cls-2" x="32" y="32" width="31" height="30"/><rect class="cls-3" x="1" y="60" width="31" height="2"/><rect class="cls-3" x="32" y="60" width="31" height="2"/><rect class="cls-4" x="16" y="2" width="32" height="30"/><rect class="cls-3" x="16" y="30" width="32" height="2"/><polygon class="cls-5" points="36 2 36 9 34.01 8 32 9 30.01 8 28 9 28 2 36 2"/><polygon class="cls-6" points="52 32 52 39 50.01 38 48 39 46.01 38 44 39 44 32 52 32"/><polygon class="cls-7" points="20 32 20 39 18.01 38 16 39 14.01 38 12 39 12 32 20 32"/><polygon class="cls-5" points="36 2 36 9 34.01 8 32 9 30.01 8 28 9 28 2 36 2"/><polygon class="cls-6" points="52 32 52 39 50.01 38 48 39 46.01 38 44 39 44 32 52 32"/><polygon class="cls-7" points="20 32 20 39 18.01 38 16 39 14.01 38 12 39 12 32 20 32"/><polygon class="cls-8" points="36 7 36 9 34.01 8 32 9 30.01 8 28 9 28 7 30.01 6 32 7 34.01 6 36 7"/><polygon class="cls-8" points="52 37 52 39 50.01 38 48 39 46.01 38 44 39 44 37 46.01 36 48 37 50.01 36 52 37"/><polygon class="cls-8" points="20 37 20 39 18.01 38 16 39 14.01 38 12 39 12 37 14.01 36 16 37 18.01 36 20 37"/><path d="M63,31H49V2a1,1,0,0,0-1-1H16a1,1,0,0,0-1,1V31H1a1,1,0,0,0-1,1V62a1,1,0,0,0,1,1H63a1,1,0,0,0,1-1V32A1,1,0,0,0,63,31ZM51,37.38c-1.2-.6-.89-.55-3,.5-2.09-1.05-1.8-1.1-3-.5V33h6ZM35,3V7.38c-1.22-.62-1-.52-3,.5C30.47,7.11,30.34,7,30,7c-1.28,0-1,2.13-1-4ZM17,3H27V9a1,1,0,0,0,1.45.9L30,9.12c2.36,1.18,1.66,1.16,4,0,1.52.77,1.66.88,2,.88a1,1,0,0,0,1-1V3H47V31H17Zm2,30v4.38c-1.2-.6-.89-.55-3,.5-2.09-1.05-1.79-1.1-3-.5V33ZM2,33h9v6c0,1,1.1,1,1,1,.32,0,.49-.13,2-.88,2.33,1.16,1.67,1.16,4,0,1,.5,1.74,1,2.35.81.87-.33.65-.6.65-6.93H31V61H2ZM62,61H33V33H43c0,6.41-.22,6.61.66,6.93.56.21.81,0,2.34-.81,2.33,1.16,1.67,1.16,4,0,1,.5,1.74,1,2.35.81.87-.33.65-.6.65-6.93h9Z"/><path d="M39,28h4a1,1,0,0,0,0-2H39A1,1,0,0,0,39,28Z"/><path d="M27,56H23a1,1,0,0,0,0,2h4A1,1,0,0,0,27,56Z"/><path d="M54,58h4a1,1,0,0,0,0-2H54A1,1,0,0,0,54,58Z"/></g></svg>