<svg xmlns="http://www.w3.org/2000/svg" xmlns:xlink="http://www.w3.org/1999/xlink" viewBox="0 0 64 64"><defs><style>.cls-1{fill:url(#linear-gradient);}.cls-2{fill:#f6b756;}.cls-3{fill:url(#linear-gradient-2);}.cls-4{fill:url(#linear-gradient-3);}.cls-5{fill:#8288a1;}.cls-6{fill:url(#linear-gradient-4);}</style><linearGradient id="linear-gradient" x1="32" y1="33" x2="32" y2="1" gradientUnits="userSpaceOnUse"><stop offset="0" stop-color="#fbcc88"/><stop offset="1" stop-color="#ffe5c3"/></linearGradient><linearGradient id="linear-gradient-2" x1="31.08" y1="63" x2="31.08" y2="40.78" gradientUnits="userSpaceOnUse"><stop offset="0" stop-color="#a0a6ba"/><stop offset="1" stop-color="#c6ccda"/></linearGradient><linearGradient id="linear-gradient-3" x1="17.93" y1="40.78" x2="17.93" y2="33" xlink:href="#linear-gradient-2"/><linearGradient id="linear-gradient-4" x1="16.59" y1="62.99" x2="16.59" y2="8.25" xlink:href="#linear-gradient-2"/></defs><title>Voucher</title><g id="Voucher"><polygon class="cls-1" points="14.8 33 1 33 1 1 63 1 63 33 27.32 33 14.8 33"/><polygon class="cls-2" points="14.8 33 1 33 1 30 63 30 63 33 27.32 33 14.8 33"/><path class="cls-3" d="M40.84,52.93a8,8,0,0,0-13.38-3.58l-1.74-6.49-.56-2.07h0l-4.11,3,1,.71.24.88,3.13,11.67a8,8,0,1,0,15.45-4.14Zm-6.69,5.93A4,4,0,1,1,37,54,4,4,0,0,1,34.15,58.86Z"/><polygon class="cls-4" points="21.06 33.17 21.06 33.19 20.23 36.26 17.27 39.61 16.96 40.78 16.87 40.72 16.11 37.9 14.8 33 21.01 33 21.06 33.17"/><path class="cls-5" d="M25.16,40.79h0l-4.11,3,1,.71.24.88,3.46-2.54Zm-4.1-7.62L21,33H19l-.61,2.29L16.11,37.9l.76,2.82.09.06.31-1.17,3-3.35.83-3.07Z"/><path class="cls-6" d="M27.74,8.25,21.1,33l0,.17v0l-.83,3.07-3,3.35L17,40.78l-2.3,8.56A8,8,0,0,0,1.27,52.92a8,8,0,0,0,15.46,4.14l3.36-12.55,1-.7,4.11-3,.09-.07L27.32,33,32,15.6A6,6,0,0,0,27.74,8.25ZM12.87,56A4,4,0,1,1,10,51.13,4,4,0,0,1,12.87,56Z"/><path d="M30.61,59.33a5,5,0,1,0,1.21-9.16A5,5,0,0,0,30.61,59.33Zm1.73-7.23a3,3,0,1,1-.73,5.5A3,3,0,0,1,32.34,52.1Z"/><path d="M4.17,53.7a5,5,0,1,0,9.16-1.21A5,5,0,0,0,4.17,53.7Zm4.06,4.19a3,3,0,1,1,3.37-4.4A3,3,0,0,1,8.23,57.89Z"/><path d="M63,0H1A1,1,0,0,0,0,1V33a1,1,0,0,0,1,1H14l1.85,6.9-1.79,6.68a9,9,0,1,0,3.61,9.74c3.52-13.16,3.23-12.18,3.35-12.27.14.1-.16-.88,3.37,12.27A9,9,0,0,0,33.1,64c9.15,0,12.49-12.2,4.5-16.8a9,9,0,0,0-9.58.38l-1.79-6.65L28.09,34H63a1,1,0,0,0,1-1V1A1,1,0,0,0,63,0ZM17.22,38.15,16.1,34h3.7C19.2,36.24,19.75,35.3,17.22,38.15Zm1.91,6.1L15.76,56.8a7,7,0,1,1-4.95-8.57c2.94.79,2.95,2.39,4.11,2.08.8-.22.58-.25,3.25-10.22,3-3.41,2.94-3.25,3-3.57L28.42,9.57A5,5,0,0,1,31,15.34L24.38,40.11C19.26,43.88,19.26,43.76,19.13,44.25Zm8.07,6.06c1.14.31,1.21-1.31,4.11-2.07a7,7,0,1,1-5,8.57c-3.7-13.78-3.34-12.7-3.63-13l1.85-1.36C26.67,50.25,26.45,50.11,27.2,50.31ZM62,32H28.62L33,15.86C34.6,9.67,27.42,5.56,26.77,8L22,25.8V8a1,1,0,0,0-2,0V32H2V2H62Z"/><path d="M40.79,26.61l14-18a1,1,0,0,0-1.58-1.22l-14,18A1,1,0,0,0,40.79,26.61Z"/><path d="M49,23a4,4,0,1,0,4-4A4,4,0,0,0,49,23Zm6,0a2,2,0,1,1-2-2A2,2,0,0,1,55,23Z"/><path d="M41,15a4,4,0,1,0-4-4A4,4,0,0,0,41,15Zm0-6a2,2,0,1,1-2,2A2,2,0,0,1,41,9Z"/><path d="M6,9H16a1,1,0,0,0,0-2H6A1,1,0,0,0,6,9Z"/><path d="M6,15H16a1,1,0,0,0,0-2H6A1,1,0,0,0,6,15Z"/><path d="M6,21H16a1,1,0,0,0,0-2H6A1,1,0,0,0,6,21Z"/><path d="M6,27H16a1,1,0,0,0,0-2H6A1,1,0,0,0,6,27Z"/></g></svg>