<svg xmlns="http://www.w3.org/2000/svg" xmlns:xlink="http://www.w3.org/1999/xlink" viewBox="0 0 64 64"><defs><style>.cls-1{fill:url(#linear-gradient);}.cls-2{fill:#cba07a;}.cls-3{fill:url(#linear-gradient-3);}.cls-4{fill:#8a6762;}.cls-5{fill:url(#linear-gradient-4);}</style><linearGradient id="linear-gradient" x1="31" y1="61" x2="31" y2="9" gradientUnits="userSpaceOnUse"><stop offset="0" stop-color="#deb895"/><stop offset="1" stop-color="#f2d3b8"/></linearGradient><linearGradient id="linear-gradient-3" x1="29" y1="15" x2="29" y2="3" gradientUnits="userSpaceOnUse"><stop offset="0" stop-color="#9b756d"/><stop offset="1" stop-color="#bc9388"/></linearGradient><linearGradient id="linear-gradient-4" x1="55" y1="44" x2="55" y2="32" xlink:href="#linear-gradient-3"/></defs><title>Wallet</title><g id="Wallet"><path class="cls-1" d="M61,44V59a2,2,0,0,1-2,2H7a6,6,0,0,1-6-6V9a6,6,0,0,0,6,6H59a2,2,0,0,1,2,2V44Z"/><path class="cls-1" d="M61,44V59a2,2,0,0,1-2,2H7a6,6,0,0,1-6-6V9a6,6,0,0,0,6,6H59a2,2,0,0,1,2,2V44Z"/><path class="cls-2" d="M61,56v3a2,2,0,0,1-2,2H7a6,6,0,0,1-6-6V52a6,6,0,0,0,6,6H59A2,2,0,0,0,61,56Z"/><path class="cls-3" d="M57,5V15H7A6,6,0,0,1,1,9,6,6,0,0,1,7,3H55A2,2,0,0,1,57,5Z"/><path class="cls-4" d="M57,12v3H7A6,6,0,0,1,1,9a5.71,5.71,0,0,1,.2-1.5A6,6,0,0,0,7,12Z"/><path class="cls-5" d="M53,32H63a0,0,0,0,1,0,0V44a0,0,0,0,1,0,0H53a6,6,0,0,1-6-6v0a6,6,0,0,1,6-6Z"/><path class="cls-5" d="M53,32H63a0,0,0,0,1,0,0V44a0,0,0,0,1,0,0H53a6,6,0,0,1-6-6v0a6,6,0,0,1,6-6Z"/><path class="cls-4" d="M63,42v2H53a6,6,0,0,1-6-6,5.47,5.47,0,0,1,.09-1,5.83,5.83,0,0,0,1.67,3.24A5.94,5.94,0,0,0,53,42Z"/><path d="M63,31H62V17a3,3,0,0,0-3-3H58V5a3,3,0,0,0-3-3H7A6.89,6.89,0,0,0,2.06,4.05C-.6,6.68,0,9.5,0,15V55a7,7,0,0,0,7,7H59a3,3,0,0,0,3-3V45h1a1,1,0,0,0,1-1V32A1,1,0,0,0,63,31ZM3.47,5.46A5,5,0,0,1,7,4H55a1,1,0,0,1,1,1v9H7A5,5,0,0,1,3.47,5.46ZM60,59a1,1,0,0,1-1,1H7a5,5,0,0,1-5-5V13.89a7.09,7.09,0,0,0,2.26,1.55C6.12,16.23,2.49,16,59,16a1,1,0,0,1,1,1V31H53a7,7,0,0,0,0,14h7Zm2-16H53a5,5,0,0,1,0-10h9Z"/><path d="M53,35a3,3,0,1,0,3,3A3,3,0,0,0,53,35Zm0,4a1,1,0,0,1,0-2A1,1,0,0,1,53,39Z"/></g></svg>