<svg xmlns="http://www.w3.org/2000/svg" xmlns:xlink="http://www.w3.org/1999/xlink" viewBox="0 0 64 64"><defs><style>.cls-1{fill:url(#linear-gradient);}.cls-2{fill:#c7cdd8;}.cls-3{fill:url(#linear-gradient-2);}.cls-4{fill:url(#linear-gradient-3);}.cls-5{fill:url(#linear-gradient-4);}.cls-6{fill:url(#linear-gradient-5);}</style><linearGradient id="linear-gradient" x1="1" y1="32" x2="63" y2="32" gradientUnits="userSpaceOnUse"><stop offset="0" stop-color="#d4d8e1"/><stop offset="1" stop-color="#f3f4f5"/></linearGradient><linearGradient id="linear-gradient-2" x1="32" y1="11" x2="32" y2="3" gradientUnits="userSpaceOnUse"><stop offset="0" stop-color="#a0a6ba"/><stop offset="1" stop-color="#c6ccda"/></linearGradient><linearGradient id="linear-gradient-3" x1="23" y1="55" x2="23" y2="50" gradientUnits="userSpaceOnUse"><stop offset="0" stop-color="#6ab891"/><stop offset="1" stop-color="#85cba9"/></linearGradient><linearGradient id="linear-gradient-4" x1="41" y1="55" x2="41" y2="50" gradientUnits="userSpaceOnUse"><stop offset="0" stop-color="#da5466"/><stop offset="1" stop-color="#f4929c"/></linearGradient><linearGradient id="linear-gradient-5" x1="32" y1="42" x2="32" y2="25" gradientUnits="userSpaceOnUse"><stop offset="0" stop-color="#deb895"/><stop offset="1" stop-color="#f2d3b8"/></linearGradient></defs><title>Website</title><g id="Website"><rect class="cls-1" x="1" y="3" width="62" height="58"/><rect class="cls-2" x="1" y="58" width="62" height="3"/><rect class="cls-3" x="1" y="3" width="62" height="8"/><rect class="cls-4" x="17" y="50" width="12" height="5" rx="2.5"/><rect class="cls-5" x="35" y="50" width="12" height="5" rx="2.5"/><path class="cls-6" d="M23,25H41a0,0,0,0,1,0,0V39a3,3,0,0,1-3,3H26a3,3,0,0,1-3-3V25A0,0,0,0,1,23,25Z"/><path d="M63,2H1A1,1,0,0,0,0,3V61a1,1,0,0,0,1,1H63a1,1,0,0,0,1-1V3A1,1,0,0,0,63,2ZM2,4H62v6H2ZM2,60V12H62V60Z"/><path d="M6,6A1,1,0,0,0,6,8,1,1,0,0,0,6,6Z"/><path d="M10,6a1,1,0,0,0,0,2A1,1,0,0,0,10,6Z"/><path d="M14,6a1,1,0,0,0,0,2A1,1,0,0,0,14,6Z"/><path d="M26.5,49h-7a3.5,3.5,0,0,0,0,7h7a3.5,3.5,0,0,0,0-7Zm0,5h-7a1.5,1.5,0,0,1,0-3h7A1.5,1.5,0,0,1,26.5,54Z"/><path d="M44.5,49h-7a3.5,3.5,0,0,0,0,7h7a3.5,3.5,0,0,0,0-7Zm0,5h-7a1.5,1.5,0,0,1,0-3h7A1.5,1.5,0,0,1,44.5,54Z"/><path d="M26,43H38a4,4,0,0,0,4-4V25a1,1,0,0,0-1-1H37V22a5,5,0,0,0-10,0v2H23a1,1,0,0,0-1,1V39A4,4,0,0,0,26,43Zm3-21a3,3,0,0,1,6,0v2H29Zm-5,4h3v2a1,1,0,0,0,2,0V26h6v2a1,1,0,0,0,2,0V26h3V39a2,2,0,0,1-2,2H26a2,2,0,0,1-2-2Z"/></g></svg>