<svg xmlns="http://www.w3.org/2000/svg" xmlns:xlink="http://www.w3.org/1999/xlink" viewBox="0 0 64 64"><defs><style>.cls-1{fill:url(#linear-gradient);}.cls-2{fill:#cf4055;}.cls-3{fill:url(#linear-gradient-2);}.cls-4{fill:#cba07a;}.cls-5{fill:url(#linear-gradient-3);}.cls-6{fill:url(#linear-gradient-4);}.cls-7{fill:url(#linear-gradient-5);}</style><linearGradient id="linear-gradient" x1="32" y1="21" x2="32" y2="1" gradientUnits="userSpaceOnUse"><stop offset="0" stop-color="#da5466"/><stop offset="1" stop-color="#f4929c"/></linearGradient><linearGradient id="linear-gradient-2" x1="7.25" y1="57.25" x2="35.75" y2="28.75" gradientUnits="userSpaceOnUse"><stop offset="0" stop-color="#deb895"/><stop offset="1" stop-color="#f2d3b8"/></linearGradient><linearGradient id="linear-gradient-3" x1="16.5" y1="41" x2="16.5" y2="25" xlink:href="#linear-gradient-2"/><linearGradient id="linear-gradient-4" x1="27.25" y1="58.25" x2="57.75" y2="27.75" xlink:href="#linear-gradient-2"/><linearGradient id="linear-gradient-5" x1="47.5" y1="41" x2="47.5" y2="25" xlink:href="#linear-gradient-2"/></defs><title>Wishlist</title><g id="Wishlist"><path class="cls-1" d="M37.56,1A6.68,6.68,0,0,0,32,4,6.67,6.67,0,0,0,19.78,7.67C19.78,15.44,32,21,32,21S44.22,15.44,44.22,7.67A6.66,6.66,0,0,0,37.56,1Z"/><path class="cls-2" d="M43.27,11.44C40.4,17.18,32,21,32,21s-8.4-3.82-11.27-9.56l.13.12a16.83,16.83,0,0,0,22.28,0Z"/><polygon class="cls-3" points="32 25 32 63 8 58 8 26 32 25"/><polygon class="cls-4" points="32 25 32 29.48 25.12 43.23 8 40.25 8 26 32 25"/><polygon class="cls-5" points="8 26 1 37 24 41 32 25 8 26"/><polygon class="cls-6" points="56 26 56 58 32 63 32 25 56 26"/><polygon class="cls-4" points="32 59.78 32 63 8 58 8 54.78 32 59.78"/><polygon class="cls-4" points="56 54.78 56 58 32 63 32 59.78 56 54.78"/><polygon class="cls-4" points="56 26 56 40.25 38.88 43.23 32 29.48 32 25 56 26"/><polygon class="cls-7" points="56 26 63 37 40 41 32 25 56 26"/><path d="M31.59,21.91a1,1,0,0,0,.82,0c.53-.24,12.81-5.92,12.81-14.24A7.67,7.67,0,0,0,32,2.39,7.67,7.67,0,0,0,18.78,7.67C18.78,16,31.06,21.67,31.59,21.91ZM31.17,4.54a1,1,0,0,0,1.66,0A5.67,5.67,0,0,1,43.22,7.67c0,6.27-9.15,11.19-11.22,12.22-2.07-1-11.22-6-11.22-12.22A5.67,5.67,0,0,1,31.17,4.54Z"/><path d="M63.84,36.46c-7.35-11.56-7-11.11-7.35-11.32s1-.08-24.42-1.14C32,24,7.9,24.91,7.51,25.14s.14-.45-7.35,11.32A1,1,0,0,0,.83,38L7,39.06V58a1,1,0,0,0,.8,1C33.49,64.33,31.9,64,32.2,64l24-5a1,1,0,0,0,.8-1V39.06L63.17,38A1,1,0,0,0,63.84,36.46ZM8.56,27l21.79-.91L23.44,39.89,2.65,36.27ZM9,39.41C25.06,42.2,23.87,42,24,42c.88,0,.46.31,7-12.76V61.77L9,57.19ZM55,57.19,33,61.77V29.24C39.5,42.24,39.12,42,40,42c.14,0-.73.14,15-2.59ZM40.56,39.89,33.65,26.07,55.44,27l5.91,9.29Z"/></g></svg>