<svg xmlns="http://www.w3.org/2000/svg" xmlns:xlink="http://www.w3.org/1999/xlink" viewBox="0 0 64 64"><defs><style>.cls-1{fill:url(#linear-gradient);}.cls-2{fill:#77cacb;}.cls-3{fill:url(#linear-gradient-3);}.cls-4{fill:url(#linear-gradient-4);}.cls-5{fill:url(#linear-gradient-5);}.cls-6{fill:url(#linear-gradient-6);}.cls-7{fill:url(#linear-gradient-7);}.cls-8{fill:url(#linear-gradient-8);}</style><linearGradient id="linear-gradient" x1="1" y1="29" x2="57" y2="29" gradientUnits="userSpaceOnUse"><stop offset="0" stop-color="#9dd5df"/><stop offset="1" stop-color="#c3e1f5"/></linearGradient><linearGradient id="linear-gradient-3" x1="25.61" y1="30.65" x2="25.61" y2="1" gradientUnits="userSpaceOnUse"><stop offset="0" stop-color="#6ab891"/><stop offset="1" stop-color="#85cba9"/></linearGradient><linearGradient id="linear-gradient-4" x1="33.44" y1="55.03" x2="33.44" y2="29.18" xlink:href="#linear-gradient-3"/><linearGradient id="linear-gradient-5" x1="49.34" y1="32.05" x2="49.34" y2="14.67" xlink:href="#linear-gradient-3"/><linearGradient id="linear-gradient-6" x1="8.1" y1="46.77" x2="8.1" y2="33.73" xlink:href="#linear-gradient-3"/><linearGradient id="linear-gradient-7" x1="52" y1="63" x2="52" y2="43" gradientUnits="userSpaceOnUse"><stop offset="0" stop-color="#deb895"/><stop offset="1" stop-color="#f2d3b8"/></linearGradient><linearGradient id="linear-gradient-8" x1="52" y1="48" x2="52" y2="43" gradientUnits="userSpaceOnUse"><stop offset="0" stop-color="#fbcc88"/><stop offset="1" stop-color="#ffe5c3"/></linearGradient></defs><title>Worldwide Delivery</title><g id="Worldwide_Delivery" data-name="Worldwide Delivery"><path class="cls-1" d="M57,29c0,1-.07,2.06-.16,3-.05.39-.1.77-.17,1.15A27.64,27.64,0,0,1,53.24,43L41,54.3a27.94,27.94,0,0,1-26-1.07,27.58,27.58,0,0,1-7.63-6.46c-.16-.2-.33-.39-.49-.61A27.62,27.62,0,0,1,1.41,33.73l0-.3A27.89,27.89,0,0,1,12.68,6.27s0,0,0,0a27.93,27.93,0,0,1,24.66-4l.38.12A27.92,27.92,0,0,1,53.92,16.27,16.72,16.72,0,0,1,54.74,18v0A27.46,27.46,0,0,1,57,29Z"/><path class="cls-1" d="M57,29c0,1-.07,2.06-.16,3-.05.39-.1.77-.17,1.15A27.64,27.64,0,0,1,53.24,43L41,54.3a27.94,27.94,0,0,1-26-1.07,27.58,27.58,0,0,1-7.63-6.46c-.16-.2-.33-.39-.49-.61A27.62,27.62,0,0,1,1.41,33.73l0-.3A27.89,27.89,0,0,1,12.68,6.27s0,0,0,0a27.93,27.93,0,0,1,24.66-4l.38.12A27.92,27.92,0,0,1,53.92,16.27,16.72,16.72,0,0,1,54.74,18v0A27.46,27.46,0,0,1,57,29Z"/><path class="cls-2" d="M57,29.84c0,.75-.08,1.49-.15,2.21-.05.39-.1.77-.17,1.15A27.64,27.64,0,0,1,53.24,43L41,54.3a27.94,27.94,0,0,1-26-1.07,27.58,27.58,0,0,1-7.63-6.46c-.16-.2-.33-.39-.49-.61A27.62,27.62,0,0,1,1.41,33.73l0-.3A28.07,28.07,0,0,1,1,29a27.58,27.58,0,0,1,.27-3.88c0,.29,0,.59,0,.88a28.07,28.07,0,0,0,.36,4.43l0,.3A27.62,27.62,0,0,0,7.14,43.16c.16.22.33.41.49.61A28.12,28.12,0,0,0,29.26,54a27.82,27.82,0,0,0,12-2.7L53.5,40a27.64,27.64,0,0,0,3.43-9.8Z"/><path class="cls-3" d="M38.88,9.24c-1.64,3.29-1.64,3.29-6.59,3.29s-1.64,6.59-4.94,8.23-4.94-1.64-6.59,0,4.95,3.3,3.3,9.89c0-3.3-9.88-6.59-11.53-8.24s1.65-6.59,1.65-11.53a8.57,8.57,0,0,0-1.47-4.63,27.93,27.93,0,0,1,24.66-4c-1.6,2.11-3.43,2.43-3.43,3.66C33.94,7.59,40.53,5.94,38.88,9.24Z"/><path class="cls-4" d="M41,45.15a5.89,5.89,0,0,1-2.12,2c-3.29,1.64-6.59,3.29-4.94,6.59s-4.94,0-4.94-5,1.65-6.58-1.65-8.23-5.76-7.41-3.29-9.88c0,0,6.59-3.3,9.88,0s9.88,1.64,9.88,4.94A20.63,20.63,0,0,1,42.18,43"/><path class="cls-5" d="M57,29c0,1-.07,2.06-.16,3a6.08,6.08,0,0,1-1.49-3c0-1.65-6.59-1.65-11.53-4.94s0-4.94,1.65-8.24c1.1-2.22,5.62-.75,8.45.45A16.72,16.72,0,0,1,54.74,18v0A27.46,27.46,0,0,1,57,29Z"/><path class="cls-6" d="M14.18,45.47c-1,1-3.94.82-6.81,1.3-.16-.2-.33-.39-.49-.61A27.62,27.62,0,0,1,1.41,33.73a12.12,12.12,0,0,1,7.83,3.51C14.18,42.18,15.82,43.82,14.18,45.47Z"/><rect class="cls-7" x="41" y="43" width="22" height="20"/><rect class="cls-8" x="49" y="43" width="6" height="5"/><path d="M63,42H54.91a29.34,29.34,0,0,0,2.93-9.86A29,29,0,1,0,40,55.84V63a1,1,0,0,0,1,1H63a1,1,0,0,0,1-1V43A1,1,0,0,0,63,42ZM50,44h4v3H50Zm3.2-26.95A26.38,26.38,0,0,1,56,28c-1.41-1.68-7.13-1.75-11.59-4.72-4-2.64,0-3,2-7C47.11,14.78,51.64,16.41,53.2,17.05Zm-1.52-2.67c-3.77-1.19-6.17-.88-7.1,1-1.12,2.22-4.16,3.79-3.88,6.25.55,4.72,12.72,6.82,13.66,7.54a6.81,6.81,0,0,0,1.43,3.14A26.64,26.64,0,0,1,52.65,42h-9a21.49,21.49,0,0,0,1.19-6.41c0-4.42-7.08-2.57-10.17-5.65-2.68-2.68-7-1.71-9.34-.88.24-4.39-3-6.55-3.75-7.67.7-.6,2.9,1.94,6.24.27,3.9-1.95.78-8.13,4.49-8.13,5.17,0,5.61-.09,7.49-3.85a2.4,2.4,0,0,0,.13-2.31C39.08,5.82,36.52,6,35.1,5.7a24.78,24.78,0,0,0,2.6-2.26A27.16,27.16,0,0,1,51.68,14.38ZM41,42a1,1,0,0,0-1,1v1.81a4.65,4.65,0,0,1-1.57,1.42c-3.41,1.7-7.06,3.62-5.62,7.39A6.41,6.41,0,0,1,30,48.76c0-4.7,1.78-7.13-2.2-9.12-2.71-1.36-4.83-6.2-3.14-8.17.95-.43,6.08-2.61,8.57-.11,3.3,3.28,9.59,2.27,9.59,4.23A19.72,19.72,0,0,1,41.5,42ZM13.86,17.61c1.24-4.06,2.13-7.42.19-11A26.69,26.69,0,0,1,35.51,2.81c-1.19,1-2.57,1.62-2.57,3.13,0,2.49,4.54,1.6,5.21,2.35a1.14,1.14,0,0,1-.16.5c-1.37,2.74-1.37,2.74-5.7,2.74-5.84,0-2.95,7.13-5.38,8.34-2.82,1.41-4.58-2.08-6.85.19s2.46,3.75,3.17,7.46c-2.84-2.45-9-4.78-10-5.82C12.76,21.23,13.35,19.31,13.86,17.61ZM2.66,34.9a11,11,0,0,1,5.87,3c6.34,6.34,7,7.05,1.53,7.52-2.64.23-2.2.35-2.39.08A26.56,26.56,0,0,1,2.66,34.9ZM9.39,47.53c2.13-.2,4.38-.24,5.49-1.35,2.67-2.67-1-5.73-4.94-9.65a13,13,0,0,0-7.65-3.72A26.91,26.91,0,0,1,12.4,7.74c1.46,2.94.6,5.81-.45,9.29C10.2,22.8,10.83,23,15.8,25.44c2.38,1.19,6.68,3.34,7.21,4.9-2.48,3.22.27,9.27,3.89,11.08,2.59,1.3,1.1,2.1,1.1,7.34a8.3,8.3,0,0,0,4.58,7A26.9,26.9,0,0,1,9.39,47.53ZM35,55.34c.81-1.33-.87-2.41-.39-3.83.6-1.8,4.3-3.12,5.41-3.9v6A26.47,26.47,0,0,1,35,55.34ZM62,62H42V44h6v4a1,1,0,0,0,1,1h6a1,1,0,0,0,1-1V44h6Z"/><path d="M48,58H45a1,1,0,0,0,0,2h3A1,1,0,0,0,48,58Z"/></g></svg>