<svg xmlns="http://www.w3.org/2000/svg" viewBox="0 0 64 64"><title>24 Hour Support</title><g id="_24_Hour_Support" data-name="24 Hour Support"><path d="M42,43.26a3,3,0,0,0-4.25,0l-7.07,7.07c-.32.32-1.37.36-3.24-.59-6-3-15.87-14.23-13.73-16.38l7.07-7.07a3,3,0,0,0,0-4.25l-9.9-9.9a3.08,3.08,0,0,0-4.24,0L2.36,16.39C-.27,19-.74,24.55,1.11,31.2c7.22,26,38.37,38.57,46.5,30.44l4.25-4.24a3,3,0,0,0,0-4.24ZM8,13.56a1,1,0,0,1,1.41,0l9.9,9.9a1,1,0,0,1,0,1.41l-1.52,1.52L6.49,15.08ZM33.34,61C7.09,53.67-2.34,23.91,3.77,17.8l1.31-1.31L16.39,27.81l-4.13,4.13C8.1,36.1,20.89,48.68,26.5,51.53c3.16,1.6,4.77,1,5.56.21l4.13-4.13L47.51,58.92,46.2,60.23C44.15,62.28,39.1,62.56,33.34,61Zm17.1-5-1.52,1.53L37.61,46.19l1.52-1.52a1,1,0,0,1,1.41,0c10.74,10.74,9.9,9.8,9.9,9.9A1,1,0,0,1,50.44,56Z"/><path d="M45,0C27.93,0,19.54,20.92,31.87,32.72c-3.74,3.73-4.14,3.84-3.79,4.66S27.93,38,45,38A19,19,0,0,0,45,0Zm0,36H31.41L34,33.39A1,1,0,0,0,34,31.92C22,21.7,29.21,2,45,2a17,17,0,0,1,0,34Z"/><path d="M43,22H40.85l1.21-1c3-2.37,2.42-7-1.06-7H40a3,3,0,0,0-3,3,1,1,0,0,0,2,0,1,1,0,0,1,1-1h1c1.55,0,1.16,2.39-.19,3.47-3.53,2.82-4.06,3-3.75,3.86S37.8,24,43,24A1,1,0,0,0,43,22Z"/><path d="M51,16v3H49V15a1,1,0,0,0-2,0v5a1,1,0,0,0,1,1h3v2a1,1,0,0,0,2,0V16A1,1,0,0,0,51,16Z"/><path d="M44,4.94V7a1,1,0,0,0,2,0V4.94A1,1,0,0,0,44,4.94Z"/><path d="M44,30.94V33a1,1,0,0,0,2,0V30.94A1,1,0,0,0,44,30.94Z"/><path d="M59,18H57a1,1,0,0,0,0,2H59A1,1,0,0,0,59,18Z"/><path d="M33,18H31a1,1,0,0,0,0,2H33A1,1,0,0,0,33,18Z"/><path d="M38.5,7.74A1,1,0,0,0,37.5,6,1,1,0,0,0,38.5,7.74Z"/><path d="M51.5,30.26a1,1,0,0,0,1,1.73A1,1,0,0,0,51.5,30.26Z"/><path d="M51.5,7.74A1,1,0,0,0,52.5,6,1,1,0,0,0,51.5,7.74Z"/><path d="M38.5,30.26a1,1,0,0,0-1,1.73A1,1,0,0,0,38.5,30.26Z"/><path d="M57.62,12.87a1,1,0,0,0-1-1.74A1,1,0,0,0,57.62,12.87Z"/><path d="M32.38,25.13a1,1,0,0,0,1,1.74A1,1,0,0,0,32.38,25.13Z"/><path d="M57.62,25.13a1,1,0,0,0-1,1.74A1,1,0,0,0,57.62,25.13Z"/><path d="M32.38,12.87a1,1,0,0,0,1-1.74A1,1,0,0,0,32.38,12.87Z"/></g></svg>