<svg xmlns="http://www.w3.org/2000/svg" viewBox="0 0 64 64"><title>Address</title><g id="Address"><path d="M32,0A25,25,0,0,0,7,25C7,45.27,30.4,63.05,31.4,63.8a1,1,0,0,0,1.2,0C33.6,63.05,57,45.27,57,25A25,25,0,0,0,32,0Zm0,61.73C28.32,58.79,9,42.52,9,25a23,23,0,0,1,46,0C55,42.52,35.68,58.79,32,61.73Z"/><path d="M32,6A19,19,0,1,0,51,25,19,19,0,0,0,32,6Zm0,36A17,17,0,1,1,49,25,17,17,0,0,1,32,42Z"/><path d="M41,18H37V16a5,5,0,0,0-10,0v2H23a1,1,0,0,0-1,1V33a4,4,0,0,0,4,4H38a4,4,0,0,0,4-4V19A1,1,0,0,0,41,18ZM29,16a3,3,0,0,1,6,0v2H29ZM40,33a2,2,0,0,1-2,2H26a2,2,0,0,1-2-2V20h3v2a1,1,0,0,0,2,0V20h6v2a1,1,0,0,0,2,0V20h3Z"/></g></svg>