<svg xmlns="http://www.w3.org/2000/svg" viewBox="0 0 64 64"><title>Affiliate</title><g id="Affiliate"><path d="M58,26a6,6,0,0,0-5.91,5H47a15,15,0,0,0-3.67-8.86l3.63-3.64a6,6,0,1,0-1.41-1.41l-3.64,3.63A15,15,0,0,0,33,17.05V11.91a6,6,0,1,0-2,0v5.14a15,15,0,0,0-8.87,3.68c-.22-.24,1,1-3.63-3.64a6,6,0,1,0-1.41,1.41l3.6,3.6c.18.19-3.25,3-3.64,8.91-.32,0,1.26,0-5.14,0a6,6,0,1,0,0,2c6,0,5,0,5.14,0a15,15,0,0,0,3.68,8.88c-.22.19.4-.42-3.64,3.63a6,6,0,1,0,1.41,1.41c4-4,3.59-3.66,3.7-3.56A15,15,0,0,0,31,47c0,.3,0-.79,0,5.13a6,6,0,1,0,2,0V47c0-.23,4.37.17,8.8-3.65.1-.09-.35-.48,3.7,3.56a6,6,0,1,0,1.41-1.41l-3.63-3.64A14.92,14.92,0,0,0,47,33h5.14A6,6,0,1,0,58,26ZM10.79,16.44a4,4,0,1,1,5.65,0A4.07,4.07,0,0,1,10.79,16.44ZM6,36a4,4,0,1,1,4-4A4,4,0,0,1,6,36ZM16.44,53.21a4,4,0,1,1-2.82-6.83A4,4,0,0,1,16.44,53.21ZM53.21,10.79a4,4,0,1,1-6.83,2.83A4,4,0,0,1,53.21,10.79ZM28,6a4,4,0,1,1,4,4A4,4,0,0,1,28,6Zm0,23V27a4,4,0,0,1,8,0v2a4,4,0,0,1-8,0ZM24,42.21,24.27,41c2-8,13.45-8,15.46,0L40,42.2A12.92,12.92,0,0,1,24,42.21ZM36,58a4,4,0,1,1-4-4A4,4,0,0,1,36,58ZM53.21,47.56a4,4,0,1,1-6.83,2.82A4,4,0,0,1,53.21,47.56ZM41.69,40.64a9.93,9.93,0,0,0-6-6.92c2.57-2,2.3-4.56,2.3-6.72a6,6,0,0,0-12,0c0,2.34-.25,4.71,2.3,6.72a9.93,9.93,0,0,0-6,6.92,13,13,0,1,1,19.38,0ZM58,36a4,4,0,1,1,4-4A4,4,0,0,1,58,36Z"/></g></svg>