<svg xmlns="http://www.w3.org/2000/svg" viewBox="0 0 64 64"><title>Basket Shoping</title><g id="Basket_Shoping" data-name="Basket Shoping"><path d="M63,19H50.75L42.64,2.1A3.71,3.71,0,1,0,36,5.31L42.53,19H21.47L28,5.31A3.71,3.71,0,0,0,24.7,0a3.75,3.75,0,0,0-3.34,2.1L13.25,19H1a1,1,0,0,0-1,1V30a1,1,0,0,0,1,1H2.13L5.29,54A7,7,0,0,0,11,59.89V63a1,1,0,0,0,1,1H23a1,1,0,0,0,1-1V60H40v3a1,1,0,0,0,1,1H52a1,1,0,0,0,1-1V59.89A7,7,0,0,0,58.71,54l3.16-23H63a1,1,0,0,0,1-1V20A1,1,0,0,0,63,19ZM40.83,3l9.41,19.59A1.7,1.7,0,0,1,47.17,24L37.76,4.44A1.7,1.7,0,0,1,40.83,3ZM23.17,3a1.7,1.7,0,0,1,3.07,1.47L16.83,24a1.7,1.7,0,0,1-3.07-1.47ZM22,62H13V60h9Zm29,0H42V60h9Zm5.72-8.32A5,5,0,0,1,51.77,58H12.23a5,5,0,0,1-4.95-4.32L4.15,31h55.7ZM62,29H2V21H12.29l-.33.69A3.71,3.71,0,0,0,15.3,27a3.75,3.75,0,0,0,3.34-2.1L20.51,21h23l1.87,3.9a3.71,3.71,0,0,0,6.48.37c1.06-1.69.43-3.09-.13-4.27H62Z"/><path d="M17,53V36a1,1,0,0,0-2,0V53A1,1,0,0,0,17,53Z"/><path d="M25,53V36a1,1,0,0,0-2,0V53A1,1,0,0,0,25,53Z"/><path d="M33,53V36a1,1,0,0,0-2,0V53A1,1,0,0,0,33,53Z"/><path d="M41,53V36a1,1,0,0,0-2,0V53A1,1,0,0,0,41,53Z"/><path d="M49,53V36a1,1,0,0,0-2,0V53A1,1,0,0,0,49,53Z"/></g></svg>