<svg xmlns="http://www.w3.org/2000/svg" viewBox="0 0 64 64"><title>Bill</title><g id="Bill"><path d="M24,30a1,1,0,0,0,0,2A1,1,0,0,0,24,30Z"/><path d="M50,30H28a1,1,0,0,0,0,2H50A1,1,0,0,0,50,30Z"/><path d="M24,37a1,1,0,0,0,0,2A1,1,0,0,0,24,37Z"/><path d="M50,37H28a1,1,0,0,0,0,2H50A1,1,0,0,0,50,37Z"/><path d="M24,44a1,1,0,0,0,0,2A1,1,0,0,0,24,44Z"/><path d="M50,44H28a1,1,0,0,0,0,2H50A1,1,0,0,0,50,44Z"/><path d="M24,51a1,1,0,0,0,0,2A1,1,0,0,0,24,51Z"/><path d="M50,51H28a1,1,0,0,0,0,2H50A1,1,0,0,0,50,51Z"/><path d="M37,20a2,2,0,0,1-2-2,1,1,0,0,0-1-1c-1.89,0-1.06,4.06,2,4.86V23a1,1,0,0,0,2,0V21.86A4,4,0,0,0,37,14a2,2,0,1,1,2-2,1,1,0,0,0,1,1c1.89,0,1.06-4.06-2-4.86V7a1,1,0,0,0-2,0V8.14A4,4,0,0,0,37,16a2,2,0,0,1,0,4Z"/><path d="M53,0H11A6,6,0,0,0,5,6v8a1,1,0,0,0,1,1h9V63a1,1,0,0,0,1,1c.33,0,.16,0,4.2-1.89,4,1.92,4.05,2.07,4.62,1.79l3.77-1.79,3.77,1.79c.57.28.58.14,4.63-1.79,4,1.92,4.06,2.07,4.63,1.79l3.77-1.79,3.77,1.79c.57.28.58.14,4.63-1.79,4.19,2,4.14,2.12,4.74,1.74S59,66.79,59,6A6,6,0,0,0,53,0ZM7,13V6a4,4,0,0,1,8,0v7ZM57,61.42c-2.94-1.4-3.07-1.59-3.63-1.32l-3.78,1.79c-4-1.92-4.06-2.07-4.63-1.79l-3.77,1.79L37.42,60.1c-.57-.28-.58-.14-4.63,1.79-4-1.92-4.06-2.07-4.63-1.79l-3.77,1.79L20.63,60.1c-.57-.27-.7-.08-3.63,1.32,0-59.18.64-57-1.52-59.42H53a4,4,0,0,1,4,4Z"/></g></svg>