<svg xmlns="http://www.w3.org/2000/svg" viewBox="0 0 64 64"><title>Bitcoin</title><g id="Bitcoin"><path d="M43.62,31.48A8,8,0,0,0,38,19.06V16a1,1,0,0,0-1-1H33a1,1,0,0,0-1,1v3H30V16a1,1,0,0,0-1-1H25a1,1,0,0,0-1,1v3H20a1,1,0,0,0-1,1v4a1,1,0,0,0,1,1h2V40c-2.23,0-1.71-.3-3,4.76A1,1,0,0,0,20,46h4v3a1,1,0,0,0,1,1h4a1,1,0,0,0,1-1V46h2v3a1,1,0,0,0,1,1h4a1,1,0,0,0,1-1V46h1A8,8,0,0,0,43.62,31.48ZM39,44H37a1,1,0,0,0-1,1v3H34V45a1,1,0,0,0-1-1H29a1,1,0,0,0-1,1v3H26V45a1,1,0,0,0-1-1H21.28l.5-2H23a1,1,0,0,0,1-1V24a1,1,0,0,0-1-1H21V21h4a1,1,0,0,0,1-1V17h2v3a1,1,0,0,0,1,1h4a1,1,0,0,0,1-1V17h2v3a1,1,0,0,0,1,1,6,6,0,0,1,4.4,10.07,1,1,0,0,0,.28,1.57A6,6,0,0,1,39,44Z"/><path d="M29,31c4.93,0,6.31.35,7.83-1.17A4,4,0,0,0,34,23H29a1,1,0,0,0-1,1v6A1,1,0,0,0,29,31Zm1-6h4a2,2,0,0,1,0,4H30Z"/><path d="M35.5,33H29a1,1,0,0,0-1,1v7a1,1,0,0,0,1,1c6.59,0,8,.38,9.68-1.32A4.51,4.51,0,0,0,35.5,33Zm1.77,6.26c-1,1-1.49.74-7.27.74V35h5.5A2.5,2.5,0,0,1,37.27,39.26Z"/><path d="M32,0A32,32,0,1,0,64,32,32,32,0,0,0,32,0Zm0,62A30,30,0,1,1,62,32,30,30,0,0,1,32,62Z"/><path d="M32,6A26,26,0,1,0,58,32,26,26,0,0,0,32,6Zm0,50A24,24,0,1,1,56,32,24,24,0,0,1,32,56Z"/></g></svg>