<svg xmlns="http://www.w3.org/2000/svg" viewBox="0 0 64 64"><title>Cart correct</title><g id="Cart_correct" data-name="Cart correct"><circle cx="17" cy="58" r="2"/><circle cx="54" cy="58" r="2"/><path d="M63.08,12l-12.24-.95a13,13,0,0,0-25.23-2l-12.45-1c-.55-3.43-.84-5.2-1.17-7.24A1,1,0,0,0,11,0H3A3,3,0,0,0,3,6h7.8l5.13,31.66C9.43,44.15,9,44.19,9,45.83V51a3,3,0,0,0,3,3h.54a6,6,0,1,0,8.92,0H49.54A6,6,0,1,0,54,52H12a1,1,0,0,1-1-1c0-5.59-.1-5.48.3-5.88L17.45,39c28.29-2.46-39.37,3.43,45.64-4A1,1,0,0,0,64,34V13A1,1,0,0,0,63.08,12ZM3,4A1,1,0,0,1,3,2h7.15l.32,2ZM21,58a4,4,0,1,1-4-4A4,4,0,0,1,21,58Zm37,0a4,4,0,1,1-4-4A4,4,0,0,1,58,58ZM16.88,31c1.47,0,3.2-.06,5.12-.13v5.7l-4.16.36ZM27.22,20.27,24,20.2V14.94l1.18.09A12.89,12.89,0,0,0,27.22,20.27ZM50.36,17,54,17.3v3.51l-5.55-.11A13.07,13.07,0,0,0,50.36,17ZM62,21l-6-.12V17.45l6,.47ZM46,23.23v4.44L40,28V25.83A12.94,12.94,0,0,0,46,23.23ZM38,28.1l-6,.31V24.52A12.93,12.93,0,0,0,38,26Zm-9.06-5.8a11.75,11.75,0,0,0,1.06.93v5.28l-6,.27V22.2ZM22,20.16,15.1,20l-.95-5.84,7.85.61Zm0,2v6.7c-2.07.07-3.91.12-5.45.14l-1.13-7Zm2,8.62,6-.27v5.36l-6,.52Zm8-.37,6-.31v5.07l-6,.52ZM40,30l6-.31v4.79L40,35Zm8-.42,6-.29v4.5l-6,.52Zm0-2V22.69l6,.13v4.46C52.13,27.36,50.11,27.46,48,27.57Zm8-4.71L62,23v4c-1.61,0-3.66.08-6,.18Zm6-6.94L50.82,15a12.78,12.78,0,0,0,.18-2l11,.86ZM38,2A11,11,0,1,1,27,13,11,11,0,0,1,38,2ZM25.17,11A12.25,12.25,0,0,0,25,13l-11.18-.88-.33-2ZM56,33.6V29.19c2.35-.09,4.39-.16,6-.18v4.07Z"/><path d="M30.29,14.71C34.66,19.08,34.44,19,35,19s-.07.49,9.71-9.29a1,1,0,0,0-1.42-1.42L35,16.59l-3.29-3.3A1,1,0,0,0,30.29,14.71Z"/></g></svg>