<svg xmlns="http://www.w3.org/2000/svg" viewBox="0 0 64 64"><title>Cash on Delivey</title><g id="Cash_on_Delivey" data-name="Cash on Delivey"><path d="M63,38H37a1,1,0,0,0-1,1V63a1,1,0,0,0,1,1H63a1,1,0,0,0,1-1V39A1,1,0,0,0,63,38ZM52,40v3H48V40ZM62,62H38V40h8v4a1,1,0,0,0,1,1h6a1,1,0,0,0,1-1V40h8Z"/><path d="M55,60h4a1,1,0,0,0,0-2H55A1,1,0,0,0,55,60Z"/><path d="M30,15A15,15,0,1,0,15,30,15,15,0,0,0,30,15ZM2,15A13,13,0,1,1,15,28,13,13,0,0,1,2,15Z"/><path d="M16,23V21.86A4,4,0,0,0,15,14a2,2,0,1,1,2-2,1,1,0,0,0,2,0,4,4,0,0,0-3-3.86V7a1,1,0,0,0-2,0V8.14A4,4,0,0,0,15,16a2,2,0,1,1-2,2,1,1,0,0,0-2,0,4,4,0,0,0,3,3.86V23A1,1,0,0,0,16,23Z"/><path d="M33.29,10.71C37.67,15.08,37.44,15,38,15a1,1,0,0,0,.71-1.71L36.41,11H38A19,19,0,0,1,57,30v2a1,1,0,0,0,2,0V30A21,21,0,0,0,38,9H36.41l2.3-2.29a1,1,0,0,0-1.42-1.42c-4.35,4.35-4.1,4.07-4.21,4.33A1,1,0,0,0,33.29,10.71Z"/><path d="M30.92,53.62c-.11-.26.14,0-4.21-4.33a1,1,0,0,0-1.42,1.42L27.59,53H26A19,19,0,0,1,7,34V32a1,1,0,0,0-2,0v2A21,21,0,0,0,26,55h1.59l-2.3,2.29A1,1,0,0,0,26,59c.56,0,.3.12,4.71-4.29A1,1,0,0,0,30.92,53.62Z"/></g></svg>