<svg xmlns="http://www.w3.org/2000/svg" viewBox="0 0 64 64"><title>Cash</title><g id="Cash"><path d="M63,12H1a1,1,0,0,0-1,1V51a1,1,0,0,0,1,1H63a1,1,0,0,0,1-1V13A1,1,0,0,0,63,12ZM62,50H2V14H62Z"/><path d="M6,43a3,3,0,0,1,3,3,1,1,0,0,0,1,1H54a1,1,0,0,0,1-1,3,3,0,0,1,3-3,1,1,0,0,0,1-1V22a1,1,0,0,0-1-1,3,3,0,0,1-3-3,1,1,0,0,0-1-1H10a1,1,0,0,0-1,1,3,3,0,0,1-3,3,1,1,0,0,0-1,1V42A1,1,0,0,0,6,43ZM7,22.9A5,5,0,0,0,10.9,19H53.1A5,5,0,0,0,57,22.9V41.1A5,5,0,0,0,53.1,45H10.9A5,5,0,0,0,7,41.1Z"/><path d="M32,42c5,0,9-4.49,9-10s-4-10-9-10-9,4.49-9,10S27,42,32,42Zm0-18c3.86,0,7,3.59,7,8s-3.14,8-7,8-7-3.59-7-8S28.14,24,32,24Z"/><path d="M46,33h6a1,1,0,0,0,0-2H46A1,1,0,0,0,46,33Z"/><path d="M12,33h6a1,1,0,0,0,0-2H12A1,1,0,0,0,12,33Z"/></g></svg>