<svg xmlns="http://www.w3.org/2000/svg" viewBox="0 0 64 64"><title>Cash Back</title><g id="Cash_Back" data-name="Cash Back"><path d="M54,47a1,1,0,0,0,1-1V18a1,1,0,0,0-1-1H10a1,1,0,0,0-1,1V46a1,1,0,0,0,1,1ZM11,19H53V45H11Z"/><path d="M50,24.56A2.56,2.56,0,0,1,47.44,22a1,1,0,0,0-1-1H17.56a1,1,0,0,0-1,1A2.56,2.56,0,0,1,14,24.56a1,1,0,0,0-1,1V38.44a1,1,0,0,0,1,1A2.56,2.56,0,0,1,16.56,42a1,1,0,0,0,1,1H46.44a1,1,0,0,0,1-1A2.56,2.56,0,0,1,50,39.44a1,1,0,0,0,1-1V25.56A1,1,0,0,0,50,24.56Zm-1,13A4.6,4.6,0,0,0,45.55,41H18.45A4.6,4.6,0,0,0,15,37.55V26.45A4.6,4.6,0,0,0,18.45,23h27.1A4.6,4.6,0,0,0,49,26.45Z"/><path d="M32,25c-3.31,0-6,3.14-6,7s2.69,7,6,7,6-3.14,6-7S35.31,25,32,25Zm0,12c-2.21,0-4-2.24-4-5s1.79-5,4-5,4,2.24,4,5S34.21,37,32,37Z"/><path d="M23,31H19a1,1,0,0,0,0,2h4A1,1,0,0,0,23,31Z"/><path d="M45,31H41a1,1,0,0,0,0,2h4A1,1,0,0,0,45,31Z"/><path d="M10,8.78V3A1,1,0,0,0,8,3v8a1,1,0,0,0,1,1h8a1,1,0,0,0,0-2H11.62C30.72-7.68,62,5.84,62,32A30,30,0,0,1,2,32a1,1,0,0,0-2,0,32,32,0,0,0,64,0C64,3.94,30.29-10.43,10,8.78Z"/></g></svg>