<svg xmlns="http://www.w3.org/2000/svg" viewBox="0 0 64 64"><title>Delivery</title><g id="Delivery"><path d="M64,36.7,58.61,19.8A4,4,0,0,0,54.8,17H42V6a1,1,0,0,0-1-1H1A1,1,0,0,0,0,6V52a1,1,0,0,0,1,1H7.08a7,7,0,0,0,13.84,0H44.08a7,7,0,0,0,13.84,0H63a1,1,0,0,0,1-1C64,35.67,64,36.92,64,36.7ZM61.64,36H48V23h9.53ZM25,7v5.52c-1.83-.73-1.11-.75-4,.4-2.92-1.17-2.14-1.14-4-.4V7ZM2,7H15v7a1,1,0,0,0,1.37.93l2.14-.85c3,1.21,2,1.2,5,0C25.85,15,25.74,15,26,15a1,1,0,0,0,1-1V7H40V41H2ZM2,43H40v8H20.92A7,7,0,0,0,7.08,51H2ZM14,57a5,5,0,1,1,5-5A5,5,0,0,1,14,57Zm37,0a5,5,0,1,1,5-5A5,5,0,0,1,51,57Zm6.92-6a7,7,0,0,0-13.84,0H42V19H54.8a2,2,0,0,1,1.91,1.4l.19.6H47a1,1,0,0,0-1,1V37a1,1,0,0,0,1,1H62v3H61a3,3,0,0,0-3,3v2a3,3,0,0,0,3,3h1v2ZM62,47H61a1,1,0,0,1-1-1V44a1,1,0,0,1,1-1h1Z"/><path d="M49,40H47a1,1,0,0,0,0,2h2A1,1,0,0,0,49,40Z"/><circle cx="51" cy="52" r="2"/><circle cx="14" cy="52" r="2"/><path d="M36,36H30a1,1,0,0,0,0,2h6A1,1,0,0,0,36,36Z"/><path d="M36,32H30a1,1,0,0,0,0,2h6A1,1,0,0,0,36,32Z"/></g></svg>