<svg xmlns="http://www.w3.org/2000/svg" viewBox="0 0 64 64"><title>Ecommerce</title><g id="Ecommerce"><path d="M61,54H58.82c.27-.77.18,1.77.18-37a3,3,0,0,0-2-2.82c0-.76.48,0-6-7.55V1a1,1,0,0,0-1-1H14a1,1,0,0,0-1,1V6.63c-6.42,7.49-6,6.8-6,7.55A3,3,0,0,0,5,17c0,39-.09,36.23.18,37H3a3,3,0,0,0-3,3v2a5,5,0,0,0,5,5H59a5,5,0,0,0,5-5V57A3,3,0,0,0,61,54ZM53,20V50H51V20ZM37.25,8l1.42,5H33V8ZM39,15a3,3,0,0,1-6,0Zm8,0a3,3,0,0,1-6,0ZM43.42,8l2.86,5H40.75L39.33,8ZM31,13H25.33c.33-1.15.07-.25,1.42-5H31Zm0,2a3,3,0,0,1-6,0Zm-7.75-2H17.72l2.86-5h4.09C24.34,9.15,24.6,8.25,23.25,13ZM23,15a3,3,0,0,1-6,0ZM12,18a3,3,0,0,1-3-3h6A3,3,0,0,1,12,18Zm-1,2h2V50H11Zm4-1c0-.11.39-.21,1-1a5,5,0,0,0,8,0,5,5,0,0,0,8,0,5,5,0,0,0,8,0,5,5,0,0,0,8,0c.65.87,1,.92,1,1V50H15Zm37-1a3,3,0,0,1-3-3h6A3,3,0,0,1,52,18Zm-3.42-5L45.72,8h3.82l4.29,5ZM15,2H49V6H15Zm-.54,6h3.82l-2.86,5H10.17ZM7,53c0-38.44-.12-36.16.22-36.6A5.31,5.31,0,0,0,9,19V51a1,1,0,0,0,1,1H54a1,1,0,0,0,1-1c0-42.26,0-29.61,0-32a5.06,5.06,0,0,0,1.78-2.58c.34.44.22-1.94.22,36.6a1,1,0,0,1-1,1H8A1,1,0,0,1,7,53Zm31.13,3-.67,1H26.54l-.67-1ZM62,59a3,3,0,0,1-3,3H5a3,3,0,0,1-3-3V57a1,1,0,0,1,1-1H23.46l1.71,2.55c.42.63,0,.45,12.83.45.69,0,.74-.3,2.54-3H61a1,1,0,0,1,1,1Z"/><path d="M41,29H37V27a5,5,0,0,0-10,0v2H23a1,1,0,0,0-1,1V44a4,4,0,0,0,4,4H38a4,4,0,0,0,4-4V30A1,1,0,0,0,41,29ZM29,27a3,3,0,0,1,6,0v2H29ZM40,44a2,2,0,0,1-2,2H26a2,2,0,0,1-2-2V31h3v2a1,1,0,0,0,2,0V31h6v2a1,1,0,0,0,2,0V31h3Z"/><path d="M18,3a1,1,0,0,0,0,2A1,1,0,0,0,18,3Z"/><path d="M22,5a1,1,0,0,0,0-2A1,1,0,0,0,22,5Z"/><path d="M26,5a1,1,0,0,0,0-2A1,1,0,0,0,26,5Z"/></g></svg>