<svg xmlns="http://www.w3.org/2000/svg" viewBox="0 0 64 64"><title>Find Product</title><g id="Find_Product" data-name="Find Product"><path d="M24,5A19,19,0,1,0,43,24,19,19,0,0,0,24,5Zm0,36A17,17,0,1,1,41,24,17,17,0,0,1,24,41Z"/><path d="M62.67,56.26l-16-16a1,1,0,0,0-1.42,0l-.29.3-2-2C55.05,23,44,0,24,0A24,24,0,0,0,0,24C0,44,23.09,55.1,38.71,42.94l2,2-.39.38a1,1,0,0,0,0,1.42l16,16A4.47,4.47,0,0,0,59.46,64,4.54,4.54,0,0,0,62.67,56.26ZM2,24A22,22,0,1,1,24,46,22,22,0,0,1,2,24ZM40.24,41.65q.78-.72,1.5-1.5L43.59,42l-1.5,1.5ZM59.46,62c-1.47,0-.66.39-17.05-16l3.3-3.29c.42-.43-1.41-2,15.55,15A2.54,2.54,0,0,1,59.46,62Z"/><path d="M33,17H29V15a5,5,0,0,0-10,0v2H15a1,1,0,0,0-1,1V32a4,4,0,0,0,4,4H30a4,4,0,0,0,4-4V18A1,1,0,0,0,33,17ZM21,15a3,3,0,0,1,6,0v2H21ZM32,32a2,2,0,0,1-2,2H18a2,2,0,0,1-2-2V19h3v2a1,1,0,0,0,2,0V19h6v2a1,1,0,0,0,2,0V19h3Z"/></g></svg>