<svg xmlns="http://www.w3.org/2000/svg" viewBox="0 0 64 64"><title>Gift</title><g id="Gift"><path d="M61,14H53.27A8,8,0,0,0,48,0,14.9,14.9,0,0,0,34.24,9.08a24.8,24.8,0,0,0-4.48,0C26,.38,15.17-2.48,10.34,2.34A8,8,0,0,0,10.73,14H3a1,1,0,0,0-1,1V27a1,1,0,0,0,1,1H4V63a1,1,0,0,0,1,1H59a1,1,0,0,0,1-1V28h1a1,1,0,0,0,1-1V15A1,1,0,0,0,61,14ZM26,26V16H38V26ZM14,11c0-5,9.59-3.6,12.57,3H17.11A3.07,3.07,0,0,1,14,11Zm32.89,3H37.43C40.41,7.41,50,6,50,11A3.07,3.07,0,0,1,46.89,14ZM40,16h7V26H40ZM52.24,3.76a6,6,0,0,1-.58,9A5,5,0,0,0,46.89,6a12.47,12.47,0,0,0-10.15,5.2A3.35,3.35,0,0,0,36,10.06C39.13,2.48,48.45,0,52.24,3.76ZM33.5,11A1.5,1.5,0,0,1,35,12.5V14H29V12.5A1.5,1.5,0,0,1,30.5,11ZM16,2a12.91,12.91,0,0,1,12,8.06,3.35,3.35,0,0,0-.74,1.14A12.47,12.47,0,0,0,17.11,6a5,5,0,0,0-4.77,6.74A6,6,0,0,1,16,2ZM4,16H24V26H4ZM6,28H26V62H6ZM28,62V28h8V62Zm30,0H38V28h9v2.46l-5.55,3.71C40.81,34.59,41,34,41,49a1,1,0,0,0,1,1H54a1,1,0,0,0,1-1V35c0-.73,0-.55-6-4.54V28h9ZM48,32.2l5,3.34V48H43V35.54ZM60,26H49V16H60Z"/></g></svg>