<svg xmlns="http://www.w3.org/2000/svg" viewBox="0 0 64 64"><title>Guarantee</title><g id="Guarantee"><path d="M58,4A77.23,77.23,0,0,1,32.32.05C30.76-.46,24.4,4,6,4A1,1,0,0,0,5,5V27.8A37.65,37.65,0,0,0,31.71,64a1.14,1.14,0,0,0,.58,0A37.65,37.65,0,0,0,59,27.8V5A1,1,0,0,0,58,4ZM57,27.8A35.64,35.64,0,0,1,32,62,35.64,35.64,0,0,1,7,27.8C7,3.61,6.84,6,7.35,6A78.79,78.79,0,0,0,32,2.05,78.79,78.79,0,0,0,56.65,6C57.16,6,57,3.61,57,27.8Z"/><path d="M53,8.92C39.28,8.32,32.77,5,31.7,5.3A82,82,0,0,1,11,8.92a1,1,0,0,0-1,1V27.8A32.47,32.47,0,0,0,31.66,58.67a1,1,0,0,0,.68,0A32.47,32.47,0,0,0,54,27.8V9.92A1,1,0,0,0,53,8.92ZM52,27.8A30.5,30.5,0,0,1,32,56.67,30.5,30.5,0,0,1,12,27.8V10.87A83.41,83.41,0,0,0,32,7.3a83.5,83.5,0,0,0,20,3.57Z"/><path d="M17,29A15,15,0,1,0,32,14,15,15,0,0,0,17,29Zm28,0A13,13,0,1,1,32,16,13,13,0,0,1,45,29Z"/><path d="M25.71,27.79a1,1,0,0,0-1.42,1.42c5.24,5.23,5.12,5.29,5.71,5.29s-.07.49,9.71-9.29a1,1,0,0,0-1.42-1.42L30,32.09Z"/></g></svg>