<svg xmlns="http://www.w3.org/2000/svg" viewBox="0 0 64 64"><title>Marketing</title><g id="Marketing"><path d="M63.32,24.05,58,22.28V4a4,4,0,0,0-8,0c0,.86.08.59-.31,1.21C44.38,13.72,35.05,18.69,24,19a1,1,0,0,0-1-1H7a1,1,0,0,0-1,1v1H5a5,5,0,0,0-5,5v8a5,5,0,0,0,5,5H6v1a1,1,0,0,0,1,1H9.15L12.6,60.66A4,4,0,0,0,16.54,64H26a1,1,0,0,0,1-1V60a4,4,0,0,0-3.14-3.91L21.18,40H23a1,1,0,0,0,1-1c4.86.05,9.89.51,14.26,2.93A31.55,31.55,0,0,1,49.69,52.79c.39.62.31.35.31,1.21a4,4,0,0,0,8,0V35.72L63.32,34A1,1,0,0,0,64,33V25A1,1,0,0,0,63.32,24.05ZM5,36a3,3,0,0,1-3-3V25a3,3,0,0,1,3-3H6V36ZM22,57.16A1,1,0,0,0,23,58a2,2,0,0,1,2,2v2H16.54a2,2,0,0,1-2-1.67L11.18,40h8ZM8,38V20H22V38Zm31.23,2.2C34.47,37.56,29.13,37.06,24,37V21c10.85-.27,20.16-4.82,26-12.69V49.68A33.35,33.35,0,0,0,39.23,40.2ZM56,54a2,2,0,0,1-4,0V4a2,2,0,0,1,4,0Zm6-21.72-4,1.33V24.39l4,1.33Z"/><path d="M19,22H11a1,1,0,0,0,0,2h8A1,1,0,0,0,19,22Z"/><path d="M19,26H11a1,1,0,0,0,0,2h8A1,1,0,0,0,19,26Z"/><path d="M19,30H11a1,1,0,0,0,0,2h8A1,1,0,0,0,19,30Z"/><path d="M19,34H11a1,1,0,0,0,0,2h8A1,1,0,0,0,19,34Z"/></g></svg>