<svg xmlns="http://www.w3.org/2000/svg" viewBox="0 0 64 64"><title>Mobile E commerce</title><g id="Mobile_E_commerce" data-name="Mobile E commerce"><path d="M41,30H37V28a5,5,0,0,0-10,0v2H23a1,1,0,0,0-1,1V45a4,4,0,0,0,4,4H38a4,4,0,0,0,4-4V31A1,1,0,0,0,41,30ZM29,28a3,3,0,0,1,6,0v2H29ZM40,45a2,2,0,0,1-2,2H26a2,2,0,0,1-2-2V32h3v2a1,1,0,0,0,2,0V32h6v2a1,1,0,0,0,2,0V32h3Z"/><path d="M57.93,13.65a.89.89,0,0,0-.08-.17C49.22-.54,49.79,0,49,0,12,0,14.57-.22,14.15.48,4.85,15.58,6,13.2,6,15a6,6,0,0,0,5,5.91V59a5,5,0,0,0,5,5H48a5,5,0,0,0,5-5V20.91A6,6,0,0,0,58,15C58,13.91,58,13.9,57.93,13.65ZM55.21,13H47.74L44.35,2h4.09ZM35.92,13H28.08l.85-11h6.14C35.67,9.7,35.49,7.38,35.92,13ZM46,15a4,4,0,0,1-8,0ZM36,15a4,4,0,0,1-8,0ZM17,18.31a6,6,0,0,0,10,0,6,6,0,0,0,10,0,6,6,0,0,0,10,0V54H17ZM18,15h8a4,4,0,0,1-8,0ZM42.26,2l3.39,11H37.93c-.6-7.7-.42-5.38-.85-11ZM26.07,13H18.35L21.74,2h5.18ZM15.56,2h4.09L16.26,13H8.79ZM8,15h8a4,4,0,0,1-8,0ZM48,62H16a3,3,0,0,1-3-3V20.91a6,6,0,0,0,2-.72V55a1,1,0,0,0,1,1H48a1,1,0,0,0,1-1V20.19a6,6,0,0,0,2,.72V59A3,3,0,0,1,48,62Zm4-43a4,4,0,0,1-4-4h8A4,4,0,0,1,52,19Z"/><circle cx="32" cy="59" r="2"/></g></svg>