<svg xmlns="http://www.w3.org/2000/svg" viewBox="0 0 64 64"><title>Mobile Payment</title><g id="Mobile_Payment" data-name="Mobile Payment"><path d="M17,5a1,1,0,0,0,0-2A1,1,0,0,0,17,5Z"/><path d="M25,5a1,1,0,0,0,0-2A1,1,0,0,0,25,5Z"/><path d="M60,23H42V5a5,5,0,0,0-5-5H5A5,5,0,0,0,0,5V59a5,5,0,0,0,5,5H37a5,5,0,0,0,5-5V53H60a4,4,0,0,0,4-4V27A4,4,0,0,0,60,23ZM40,59a3,3,0,0,1-3,3H5a3,3,0,0,1-3-3V5A3,3,0,0,1,5,2H37a3,3,0,0,1,3,3V23H38V5a1,1,0,0,0-1-1H29a1,1,0,0,0-1,1,1,1,0,0,1-1,1c-13,0-12.29.12-12.71-.31A.93.93,0,0,1,14,5a1,1,0,0,0-1-1H5A1,1,0,0,0,4,5V59a1,1,0,0,0,1,1H37a1,1,0,0,0,1-1V53h2ZM26,23a4,4,0,0,0-4,4V49a4,4,0,0,0,4,4H36v5H6V6h6.17A3,3,0,0,0,15,8H27a3,3,0,0,0,2.83-2H36V23ZM62,49a2,2,0,0,1-2,2H26a2,2,0,0,1-2-2V27a2,2,0,0,1,2-2H60a2,2,0,0,1,2,2Z"/><path d="M53.48,41.65a3.49,3.49,0,1,0,0,5.71,3.5,3.5,0,1,0,0-5.71ZM50,44.5a1.49,1.49,0,0,1,2.25-1.29,3.44,3.44,0,0,0,0,2.58A1.49,1.49,0,0,1,50,44.5ZM55.5,46a1.5,1.5,0,0,1,0-3A1.5,1.5,0,0,1,55.5,46Z"/><path d="M32,37H27a1,1,0,0,0,0,2h5A1,1,0,0,0,32,37Z"/><path d="M41,37H36a1,1,0,0,0,0,2h5A1,1,0,0,0,41,37Z"/><path d="M50,37H45a1,1,0,0,0,0,2h5A1,1,0,0,0,50,37Z"/><path d="M59,37H54a1,1,0,0,0,0,2h5A1,1,0,0,0,59,37Z"/><path d="M35,29a1,1,0,0,0-1-1H28a1,1,0,0,0-1,1v4a1,1,0,0,0,1,1h6a1,1,0,0,0,1-1Zm-2,3H29V30h4Z"/></g></svg>