<svg xmlns="http://www.w3.org/2000/svg" viewBox="0 0 64 64"><title>New Product</title><g id="New_Product" data-name="New Product"><path d="M62.15,27.07c-1.49-2.49-1.64-2.94-1.6-6,.06-4.67-.62-6-4.85-8.35-2.61-1.46-3-1.8-4.41-4.41-2.36-4.24-3.69-4.91-8.35-4.85-3.07,0-3.51-.1-6-1.6-4.15-2.48-5.73-2.47-9.86,0-2.51,1.51-2.95,1.63-6,1.6-4.67-.06-6,.62-8.35,4.85-1.46,2.61-1.79,2.95-4.41,4.41-4.23,2.36-4.91,3.68-4.85,8.35,0,3.05-.1,3.5-1.6,6-2.46,4.11-2.5,5.69,0,9.86,1.49,2.49,1.64,2.94,1.6,6-.06,4.67.62,6,4.85,8.35,2.61,1.46,2.95,1.8,4.41,4.41,2.29,4.12,3.57,4.93,8.35,4.85,3.07,0,3.52.11,6,1.6,4.15,2.48,5.73,2.47,9.86,0,2.49-1.49,2.94-1.64,6-1.6,4.67.07,6-.64,8.35-4.85,1.46-2.61,1.79-3,4.41-4.41,4.23-2.36,4.91-3.68,4.85-8.35,0-3,.1-3.5,1.6-6C64.61,32.82,64.65,31.24,62.15,27.07ZM60.43,35.9c-1.68,2.82-1.92,3.62-1.88,7.06.06,4-.29,4.62-3.82,6.58-2.94,1.64-3.55,2.25-5.19,5.19C47.59,58.23,47,58.61,43,58.55c-3.44,0-4.26.21-7.06,1.88-3.49,2.1-4.31,2.09-7.8,0-2.43-1.45-3.4-1.88-6.23-1.88-1.71,0-3.62.16-4.87-.56-1.94-1.12-2.71-4.4-4.65-6.34S7.14,49,6,47s-.15-5.13-.87-7.81S2,34.3,2,32s2.46-4.59,3.15-7.2S4.91,18.9,6,17s4.39-2.71,6.33-4.65S15.06,7.14,17,6s5.13-.14,7.8-.86C27.24,4.5,29.78,2,32,2s4.59,2.46,7.19,3.15S45.1,4.91,47,6s2.71,4.4,4.65,6.34S56.86,15.05,58,17s.15,5.13.87,7.81S62,29.7,62,32A8.19,8.19,0,0,1,60.43,35.9Z"/><path d="M32,9A23,23,0,1,0,55,32,23,23,0,0,0,32,9Zm0,44A21,21,0,1,1,53,32,21,21,0,0,1,32,53Z"/><path d="M33,28a1,1,0,0,0,0-2H27a1,1,0,0,0-1,1V37a1,1,0,0,0,1,1h6a1,1,0,0,0,0-2H28V33h4a1,1,0,0,0,0-2H28V28Z"/><path d="M18,37V30.61C22.52,38.14,22.23,38,23,38a1,1,0,0,0,1-1V27a1,1,0,0,0-2,0v6.39l-4.14-6.9A1,1,0,0,0,16,27V37A1,1,0,0,0,18,37Z"/><path d="M38.87,38c1,.11,1-.4,3.13-4.87C44.28,37.81,44.18,38,45,38a1,1,0,0,0,1-.8l2-10a1,1,0,0,0-2-.4L44.6,33.89,42.9,30.4a1,1,0,0,0-1.8,0l-1.7,3.49L38,26.8a1,1,0,0,0-2,.4l2,10A1,1,0,0,0,38.87,38Z"/><path d="M47,40H17a1,1,0,0,0,0,2H47A1,1,0,0,0,47,40Z"/><path d="M17,24H47a1,1,0,0,0,0-2H17A1,1,0,0,0,17,24Z"/></g></svg>