<svg xmlns="http://www.w3.org/2000/svg" viewBox="0 0 64 64"><title>News Letter</title><g id="News_Letter" data-name="News Letter"><path d="M64,26.92c-.05-.63.25-.22-9-7.38V1a1,1,0,0,0-1-1H10A1,1,0,0,0,9,1V19.54c-9.24,7.15-8.71,6.7-8.86,7S0,24.76,0,63a1,1,0,0,0,1,1H63a1,1,0,0,0,1-1C64,24.58,64,27.14,64,26.92ZM61.37,27,55,31.93V22.07ZM53,2V33.48L32,49.74,11,33.48V2ZM9,31.93,2.63,27,9,22.07ZM62,62H2V29L31.39,51.79a1,1,0,0,0,1.22,0L62,29Z"/><path d="M26,35H38a4,4,0,0,0,4-4V17a1,1,0,0,0-1-1H37V14a5,5,0,0,0-10,0v2H23a1,1,0,0,0-1,1V31A4,4,0,0,0,26,35Zm3-21a3,3,0,0,1,6,0v2H29Zm-5,4h3v2a1,1,0,0,0,2,0V18h6v2a1,1,0,0,0,2,0V18h3V31a2,2,0,0,1-2,2H26a2,2,0,0,1-2-2Z"/></g></svg>