<svg xmlns="http://www.w3.org/2000/svg" viewBox="0 0 64 64"><title>Package</title><g id="Package"><path d="M63.84,36.46c-7.35-11.56-7-11.11-7.35-11.32s1-.08-24.43-1.14c-.1,0-24.15.91-24.55,1.14s.14-.45-7.35,11.32A1,1,0,0,0,.83,38L7,39.06V58a1,1,0,0,0,.8,1C33.49,64.33,31.9,64,32.2,64l24-5a1,1,0,0,0,.8-1V39.06L63.17,38A1,1,0,0,0,63.84,36.46ZM8.56,27l21.79-.91L23.44,39.89,2.65,36.27ZM9,39.41C25.06,42.2,23.87,42,24,42c.88,0,.46.31,7-12.76V61.77L9,57.19ZM55,57.19,33,61.77V29.24C39.5,42.24,39.12,42,40,42c.14,0-.73.14,15-2.59ZM40.56,39.89,33.65,26.07,55.44,27l5.91,9.29Z"/><path d="M31.34,21.75a1,1,0,0,0,1.32,0l9-8a1,1,0,0,0,.27-1.11c-.34-.89-1-.64-4.93-.64V1a1,1,0,0,0-1-1H28a1,1,0,0,0-1,1V12H23a1,1,0,0,0-.66,1.75ZM28,14a1,1,0,0,0,1-1V2h6V13a1,1,0,0,0,1,1h2.37L32,19.66,25.63,14Z"/></g></svg>