<svg xmlns="http://www.w3.org/2000/svg" viewBox="0 0 64 64"><title>Pay Later</title><g id="Pay_Later" data-name="Pay Later"><path d="M63,25H62V13a3,3,0,0,0-3-3H58V3a3,3,0,0,0-3-3H14A6,6,0,0,0,8,6V41H6V40a1,1,0,0,0-2,0v1H1a1,1,0,0,0-1,1V63a1,1,0,0,0,1,1H25a1,1,0,0,0,1-1V54H59a3,3,0,0,0,3-3V39h1a1,1,0,0,0,1-1V26A1,1,0,0,0,63,25ZM14,2H55a1,1,0,0,1,1,1v7H14a4,4,0,0,1,0-8ZM2,43H4v1a1,1,0,0,0,2,0V43H20v1a1,1,0,0,0,2,0V43h2v3H2ZM24,62H2V48H24ZM60,51a1,1,0,0,1-1,1H26V42a1,1,0,0,0-1-1H22V40a1,1,0,0,0-2,0v1H10V10.46A6.53,6.53,0,0,0,15,12H59a1,1,0,0,1,1,1V25H53a7,7,0,0,0,0,14h7Zm2-14H53a5,5,0,0,1,0-10h9Z"/><path d="M53,29a3,3,0,1,0,3,3A3,3,0,0,0,53,29Zm0,4a1,1,0,0,1,0-2A1,1,0,0,1,53,33Z"/><path d="M14,50H12a1,1,0,0,0,0,2h2A1,1,0,0,0,14,50Z"/><path d="M20,50H18a1,1,0,0,0,0,2h2A1,1,0,0,0,20,50Z"/><path d="M8,54H6a1,1,0,0,0,0,2H8A1,1,0,0,0,8,54Z"/><path d="M14,54H12a1,1,0,0,0,0,2h2A1,1,0,0,0,14,54Z"/><path d="M20,54H18a1,1,0,0,0,0,2h2A1,1,0,0,0,20,54Z"/><path d="M8,58H6a1,1,0,0,0,0,2H8A1,1,0,0,0,8,58Z"/><path d="M14,58H12a1,1,0,0,0,0,2h2A1,1,0,0,0,14,58Z"/></g></svg>