<svg xmlns="http://www.w3.org/2000/svg" viewBox="0 0 64 64"><title>Paypal</title><g id="Paypal"><path d="M60,6H4a4,4,0,0,0-4,4V54a4,4,0,0,0,4,4H60a4,4,0,0,0,4-4V10A4,4,0,0,0,60,6Zm2,48a2,2,0,0,1-2,2H4a2,2,0,0,1-2-2V10A2,2,0,0,1,4,8H60a2,2,0,0,1,2,2Z"/><path d="M44.17,22a10,10,0,0,0-9.94-9H21.76a1,1,0,0,0-1,.85l-5,32a1,1,0,0,0,1,1.15h6.46l-.44,2.84a1,1,0,0,0,1,1.16h7a1,1,0,0,0,1-.85L33.18,41h3.88C47.33,41,52.32,28,44.17,22ZM17.93,45l4.69-30H34.23a8,8,0,0,1,8,8.41A9.16,9.16,0,0,1,33.06,32H26.42a1,1,0,0,0-1,.84L23.53,45Zm19.13-6H32.32a1,1,0,0,0-1,.85L29.91,49h-5c.12-.71,1.76-11.25,2.35-15h5.78a11.19,11.19,0,0,0,11-9.43C49.1,30,44.71,39,37.06,39Z"/></g></svg>