<svg id="Premium_Product" data-name="Premium Product" xmlns="http://www.w3.org/2000/svg" viewBox="0 0 64 64"><title>Premium Product</title><path d="M62.15,27.07c-1.5-2.49-1.64-2.95-1.6-6,.06-4.67-.62-6-4.85-8.35-2.61-1.45-3-1.8-4.41-4.41C49,4.12,47.66,3.38,42.94,3.45c-3,0-3.5-.09-6-1.6-4.13-2.47-5.71-2.48-9.86,0-2.51,1.51-2.95,1.63-6,1.6-4.66-.07-6,.64-8.35,4.85-1.45,2.61-1.8,2.95-4.41,4.41-4.23,2.36-4.91,3.68-4.85,8.35,0,3-.09,3.5-1.6,6-2.47,4.13-2.48,5.71,0,9.86,1.5,2.49,1.64,3,1.6,6-.06,4.67.62,6,4.85,8.35,2.61,1.45,2.95,1.8,4.41,4.41,2.33,4.18,3.63,4.92,8.35,4.85,3.07,0,3.53.11,6,1.6,4.13,2.47,5.71,2.48,9.86,0,2.48-1.49,3-1.64,6-1.6,4.67.06,6-.62,8.35-4.85,1.45-2.61,1.8-3,4.41-4.41,4.23-2.36,4.91-3.68,4.85-8.35,0-3,.09-3.5,1.6-6C64.62,32.8,64.63,31.22,62.15,27.07ZM60.43,35.9c-1.68,2.81-1.92,3.62-1.88,7.06.05,4-.28,4.61-3.82,6.58-2.94,1.64-3.55,2.24-5.19,5.19-2,3.52-2.61,3.88-6.58,3.82-3.44,0-4.26.2-7.06,1.88-3.48,2.09-4.3,2.1-7.8,0-2.44-1.46-3.4-1.88-6.23-1.88-1.71,0-3.62.16-4.87-.56-1.94-1.13-2.7-4.39-4.65-6.34S7.13,48.94,6,47s-.14-5.13-.86-7.81S2,34.3,2,32s2.45-4.58,3.15-7.2S4.92,18.9,6,17s4.39-2.7,6.34-4.65S15.06,7.13,17,6s5.14-.14,7.81-.86S29.7,2,32,2s4.58,2.45,7.2,3.15S45.09,4.91,47,6s2.7,4.39,4.65,6.34S56.87,15.06,58,17s.14,5.13.86,7.81S62,29.7,62,32A8.19,8.19,0,0,1,60.43,35.9Z"/><path d="M32,9A23,23,0,1,0,55,32,23,23,0,0,0,32,9Zm0,44A21,21,0,1,1,53,32,21,21,0,0,1,32,53Z"/><path d="M48.88,28.54c-.24-.45-6.21-9.28-6.13-9.18a.85.85,0,0,0-.6-.34c-.1,0-20.3-.1-20.64.11s-6.41,9.44-6.44,9.54a.91.91,0,0,0,0,.71c.1.26,16.06,19.15,16.21,19.31a1,1,0,0,0,1.09.23c.34-.14-.53.81,16.38-19.28A1,1,0,0,0,48.88,28.54Zm-27-6.62L25.3,28H17.87ZM28.7,28,32,22.06,35.3,28Zm7,2L32,44.07,28.3,30Zm-2-9h6.6L37,26.94ZM27,26.94,23.7,21h6.6ZM26.23,30,29.9,44,18.15,30Zm11.54,0h8.08L34.1,44Zm.93-2,3.38-6.08L46.13,28Z"/></svg>