<svg xmlns="http://www.w3.org/2000/svg" viewBox="0 0 64 64"><title>Preorder</title><g id="Preorder"><path d="M64,15c0-.4.39.43-8.13-14.49C55.44-.25,57.74,0,21,0c-.82,0-.24-.6-8.87,14.5-.19.35-.13-.07-.13,26.5H6V40a1,1,0,0,0-2,0v1H1a1,1,0,0,0-1,1V63a1,1,0,0,0,1,1H25a1,1,0,0,0,1-1V56H63a1,1,0,0,0,1-1Zm-2.72-1H44.87L43.23,2H54.42ZM33,16H43v5.13c-2.41-1.6-1.61-1.6-5,.67-3.46-2.3-2.64-2.25-5-.67ZM41.21,2l1.64,12h-9.7L34.79,2ZM21.58,2H32.77L31.13,14H14.72ZM2,43H4v1a1,1,0,0,0,2,0V43H20v1a1,1,0,0,0,2,0V43h2v3H2ZM24,62H2V48H24Zm38-8H26V42a1,1,0,0,0-1-1H22V40a1,1,0,0,0-2,0v1H14V16H31c0,7.59-.18,7.5.53,7.88s.95,0,3.46-1.68c3.56,2.37,2.44,2.38,6,0,2.48,1.65,2.79,2.06,3.48,1.68S45,23.29,45,16H62Z"/><path d="M14,50H12a1,1,0,0,0,0,2h2A1,1,0,0,0,14,50Z"/><path d="M8,50H6a1,1,0,0,0,0,2H8A1,1,0,0,0,8,50Z"/><path d="M20,54H18a1,1,0,0,0,0,2h2A1,1,0,0,0,20,54Z"/><path d="M14,54H12a1,1,0,0,0,0,2h2A1,1,0,0,0,14,54Z"/><path d="M8,54H6a1,1,0,0,0,0,2H8A1,1,0,0,0,8,54Z"/><path d="M20,58H18a1,1,0,0,0,0,2h2A1,1,0,0,0,20,58Z"/><path d="M14,58H12a1,1,0,0,0,0,2h2A1,1,0,0,0,14,58Z"/><path d="M50,48h8a1,1,0,0,0,0-2H50A1,1,0,0,0,50,48Z"/><path d="M58,50H50a1,1,0,0,0,0,2h8A1,1,0,0,0,58,50Z"/></g></svg>