<svg xmlns="http://www.w3.org/2000/svg" viewBox="0 0 64 64"><title>QR code</title><g id="QR_code" data-name="QR code"><path d="M2,13V2H13a1,1,0,0,0,0-2H1A1,1,0,0,0,0,1V13A1,1,0,0,0,2,13Z"/><path d="M62,51V62H51a1,1,0,0,0,0,2H63a1,1,0,0,0,1-1V51A1,1,0,0,0,62,51Z"/><path d="M63,0H51a1,1,0,0,0,0,2H62V13a1,1,0,0,0,2,0V1A1,1,0,0,0,63,0Z"/><path d="M13,62H2V51a1,1,0,0,0-2,0V63a1,1,0,0,0,1,1H13A1,1,0,0,0,13,62Z"/><path d="M63,31H1a1,1,0,0,0,0,2H63A1,1,0,0,0,63,31Z"/><path d="M7,8V26a1,1,0,0,0,1,1H26a1,1,0,0,0,1-1V8a1,1,0,0,0-1-1H8A1,1,0,0,0,7,8ZM9,9H25V25H9Z"/><path d="M21,12H13a1,1,0,0,0-1,1v8a1,1,0,0,0,1,1h8a1,1,0,0,0,1-1V13A1,1,0,0,0,21,12Zm-1,8H14V14h6Z"/><path d="M38,27H56a1,1,0,0,0,1-1V8a1,1,0,0,0-1-1H38a1,1,0,0,0-1,1V26A1,1,0,0,0,38,27ZM39,9H55V25H39Z"/><path d="M51,12H43a1,1,0,0,0-1,1v8a1,1,0,0,0,1,1h8a1,1,0,0,0,1-1V13A1,1,0,0,0,51,12Zm-1,8H44V14h6Z"/><path d="M26,37H8a1,1,0,0,0-1,1V56a1,1,0,0,0,1,1H26a1,1,0,0,0,1-1V38A1,1,0,0,0,26,37ZM25,55H9V39H25Z"/><path d="M13,52h8a1,1,0,0,0,1-1V43a1,1,0,0,0-1-1H13a1,1,0,0,0-1,1v8A1,1,0,0,0,13,52Zm1-8h6v6H14Z"/><path d="M56,43a1,1,0,0,0,1-1V38a1,1,0,0,0-1-1H52a1,1,0,0,0-1,1v4a1,1,0,0,0,1,1Zm-3-4h2v2H53Z"/><path d="M42,51H38a1,1,0,0,0-1,1v4a1,1,0,0,0,1,1h4a1,1,0,0,0,1-1V52A1,1,0,0,0,42,51Zm-1,4H39V53h2Z"/><path d="M56,57a1,1,0,0,0,1-1V50a1,1,0,0,0-1-1H50V45a1,1,0,0,0-1-1H45V38a1,1,0,0,0-1-1H38a1,1,0,0,0-1,1v6a1,1,0,0,0,1,1h6v4a1,1,0,0,0,1,1h4v6a1,1,0,0,0,1,1Zm-5-6h4v4H51Zm-8-8H39V39h4Zm5,5H46V46h2Z"/><path d="M31,36V56a1,1,0,0,0,2,0V36A1,1,0,0,0,31,36Z"/><path d="M33,28V8a1,1,0,0,0-2,0V28A1,1,0,0,0,33,28Z"/></g></svg>