<svg xmlns="http://www.w3.org/2000/svg" viewBox="0 0 64 64"><title>Receive Product</title><g id="Receive_Product" data-name="Receive Product"><path d="M64,1a1,1,0,0,0-1-1H23a1,1,0,0,0-1,1V36H19.66A14.57,14.57,0,0,0,9.5,40.09L.78,42a1,1,0,0,0,.44,2c9.72-2.16,9.19-2,9.49-2.27C14.93,37.49,19.13,38,24.62,38a6.93,6.93,0,0,1,6.45,4.37c.35.86.33.63,8.93.63,3.81,0,5.1,5,3,5H26a1,1,0,0,0,0,2H43a6.43,6.43,0,0,0,4.17-1.54l11.66-10A1.92,1.92,0,0,1,62,39.92a3.8,3.8,0,0,1-1.2,2.77L49.2,53.57A9,9,0,0,1,43.05,56H12c-.36,0,.56-.44-11.48,6.12A1,1,0,0,0,1,64c.36,0-.55.44,11.25-6h30.8a11,11,0,0,0,7.52-3l11.6-10.87c1.63-1.53,2.47-4.24,1.25-6.25C64.3,37.49,64,39.45,64,1ZM47,2V7.52c-1.82-.73-1.11-.75-4,.4-2.92-1.17-2.14-1.13-4-.39V2ZM24,36V2H37c0,7.64-.15,7.43.44,7.83s.93.1,3.07-.75c3,1.2,2,1.19,5,0,2.24.9,2.49,1.13,3.05.75S49,9.66,49,2H62V36ZM46,46.83A6,6,0,0,0,40,41H32.65a8.93,8.93,0,0,0-2.39-3h26Z"/><path d="M52,33h6a1,1,0,0,0,0-2H52A1,1,0,0,0,52,33Z"/><path d="M52,29h6a1,1,0,0,0,0-2H52A1,1,0,0,0,52,29Z"/></g></svg>