<svg xmlns="http://www.w3.org/2000/svg" viewBox="0 0 64 64"><title>Sales Analytic</title><g id="Sales_Analytic" data-name="Sales Analytic"><path d="M63,62H61V18a1,1,0,0,0-1-1H52a1,1,0,0,0-1,1V62H45V35a1,1,0,0,0-1-1H36a1,1,0,0,0-1,1V62H29V29a1,1,0,0,0-1-1H20a1,1,0,0,0-1,1V62H13V43a1,1,0,0,0-1-1H4a1,1,0,0,0-1,1V62H1a1,1,0,0,0,0,2H63A1,1,0,0,0,63,62ZM5,62V44h6V62Zm16,0V30h6V62Zm16,0V36h6V62Zm16,0V19h6V62Z"/><path d="M64,1a1,1,0,0,0-.87-1C62.83,0,64.4,0,55,0a1,1,0,0,0,0,2h5.65L39,24.57,27.71,13.29a1,1,0,0,0-1.42,0l-26,26a1,1,0,0,0,1.42,1.42L27,15.41l11.29,11.3a1,1,0,0,0,1.43,0L62,3.49V9a1,1,0,0,0,2,0Z"/></g></svg>