<svg xmlns="http://www.w3.org/2000/svg" viewBox="0 0 64 64"><title>Shop Bag</title><g id="Shop_Bag" data-name="Shop Bag"><path d="M57,56.69,54,18.92A1,1,0,0,0,53,18H45V13a13,13,0,0,0-26,0v5H11a1,1,0,0,0-1,.92L7,56.69A6.78,6.78,0,0,0,13.77,64H50.23A6.78,6.78,0,0,0,57,56.69ZM21,13a11,11,0,0,1,22,0v5H21ZM50.23,62H13.77A4.78,4.78,0,0,1,9,57.23C9,57,8.79,59.7,11.92,20H19v4.18a3,3,0,1,0,2,0V20H43v4.18a3,3,0,1,0,2,0V20h7.08L55,56.85A4.79,4.79,0,0,1,50.23,62ZM20,26a1,1,0,0,1,0,2A1,1,0,0,1,20,26Zm24,0a1,1,0,0,1,0,2A1,1,0,0,1,44,26Z"/></g></svg>