<svg xmlns="http://www.w3.org/2000/svg" viewBox="0 0 64 64"><title>Stock Product</title><g id="Stock_Product" data-name="Stock Product"><path d="M63,31H49V2a1,1,0,0,0-1-1H16a1,1,0,0,0-1,1V31H1a1,1,0,0,0-1,1V62a1,1,0,0,0,1,1H63a1,1,0,0,0,1-1V32A1,1,0,0,0,63,31ZM51,37.38c-1.2-.6-.89-.55-3,.5-2.09-1.05-1.8-1.1-3-.5V33h6ZM35,3V7.38c-1.22-.62-1-.52-3,.5C30.47,7.11,30.34,7,30,7c-1.28,0-1,2.13-1-4ZM17,3H27V9a1,1,0,0,0,1.45.9L30,9.12c2.36,1.18,1.66,1.16,4,0,1.52.77,1.66.88,2,.88a1,1,0,0,0,1-1V3H47V31H17Zm2,30v4.38c-1.2-.6-.89-.55-3,.5-2.09-1.05-1.79-1.1-3-.5V33ZM2,33h9v6c0,1,1.1,1,1,1,.32,0,.49-.13,2-.88,2.33,1.16,1.67,1.16,4,0,1,.5,1.74,1,2.35.81.87-.33.65-.6.65-6.93H31V61H2ZM62,61H33V33H43c0,6.41-.22,6.61.66,6.93.56.21.81,0,2.34-.81,2.33,1.16,1.67,1.16,4,0,1,.5,1.74,1,2.35.81.87-.33.65-.6.65-6.93h9Z"/><path d="M39,28h4a1,1,0,0,0,0-2H39A1,1,0,0,0,39,28Z"/><path d="M27,56H23a1,1,0,0,0,0,2h4A1,1,0,0,0,27,56Z"/><path d="M54,58h4a1,1,0,0,0,0-2H54A1,1,0,0,0,54,58Z"/></g></svg>