<svg xmlns="http://www.w3.org/2000/svg" viewBox="0 0 64 64"><title>Unboxing</title><g id="Unboxing"><path d="M56.84,25.46a1.08,1.08,0,0,0-.52-.39c-.48-.17-22.69-.91-24.26-1.07C32,24,8,25,7.68,25.07a1.09,1.09,0,0,0-.52.39C-.35,37.26-.22,36.71.09,37.4s.26.5,6.91,1.66V58a1,1,0,0,0,.8,1c25.72,5.36,24,5,24.2,5s-1.42.32,24.2-5a1,1,0,0,0,.8-1V39.06c6.66-1.16,6.62-1,6.91-1.66S64.37,37.28,56.84,25.46ZM8.56,27l21.79-.91L23.44,39.89,2.65,36.27ZM9,39.41C25.06,42.2,23.87,42,24,42c.88,0,.46.31,7-12.76V61.77L9,57.19ZM55,57.19,33,61.77V29.24C39.5,42.24,39.12,42,40,42c.14,0-.73.14,15-2.59ZM40.56,39.89,33.65,26.07,55.44,27l5.91,9.29Z"/><path d="M37,21c0-7.21,6.76-14,12-14a1,1,0,0,0,0-2c-6.8,0-14,8.22-14,16A1,1,0,0,0,37,21Z"/><path d="M15,10c4.11,0,7.23,1.11,9.28,3.29A11.22,11.22,0,0,1,27,20.93a1,1,0,0,0,2,.14,13.16,13.16,0,0,0-3.24-9.13C23.31,9.33,19.69,8,15,8A1,1,0,0,0,15,10Z"/><path d="M31,20.78a1,1,0,0,0,2,.44c2.08-9.36-2-14.63-2.2-14.84a1,1,0,0,0-1.56,1.24C29.37,7.81,32.88,12.41,31,20.78Z"/><path d="M53,7a4,4,0,0,1,4,4,1,1,0,0,0,2,0,4,4,0,0,1,4-4,1,1,0,0,0,0-2,4,4,0,0,1-4-4,1,1,0,0,0-2,0,4,4,0,0,1-4,4A1,1,0,0,0,53,7Zm5-2.69A5.91,5.91,0,0,0,59.69,6,5.91,5.91,0,0,0,58,7.69,5.91,5.91,0,0,0,56.31,6,5.91,5.91,0,0,0,58,4.31Z"/><path d="M1,10a4,4,0,0,1,4,4,1,1,0,0,0,2,0,4,4,0,0,1,4-4,1,1,0,0,0,0-2A4,4,0,0,1,7,4,1,1,0,0,0,5,4,4,4,0,0,1,1,8,1,1,0,0,0,1,10ZM6,7.31A5.91,5.91,0,0,0,7.69,9,5.91,5.91,0,0,0,6,10.69,5.91,5.91,0,0,0,4.31,9,5.91,5.91,0,0,0,6,7.31Z"/><path d="M24,4h1V5a1,1,0,0,0,2,0V4h1a1,1,0,0,0,0-2H27V1a1,1,0,0,0-2,0V2H24A1,1,0,0,0,24,4Z"/><path d="M48,16V15h1a1,1,0,0,0,0-2H48V12a1,1,0,0,0-2,0v1H45a1,1,0,0,0,0,2h1v1A1,1,0,0,0,48,16Z"/><path d="M15,19h1v1a1,1,0,0,0,2,0V19h1a1,1,0,0,0,0-2H18V16a1,1,0,0,0-2,0v1H15A1,1,0,0,0,15,19Z"/></g></svg>