<svg xmlns="http://www.w3.org/2000/svg" viewBox="0 0 64 64"><title>Voucher</title><g id="Voucher"><path d="M30.61,59.33a5,5,0,1,0,1.21-9.16A5,5,0,0,0,30.61,59.33Zm1.73-7.23a3,3,0,1,1-.73,5.5A3,3,0,0,1,32.34,52.1Z"/><path d="M4.17,53.7a5,5,0,1,0,9.16-1.21A5,5,0,0,0,4.17,53.7Zm4.06,4.19a3,3,0,1,1,3.37-4.4A3,3,0,0,1,8.23,57.89Z"/><path d="M63,0H1A1,1,0,0,0,0,1V33a1,1,0,0,0,1,1H14l1.85,6.9-1.79,6.68a9,9,0,1,0,3.61,9.74c3.52-13.16,3.23-12.18,3.35-12.27.14.1-.16-.88,3.37,12.27A9,9,0,0,0,33.1,64c9.15,0,12.49-12.2,4.5-16.8a9,9,0,0,0-9.58.38l-1.79-6.65L28.09,34H63a1,1,0,0,0,1-1V1A1,1,0,0,0,63,0ZM17.22,38.15,16.1,34h3.7C19.2,36.24,19.75,35.3,17.22,38.15Zm1.91,6.1L15.76,56.8a7,7,0,1,1-4.95-8.57c2.94.79,2.95,2.39,4.11,2.08.8-.22.58-.25,3.25-10.22,3-3.41,2.94-3.25,3-3.57L28.42,9.57A5,5,0,0,1,31,15.34L24.38,40.11C19.26,43.88,19.26,43.76,19.13,44.25Zm8.07,6.06c1.14.31,1.21-1.31,4.11-2.07a7,7,0,1,1-5,8.57c-3.7-13.78-3.34-12.7-3.63-13l1.85-1.36C26.67,50.25,26.45,50.11,27.2,50.31ZM62,32H28.62L33,15.86C34.6,9.67,27.42,5.56,26.77,8L22,25.8V8a1,1,0,0,0-2,0V32H2V2H62Z"/><path d="M40.79,26.61l14-18a1,1,0,0,0-1.58-1.22l-14,18A1,1,0,0,0,40.79,26.61Z"/><path d="M49,23a4,4,0,1,0,4-4A4,4,0,0,0,49,23Zm6,0a2,2,0,1,1-2-2A2,2,0,0,1,55,23Z"/><path d="M41,15a4,4,0,1,0-4-4A4,4,0,0,0,41,15Zm0-6a2,2,0,1,1-2,2A2,2,0,0,1,41,9Z"/><path d="M6,9H16a1,1,0,0,0,0-2H6A1,1,0,0,0,6,9Z"/><path d="M6,15H16a1,1,0,0,0,0-2H6A1,1,0,0,0,6,15Z"/><path d="M6,21H16a1,1,0,0,0,0-2H6A1,1,0,0,0,6,21Z"/><path d="M6,27H16a1,1,0,0,0,0-2H6A1,1,0,0,0,6,27Z"/></g></svg>