<svg xmlns="http://www.w3.org/2000/svg" viewBox="0 0 64 64"><title>Wallet</title><g id="Wallet"><path d="M63,31H62V17a3,3,0,0,0-3-3H58V5a3,3,0,0,0-3-3H7A6.89,6.89,0,0,0,2.06,4.05C-.6,6.68,0,9.5,0,15V55a7,7,0,0,0,7,7H59a3,3,0,0,0,3-3V45h1a1,1,0,0,0,1-1V32A1,1,0,0,0,63,31ZM3.47,5.46A5,5,0,0,1,7,4H55a1,1,0,0,1,1,1v9H7A5,5,0,0,1,3.47,5.46ZM60,59a1,1,0,0,1-1,1H7a5,5,0,0,1-5-5V13.89a7.09,7.09,0,0,0,2.26,1.55C6.12,16.23,2.49,16,59,16a1,1,0,0,1,1,1V31H53a7,7,0,0,0,0,14h7Zm2-16H53a5,5,0,0,1,0-10h9Z"/><path d="M53,35a3,3,0,1,0,3,3A3,3,0,0,0,53,35Zm0,4a1,1,0,0,1,0-2A1,1,0,0,1,53,39Z"/></g></svg>