<svg xmlns="http://www.w3.org/2000/svg" viewBox="0 0 64 64"><title>Website</title><g id="Website"><path d="M63,2H1A1,1,0,0,0,0,3V61a1,1,0,0,0,1,1H63a1,1,0,0,0,1-1V3A1,1,0,0,0,63,2ZM2,4H62v6H2ZM2,60V12H62V60Z"/><path d="M6,6A1,1,0,0,0,6,8,1,1,0,0,0,6,6Z"/><path d="M10,6a1,1,0,0,0,0,2A1,1,0,0,0,10,6Z"/><path d="M14,6a1,1,0,0,0,0,2A1,1,0,0,0,14,6Z"/><path d="M26.5,49h-7a3.5,3.5,0,0,0,0,7h7a3.5,3.5,0,0,0,0-7Zm0,5h-7a1.5,1.5,0,0,1,0-3h7A1.5,1.5,0,0,1,26.5,54Z"/><path d="M44.5,49h-7a3.5,3.5,0,0,0,0,7h7a3.5,3.5,0,0,0,0-7Zm0,5h-7a1.5,1.5,0,0,1,0-3h7A1.5,1.5,0,0,1,44.5,54Z"/><path d="M26,43H38a4,4,0,0,0,4-4V25a1,1,0,0,0-1-1H37V22a5,5,0,0,0-10,0v2H23a1,1,0,0,0-1,1V39A4,4,0,0,0,26,43Zm3-21a3,3,0,0,1,6,0v2H29Zm-5,4h3v2a1,1,0,0,0,2,0V26h6v2a1,1,0,0,0,2,0V26h3V39a2,2,0,0,1-2,2H26a2,2,0,0,1-2-2Z"/></g></svg>