<svg xmlns="http://www.w3.org/2000/svg" viewBox="0 0 64 64"><title>Wishlist</title><g id="Wishlist"><path d="M31.59,21.91a1,1,0,0,0,.82,0c.53-.24,12.81-5.92,12.81-14.24A7.67,7.67,0,0,0,32,2.39,7.67,7.67,0,0,0,18.78,7.67C18.78,16,31.06,21.67,31.59,21.91ZM31.17,4.54a1,1,0,0,0,1.66,0A5.67,5.67,0,0,1,43.22,7.67c0,6.27-9.15,11.19-11.22,12.22-2.07-1-11.22-6-11.22-12.22A5.67,5.67,0,0,1,31.17,4.54Z"/><path d="M63.84,36.46c-7.35-11.56-7-11.11-7.35-11.32s1-.08-24.42-1.14C32,24,7.9,24.91,7.51,25.14s.14-.45-7.35,11.32A1,1,0,0,0,.83,38L7,39.06V58a1,1,0,0,0,.8,1C33.49,64.33,31.9,64,32.2,64l24-5a1,1,0,0,0,.8-1V39.06L63.17,38A1,1,0,0,0,63.84,36.46ZM8.56,27l21.79-.91L23.44,39.89,2.65,36.27ZM9,39.41C25.06,42.2,23.87,42,24,42c.88,0,.46.31,7-12.76V61.77L9,57.19ZM55,57.19,33,61.77V29.24C39.5,42.24,39.12,42,40,42c.14,0-.73.14,15-2.59ZM40.56,39.89,33.65,26.07,55.44,27l5.91,9.29Z"/></g></svg>