<svg xmlns="http://www.w3.org/2000/svg" viewBox="0 0 64 64"><title>Worldwide Delivery</title><g id="Worldwide_Delivery" data-name="Worldwide Delivery"><path d="M63,42H54.91a29.34,29.34,0,0,0,2.93-9.86A29,29,0,1,0,40,55.84V63a1,1,0,0,0,1,1H63a1,1,0,0,0,1-1V43A1,1,0,0,0,63,42ZM50,44h4v3H50Zm3.2-26.95A26.38,26.38,0,0,1,56,28c-1.41-1.68-7.13-1.75-11.59-4.72-4-2.64,0-3,2-7C47.11,14.78,51.64,16.41,53.2,17.05Zm-1.52-2.67c-3.77-1.19-6.17-.88-7.1,1-1.12,2.22-4.16,3.79-3.88,6.25.55,4.72,12.72,6.82,13.66,7.54a6.81,6.81,0,0,0,1.43,3.14A26.64,26.64,0,0,1,52.65,42h-9a21.49,21.49,0,0,0,1.19-6.41c0-4.42-7.08-2.57-10.17-5.65-2.68-2.68-7-1.71-9.34-.88.24-4.39-3-6.55-3.75-7.67.7-.6,2.9,1.94,6.24.27,3.9-1.95.78-8.13,4.49-8.13,5.17,0,5.61-.09,7.49-3.85a2.4,2.4,0,0,0,.13-2.31C39.08,5.82,36.52,6,35.1,5.7a24.78,24.78,0,0,0,2.6-2.26A27.16,27.16,0,0,1,51.68,14.38ZM41,42a1,1,0,0,0-1,1v1.81a4.65,4.65,0,0,1-1.57,1.42c-3.41,1.7-7.06,3.62-5.62,7.39A6.41,6.41,0,0,1,30,48.76c0-4.7,1.78-7.13-2.2-9.12-2.71-1.36-4.83-6.2-3.14-8.17.95-.43,6.08-2.61,8.57-.11,3.3,3.28,9.59,2.27,9.59,4.23A19.72,19.72,0,0,1,41.5,42ZM13.86,17.61c1.24-4.06,2.13-7.42.19-11A26.69,26.69,0,0,1,35.51,2.81c-1.19,1-2.57,1.62-2.57,3.13,0,2.49,4.54,1.6,5.21,2.35a1.14,1.14,0,0,1-.16.5c-1.37,2.74-1.37,2.74-5.7,2.74-5.84,0-2.95,7.13-5.38,8.34-2.82,1.41-4.58-2.08-6.85.19s2.46,3.75,3.17,7.46c-2.84-2.45-9-4.78-10-5.82C12.76,21.23,13.35,19.31,13.86,17.61ZM2.66,34.9a11,11,0,0,1,5.87,3c6.34,6.34,7,7.05,1.53,7.52-2.64.23-2.2.35-2.39.08A26.56,26.56,0,0,1,2.66,34.9ZM9.39,47.53c2.13-.2,4.38-.24,5.49-1.35,2.67-2.67-1-5.73-4.94-9.65a13,13,0,0,0-7.65-3.72A26.91,26.91,0,0,1,12.4,7.74c1.46,2.94.6,5.81-.45,9.29C10.2,22.8,10.83,23,15.8,25.44c2.38,1.19,6.68,3.34,7.21,4.9-2.48,3.22.27,9.27,3.89,11.08,2.59,1.3,1.1,2.1,1.1,7.34a8.3,8.3,0,0,0,4.58,7A26.9,26.9,0,0,1,9.39,47.53ZM35,55.34c.81-1.33-.87-2.41-.39-3.83.6-1.8,4.3-3.12,5.41-3.9v6A26.47,26.47,0,0,1,35,55.34ZM62,62H42V44h6v4a1,1,0,0,0,1,1h6a1,1,0,0,0,1-1V44h6Z"/><path d="M48,58H45a1,1,0,0,0,0,2h3A1,1,0,0,0,48,58Z"/></g></svg>