<?xml version="1.0" encoding="utf-8"?>
<!-- Generator: Adobe Illustrator 25.2.3, SVG Export Plug-In . SVG Version: 6.00 Build 0)  -->
<svg version="1.1" id="Layer_1" xmlns="http://www.w3.org/2000/svg" xmlns:xlink="http://www.w3.org/1999/xlink" x="0px" y="0px"
	 viewBox="0 0 506 435" style="enable-background:new 0 0 506 435;" xml:space="preserve">
<style type="text/css">
	.st0{fill:#F27932;}
	.st1{fill:#C2D9F0;}
	.st2{fill:#F7C689;}
	.st3{fill:none;stroke:#C2D9F0;stroke-miterlimit:10;}
	.st4{fill:none;stroke:#F27932;stroke-miterlimit:10;stroke-dasharray:4;}
	.st5{fill:#FFFFFF;}
</style>
<path class="st0" d="M315.2,128.8L262,102.7c-2.6-1.3-5.6-1-7.9,0.7l-98.6,71.4c-2.3,1.7-3.5,4.5-3.1,7.3l7.9,56.8
	c0.2,1.3,0.7,2.4,1.4,3.5L285,412.8c2.5,3.4,7.3,4.2,10.8,1.7l142.2-103c3.4-2.5,4.2-7.3,1.7-10.8L315.2,128.8L315.2,128.8z"/>
<path class="st1" d="M443,164c5.2-1.5,10.3-3.8,14.9-6.9c-4.5-3.1-9.7-5.3-14.9-6.9c-5.4-1.5-9.5-6-10.9-11.7
	c-1.4-5.8-3.5-11.1-6.4-15.9c-2.9,4.9-5,10.4-6.4,15.9c-1.4,5.8-5.6,10.2-10.9,11.7c-5.2,1.5-10.3,3.8-14.9,6.9
	c4.5,3.1,9.7,5.3,14.9,6.9c5.4,1.5,9.5,6,10.9,11.7c1.4,5.5,3.5,11.1,6.4,15.9c2.9-4.9,5-10.4,6.4-15.9
	C433.5,170,437.6,165.6,443,164z"/>
<path class="st2" d="M122.9,243.4c3.9-1,7.7-2.8,11.2-5.1c-3.5-2.4-7.3-4-11.2-5.1c-4.1-1.2-7.1-4.5-8.3-8.8c-1-4.2-2.7-8.2-4.8-12
	c-2.1,3.7-3.8,7.8-4.8,12c-1.1,4.3-4.2,7.6-8.3,8.8c-3.9,1-7.7,2.8-11.2,5.1c3.5,2.4,7.3,4,11.2,5.1c4.1,1.2,7.1,4.5,8.3,8.8
	c1,4.2,2.7,8.2,4.8,12c2.1-3.7,3.8-7.8,4.8-12C115.7,247.9,118.8,244.5,122.9,243.4z"/>
<ellipse class="st3" cx="94.7" cy="97.2" rx="56.1" ry="60.1"/>
<path class="st2" d="M118.4,82.8c-2.5-6.2-9.3-8.8-15.1-6.2c-4.8,2.4-8.3,8.8-9.1,15c-3.9-4.6-9.9-8.2-15.3-7.3
	c-6.2,1.1-10.3,7.3-9.5,13.9c1,5.1,4.8,8.8,8.7,11.5c7,4.6,23.8,9.7,23.8,9.7c4.5-5.5,11.4-14.2,14.9-21.9
	C118.8,93,120.1,87.7,118.4,82.8z"/>
<path class="st2" d="M318.2,115.8L265,89.7c-2.6-1.3-5.6-1-7.9,0.7l-98.6,71.4c-2.3,1.7-3.5,4.5-3.1,7.3l7.9,56.8
	c0.2,1.3,0.7,2.4,1.4,3.5L288,399.8c2.5,3.4,7.3,4.2,10.8,1.7l142.2-103c3.4-2.5,4.2-7.3,1.7-10.8L318.2,115.8L318.2,115.8z"/>
<line class="st4" x1="169.9" y1="223.3" x2="312.1" y2="120.3"/>
<circle class="st5" cx="220.5" cy="142.5" r="10.5"/>
<path class="st0" d="M310.4,187.7L310.4,187.7c3.2,8.2,12.4,12.7,20.9,10l0,0c9-2.8,18.6,2.4,21.3,11.3c1.3,4.6,0.9,9.4-1.5,13.4
	l0,0c-4.4,7.7-2.2,17.5,5.2,22.5l0,0c7.8,5.3,9.7,15.9,4.4,23.7c-2.7,3.8-6.8,6.5-11.5,7.2l0,0c-8.8,1.3-15,9.3-14.4,18.1l0,0
	c0.7,9.4-6.3,17.5-15.8,18.3c-4.7,0.3-9.4-1.3-12.8-4.6l0,0c-6.5-6-16.6-6-23.1,0l0,0c-6.9,6.3-17.7,6-24.1-0.9
	c-3.2-3.5-4.9-8.1-4.6-12.8l0,0c0.6-8.8-5.6-16.8-14.4-18.1l0,0c-9.3-1.5-15.8-10.2-14.3-19.4c0.7-4.7,3.4-8.8,7.2-11.5l0,0
	c7.4-5,9.6-14.9,5.2-22.5l0,0c-4.7-8.2-1.8-18.6,6.3-23.3c4.1-2.4,8.8-2.8,13.4-1.5l0,0c8.5,2.7,17.7-1.8,20.9-10l0,0
	c3.4-8.8,13.4-13.1,22.1-9.7C305.1,179.8,308.6,183.3,310.4,187.7z"/>
<polygon class="st5" points="289.6,274.5 280.3,274.5 299.2,220.4 308.6,220.4 "/>
<path class="st5" d="M273.7,222.2c-6.3,0-11.5,5.2-11.5,11.5c0,6.3,5.2,11.5,11.5,11.5s11.5-5.2,11.5-11.5
	C285.2,227.3,280,222.2,273.7,222.2L273.7,222.2z M273.7,238.2c-2.5,0-4.6-2.1-4.6-4.6c0-2.5,2.1-4.6,4.6-4.6s4.6,2.1,4.6,4.6l0,0
	C278.4,236.2,276.2,238.2,273.7,238.2z"/>
<path class="st5" d="M315.2,251.6c-6.3,0-11.5,5.2-11.5,11.5c0,6.3,5.2,11.5,11.5,11.5c6.3,0,11.5-5.2,11.5-11.5l0,0
	C326.6,256.6,321.4,251.6,315.2,251.6z M315.2,267.7c-2.5,0-4.6-2.1-4.6-4.6c0-2.5,2.1-4.6,4.6-4.6c2.5,0,4.6,2.1,4.6,4.6l0,0
	C319.8,265.6,317.7,267.7,315.2,267.7L315.2,267.7z"/>
<path class="st3" d="M96.5,364.3l1.2-26l-21.8,13.9l-6.5-11.1l23-11.8l-23-11.8l6.5-11.1l21.8,14.2l-1.2-26h12.8l-1.2,26l21.9-14.3
	l6.5,11.1l-23.2,11.8l23.2,11.8l-6.5,11.2l-21.8-13.9l1.2,26H96.5L96.5,364.3z"/>
</svg>
