<?xml version="1.0" encoding="utf-8"?>
<!-- Generator: Adobe Illustrator 25.2.3, SVG Export Plug-In . SVG Version: 6.00 Build 0)  -->
<svg version="1.1" id="Layer_1" xmlns="http://www.w3.org/2000/svg" xmlns:xlink="http://www.w3.org/1999/xlink" x="0px" y="0px"
	 viewBox="0 0 893.3 527.6" style="enable-background:new 0 0 893.3 527.6;" xml:space="preserve">
<style type="text/css">
	.st0{fill:#F6A561;}
	.st1{fill:#F27932;}
	.st2{fill:#FBD7AD;}
	.st3{fill:#F7C689;}
	.st4{fill:none;stroke:#B9C6E4;stroke-miterlimit:10;}
	.st5{fill:none;stroke:#495894;stroke-miterlimit:10;}
	.st6{fill:none;stroke:#B9C6E4;stroke-width:1.0001;stroke-miterlimit:10.0001;}
	.st7{fill:#B9C6E4;}
	.st8{fill:none;stroke:#F27932;stroke-miterlimit:10;}
	.st9{fill:#495894;}
	.st10{fill:#C2D9F0;}
	.st11{fill:#FBD7AD;stroke:#F27932;stroke-miterlimit:10;}
	.st12{fill:#FFFFFF;stroke:#EF749B;stroke-miterlimit:10;}
	.st13{fill:#4B4065;}
	.st14{opacity:0.38;fill:#495894;enable-background:new    ;}
	.st15{opacity:0.44;fill:#495894;enable-background:new    ;}
	.st16{fill:#FFFFFF;}
	.st17{fill:#F7C689;stroke:#F27932;stroke-miterlimit:10;}
	.st18{opacity:0.23;fill:#495894;enable-background:new    ;}
	.st19{opacity:0.26;fill:#F27932;enable-background:new    ;}
	.st20{opacity:0.46;fill:none;stroke:#EF749B;stroke-miterlimit:10;enable-background:new    ;}
	.st21{fill:#EF749B;}
	.st22{fill:none;stroke:#EF749B;stroke-miterlimit:10;}
	.st23{fill:none;stroke:#EF749B;stroke-width:2;stroke-miterlimit:10;}
	.st24{fill:none;stroke:#495894;stroke-linecap:round;stroke-linejoin:round;}
</style>
<polygon class="st0" points="650.7,175 716.7,175 650.4,139.2 584.3,139.2 "/>
<path class="st1" d="M650.4,175.1c0,18.3,14.9,33.2,33.2,33.1c18.3,0,33.1-14.8,33.1-33.1"/>
<polygon class="st2" points="584.5,175 650.5,175 584.2,139.2 518.1,139.2 "/>
<path class="st3" d="M584.2,175.1c0,18.3,14.8,33.2,33.1,33.2s33.2-14.8,33.2-33.1c0,0,0,0,0-0.1"/>
<polygon class="st0" points="518.3,175 584.3,175 518,139.2 451.9,139.2 "/>
<path class="st1" d="M518,175.1c0,18.3,14.8,33.2,33.2,33.2c18.3,0,33.2-14.8,33.2-33.2l0,0"/>
<polygon class="st2" points="452.1,175 518.1,175 451.8,139.2 385.7,139.2 "/>
<path class="st3" d="M451.8,175.1c0,18.3,14.9,33.2,33.2,33.2c18.3,0,33.2-14.9,33.2-33.2"/>
<polygon class="st0" points="385.9,175 451.9,175 385.6,139.2 319.5,139.2 "/>
<path class="st1" d="M385.6,175.1c0.3,18.3,15.4,32.9,33.8,32.6c17.9-0.3,32.3-14.7,32.6-32.6"/>
<polygon class="st2" points="319.7,175 385.7,175 319.4,139.2 253.3,139.2 "/>
<path class="st3" d="M319.4,175.1c0,18.3,14.8,33.2,33.2,33.2c18.3,0,33.2-14.8,33.2-33.2l0,0"/>
<polygon class="st0" points="256,175 322,175 255.7,139.2 189.6,139.2 "/>
<path class="st1" d="M255.7,175.1c0,18.3,14.9,33.2,33.2,33.2s33.2-14.9,33.2-33.2l0,0"/>
<polygon class="st2" points="189.8,175 255.8,175 189.5,139.2 123.5,139.2 "/>
<path class="st3" d="M189.5,175.1c0.3,18.3,15.4,32.9,33.8,32.6c17.9-0.3,32.3-14.7,32.6-32.6"/>
<path class="st4" d="M761.4,202.6l0.9-20.4l-17.1,10.9l-5.1-8.7l18-9.3l-18-9.3l5.1-8.7l17.1,11.1l-0.9-20.4h10l-0.9,20.4l17.1-11.1
	l5.1,8.7l-18.2,9.3l18.2,9.3l-5.1,8.7l-17.1-10.9l0.9,20.4H761.4z"/>
<circle class="st5" cx="165.6" cy="375.7" r="13"/>
<circle class="st1" cx="201.4" cy="366" r="4.3"/>
<rect x="427.5" y="305.1" transform="matrix(0.9301 -0.3672 0.3672 0.9301 -95.2948 199.1881)" class="st6" width="96.7" height="89.9"/>
<circle class="st7" cx="471.1" cy="342.4" r="20.2"/>
<line class="st4" x1="455.5" y1="391.7" x2="482.4" y2="381.1"/>
<line class="st4" x1="451.8" y1="382.4" x2="498.6" y2="364"/>
<line class="st4" x1="489.2" y1="308.4" x2="503.3" y2="302.9"/>
<path class="st8" d="M491.3,454.1H124.8V109.9c0-8.2,6.6-14.8,14.8-14.8h297.8"/>
<path class="st9" d="M574.2,216.1c-1.8-0.4-2.4-3.7-1.8-5.5c1.1-3,2.8-4.2,5.4-6c3.7-2.4,8-3.7,12.3-3.9c4.3-0.1,8.7,0.1,13,0.7
	c2-7.8,8.3-14.1,15.9-16.8c2.6-1.1,5.5-1.3,8.2-0.5c3.8,1.3,6.2,5.5,5.9,9.5c-0.5,4.1-2.9,7.6-6.6,9.4c-5.1,2.7-11.2,2-16.8,1.2
	c-0.1,1.3-0.3,2.7-0.5,4c0.7,1,1.5,2.4,2.1,3.4c1,1.6,1.6,3.4,3,4.6c1.4,1.2,2.8,2.5,4,3.9c1.4,1.9,2,4.2,1.8,6.4L574.2,216.1z"/>
<path class="st10" d="M607.5,273.5l-17.4,41.4l-59.9,9.8l-13.2-2.5l7.2,17.3l-20.4,3.5l-8.9,12.5c0,0,6.3,3.8,13.6-5.4
	c0,0,20.4,6.4,28.2,1.4l63.3-6.2c5.7-0.6,10.9-3.8,13.8-8.8l23.8-40.6C637.5,295.9,612.5,291.6,607.5,273.5z"/>
<rect x="534.8" y="380.4" class="st11" width="102.4" height="118.7"/>
<rect x="573.1" y="380.4" class="st3" width="25.7" height="29.8"/>
<polygon class="st10" points="719.7,451.5 719.7,474.1 745.8,481.9 766.4,475.6 762.3,451.5 "/>
<path class="st7" d="M616.8,248.6c-4,7.9-10.2,21.9-10.7,23.6c1.9,6.4,7.4,13.8,12.8,17.7c5.4,3.9,12,6,18.7,5.9
	c2-4.3,4.4-8.3,6.4-12.6"/>
<polygon class="st10" points="682.6,230.1 693.8,228.3 693.8,266.4 689,267.9 "/>
<path class="st10" d="M588.6,203c-8.3,1.1-15.1,3.7-16,12.6s-1.2,27.7,8,28s19.3-7,19.3-7l19.7,23.4c0,0,11.5-4.4,10.6-24.1
	l-19.1-17.2C611.2,218.6,612.2,199.8,588.6,203z"/>
<path class="st10" d="M607.2,217.8c0.1-1.8,0.9-3.5,2.1-4.8c1.2-1.3,3-2,4.8-1.9c2.2,0.3,4.1,1.8,4.8,3.9c0.7,2.1,0.2,4.5-1.2,6.2
	s-3.5,2.7-5.7,2.8"/>
<path class="st12" d="M805.6,370c4.4-2.6,10.1,1.1,12.2,5.8s2,10,3.5,14.8c2.6,9.1,10.1,15.7,16,23.1c4.9,6.1,9,16.9,8,25.2
	c-0.2,1.7-1.9,2.9-3.6,2.7c-0.5-0.1-1-0.3-1.4-0.6c-3.1-2.3-7.5-5.6-9.8-7.5c-8.3-6.9-16.7-13.8-25-20.7"/>
<path class="st9" d="M581.4,207c2.1,0.3,4,1.6,5,3.5c1,1.8,2.1,4.4,4.5,4.4c1.8,0,3.2-1.6,5-1.9c1.5-0.2,2.9,0.3,4,1.4
	c1.1,1,2.1,2.1,3,3.2c0.9,1,2.3,1.9,3.5,1.5c0.9-0.5,1.7-1.3,2-2.2c1-2,2-4.1,1.7-6.2c-0.3-1.8-1.4-3.4-2.9-4.5
	c-1.5-1-3.2-1.8-5-2.3c-4.7-1.6-9.6-2.3-14.6-1.9c-4.9,0.4-9.6,2.4-13.2,5.9c-0.9,0.8-1.6,1.8-2,2.9c-0.5,1.6,0.7,1.9,1,1.4
	C576,207.8,579.4,206.8,581.4,207z"/>
<path class="st7" d="M629.2,235.6l53.3-5.5l6.5,37.8c0,0-39.5,18.4-49.2,17.7S618.6,260,618.6,260S629,257.9,629.2,235.6z"/>
<path class="st10" d="M674.4,255.2l15.7,33.7c2.3,4.8,2,10.4-0.8,14.9c-12.2,19.7-45.6,70-49.3,70.8l-16.7-19.2l32.2-62.5L640,269.7
	"/>
<path class="st10" d="M623.2,355.5c0,0-20.3,7.2-21.3,10s-3.1,25.5-1.7,25.8s2.9-1.6,3.2-3.7c0,0-0.3,3.1,2.8,1.1s6.9-12.7,6.9-12.7
	s10.7,5.7,17,3.9c3.6-1,6.9-2.7,9.7-5.1"/>
<path class="st10" d="M603.6,374.9c0,0-19.9,11.2-20.7,8.5s19-17.9,19-17.9"/>
<path class="st9" d="M693.8,228.3c0,0,45-7,57.5,3c11.2,9.1,17.4,23.8,21,87.9s7.2,134.9,7.2,134.9h-80l8.2-68.2L698,374
	c-2.6-3.2-3.8-7.4-3.1-11.5l13.3-80.2l-14.4-15.9V228.3z"/>
<polyline class="st13" points="707.6,385.9 714.7,273.5 698,374 "/>
<polyline class="st9" points="778,426.1 804.5,441.7 807.2,355.5 773.2,335.9 "/>
<polygon class="st13" points="779.5,339.5 791.4,434 778,426.1 773.2,335.9 "/>
<polygon class="st14" points="599.9,236.6 607.2,231.3 603.6,240.9 "/>
<path class="st15" d="M615.8,222.8c-1,0.7-2.1,1.1-3.3,1.1l5.3,0.7L615.8,222.8z"/>
<path class="st7" d="M634.3,260c2.1,3.7,7,12.7,9.1,16.4c20.4,1.4,31.5-6.6,34.2-13.4l-3.5-14.4"/>
<path class="st5" d="M577,223.2c-0.5,0.6-0.8,1.2-1.1,1.9c-0.2,0.7-0.2,1.5,0.2,2.1c0.4,0.7,1.2,1,1.9,0.8"/>
<path class="st5" d="M575,232c3,0.9,6.2,0,8.3-2.2"/>
<path class="st16" d="M592.7,216.9c-3.1-2.3-7.5-1.6-9.8,1.6c-0.8,1.1-1.3,2.5-1.3,3.9c2.2,1,4.9,1.5,7.2,0.6S593,219.3,592.7,216.9
	z"/>
<path class="st9" d="M582.2,221.9c0.4-3.7,3.7-6.4,7.4-6c1.2,0.1,2.4,0.6,3.4,1.3c0.4,0.3,0.8-0.4,0.4-0.6c-3.3-2.4-8-1.7-10.5,1.6
	c-0.8,1.1-1.3,2.4-1.4,3.7C581.4,222.3,582.2,222.3,582.2,221.9z"/>
<path class="st9" d="M581.7,222c0,0.1,0.1,0.1,0.1,0.1c0.5,0.7,4.1,1.5,5.9-0.5c1.2-1.4,1.3-5,0.7-6c-1.7,0-3.5,1.2-4.7,2.3
	C583,218.6,581.1,221,581.7,222z"/>
<path class="st9" d="M590.5,211.7c-3.5-1.6-6.9-0.2-9.1,3L590.5,211.7z"/>
<path class="st16" d="M609.3,208.3c0.9-1.1,1.5-2.4,1.9-3.8c-2.3-1.8-4.5-4.2-6.8-6.5c-1.1,0.9-2,2-2.5,3.3
	C603.6,204.1,606.3,206.3,609.3,208.3z"/>
<path class="st9" d="M655.9,293.6l7.1-1.8c0.3-0.1,0.4-0.4,0.4-0.6s-0.4-0.4-0.6-0.4l-7.1,1.8C655,292.7,655.3,293.7,655.9,293.6z"
	/>
<path class="st9" d="M590.4,315.9l4.7,4.6c0.5,0.5,1.2-0.3,0.7-0.7l-4.7-4.6C590.6,314.8,589.9,315.5,590.4,315.9z"/>
<path class="st12" d="M714.7,462.2v7.4l-35.3,15.2c-1,0.4-1.7,1.5-1.7,2.6l0,0c0,1.6,1.3,2.8,2.8,2.8c0.1,0,0.1,0,0.2,0l87.7-4.2
	l-3-12.6c0,0-21.3,8.2-28.8,3S722.6,460.4,714.7,462.2z"/>
<circle class="st17" cx="151.8" cy="119.4" r="5.6"/>
<circle class="st17" cx="185.3" cy="119.4" r="5.6"/>
<circle class="st17" cx="218.8" cy="119.4" r="5.6"/>
<path class="st5" d="M610.8,218.9l4.5-3.8"/>
<rect x="272.1" y="431.5" class="st11" width="102.4" height="67.6"/>
<rect x="254" y="350" class="st11" width="102.4" height="81.5"/>
<rect x="157.3" y="237.3" class="st4" width="96.7" height="89.9"/>
<circle class="st7" cx="204.1" cy="273.4" r="20.2"/>
<line class="st4" x1="171.4" y1="313.5" x2="200.4" y2="313.5"/>
<line class="st4" x1="171.4" y1="303.5" x2="221.7" y2="303.5"/>
<line class="st4" x1="233.4" y1="248.4" x2="248.5" y2="248.4"/>
<rect x="283.2" y="237.3" class="st4" width="96.7" height="89.9"/>
<circle class="st7" cx="329.9" cy="273.4" r="20.2"/>
<line class="st4" x1="297.3" y1="313.5" x2="326.2" y2="313.5"/>
<line class="st4" x1="297.3" y1="303.5" x2="347.6" y2="303.5"/>
<line class="st4" x1="359.3" y1="248.4" x2="374.4" y2="248.4"/>
<path class="st18" d="M627,282c3,4.5,7.3,8,12.4,10c1.5-2.9,3.1-5.8,4.5-8.8l-7.5-9.6l-17.6-13.4C620.7,267.8,622.7,275.5,627,282z"
	/>
<path class="st7" d="M629.2,235.6l53.3-5.5l6.5,37.8c0,0-39.5,18.4-49.2,17.7S618.6,260,618.6,260S629,257.9,629.2,235.6z"/>
<polygon class="st19" points="254,431.5 283.2,431.5 272.1,396.7 254,396.7 "/>
<path class="st18" d="M677.6,263c0,0-4-20.7-3.1-20.2s14.5,25.1,14.5,25.1l-7,3.2L677.6,263z"/>
<rect x="169.8" y="396.7" class="st11" width="102.4" height="102.4"/>
<rect x="208.1" y="397.7" class="st3" width="25.7" height="29.8"/>
<rect x="292.4" y="351.1" class="st3" width="25.7" height="29.8"/>
<rect x="310.4" y="432.5" class="st3" width="25.7" height="29.8"/>
<path class="st20" d="M644,55.5H470.7v50.3h29l3.1,5.4l4,6.9c0.9,1.6,3,2.2,4.6,1.2c0.5-0.3,0.9-0.7,1.2-1.2l4-6.9l3.1-5.4h124.2
	L644,55.5L644,55.5z"/>
<path class="st21" d="M502.7,67.1L502.7,67.1c7.5,0,13.5,6.1,13.5,13.5l0,0c0,7.5-6.1,13.5-13.5,13.5l0,0c-7.5,0-13.5-6.1-13.5-13.5
	l0,0C489.1,73.2,495.2,67.1,502.7,67.1z"/>
<line class="st22" x1="529.4" y1="73.3" x2="612.5" y2="73.3"/>
<line class="st22" x1="529.4" y1="87.7" x2="571.7" y2="87.7"/>
<polygon class="st19" points="374.5,444.5 272.1,431.5 374.5,431.5 "/>
<path class="st1" d="M369.7,344.4c1.6-0.4,3.2-1.1,4.6-2c-1.4-0.9-3-1.6-4.6-2c-1.7-0.4-3-1.7-3.4-3.4c-0.4-1.6-1.1-3.2-2-4.6
	c-0.9,1.4-1.6,3-2,4.6c-0.4,1.7-1.8,3-3.4,3.4s-3.2,1.1-4.6,2c1.4,0.9,3,1.6,4.6,2c1.7,0.4,3,1.8,3.4,3.4s1.1,3.2,2,4.6
	c0.9-1.4,1.6-3,2-4.6C366.7,346.1,368,344.8,369.7,344.4z"/>
<line class="st8" x1="534.8" y1="380.4" x2="502.7" y2="434"/>
<path class="st5" d="M603.4,388.6l3-16c0.1-0.8,0.7-1.5,1.5-1.7l10.7-2.9"/>
<path class="st9" d="M599.6,377.1l0.8-0.4c0.1-3.7,0.7-7.4,1.6-11.1v-0.1c0,0,0.1-0.1-3.1,2.5L599.6,377.1z"/>
<polygon class="st9" points="517,322.2 517,340.7 524.2,339.5 "/>
<polygon class="st9" points="719.7,457.4 764.1,462 762.8,454.1 719.7,454.1 "/>
<path class="st10" d="M47.4,73.9h219.9c-8.6-9.8-23.1-13.3-35.9-10.5c-6.4-5.3-12.9-11.1-19.3-16.5c-7.5-6.3-15.1-12.6-24.2-16.2
	s-20-4-28.1,1.3s-12,17.4-6.5,25.4c-4.8-4.5-23.9-17.2-36.3-3.5c-3.5,3.9-3.1,10.3-6.7,14.2c-5.4,5.8-22.2,1.9-30.1,0.8
	C56.7,65.7,61,73.9,47.4,73.9z"/>
<polyline class="st23" points="109.7,354.1 136.5,362.9 136.5,328.8 161.3,350.9 182.7,321.9 "/>
<path class="st9" d="M572.5,217.6l2.2-0.4c-0.7-0.4-1.4-0.8-2.1-0.9C572.5,216.7,572.5,217.1,572.5,217.6z"/>
<path class="st16" d="M572.3,219.9c0.7,0.2,1.3,0.7,1.6,1.3l-1.8,3.1"/>
<line class="st8" x1="637.1" y1="380.4" x2="662.9" y2="439.7"/>
<path class="st24" d="M572.3,219.7c0.7,0.2,1.3,0.7,1.6,1.4"/>
<polygon class="st9" points="809.7,369.2 814.4,420.3 805.4,412.9 806.7,369.5 "/>
<line class="st8" x1="123.5" y1="139.2" x2="650.4" y2="139.2"/>
</svg>
