<?xml version="1.0" encoding="utf-8"?>
<!-- Generator: Adobe Illustrator 25.2.3, SVG Export Plug-In . SVG Version: 6.00 Build 0)  -->
<svg version="1.1" id="Layer_1" xmlns="http://www.w3.org/2000/svg" xmlns:xlink="http://www.w3.org/1999/xlink" x="0px" y="0px"
	 viewBox="0 0 444 540" style="enable-background:new 0 0 444 540;" xml:space="preserve">
<style type="text/css">
	.st0{fill:#C2D9F0;}
	.st1{fill:#FFFFFF;stroke:#B9C6E4;stroke-miterlimit:10;}
	.st2{fill:#FFFFFF;stroke:#EF749B;stroke-miterlimit:10;}
	.st3{fill:none;stroke:#EF749B;stroke-miterlimit:10;}
	.st4{fill:#FFFFFF;}
	.st5{fill:#FBD7AD;}
	.st6{opacity:0.37;fill:#F27932;enable-background:new    ;}
	.st7{fill:#FFFFFF;stroke:#F7C689;stroke-miterlimit:10;}
	.st8{fill:none;stroke:#B9C6E4;stroke-miterlimit:10;}
	.st9{fill:#F27932;}
	.st10{fill:none;stroke:#4B4065;stroke-width:2;stroke-miterlimit:10;}
	.st11{fill:none;stroke:#4B4065;stroke-width:0.75;stroke-miterlimit:10;}
	.st12{fill:#B9C6E4;stroke:#495894;stroke-miterlimit:10;}
	.st13{opacity:0.46;fill:#EF749B;enable-background:new    ;}
	.st14{fill:#FFFFFF;stroke:#F27932;stroke-miterlimit:10;}
	.st15{fill:#B9C6E4;}
	.st16{fill:#495894;}
	.st17{fill:#4B4065;}
	.st18{fill:#F7C689;stroke:#F27932;stroke-miterlimit:10;}
	.st19{clip-path:url(#SVGID_2_);}
	.st20{fill:none;stroke:#F27932;stroke-miterlimit:10;}
	.st21{fill:none;stroke:#4B4065;stroke-linecap:round;stroke-linejoin:round;stroke-miterlimit:10;}
	.st22{clip-path:url(#SVGID_4_);}
	.st23{fill:none;stroke:#FFFFFF;stroke-miterlimit:10;}
	.st24{opacity:0.21;fill:#EF749B;enable-background:new    ;}
	.st25{opacity:0.43;fill:#495894;enable-background:new    ;}
	.st26{opacity:0.32;fill:#F7C689;enable-background:new    ;}
</style>
<polygon class="st0" points="53.4,469.4 77.9,332 186.5,332 209.9,469.4 "/>
<path class="st1" d="M106.8,330.8c0-13.7,11.1-24.8,24.8-24.8s24.8,11.1,24.8,24.8"/>
<polygon class="st2" points="137.1,501.7 152.3,416.3 219.8,416.3 234.4,501.7 "/>
<path class="st3" d="M170.3,415.5c0-8.5,6.9-15.4,15.4-15.4s15.4,6.9,15.4,15.4"/>
<path class="st4" d="M149.1,402.9c1.8-0.5,3.6-1.2,5.2-2.2c-1.6-1-3.4-1.8-5.2-2.2c-1.9-0.5-3.3-2-3.8-3.8c-0.5-1.9-1.2-3.6-2.2-5.2
	c-1,1.6-1.8,3.4-2.2,5.2c-0.5,1.9-2,3.3-3.8,3.8c-1.9,0.5-3.6,1.2-5.2,2.2c1.6,1,3.4,1.8,5.2,2.2c1.9,0.5,3.3,2,3.8,3.9
	c0.5,1.8,1.2,3.6,2.2,5.2c1-1.6,1.8-3.4,2.2-5.2C145.7,404.9,147.2,403.4,149.1,402.9z"/>
<circle class="st4" cx="115.5" cy="425.4" r="2.5"/>
<rect x="23.4" y="404" class="st5" width="88" height="76.4"/>
<polygon class="st6" points="23.4,419.6 111.4,424.7 111.4,416.3 23.4,416.3 "/>
<path class="st4" d="M80.4,416.3c0,7-5.6,12.6-12.6,12.6s-12.6-5.6-12.6-12.6"/>
<rect x="19.8" y="400.5" class="st7" width="94.5" height="15.8"/>
<rect x="41.5" y="452.7" class="st4" width="52.6" height="8.9"/>
<line class="st8" x1="189.4" y1="176.4" x2="207.4" y2="176.4"/>
<path class="st9" d="M120,66.4c2-0.5,3.9-1.3,5.6-2.4c-1.7-1.1-3.6-1.9-5.6-2.4s-3.6-2.1-4.1-4.1s-1.3-3.9-2.4-5.6
	c-1.1,1.7-1.9,3.6-2.4,5.6s-2.1,3.6-4.1,4.1s-3.9,1.3-5.6,2.4c1.7,1.1,3.6,1.9,5.6,2.4s3.6,2.1,4.1,4.1s1.3,3.9,2.4,5.6
	c1.1-1.7,1.9-3.6,2.4-5.6S118,67,120,66.4z"/>
<circle class="st10" cx="414" cy="307.3" r="6.4"/>
<line class="st11" x1="145.9" y1="128.6" x2="134.4" y2="137.7"/>
<path class="st0" d="M235.5,51.4c0,0-1.1,32.3,1.7,37.6c2.3,4.7,7.6,7.1,12.6,5.8l0.7,17.4c0,0,15.9,22,34.8-2.2l-2.4-28.9
	c0,0,4.2,2.8,8.9-5.4s0.1-19.6-8.2-12l-1.7,1.6l-0.5-11.6L235.5,51.4z"/>
<path class="st12" d="M232.4,52.2c0,0-1.2-7.1,2.8-12.4s24-12.3,34.9-8.3s11.6,17.4,11.8,22.7L232.4,52.2z"/>
<rect x="232.7" y="478.1" class="st0" width="31.3" height="33.7"/>
<rect x="320.9" y="478.1" class="st0" width="31.3" height="33.7"/>
<path class="st13" d="M208.4,124.5c0,0,8.5-11.9,18.5-16.5l23.2-6.4l0.3,8.1c0,0,18.2,13.8,34.2-1.6v-7.3c0,0,34.1,10.4,46.2,21.2
	c8.2,7.3,21.3,45,21.3,45l-34.4,8.1l-84.6,0.4v72H224l-1.8-71.9"/>
<path class="st0" d="M175.4,208.6l18.2,28c3.6,5.5,9.6,8.8,16.2,8.8l0,0c5.3,0,10.3-2.1,13.9-5.9l2.7-66.2l-4.2,2.3l-8-34.6
	L175.4,208.6z"/>
<path class="st14" d="M130.8,121l20.3,85c1.4,6,7.5,9.8,13.5,8.3c0.3-0.1,0.6-0.2,0.9-0.3l51.7-17c5.6-1.8,8.8-7.7,7.4-13.4l-21-84
	c-1.5-6-7.6-9.7-13.6-8.2c-0.2,0.1-0.4,0.1-0.6,0.2l-51,16C132.8,109.4,129.5,115.2,130.8,121z"/>
<polygon class="st3" points="198.1,143.5 159.7,158.9 153.1,133.5 191,117.9 "/>
<polygon class="st15" points="198.2,154.9 165.1,168 164.5,165.6 197.5,152.5 "/>
<polygon class="st15" points="195.3,163.9 171.6,173.2 171,170.7 194.7,161.4 "/>
<polygon class="st16" points="153.8,149.5 148.5,158.9 145,181.2 139.3,157.7 "/>
<path class="st0" d="M145,181.2c-1-1-6.9-7.6-11.3-12.5c-3.2-3.5-5.2-8-5.6-12.7l-1.2-13c-0.4-4.5,1.8-8.8,5.7-11l12.2-6.9
	c1.7-0.9,3.8-0.4,4.7,1.3c0.1,0.1,0.1,0.3,0.2,0.4l0.2,0.5c0.5,1.2,0.3,2.5-0.5,3.4l-3.5,4.4l6.4-3.4c1.8-0.7,3.7,0.1,4.5,1.9
	l0.2,0.4c0.6,1.3,0.2,2.9-0.9,3.9l-9.7,8.3l2.8-1.4c1.7-0.8,3.8-0.1,4.6,1.6l0,0l0,0c0.7,1.5,0.2,3.3-1.1,4.2
	c-2.9,2.1-7.4,5.6-7.6,6c-0.2,0.7-2.6,14.3-2.6,14.3L145,181.2z"/>
<line class="st11" x1="210.3" y1="199.3" x2="216.9" y2="212.8"/>
<polygon class="st17" points="233.8,253.7 226.4,486.7 265.9,486.7 277.8,324.7 318.7,486.7 356.4,486.7 315.6,253.8 "/>
<path class="st16" d="M266.1,504.6c0,0-24.5,5.6-28.4-5.5s-4.2-10.5-8.5-11l-1.2,6.3l-20.2,10.2l-26.9,11v5.5H266v-16.5H266.1z"/>
<rect x="233.2" y="175.5" class="st18" width="107.3" height="78.2"/>
<rect x="253" y="176.1" class="st4" width="22.5" height="25.5"/>
<g>
	<g>
		<g>
			<g>
				<defs>
					<rect id="SVGID_1_" x="297.5" y="175.1" width="43.4" height="78.6"/>
				</defs>
				<clipPath id="SVGID_2_">
					<use xlink:href="#SVGID_1_"  style="overflow:visible;"/>
				</clipPath>
				<g class="st19">
					<line class="st20" x1="235.1" y1="241.7" x2="366.3" y2="110.5"/>
					<line class="st20" x1="239.9" y1="246.5" x2="371.2" y2="115.3"/>
					<line class="st20" x1="244.7" y1="251.3" x2="376" y2="120.1"/>
					<line class="st20" x1="249.5" y1="256.1" x2="380.8" y2="124.9"/>
					<line class="st20" x1="254.3" y1="260.9" x2="385.6" y2="129.7"/>
					<line class="st20" x1="259.1" y1="265.7" x2="390.4" y2="134.5"/>
					<line class="st20" x1="263.9" y1="270.5" x2="395.2" y2="139.3"/>
					<line class="st20" x1="268.7" y1="275.4" x2="400" y2="144.1"/>
					<line class="st20" x1="273.5" y1="280.2" x2="404.8" y2="148.9"/>
					<line class="st20" x1="278.3" y1="284.9" x2="409.6" y2="153.7"/>
					<line class="st20" x1="283.2" y1="289.8" x2="414.4" y2="158.5"/>
					<line class="st20" x1="288" y1="294.6" x2="419.2" y2="163.3"/>
					<line class="st20" x1="292.8" y1="299.4" x2="424" y2="168.1"/>
					<line class="st20" x1="297.6" y1="304.2" x2="428.8" y2="172.9"/>
					<line class="st20" x1="302.4" y1="309" x2="433.6" y2="177.7"/>
					<line class="st20" x1="307.2" y1="313.8" x2="438.4" y2="182.6"/>
					<line class="st20" x1="312" y1="318.6" x2="443.2" y2="187.4"/>
					<line class="st20" x1="316.8" y1="323.4" x2="448" y2="192.2"/>
					<line class="st20" x1="321.6" y1="328.2" x2="452.8" y2="197"/>
					<line class="st20" x1="326.4" y1="333" x2="457.7" y2="201.8"/>
					<line class="st20" x1="331.2" y1="337.8" x2="462.5" y2="206.6"/>
					<line class="st20" x1="336" y1="342.6" x2="467.3" y2="211.4"/>
				</g>
			</g>
		</g>
	</g>
</g>
<rect x="297.5" y="175.5" class="st20" width="42.9" height="78.2"/>
<path class="st0" d="M347.8,168l11.9,73c1.2,8.6-3,17-10.6,21.3c-8.7,4.9-18.8,10.6-19,10.9c-0.3,0.6-13.7-7.1-17.9-19.5h14.3l7-9.7
	l-15.7-68.9L347.8,168z"/>
<path class="st17" d="M235,59.5h-18.1c0,0-0.2-7.2,15.9-7.2l2.6,0.1L235,59.5z"/>
<path class="st16" d="M358.1,506.8c-2-4.3-5.5-16-5.5-16h-32.1c0,0-3.5,11.8-5.5,16s-1.5,11.2-1.5,11.2c10.6,6.5,40.7,4.7,46.2,0
	C359.7,518,360.1,511.1,358.1,506.8z"/>
<line class="st3" x1="306.9" y1="174.1" x2="302.2" y2="131"/>
<path class="st16" d="M282,65.3l-0.5-11.2c0-0.3-14.8-0.7-16.4-0.8c0.1,3.1,1.4,6.1,3.5,8.4c1.7,1.5,3.8,2.7,5.9,3.5l3.9,1.7
	C280.5,67.8,280.8,67.4,282,65.3L282,65.3z"/>
<path class="st21" d="M282.5,74.2l7.3-5.4"/>
<path class="st17" d="M242.4,81.5c4.2,0.7,8.5-0.4,11.9-3c0.4-0.3-0.2-0.8-0.5-0.5c-3.2,2.5-7.2,3.5-11.1,2.8
	C242.1,80.7,241.9,81.4,242.4,81.5L242.4,81.5z"/>
<g>
	<g>
		<g>
			<g>
				<defs>
					<path id="SVGID_3_" d="M235.5,52c0,0-2.1,34.6,0.8,40c4.4,8.2,13.6,3.5,13.6,3.5l0.6,17.3c0,0,15.9,22,34.8-2.2l-2.4-29
						c0,0,4.2,2.8,8.9-5.4s0.1-19.6-8.2-12l-1.7,1.6l-0.5-11.6L235.5,52z"/>
				</defs>
				<clipPath id="SVGID_4_">
					<use xlink:href="#SVGID_3_"  style="overflow:visible;"/>
				</clipPath>
				<g class="st22">
					<path class="st4" d="M222.7,66.8c2.7-4,8.1-5,12-2.4c1.5,1,2.6,2.4,3.3,4.1C232.5,71.2,226.5,71.4,222.7,66.8z"/>
				</g>
			</g>
		</g>
	</g>
</g>
<polygon class="st17" points="249.8,95.4 260.6,90.6 250.1,102.2 "/>
<path class="st16" d="M247.9,52.7l-12.4-0.3c0,0.1,0,0.2-0.1,0.2c-1.7,0.8-3.3,2-4.5,3.5c-1.2,1.8-1.5,4.1-0.8,6.1
	c1,2.1,2.8,3.5,5.1,4c0.1,0,0-3.2,0-3.5c0.2-1.4,0.5-2.8,1.9-3.2c1.4-0.4,2.9,0.1,4.3,0.2c4.2,0.1,5.5-3.6,6.7-6.8
	C248.1,52.9,248,52.7,247.9,52.7z"/>
<path class="st4" d="M260.3,67.1c-2.7-3.6-7.7-4.4-11.3-1.7c-1.4,1-2.4,2.4-2.9,4C251.2,71.6,256.3,70.1,260.3,67.1z"/>
<path class="st17" d="M242.4,70c-0.6,1-0.9,2.2-0.7,3.4c0.2,1,0.9,1.7,1.8,2c0.5,0.1,0.7-0.6,0.2-0.7c-0.7-0.2-1.2-0.8-1.3-1.5
	c0-1,0.2-1.9,0.7-2.8c0.1-0.2,0-0.4-0.1-0.5C242.7,69.8,242.5,69.8,242.4,70L242.4,70L242.4,70z"/>
<path class="st17" d="M260.6,60.6c-3.1-1.7-6.9-1.6-10,0.1C253.9,60.6,257.3,60.6,260.6,60.6z"/>
<path class="st17" d="M260.8,60.2c-3.3-1.7-7.2-1.7-10.4,0.1c-0.2,0.1-0.2,0.3-0.1,0.5c0.1,0.1,0.2,0.2,0.3,0.2c3.3,0,6.7,0,10-0.1
	c0.2,0,0.3-0.2,0.3-0.4c0-0.2-0.2-0.3-0.3-0.3c-3.3,0-6.7,0.1-10,0.1l0.2,0.7c3-1.6,6.6-1.7,9.6-0.1
	C260.9,61.1,261.2,60.5,260.8,60.2z"/>
<path class="st17" d="M254.5,70c0-1.1-0.3-2.2-1-3.1c-0.9-1.1-2.2-1.8-3.7-2c-1.8,1-3.1,2.6-3.8,4.5C248.7,70.5,251.7,70.8,254.5,70
	z"/>
<line class="st11" x1="150" y1="143.7" x2="135.6" y2="155.2"/>
<line class="st23" x1="277.8" y1="324.7" x2="264.2" y2="280"/>
<line class="st23" x1="301" y1="262.3" x2="317.3" y2="280.5"/>
<rect x="269.6" y="48.1" class="st23" width="12.1" height="5.3"/>
<line class="st11" x1="147.1" y1="134.1" x2="132.7" y2="145.6"/>
<polygon class="st9" points="313.5,175.2 323.6,247.4 312.1,253.7 326.4,253.7 333.4,244 317.7,175.1 "/>
<polygon class="st17" points="282.9,81.1 277.8,80.4 283.2,85 "/>
<line class="st23" x1="266.9" y1="288.6" x2="256.3" y2="288.6"/>
<circle class="st4" cx="273.4" cy="50.6" r="0.6"/>
<circle class="st4" cx="278.7" cy="50.6" r="0.6"/>
<circle class="st24" cx="261.7" cy="75.8" r="5.5"/>
<path class="st23" d="M313.7,511.8c0,0,23,7.9,45.7,0"/>
<polyline class="st3" points="226.4,173.2 228.1,134.1 225,128.6 "/>
<polygon class="st25" points="318.6,178.9 349.7,179.6 347.8,168 317.7,175.1 "/>
<circle class="st9" cx="145.5" cy="76.2" r="3.6"/>
<path class="st12" d="M231.9,52.2c2.9,0.1,5.8,0.8,8.5,1.9s4.9,3.1,7.5,4.4c1.8,1,3.7,1.6,5.7,1.8c1.8,0,3.5-0.4,5-1.3
	c1.6-0.8,9.1-5.1,9.5-5.4L231.9,52.2z"/>
<path class="st26" d="M384.7,126.2c3.4-0.9,6.7-2.3,9.7-4.1c-3-1.9-6.3-3.3-9.7-4.2c-3.5-0.9-6.2-3.6-7.1-7.1
	c-0.9-3.4-2.2-6.7-4.1-9.7c-1.9,3-3.3,6.3-4.1,9.7c-0.9,3.5-3.6,6.2-7.1,7.1c-3.4,0.9-6.7,2.3-9.7,4.1c3,1.9,6.3,3.3,9.7,4.1
	c3.5,0.9,6.2,3.6,7.1,7.1c0.9,3.4,2.3,6.7,4.1,9.7c1.9-3,3.3-6.3,4.2-9.7C378.6,129.8,381.2,127.1,384.7,126.2z"/>
<path class="st26" d="M171.7,266.2c3.4-0.9,6.7-2.3,9.7-4.1c-3-1.9-6.3-3.3-9.7-4.2c-3.5-0.9-6.2-3.6-7.1-7.1
	c-0.9-3.4-2.2-6.7-4.1-9.7c-1.9,3-3.3,6.3-4.1,9.7c-0.9,3.5-3.6,6.2-7.1,7.1c-3.4,0.9-6.7,2.3-9.7,4.1c3,1.9,6.3,3.3,9.7,4.1
	c3.5,0.9,6.2,3.6,7.1,7.1c0.9,3.4,2.3,6.7,4.1,9.7c1.9-3,3.3-6.3,4.2-9.7C165.6,269.8,168.2,267.1,171.7,266.2z"/>
<line class="st23" x1="183" y1="514.5" x2="266" y2="514.5"/>
</svg>
