<?xml version="1.0" encoding="utf-8"?>
<!-- Generator: Adobe Illustrator 25.2.3, SVG Export Plug-In . SVG Version: 6.00 Build 0)  -->
<svg version="1.1" id="Layer_1" xmlns="http://www.w3.org/2000/svg" xmlns:xlink="http://www.w3.org/1999/xlink" x="0px" y="0px"
	 viewBox="0 0 652 474" style="enable-background:new 0 0 652 474;" xml:space="preserve">
<style type="text/css">
	.st0{fill:#F27932;}
	.st1{fill:#F7C689;}
	.st2{fill:#FFFFFF;}
	.st3{fill:#ED4F2E;}
	.st4{fill:#F7C689;stroke:#FFFFFF;stroke-width:2.8418;stroke-miterlimit:10;}
	.st5{fill:#F27932;stroke:#FFFFFF;stroke-width:2.8418;stroke-miterlimit:10;}
	.st6{fill:#F27932;stroke:#F7C689;stroke-width:2.8418;stroke-miterlimit:10;}
	.st7{fill:#FBD7AD;}
</style>
<path class="st0" d="M120,133.4h387c19.1,0,34.6,15.5,34.6,34.6v224c0,19.1-15.5,34.6-34.6,34.6H120c-19.1,0-34.6-15.5-34.6-34.6
	V168C85.4,148.9,100.9,133.4,120,133.4z"/>
<path class="st1" d="M134,123.4h387c19.1,0,34.6,15.5,34.6,34.6v224c0,19.1-15.5,34.6-34.6,34.6H134c-19.1,0-34.6-15.5-34.6-34.6
	V158C99.4,138.9,114.9,123.4,134,123.4z"/>
<path class="st2" d="M179.6,187.2h300.1c9.9,0,17.9,5.6,17.9,12.6v4.8c0,6.9-8,12.6-17.9,12.6H179.6c-9.9,0-17.9-5.6-17.9-12.6v-4.8
	C161.7,192.8,169.7,187.2,179.6,187.2z"/>
<ellipse class="st3" cx="189.7" cy="333" rx="27.7" ry="27.4"/>
<ellipse class="st4" cx="233.5" cy="333" rx="27.7" ry="27.4"/>
<ellipse class="st5" cx="211.7" cy="333" rx="6" ry="17"/>
<rect x="379" y="305.6" class="st6" width="118.6" height="44.1"/>
<path class="st2" d="M177.9,261h-6.8c-5,0-9.1-4.1-9.1-9.1v-6.8c0-5,4.1-9.1,9.1-9.1h6.8c5,0,9.1,4.1,9.1,9.1v6.8
	C187,256.9,182.9,261,177.9,261z"/>
<path class="st2" d="M212.9,261h-6.8c-5,0-9.1-4.1-9.1-9.1v-6.8c0-5,4.1-9.1,9.1-9.1h6.8c5,0,9.1,4.1,9.1,9.1v6.8
	C222,256.9,217.9,261,212.9,261z"/>
<path class="st2" d="M248.9,261h-6.8c-5,0-9.1-4.1-9.1-9.1v-6.8c0-5,4.1-9.1,9.1-9.1h6.8c5,0,9.1,4.1,9.1,9.1v6.8
	C258,256.9,253.9,261,248.9,261z"/>
<path class="st2" d="M283.9,261h-6.8c-5,0-9.1-4.1-9.1-9.1v-6.8c0-5,4.1-9.1,9.1-9.1h6.8c5,0,9.1,4.1,9.1,9.1v6.8
	C293,256.9,288.9,261,283.9,261z"/>
<path class="st1" d="M60.8,50.2c3.5-0.8,6.8-2.3,9.9-4.3c-3.1-1.9-6.4-3.3-9.9-4.3s-6.4-3.7-7.5-7.5c-0.8-3.5-2.3-6.8-4.3-9.9
	c-1.9,3.1-3.3,6.4-4.3,9.9s-3.7,6.4-7.5,7.5c-3.5,0.8-7,2.3-10.1,4.3c3.1,1.9,6.4,3.3,10.1,4.3c3.5,1,6.4,3.7,7.5,7.5
	c0.8,3.5,2.3,6.8,4.3,9.9c1.9-3.1,3.3-6.4,4.3-9.9C54.4,53.9,57.1,51,60.8,50.2z"/>
<path class="st0" d="M608.8,426.2c3.5-0.8,6.8-2.3,9.9-4.3c-3.1-1.9-6.4-3.3-9.9-4.3s-6.4-3.7-7.5-7.5c-0.8-3.5-2.3-6.8-4.3-9.9
	c-1.9,3.1-3.3,6.4-4.3,9.9s-3.7,6.4-7.5,7.5c-3.5,0.8-7,2.3-10.1,4.3c3.1,1.9,6.4,3.3,10.1,4.3c3.5,1,6.4,3.7,7.5,7.5
	c0.8,3.5,2.3,6.8,4.3,9.9c1.9-3.1,3.3-6.4,4.3-9.9C602.4,429.9,605.1,427,608.8,426.2z"/>
<circle class="st1" cx="80.2" cy="92.7" r="5.4"/>
<circle class="st7" cx="589.5" cy="92.8" r="14.6"/>
</svg>
