<?xml version="1.0" encoding="utf-8"?>
<!-- Generator: Adobe Illustrator 25.2.3, SVG Export Plug-In . SVG Version: 6.00 Build 0)  -->
<svg version="1.1" id="Layer_1" xmlns="http://www.w3.org/2000/svg" xmlns:xlink="http://www.w3.org/1999/xlink" x="0px" y="0px"
	 viewBox="0 0 711 504.8" style="enable-background:new 0 0 711 504.8;" xml:space="preserve">
<style type="text/css">
	.st0{clip-path:url(#XMLID_3_);fill:none;stroke:#F27932;stroke-width:1.0762;stroke-linecap:round;stroke-linejoin:round;}
	.st1{fill:#B9C6E4;}
	.st2{fill:#ED4F2E;}
	.st3{fill:#CC3D2E;}
	.st4{fill:#FFFFFF;stroke:#F7C689;stroke-width:1.5127;stroke-miterlimit:10;}
	.st5{fill:#FBD7AD;}
	.st6{fill:#FFFFFF;}
	.st7{fill:#4B4065;}
	.st8{fill:none;stroke:#FFFFFF;stroke-width:1.5127;stroke-miterlimit:10;}
	.st9{fill:none;stroke:#4B4065;stroke-width:1.1345;stroke-linecap:round;stroke-linejoin:round;}
	.st10{fill:none;stroke:#ED4F2E;stroke-width:1.5127;stroke-linecap:round;stroke-linejoin:round;}
	.st11{opacity:0.3;fill:#F27932;enable-background:new    ;}
	.st12{fill:none;stroke:#4B4065;stroke-width:1.5127;stroke-miterlimit:10;}
	.st13{fill:#EA7A2F;}
	.st14{fill:none;stroke:#4B4065;stroke-width:2;stroke-miterlimit:10;}
	.st15{fill:#F7C689;}
	.st16{fill:#FFFFFF;stroke:#B9C6E4;stroke-miterlimit:10;}
	.st17{fill:#495894;}
	.st18{fill:#C2D9F0;}
	.st19{fill:#FFFFFF;stroke:#F7C689;stroke-width:2;stroke-miterlimit:10;}
	.st20{opacity:0.46;fill:#EF749B;enable-background:new    ;}
	.st21{fill:none;stroke:#231F20;stroke-width:0.8492;stroke-miterlimit:10;}
	.st22{fill:#FFFFFF;stroke:#F27932;stroke-width:0.8492;stroke-miterlimit:10;}
	.st23{fill:#EF749B;}
	.st24{fill:none;stroke:#FBD7AD;stroke-miterlimit:10;stroke-dasharray:4;}
</style>
<g>
	<defs>
		<path id="XMLID_1_" d="M426.4,324.1c0,0,4.3-35.3,11.5-40.3c7.2-5,32.4-5.2,35.8-8.2c3.3-3,15.7-35,19.6-31.2s-2.4,42.5-2.4,42.5
			s-30.7,24.1-31.8,35C457.9,332.7,426.4,324.1,426.4,324.1z"/>
	</defs>
	<use xlink:href="#XMLID_1_"  style="overflow:visible;fill:#FBD7AD;"/>
	<clipPath id="XMLID_3_">
		<use xlink:href="#XMLID_1_"  style="overflow:visible;"/>
	</clipPath>
	<path class="st0" d="M472.7,283.7c0,0,9.5-3.3,12.9-12c3.1-7.9,7.6-27.3,7.6-27.3"/>
	<path class="st0" d="M477.6,288.6c0,0,9.5-3.3,12.9-12c3.1-7.9,7.6-27.3,7.6-27.3"/>
</g>
<g>
	<path class="st1" d="M419.5,381.5l-22.8-84.9c-1.2-6.7-5.4-12.3-11.5-15.4l-43.6-7.1l22.2,185.8l46.3,9.5l56.7-43.1L419.5,381.5z"
		/>
	<path class="st2" d="M286.3,273.6c-20.4-5.7-45.8-15.1-48.3-39.3c-1.1-10.9,2.7-21.8,10.4-29.6c6.7-6.8,16-11,21-19.2
		c3-5,4.2-11,6.1-16.6c7.9-22.2,39-27.5,59.4-25c16.2,2.1,30.7,12.7,40.7,24.8c25.4,31,34.8,112.1-56.4,109.2
		C308.3,277.6,297.1,276.6,286.3,273.6z"/>
	<path class="st3" d="M290.4,207.8c7.1,7.1-2.7,18.6-7.3,24.4c-6.5,8.3-10.7,17.4-7.3,28.3c6.1,18.9,26.8,21,43.6,16.9
		c5.9-1.4,11.6-4.7,14.8-10c4.2-7.3,2.6-16.5,0-24.7c-2.4-7.7-5.4-15.4-10.9-21.5c-3.8-4.4-8.9-7.6-14.7-8.9
		c-2.7-0.6-5.1,0.2-7.9-0.2c-3.3-0.3-7.1-2.7-10.1-3.9"/>
	<path class="st2" d="M345.5,157.6c-7.4-2.9-17.1,0-20.1,7.9c-3.8,9.8,5.7,20.3,0.2,29.8c-2.6,4.4-7.6,7.1-12.7,6.8
		c-0.9,0-1.1-1.5,0-1.5c4.8,0.3,9.4-2.3,11.6-6.5c2.6-5,0.8-10.7-0.5-15.7c-1.1-4.7-1.8-9.7,0.3-14.2c1.7-3.5,4.7-6.2,8.2-7.6
		c4.2-1.7,9.1-1.8,13.3-0.2C346.8,156.5,346.4,158.1,345.5,157.6L345.5,157.6z"/>
	<path class="st2" d="M263.3,130.5c-17.2-4.2-34.8,6.2-39,23.6c-1.7,7-1.1,14.2,1.8,20.7c2.6,5.9,7.9,11.5,14.4,11.3
		c7.3-0.2,12.3-7.1,15.4-13.6c2.3-4.7,4.4-10,8.3-13.6c4.5-4.2,10.7-3.5,15.3-7.3C289.8,143.1,270.8,132.3,263.3,130.5z"/>
	<path class="st4" d="M293.9,149.7c-0.5-4.1-4.1-7-8-6.5c-0.2,0-0.5,0-0.6,0.2c-2.4,0.9-4.4,2.3-5.9,4.2c-2.6,2.7-4.8,5.6-7.1,8.6
		c-1.4,1.5-2.3,3.5-2.6,5.4c-0.2,3.5,2.7,6.4,6.2,6.4c0.3,0,0.8,0,1.1,0"/>
	<path class="st3" d="M273,154.6c-3,0.9-6.2,1.7-8.8,4.1c-3.9,3.6-6.1,8.9-8.3,13.6c-2.9,5.7-7.1,11.8-13.2,13.3
		c-4.7-2.1-7.9-6.7-8.3-11.8c-0.3-5.1,1.7-10.3,5.3-13.9c3.8-3.6,8.5-5.9,13.5-6.7C259.9,152.3,266.5,153.4,273,154.6z"/>
	<path class="st5" d="M342.9,156.8c7.9,1.7,14.7,6.4,18.9,13c4.4,6.5,6.7,14.4,8.2,22.1c1.7,9.7,1.8,19.5,0.5,29.2
		c-1.8,11.5-15.6,17.7-22.8,13.9l2.4,31.2l19.4,6.1l-20.3,52.9l-41.3-18.2l-13.5-44.6l10.3-1.1l2.6-36
		C307.4,225.4,284.8,146.3,342.9,156.8z"/>
	<path class="st5" d="M311.6,200.7c-2.7-2.6-5.9-4.5-9.2-5.9c-3.5-1.4-7.4-1.1-10.6,1.1c-3.3,2.7-4.4,7.4-2.7,11.3
		c1.8,3.9,5.6,6.5,9.8,6.8c4.2,0.3,8.5-0.9,11.8-3.6"/>
	<path class="st6" d="M349.4,194.1c-1.4-4.5-5.1-7-9.7-7.7c-4.8-0.6-9.5,1.4-12.4,5.3c1.7,3.8,6.2,5.9,10.4,6.2
		C342,198.1,346.1,196.8,349.4,194.1z"/>
	<path class="st1" d="M348.7,193.3c0,0.2-0.2,0.2-0.2,0.3c-0.6,1.2-5.6,3.8-8.9,1.4c-2.3-1.7-3.8-7-3.2-8.8c2.6-0.8,5.6,0.5,7.9,1.8
		C345.3,188.6,349.3,191.6,348.7,193.3z"/>
	<path class="st7" d="M348.8,194.2c-0.9-2.7-2.7-5-5.3-6.5c-2-1.1-4.4-1.4-6.5-0.9c-2.1,0.3-4.1,1.1-5.9,2.1c-1.4,0.8-2.6,1.8-3.3,3
		c-0.3,0.6-1.4,0-1.1-0.6c1.5-2.6,4.7-4.1,7.4-5c3.6-1.4,7.7-1.1,10.9,1.1c2.3,1.7,3.9,3.9,4.8,6.5
		C350.2,194.7,349.1,195,348.8,194.2L348.8,194.2z"/>
	<path class="st2" d="M327.3,181c1.7-2.4,4.1-4.1,7-4.7c2.9-0.6,5.9,0,8.5,1.7C337.3,179.1,332.8,180,327.3,181z"/>
	<path class="st2" d="M342.9,178.6c0.3-0.2,0.6-0.5,0.5-0.8c0-0.2-0.2-0.3-0.3-0.5c-2.6-1.7-5.9-2.3-8.9-1.7s-5.6,2.4-7.4,5
		c-0.2,0.3-0.2,0.6,0.2,0.9c0.2,0.2,0.3,0.2,0.5,0.2c2.7-0.5,5.3-1.1,7.7-1.5C337.5,179.8,340.2,179.1,342.9,178.6L342.9,178.6z
		 M334.1,177.1l0.5-0.2c2.1-0.5,4.4-0.2,6.5,0.8l-5.9,1.2l-6.1,1.2C330.2,178.6,332,177.6,334.1,177.1L334.1,177.1z"/>
	<path class="st8" d="M300,213c0.6-5.1,3.8-8,7.1-6.5s6.7,6.7,7.9,12.4c1.2,5.7,0.2,11.3-2.4,13.9c-2.6,2.6-6.4,2-9.5-1.2"/>
	<path class="st9" d="M357.4,191.6l2.4,2.6c0.6,0.5,1.1,1.2,1.2,1.8c0.3,1.1-0.2,2.3-1.1,3c-0.8,0.8-1.8,1.4-2.7,1.7"/>
	<path class="st10" d="M363.6,207.5l-16.8,2.7c1.8,2.4,4.1,4.4,6.8,5.7c2.6,1.1,5.4,0.9,7.7-0.5C363.6,214,364.5,210.1,363.6,207.5z
		"/>
	<path class="st2" d="M362.6,170.3c0.6,1.1,1.2,2.3,1.7,3.5l-4.5,1.4l0,0c-0.3,0.2-0.6-0.2-0.6-0.5c0-0.2,0-0.3,0-0.5
		C359.9,172.7,361.1,171.4,362.6,170.3z"/>
	<path class="st2" d="M359.9,175.6c1.7-0.5,3.2-0.9,4.5-1.4c0.2,0,0.3-0.2,0.5-0.3c0-0.2,0-0.3,0-0.5c-0.5-1.1-1.1-2.3-1.7-3.5
		c-0.2-0.2-0.2-0.3-0.5-0.3c-0.2,0-0.3,0-0.5,0.2c-1.5,1.1-2.9,2.6-3.8,4.2c-0.3,0.6-0.2,1.2,0.5,1.5
		C359.3,175.8,359.6,175.8,359.9,175.6L359.9,175.6z M363.3,173.3l-3.8,1.1c0.8-1.2,1.7-2.3,2.7-3.2
		C362.7,172,363,172.6,363.3,173.3z"/>
	<path class="st6" d="M367,180c0.9,3.2,1.8,6.4,2.4,9.7v0.3c-2.1,0.3-4.4-0.3-6.2-1.4C363.3,185.3,364.7,182.3,367,180z"/>
	<path class="st1" d="M367.7,189.8c-1.1-1.2-1.8-2.7-1.8-4.4c-0.3-1.7-0.2-3.5,0.6-5c0.2,0,0.5-0.3,0.6-0.3c1.2,3.2,2.1,6.5,2.6,9.8
		C368.9,190.1,368.3,190,367.7,189.8z"/>
	<path class="st7" d="M367.1,180.3c-2.1,1.8-3.3,4.7-3.3,7.6c0,0.3-0.3,0.5-0.6,0.5s-0.5-0.3-0.5-0.5c-0.2-3.2,1.2-6.2,3.6-8.3
		c0.2-0.2,0.6-0.2,0.8,0C367.3,179.7,367.3,180.1,367.1,180.3L367.1,180.3z"/>
	<path class="st11" d="M351.8,236.9L329,229c0,0,4.7,21.5,23.4,22.4"/>
	<path class="st1" d="M238.5,266.8c18.5-13.2,55.8-4.2,66.3-5.4c46.7,53.2,44.6,58.2,44.6,58.2s13-39.8,14.7-49.2
		c16.3,1.8,33.6,7.9,35.1,46.9c0.3,10.3,0,52.8-23.9,50.8l5.6,36.8c-7,5.6-94.4,11.2-94.4,11.2l7-16.5l-15.6-68.5l-48.1-26.8
		C230.2,293.1,229,273.5,238.5,266.8z"/>
	<polygon class="st1" points="274.4,404.2 305.8,477.2 246,479.4 215.5,391.8 230.5,285.4 278.6,300.9 	"/>
	<path class="st12" d="M394.2,331.3c7,11.5,3.3,26.6-8.2,33.6c-3.2,2-7,3.2-10.7,3.5c1.5,11.2,2.3,25.4,3.8,36.6"/>
	<line class="st12" x1="277.7" y1="331.3" x2="280" y2="297.7"/>
	<path class="st2" d="M293,178.6c-0.5,7.9,2.6,14.2,10,16.8c0.9,0.3,2,0.6,2.9,0.6c7,0.5,13.3-3.9,15.3-10.6
		c1.7-6.4-1.2-13.3,0.9-19.5c1.8-4.8,5.9-8.5,10.9-9.7c5-1.1,10.3-0.5,14.8,1.8c-7.1-5-15.7-7.6-24.4-7.4c-5,0-10,1.4-14.2,3.9
		C298.1,161.5,293.5,169.9,293,178.6z"/>
</g>
<circle class="st13" cx="445.4" cy="168" r="9"/>
<circle class="st14" cx="684.6" cy="228.2" r="6.6"/>
<rect x="26" y="184.6" class="st15" width="145.8" height="145.8"/>
<path class="st16" d="M174.5,461.3h331.1l0,0l0,0c0,9.4-7.7,17.1-17.1,17.1l0,0H191.6C182.2,478.4,174.5,470.7,174.5,461.3
	L174.5,461.3L174.5,461.3L174.5,461.3z"/>
<path class="st17" d="M218.8,307.4H466c7.9,0,14.3,6.4,14.3,14.3l0,0v156.6l0,0H204.5l0,0V321.7
	C204.5,313.8,210.9,307.4,218.8,307.4L218.8,307.4z"/>
<circle class="st6" cx="342" cy="391.7" r="16.2"/>
<path class="st18" d="M561,242h79c11.6,0,21.1,9.4,21.1,21.1v67c0,11.6-9.4,21.1-21.1,21.1h-79c-11.6,0-21.1-9.4-21.1-21.1v-67
	C539.9,251.4,549.3,242,561,242z"/>
<path class="st6" d="M94.4,291.4l1.1-25.2l-21.2,13.5L68,268.9l22.3-11.5L68,245.9l6.3-10.8l21.2,13.8l-1.1-25.2h12.4l-1.1,25.2
	l21.2-13.8l6.3,10.8l-22.5,11.5l22.5,11.5l-6.3,10.8l-21.2-13.6l1.1,25.2L94.4,291.4L94.4,291.4z"/>
<polygon class="st7" points="586.5,327.9 605.9,351.2 588.5,351.6 "/>
<path class="st19" d="M587.4,376.8c1,0.5,2.3,0.1,2.8-0.9c0.2-0.3,0.3-0.7,0.2-1.1l-1.9-23.1l-2-23.7c-0.1-1.1-1.1-2-2.2-1.8
	c-0.3,0-0.5,0.1-0.8,0.2L562.7,338l-20.3,11.3c-1,0.5-1.4,1.8-0.8,2.8c0.2,0.4,0.5,0.6,0.8,0.8l10.2,5.5l-17.7,32.9l24.5,13.1
	l17.7-33.1L587.4,376.8z"/>
<path class="st14" d="M119.8,120.2c-0.8-18,15.5-34.9,33.6-34.8s34.1,17.3,33,35.3c-0.6,9.8-7.8,20.4-17.5,19.8
	c-9.6-0.6-15.3-11.5-15.4-21.1c-0.2-22.5,23.6-41.9,45.6-37.2"/>
<polygon class="st17" points="585.7,277.7 585.7,314.5 601.5,303.7 617.2,314.5 617.2,277.7 "/>
<polygon class="st20" points="478.4,180.3 500.9,54.2 600.7,54.2 622.2,180.3 "/>
<path class="st21" d="M527.5,53c-0.3-12.6,9.8-23,22.3-23.3c12.6-0.3,23,9.8,23.3,22.3c0,0.3,0,0.6,0,0.8"/>
<polygon class="st22" points="641.1,221.7 577.6,221.7 547.7,191.1 547.7,128.3 641.1,128.3 "/>
<polyline class="st23" points="547.7,128.3 531.9,180.2 547.7,180.2 "/>
<path class="st15" d="M600,157l2.2,5.9c0.5,1.4,1.9,2.5,3.5,2.5l6.4,0.3c2.1,0.1,3.8,2,3.7,4.1c-0.1,1.1-0.6,2.1-1.4,2.9l-5,4
	c-1.2,0.9-1.7,2.5-1.4,4.1l1.7,6.1c0.6,2-0.7,4.2-2.7,4.8c-1.1,0.3-2.2,0.1-3.1-0.5l-5.3-3.5c-1.3-0.8-3-0.8-4.2,0l-5.3,3.5
	c-1.8,1.2-4.2,0.7-5.4-1.1c-0.6-0.9-0.8-2.1-0.5-3.1l1.7-6.1c0.4-1.5-0.1-3.1-1.4-4.1l-5-4c-1.7-1.4-2-3.8-0.6-5.5
	c0.7-0.8,1.8-1.4,2.9-1.4l6.4-0.3c1.5-0.1,2.9-1.1,3.5-2.5l2.2-5.9c0.8-2,3.1-3,5.1-2.1C598.8,155.3,599.7,156,600,157z"/>
<path class="st24" d="M463.5,269.4c-25.4-9.8-25.6-61.1,10.9-44.7c11.5,2.5,26.9,15.2,7.1,19.3c-26.4,3.9-48.2-36.4-19-48.6"/>
</svg>
