<?xml version="1.0" encoding="utf-8"?>
<!-- Generator: Adobe Illustrator 25.2.3, SVG Export Plug-In . SVG Version: 6.00 Build 0)  -->
<svg version="1.1" id="Layer_1" xmlns="http://www.w3.org/2000/svg" xmlns:xlink="http://www.w3.org/1999/xlink" x="0px" y="0px"
	 viewBox="0 0 663.1 539.7" style="enable-background:new 0 0 663.1 539.7;" xml:space="preserve">
<style type="text/css">
	.st0{fill:#EF749B;}
	.st1{opacity:0.7;fill:#EF749B;enable-background:new    ;}
	.st2{fill:none;stroke:#231F20;stroke-miterlimit:10;}
	.st3{fill:#C2D9F0;}
	.st4{fill:#FFFFFF;stroke:#B9C6E4;stroke-miterlimit:10;}
	.st5{fill:#FFFFFF;stroke:#EF749B;stroke-miterlimit:10;}
	.st6{fill:none;stroke:#EF749B;stroke-miterlimit:10;}
	.st7{fill:#4B4065;}
	.st8{fill:#F7C689;}
	.st9{fill:#495894;}
	.st10{fill:#F27932;}
	.st11{fill:#B9C6E4;}
	.st12{fill:none;stroke:#F27932;stroke-linecap:round;stroke-linejoin:round;stroke-miterlimit:10;}
	.st13{fill:none;stroke:#FFFFFF;stroke-miterlimit:10;}
	.st14{fill:none;stroke:#4B4065;stroke-miterlimit:10;}
	.st15{fill:#FFFFFF;}
	.st16{fill:none;stroke:#4B4065;stroke-linecap:round;stroke-linejoin:round;stroke-miterlimit:10;}
	.st17{fill:none;stroke:#F27932;stroke-width:0.75;stroke-miterlimit:10;}
	.st18{fill:none;stroke:#C2D9F0;stroke-miterlimit:10;}
	.st19{fill:#FBD7AD;}
	.st20{opacity:0.37;fill:#F27932;enable-background:new    ;}
	.st21{fill:#FFFFFF;stroke:#F7C689;stroke-miterlimit:10;}
	.st22{fill:none;stroke:#4B4065;stroke-width:0.7978;stroke-miterlimit:10;}
	.st23{fill:#4B4065;stroke:#4B4065;stroke-linecap:round;stroke-linejoin:round;}
	.st24{fill:none;stroke:#4B4065;stroke-linecap:round;stroke-linejoin:round;}
	.st25{fill:none;stroke:#4B4065;stroke-linecap:round;stroke-linejoin:round;stroke-dasharray:12.4256,12.4256;}
	.st26{fill:none;stroke:#4B4065;stroke-linecap:round;stroke-linejoin:round;stroke-miterlimit:10;stroke-dasharray:12;}
</style>
<path class="st0" d="M344.6,294.6h-64.3l-5.6,31.7C300.2,321.8,324.3,310.9,344.6,294.6z"/>
<polygon class="st1" points="258.4,417 280.2,294.6 377.1,294.6 398,417 "/>
<path class="st2" d="M306,293.5c0-12.2,9.9-22.1,22.1-22.1s22.1,9.9,22.1,22.1"/>
<polygon class="st3" points="80,440.6 104.5,303.2 213.1,303.2 236.5,440.6 "/>
<path class="st4" d="M133.4,302c0-13.7,11.1-24.8,24.8-24.8S183,288.3,183,302"/>
<polygon class="st4" points="350,440.8 375.1,300.5 486,300.5 510,440.8 "/>
<path class="st4" d="M404.6,299.3c0.3-14,11.9-25.1,25.9-24.9c13.6,0.3,24.6,11.2,24.9,24.9"/>
<polygon class="st5" points="163.7,472.9 178.9,387.5 246.4,387.5 261,472.9 "/>
<path class="st6" d="M196.9,386.7c0-8.5,6.9-15.4,15.4-15.4s15.4,6.9,15.4,15.4"/>
<path class="st7" d="M296.7,126.8c-4.6-10.5-2.1-23.2,4.4-32.7s16.5-16,27.1-20.5c8.6-3.7,18.3-6.2,27.3-3.7
	c12.3,3.5,20.7,16.4,20.7,29.2s-7.3,24.9-17.5,32.7C341.6,144.7,307.6,151.6,296.7,126.8z"/>
<path class="st8" d="M281.6,424.3c-0.2,1,5.5,20.8,8,29.1c0.7,2.3,0.2,4.7-1.2,6.6l-41.5,53.5l-0.2-0.7c-1.7-6.5-1.2-13.4,1.5-19.6
	l10.6-24.3l-7.4-32.7"/>
<path class="st8" d="M134.5,261.2l-9,17.7l-37.2,10.8c-5.5,2.1-10.2,5.8-13.4,10.7l-0.3,0.5h68.2c4.6-0.2,8.7-2.9,10.5-7.1
	l13.4-32.6"/>
<path class="st8" d="M220,75.4c2,7,41.8,116.6,41.8,116.6l-37.9-5.3L195.5,81.6"/>
<path class="st8" d="M317.8,117.1c0,0-2.6,24.2-7.1,30.6c0,0,11.4,13.8,24.8,1.3l-3.6-34.2"/>
<path class="st8" d="M310.7,149.2c0,0-19.8-11.5-31.6-2.7c-11.8,8.8-31.3,64.5-31.3,64.5l24.4,13L310.7,149.2z"/>
<path class="st9" d="M310.7,214.4c0,0,17.6,11.9,39.9,0c0,0,18.7,49.7,2.7,66.6c-28.4,30-98.2,23.7-98.2,23.7l28.2,120.6l-33,15.2
	l-46-133.5c-5-14.6,2.4-30.5,16.9-36l72.3-27.4L310.7,214.4z"/>
<path class="st9" d="M310.7,226.7c2.8-2.1-60.6-63.5-84.8-86.8c-5.8-5.6-13.8-8.2-21.8-7.2l0,0c-8.9,1.2-16.7,6.8-20.6,14.9
	L128,264.1h40.9l40-74.8l56.5,74.8h45.2L310.7,226.7z"/>
<path class="st10" d="M257.7,40L257.7,40c2.2,5.6,8.4,8.6,14.2,6.8l0,0c6.1-1.9,12.6,1.6,14.5,7.7c0.9,3.1,0.6,6.4-1,9.1l0,0
	c-3,5.2-1.5,11.9,3.5,15.3l0,0c5.3,3.6,6.6,10.8,3,16.1c-1.8,2.6-4.6,4.4-7.8,4.9l0,0c-6,0.9-10.2,6.3-9.8,12.3l0,0
	c0.5,6.4-4.3,11.9-10.7,12.4c-3.2,0.2-6.4-0.9-8.7-3.1l0,0c-4.4-4.1-11.3-4.1-15.7,0l0,0c-4.7,4.3-12,4.1-16.4-0.6
	c-2.2-2.4-3.3-5.5-3.1-8.7l0,0c0.4-6-3.8-11.4-9.8-12.3l0,0c-6.3-1-10.7-6.9-9.7-13.2c0.5-3.2,2.3-6,4.9-7.8l0,0
	c5-3.4,6.5-10.1,3.5-15.3l0,0c-3.2-5.6-1.2-12.6,4.3-15.8c2.8-1.6,6-1.9,9.1-1l0,0c5.8,1.8,12-1.2,14.2-6.8l0,0
	c2.3-6,9.1-8.9,15-6.6C254.1,34.6,256.5,37,257.7,40z"/>
<path class="st8" d="M198.6,92.9l-4.2-15.8c-0.9-3.5-0.9-7.3-0.1-10.8l0,0c0.4-1.9,2.1-3.2,4-3.2h1.6l-0.5-2.6
	c-0.2-0.9,0-1.9,0.5-2.8l0,0c0.7-1.2,2-1.9,3.4-1.9h0.3l-0.2-1c-0.2-1.4,0.3-2.8,1.4-3.7l0,0c1-0.8,2.3-1.1,3.5-0.8l2,0.5l20.7,7.5
	c0,0-2,5.3-6.5,4.4c0,0-1.2,4.7-5.1,4.5c-3.9-0.2-4.4-0.9-4.4-0.9l4.4,2c0,0-1,4.7-4,4.1s-10.1-2.8-10.1-2.8l5.9,1.7"/>
<path class="st11" d="M310.7,147.7c0,0-17.6,23.2-16.3,31.5c1.3,8.3,15.1,14.2,15.1,14.2l1.2,21c0,0,15.7,13.2,39.9,0l6.8-40.4
	c0,0-10.9-8.2-21.8-25.1C335.6,148.9,319,157.2,310.7,147.7z"/>
<path class="st7" d="M330.1,43.8c-2.7-0.4-5.5,0.5-7.5,2.4s-3.6,4.1-4.8,6.5c-1.6,2.8-3.1,5.8-3.4,9s1.2,6.8,4.2,8s6.2,0.1,8.8-1.8
	C332.8,64,341.5,46.1,330.1,43.8z"/>
<path class="st8" d="M357.1,174.1c0.9,2.4,0.5,5.9,0.7,8.4c0.5,8,1.2,16,1.9,24c1.6,17.9,3.4,35.8,4.6,53.7
	c0.7,10.1,1.3,20.3,1.1,30.5c-0.2,9.8-0.4,19.5-0.5,29.3c0,2.1,0.4,4.9,2.5,5.2c1.5,0.3,3.1-6.3,3.5-7.8c1.2-4.9,1.3-8.1,4-11.3
	c6.9-8.4,19.2-5.9,28.9-5.9h19.6c2.4,0,4.4,0.2,6.8,0.2c-1-3.6-5.3-5.3-14.5-6c-5.3-0.4-10.6-1.1-15.6-3c-6.1-2.4-9.7-6.8-9.4-13.2
	c0.5-8.1-0.8-16.7-1.1-24.9c-0.6-16.9-1-33.8-1-50.7c0-13.5,0.1-27.1,0.4-40.7c0.2-9.5,3.3-24.9-6.9-30.7c-4.8-2.7-10.8-1.4-16,0.4
	s-10.1,4.1-14.9,6.9c-3.2,1.9-15.6,10.4-15.6,10.4c3,5.2,6.6,10,10.6,14.5C352.4,170.1,357,173.6,357.1,174.1z"/>
<path class="st7" d="M310.5,85.8c2.3-2.5,4.9-4.7,7.7-6.6c3.1-2.2,6.4-4.1,9.8-5.8c6.6-3.3,13.7-5.7,21.2-5.6
	c7.7,0.1,15.1,2.9,20.2,8.9c4.7,5.7,7.2,12.9,6.9,20.3c-0.2,8.2-3.4,16.2-8,22.9c-0.6,0.8-1.1,1.6-1.8,2.4c-0.4,0.5,0.5,1,0.9,0.5
	c5.1-6.6,8.8-14.5,9.7-22.8c0.9-7.6-1-15.3-5.3-21.7c-2.1-3.1-4.8-5.6-8-7.6c-3.4-2-7.2-3.2-11.2-3.7c-7.7-0.9-15.3,0.9-22.3,4.1
	c-3.6,1.6-7.1,3.5-10.4,5.7c-3.1,1.9-5.9,4.1-8.6,6.6c-0.6,0.6-1.1,1.1-1.7,1.7C309,85.7,310.1,86.3,310.5,85.8L310.5,85.8z"/>
<path class="st10" d="M332.9,123.8l-0.9-9l-14.2,2.2c0,0-0.3,2.9-0.9,6.9c0.8,1.6,2,2.9,3.5,3.8c2.6,1.4,5.8,0.9,8.3-0.6
	C330.3,126.2,331.7,125.1,332.9,123.8z"/>
<path class="st8" d="M320.9,81.9c-10.7,7.8-11.8,17.6-11.4,26.7s9.6,14.5,14,13.9s19.3-6.9,19.5-25.8S326.8,77.6,320.9,81.9z"/>
<path class="st8" d="M341.2,101.3c1.1-1.6,3-2.5,4.9-2.5c2,0.1,3.7,1.2,4.6,3c0.7,1.8,0.3,3.9-1,5.3c-2.5,2.8-7,2-7.9,1.8
	c-1-0.2-1.7-0.9-2.1-1.8"/>
<path class="st12" d="M355.7,156.7l2.9,31.3"/>
<rect x="73.8" y="300.8" class="st10" width="79.8" height="2.4"/>
<path class="st13" d="M103.3,300.8c-0.1-7-3.1-12.7-8.3-17.4l5.4-0.9c5.2,4.7,8.2,11.3,8.3,18.2"/>
<line class="st14" x1="259.7" y1="256.5" x2="310.8" y2="237.3"/>
<line class="st14" x1="308.1" y1="220.2" x2="293.5" y2="243.7"/>
<path class="st15" d="M328.9,108.2c-0.8,1.4-1.9,2.7-3.1,3.8c-1.3,1.1-3,1.4-4.6,0.8c-1.5-0.7-2.8-3-3.6-4.5
	C320.9,108.1,325.5,108.4,328.9,108.2z"/>
<path class="st16" d="M323.3,188.2c7.5,5.6,18.2,4.1,23.8-3.4c1.3-1.7,2.2-3.7,2.8-5.8"/>
<path class="st7" d="M345.2,94.4c-8.5-0.8-16.2-7.8-19.4-15.6C337.6,77.8,344.6,85.1,345.2,94.4z"/>
<polygon class="st7" points="132,265.9 162.4,271.7 165.6,264.1 132.9,264.1 "/>
<polygon class="st13" points="128,273.3 160,279.8 156.8,288.6 124.1,278.2 "/>
<polygon class="st13" points="141.4,300.3 145.9,285.1 152,287 152,300.3 "/>
<line class="st17" x1="224.5" y1="62.7" x2="207.5" y2="56.9"/>
<line class="st17" x1="218" y1="67.3" x2="204.1" y2="62.6"/>
<line class="st17" x1="214.4" y1="72.5" x2="203.2" y2="68.7"/>
<path class="st18" d="M398.6,113h224.6c-9.8-13-21.5-24-37.3-27.6c-4.4-1-9-1.6-13.4-0.5s-8.4,4.3-9.5,8.7
	c-16.9-25.6-45.8-42.8-75.9-48c-8.6-1.5-17.9-1.9-25.7,1.9c-7.7,3.9-13,11.3-14.1,19.8c-1,8.5,2.3,17,8.8,22.7
	c-4-9.3-18.1-13.6-25.4-6.5c-5,4.9-6.2,12.4-9.9,18.3C416.1,109.1,407.2,113,398.6,113z"/>
<rect x="390.5" y="325.3" class="st3" width="78.4" height="46.5"/>
<path class="st15" d="M175.7,374.1c1.8-0.5,3.6-1.2,5.2-2.2c-1.6-1-3.4-1.8-5.2-2.2c-1.9-0.5-3.3-2-3.8-3.8
	c-0.5-1.9-1.2-3.6-2.2-5.2c-1,1.6-1.8,3.4-2.2,5.2c-0.5,1.9-2,3.3-3.8,3.8c-1.9,0.5-3.6,1.2-5.2,2.2c1.6,1,3.4,1.8,5.2,2.2
	c1.9,0.5,3.3,2,3.8,3.9c0.5,1.8,1.2,3.6,2.2,5.2c1-1.6,1.8-3.4,2.2-5.2C172.3,376.1,173.8,374.6,175.7,374.1z"/>
<path class="st3" d="M534.5,289.3c3.4-0.9,6.7-2.3,9.7-4.1c-3-1.9-6.3-3.3-9.7-4.1c-3.5-0.9-6.2-3.6-7.1-7.1
	c-0.9-3.4-2.3-6.7-4.1-9.7c-1.9,3-3.3,6.3-4.1,9.7c-0.9,3.5-3.6,6.2-7.1,7.1c-3.4,0.9-6.7,2.3-9.7,4.1c3,1.9,6.3,3.3,9.7,4.1
	c3.5,0.9,6.2,3.6,7.1,7.1c0.9,3.4,2.3,6.7,4.1,9.7c1.9-3,3.3-6.3,4.1-9.7C528.3,292.9,531,290.2,534.5,289.3z"/>
<path class="st18" d="M75.4,204.4l1.2-26l-21.8,13.9l-6.5-11.1l23-11.8l-23-11.8l6.5-11.1l21.8,14.2l-1.2-26h12.8l-1.2,26l21.9-14.3
	l6.5,11.1l-23.2,11.8l23.2,11.8l-6.5,11.2l-21.8-13.9l1.2,26L75.4,204.4L75.4,204.4z"/>
<polygon class="st15" points="243.6,98.9 237.3,98.9 250.1,62.2 256.5,62.2 "/>
<path class="st15" d="M232.8,63.4c-4.3,0-7.8,3.5-7.8,7.8s3.5,7.8,7.8,7.8s7.8-3.5,7.8-7.8S237.1,63.4,232.8,63.4L232.8,63.4z
	 M232.8,74.3c-1.7,0-3.1-1.4-3.1-3.1s1.4-3.1,3.1-3.1c1.7,0,3.1,1.4,3.1,3.1l0,0C236,72.9,234.5,74.3,232.8,74.3z"/>
<path class="st15" d="M261,83.4c-4.3,0-7.8,3.5-7.8,7.8s3.5,7.8,7.8,7.8s7.8-3.5,7.8-7.8l0,0C268.7,86.8,265.2,83.4,261,83.4z
	 M261,94.3c-1.7,0-3.1-1.4-3.1-3.1s1.4-3.1,3.1-3.1s3.1,1.4,3.1,3.1l0,0C264.1,92.9,262.7,94.3,261,94.3L261,94.3z"/>
<rect x="232" y="484.6" transform="matrix(0.6053 -0.796 0.796 0.6053 -279.3953 408.2115)" class="st10" width="79.9" height="2.4"/>
<path class="st13" d="M264.7,493.5c-5.6-4.2-12-5.2-18.8-3.9l2.6-4.8c6.8-1.3,13.9,0.3,19.5,4.4"/>
<polygon class="st7" points="252.6,441.5 283.6,432.6 281.9,426 252.2,439.7 "/>
<polygon class="st13" points="256.1,457.1 284,434 287.3,443.5 257.7,463.2 "/>
<polygon class="st13" points="287.3,462.8 278,450 283.1,446.3 293.8,454.4 "/>
<circle class="st15" cx="142.1" cy="396.6" r="2.5"/>
<circle class="st3" cx="506.1" cy="315.1" r="3.8"/>
<polygon class="st7" points="249.5,243 293.5,243.7 259.7,256.5 "/>
<rect x="304.3" y="386.7" class="st19" width="132.3" height="76.4"/>
<rect x="300.8" y="383.2" class="st8" width="138.7" height="15.8"/>
<polygon class="st20" points="304.3,402.4 436.6,407.4 436.6,399 304.3,399 "/>
<path class="st15" d="M382.8,399c0,7-5.6,12.6-12.6,12.6c-6.9,0-12.6-5.6-12.6-12.6"/>
<rect x="50" y="375.2" class="st19" width="88" height="76.4"/>
<polygon class="st20" points="50,390.8 138,395.9 138,387.5 50,387.5 "/>
<path class="st15" d="M107,387.5c0,7-5.6,12.6-12.6,12.6s-12.6-5.6-12.6-12.6"/>
<rect x="46.4" y="371.7" class="st21" width="94.5" height="15.8"/>
<rect x="68.1" y="423.9" class="st15" width="52.6" height="8.9"/>
<polygon class="st7" points="146.1,303.2 102.2,315.7 104.5,303.2 "/>
<path class="st14" d="M456.9,208.5c-0.5-12.3,10.6-23.8,22.9-23.7s23.2,11.8,22.5,24.1c-0.4,6.7-5.3,13.9-12,13.5
	c-6.5-0.4-10.4-7.9-10.5-14.4c-0.2-15.4,16.1-28.6,31.1-25.4"/>
<g>
	<g>
		<path id="XMLID_1_" class="st15" d="M310.7,96c1.8-1,3.9-1.4,5.9-1.1c2.2,0.2,3.6,0.7,5.2,2c-0.8,1.8-2.4,2.9-5.2,2.3
			C314.4,98.8,312.3,97.7,310.7,96z"/>
	</g>
</g>
<path class="st22" d="M321.8,96.8c-3.1-2.4-7.4-2.7-10.9-0.8"/>
<g>
	<g>
		<path id="XMLID_2_" class="st15" d="M327.3,97.4c1.5-1.5,3.4-2.3,5.4-2.6c2.2-0.3,3.6-0.3,5.5,0.6c-0.3,1.9-1.6,3.5-4.4,3.6
			C331.6,99.2,329.3,98.6,327.3,97.4z"/>
	</g>
</g>
<path class="st22" d="M338.3,95.4c-3.6-1.6-7.9-0.8-10.7,2"/>
<path class="st23" d="M321.5,89.9c-3.5-1.9-7.7-1.2-10.4,1.8C314.7,91,318,90.6,321.5,89.9z"/>
<path class="st23" d="M338.1,92.4c-2.7-3-6.9-3.7-10.4-1.8C331.3,91,334.5,91.8,338.1,92.4z"/>
<polyline class="st16" points="323.2,96 318.8,102.5 320.6,104 "/>
<circle class="st12" cx="313.4" cy="97.5" r="6.5"/>
<circle class="st12" cx="330.3" cy="97.5" r="6.5"/>
<path class="st12" d="M319.9,97.5c0,0,1.6-1.9,3.9,0"/>
<path class="st16" d="M343,224c0,0-3.7,17.1,14.1,25.8"/>
<g>
	<g>
		<line class="st24" x1="267.9" y1="430.2" x2="266.2" y2="424.4"/>
		<path class="st25" d="M262.8,412.5l-30.9-106.7c-1.8-6.4,1.5-13.1,7.6-15.5l81.3-32.1"/>
		<line class="st24" x1="326.6" y1="255.9" x2="332.2" y2="253.7"/>
	</g>
</g>
<path class="st26" d="M279.2,232l-64.9-72.8c-3.3-3.7-9.3-3-11.6,1.4l-49.1,93.2"/>
<path class="st7" d="M310.7,96c1.2,1.3,2.8,2.3,4.5,2.8c0.2-0.3,0.3-0.6,0.4-0.9c0.3-1.1,0.2-2.2-0.2-3.1
	C313.8,94.8,312.1,95.2,310.7,96z"/>
<path class="st7" d="M327.6,97.5c1.6,0.9,3.3,1.4,5.1,1.5c0.1-0.3,0.1-0.7,0.1-1c0-1.2-0.4-2.2-1-2.9
	C330.2,95.5,328.8,96.4,327.6,97.5z"/>
</svg>
