<?xml version="1.0" encoding="utf-8"?>
<!-- Generator: Adobe Illustrator 25.2.3, SVG Export Plug-In . SVG Version: 6.00 Build 0)  -->
<svg version="1.1" id="Layer_1" xmlns="http://www.w3.org/2000/svg" xmlns:xlink="http://www.w3.org/1999/xlink" x="0px" y="0px"
	 viewBox="0 0 556.1 490.3" style="enable-background:new 0 0 556.1 490.3;" xml:space="preserve">
<style type="text/css">
	.st0{opacity:0.32;fill:#F7C689;enable-background:new    ;}
	.st1{fill:#4B4065;}
	.st2{fill:#FBD7AD;}
	.st3{fill:#F27932;}
	.st4{fill:#B9C6E4;}
	.st5{fill:#FFFFFF;}
	.st6{fill:#495894;}
	.st7{opacity:0.38;fill:#4B4065;enable-background:new    ;}
	.st8{fill:#EF749B;}
	.st9{opacity:0.27;fill:#F27932;enable-background:new    ;}
	.st10{fill:#FFFFFF;stroke:#B9C6E4;stroke-miterlimit:10;}
	.st11{fill:none;stroke:#4B4065;stroke-miterlimit:10;}
	.st12{fill:#4B4065;stroke:#4B4065;stroke-linecap:round;stroke-linejoin:round;}
	.st13{fill:none;stroke:#4B4065;stroke-linecap:round;stroke-linejoin:round;stroke-miterlimit:10;}
	.st14{opacity:0.21;fill:#EF749B;enable-background:new    ;}
	.st15{fill:#F7C689;}
	.st16{fill:none;stroke:#B9C6E4;stroke-width:4;stroke-miterlimit:10;}
	.st17{opacity:0.45;fill:#B9C6E4;enable-background:new    ;}
	.st18{opacity:0.22;fill:#495894;enable-background:new    ;}
</style>
<path class="st0" d="M90.9,155.5c3.4-0.9,6.7-2.3,9.7-4.1c-3-1.9-6.3-3.3-9.7-4.2c-3.5-0.9-6.2-3.6-7.1-7.1
	c-0.9-3.4-2.2-6.7-4.1-9.7c-1.9,3-3.3,6.3-4.1,9.7c-0.9,3.5-3.6,6.2-7.1,7.1c-3.4,0.9-6.7,2.3-9.7,4.1c3,1.9,6.3,3.3,9.7,4.1
	c3.5,0.9,6.2,3.6,7.1,7.1c0.9,3.4,2.3,6.7,4.1,9.7c1.9-3,3.3-6.3,4.2-9.7C84.8,159.1,87.4,156.4,90.9,155.5z"/>
<circle class="st0" cx="96.3" cy="185.8" r="5.2"/>
<path class="st1" d="M204,195.2c5.1,14,6.8,34.9,5.8,49.8c-1.2,18-7.1,35.8-18.5,49.9c-15.6,19.2-42.3,30-66.1,23.3
	s-41.7-32.7-35.9-56.8c3-12.4,11.1-22.8,19.1-32.8c16.3-20.4,35.9-60.5,66.8-56.5C188.3,174,199.3,182.8,204,195.2z"/>
<polygon class="st2" points="186.1,277.6 182.1,235.4 172,235.2 172,235.4 162.1,235.4 157.2,277.5 172.3,278.1 172.3,277.9 "/>
<path class="st3" d="M182.1,235.4l-10.1-0.2v0.2h-9.9l-0.7,6.3c3.3,4.1,8.2,6.4,13.4,6.4h1.9c2.2,0,4.4-0.4,6.5-1.3L182.1,235.4z"/>
<path class="st2" d="M166.8,189.6c-16.8-0.1-15.3,21.4-15.3,21.4c0,8.1,0.1,16.8,5.4,22.8c2.7,3.1,8.8,8.7,14.6,8.7h1.9
	c5.7,0,10.2-4.7,12.5-7.4c5.3-6.1,6.5-15.7,6.5-23.7c0,0-1.1-23.4-16.2-21.9L166.8,189.6z"/>
<path class="st4" d="M236.8,294.7c-1.5-11.1-9.1-20.4-19.6-24.3L185.9,259h-28.6l-31.1,11.4c-10.5,3.8-18,13.2-19.6,24.2L90.4,351
	c-2.7,9.3,1.8,19.3,10.6,23.4l64,29.7h7.5L236,376c8.3-3.7,13-12.5,11.4-21.4L236.8,294.7z"/>
<path class="st5" d="M121,322.8h101.4c6.1,0,11.1,5,11.1,11.1v73.9l0,0H109.9l0,0v-73.9C109.9,327.8,114.8,322.8,121,322.8z"/>
<path class="st6" d="M292.1,351.6c-6.9-5.7-16.5-6.5-24.2-2l-111.4,65c-0.2,9,0.4,18.1,2,27l89.1-21.4c22.3-5.4,40.8-21,49.8-42.1
	l0.8-1.9C301.8,367.6,299.4,357.6,292.1,351.6z"/>
<path class="st7" d="M278,404.6l-49.9,8.3l-4.6-1.8c-3.8-1.5-8-1.8-12-1l-8,1.6l-23.6-10.8l-12.1,7.1l11.7,16.1l26.8,6l41.3-9.9
	C258.8,417.5,269.3,412.2,278,404.6z"/>
<path class="st2" d="M158.4,441.6c-1.6-8.9-2.2-18-2-27l-10.9,6.3l-8.1-2.7c-3.7-1.2-7.7-1-11.2,0.7l-4.3,2l-48.9-8
	c-4-0.6-7.8,2.1-8.5,6.2c-0.2,1.5,0,3,0.6,4.4l8.2,17.4c1.2,2.6,3.8,4.2,6.7,4.2h63.9L158.4,441.6z"/>
<path class="st8" d="M73.2,412.9l48.9,8l4.3-2c3.5-1.6,7.5-1.9,11.2-0.7l6.1,2l0,0l-5.8,24.9H80.2c-2.9,0-5.5-1.7-6.7-4.2l-8.2-17.5
	c-1.7-3.7-0.1-8.1,3.6-9.9C70.2,412.9,71.7,412.7,73.2,412.9L73.2,412.9z"/>
<path class="st5" d="M133.8,427.8c3.2,0,3.2-5,0-5S130.6,427.8,133.8,427.8z"/>
<path class="st5" d="M121.5,438.4c3.2,0,3.2-5,0-5S118.3,438.4,121.5,438.4z"/>
<path class="st5" d="M101.6,430.7c3.2,0,3.2-5,0-5S98.3,430.7,101.6,430.7z"/>
<path class="st5" d="M102.4,420.5c3.2,0,3.2-5,0-5C99.2,415.5,99.2,420.5,102.4,420.5z"/>
<path class="st5" d="M115.1,427.3c3.2,0,3.2-5,0-5S111.9,427.3,115.1,427.3z"/>
<path class="st5" d="M92.2,439.6c3.2,0,3.2-5,0-5S89,439.6,92.2,439.6z"/>
<path class="st5" d="M107.9,444.7c3.2,0,3.2-5,0-5S104.7,444.7,107.9,444.7z"/>
<path class="st5" d="M74,444.3c3.2,0,3.2-5,0-5S70.8,444.3,74,444.3z"/>
<path class="st5" d="M73.6,428.2c3.2,0,3.2-5,0-5S70.4,428.2,73.6,428.2z"/>
<path class="st5" d="M83.8,427.8c3.2,0,3.2-5,0-5C80.6,422.8,80.5,427.8,83.8,427.8z"/>
<path class="st5" d="M75.3,416.3c3.2,0,3.2-5,0-5C72.1,411.3,72.1,416.3,75.3,416.3z"/>
<path class="st2" d="M187.2,441.6c1.6-8.9,2.3-18,2-27l10.9,6.3l8.1-2.7c3.7-1.2,7.7-1,11.2,0.7l4.3,2l48.9-8c4-0.7,7.9,2.1,8.5,6.1
	c0.2,1.5,0,3-0.6,4.3l-8.2,17.4c-1.2,2.6-3.8,4.2-6.7,4.2h-63.7L187.2,441.6z"/>
<polygon class="st9" points="193.2,416.9 197.3,444 187.2,441.6 189.3,414.6 "/>
<path class="st6" d="M53.6,351.6c6.9-5.7,16.5-6.5,24.2-2l111.4,65c0.2,9-0.4,18.1-2,27l-89.1-21.4c-22.3-5.4-40.8-21-49.8-42.1
	l-0.8-1.9C43.9,367.6,46.4,357.6,53.6,351.6z"/>
<path class="st2" d="M192.3,211.5c0.5-2.4,2.8-3.9,5.1-3.4c0.7,0.1,1.3,0.4,1.9,0.9c1.9,1.5,2.1,4.3,1.5,6.6
	c-0.9,3.2-3.2,5.8-6.2,7.2c-0.8,0.4-1.7,0.6-2.6,0.5c-0.9-0.1-1.7-0.6-2.1-1.4"/>
<path class="st2" d="M151.8,211.5c-0.5-2.4-2.8-3.9-5.1-3.4c-0.7,0.1-1.3,0.4-1.9,0.9c-1.8,1.5-2.1,4.3-1.5,6.6
	c0.9,3.2,3.2,5.8,6.2,7.2c0.8,0.4,1.7,0.6,2.6,0.5c0.9-0.1,1.7-0.6,2.1-1.4"/>
<circle class="st10" cx="171.7" cy="361.9" r="9.1"/>
<path class="st1" d="M124.8,174.3c-1.9,2.7-3.7,5.7-4.2,9s0.4,7,3.1,9c3.8,2.9,9.4,1.2,13.2-1.7c5.3-4.2,11.8-15.1,7.4-21.9
	C138.8,160.2,128.6,168.9,124.8,174.3z"/>
<path class="st1" d="M209.5,174.3c1.9,2.7,3.7,5.7,4.2,9s-0.4,7-3.1,9c-3.8,2.9-9.4,1.2-13.2-1.7c-5.3-4.2-11.8-15.1-7.4-21.9
	C195.5,160.2,205.7,168.9,209.5,174.3z"/>
<path class="st1" d="M201.1,205c-9.2,2-20.6,5.9-27.6-0.5c-6-5.5-10-12.9-11.1-20.9C178,182.2,193.4,191.4,201.1,205z"/>
<path class="st1" d="M166.2,224.6c3.5,2.1,8,1.9,11.4-0.4c0.5-0.4,0-1.2-0.5-0.9c-3.1,2.2-7.1,2.3-10.3,0.4
	c-0.2-0.1-0.5-0.1-0.7,0.2C165.9,224.2,166,224.5,166.2,224.6z"/>
<path class="st5" d="M166.9,214.5c-1.8-1.9-4.2-3.1-6.8-3.5c-2.7-0.5-4.5-0.5-6.9,0.5c0.8,2.4,1.8,4.4,5.4,4.7
	C161.5,216.5,164.4,215.9,166.9,214.5z"/>
<path class="st11" d="M153.3,211.5c4.6-1.8,9.9-0.6,13.3,3.1"/>
<path class="st12" d="M164.6,207.1c-3.3-2.2-7.6-1.9-10.5,0.8C157.7,207.5,161,207.4,164.6,207.1z"/>
<path class="st5" d="M177.1,214.4c1.8-1.9,4.2-3.1,6.7-3.5c2.7-0.5,4.5-0.5,6.9,0.5c-0.3,2.4-1.8,4.4-5.4,4.7
	C182.5,216.4,179.6,215.8,177.1,214.4z"/>
<path class="st11" d="M190.7,211.4c-4.6-1.8-9.9-0.6-13.3,3"/>
<path class="st13" d="M172.2,213.7c1.4,0.3,2.3,1.6,2,3c-0.2,0.8-0.7,1.5-1.4,1.8"/>
<circle class="st14" cx="158.7" cy="222.9" r="5.5"/>
<circle class="st14" cx="185.3" cy="222.9" r="5.5"/>
<path class="st1" d="M189.2,214.6c-1.9-2.4-5.4-2.8-7.7-0.9c-0.6,0.5-1.2,1.1-1.5,1.9c1.7,0.5,3.4,0.7,5.1,0.6l1.8-0.3
	C187.7,215.7,188.5,215.2,189.2,214.6z"/>
<path class="st1" d="M155.3,214.8c1.9-2.4,5.4-2.8,7.7-0.9c0.6,0.5,1.2,1.1,1.5,1.9c-1.7,0.5-3.4,0.7-5.1,0.6
	C158.2,216.3,155.8,215.7,155.3,214.8z"/>
<path class="st10" d="M225.9,264.3v-207c0-9.6,7.8-17.4,17.4-17.4h236.3c9.6,0,17.4,7.8,17.4,17.4l0,0v145.8
	c0,9.6-7.8,17.4-17.4,17.4H278.3L232,266.8c-1.4,1.4-3.6,1.4-5,0C226.3,266.2,225.9,265.2,225.9,264.3z"/>
<path class="st15" d="M358.5,73.6l3,4.3c0.2,0.2,0.4,0.4,0.6,0.4l5,1.6c0.6,0.2,1,0.9,0.8,1.5c0,0.1-0.1,0.2-0.2,0.4l-3.1,4.2
	c-0.2,0.2-0.2,0.5-0.2,0.7l0.1,5.2c0,0.7-0.5,1.2-1.2,1.2c-0.1,0-0.3,0-0.4-0.1l-5-1.6c-0.2-0.1-0.5-0.1-0.8,0l-5,1.7
	c-0.6,0.2-1.3-0.1-1.5-0.7c0-0.1-0.1-0.3-0.1-0.4l0.1-5.2c0-0.3-0.1-0.5-0.2-0.7l-3.1-4.2c-0.4-0.5-0.3-1.3,0.2-1.7
	c0.1-0.1,0.2-0.1,0.4-0.2l5-1.6c0.3-0.1,0.5-0.2,0.6-0.4l3-4.3c0.4-0.6,1.1-0.7,1.7-0.3C358.3,73.4,358.4,73.5,358.5,73.6z"/>
<path class="st15" d="M388.4,73.6l3,4.3c0.1,0.2,0.4,0.4,0.6,0.4l5,1.6c0.6,0.2,1,0.9,0.8,1.5c0,0.1-0.1,0.2-0.2,0.4l-3.1,4.2
	c-0.2,0.2-0.2,0.5-0.2,0.7l0.1,5.2c0,0.7-0.5,1.2-1.2,1.2c-0.1,0-0.3,0-0.4-0.1l-4.9-1.6c-0.2-0.1-0.5-0.1-0.8,0l-5,1.7
	c-0.6,0.2-1.3-0.1-1.5-0.7c0-0.1-0.1-0.3-0.1-0.4l0.1-5.2c0-0.3-0.1-0.5-0.2-0.7l-3.1-4.2c-0.4-0.5-0.3-1.3,0.2-1.7
	c0.1-0.1,0.2-0.1,0.4-0.2l5-1.6c0.3-0.1,0.5-0.2,0.6-0.4l3-4.3c0.3-0.6,1.1-0.7,1.6-0.4C388.1,73.3,388.3,73.4,388.4,73.6z"/>
<path class="st15" d="M418.2,73.6l3,4.3c0.1,0.2,0.4,0.4,0.6,0.4l5,1.6c0.6,0.2,1,0.9,0.8,1.5c0,0.1-0.1,0.3-0.2,0.4l-3.1,4.2
	c-0.2,0.2-0.2,0.5-0.2,0.7l0.1,5.2c0,0.7-0.5,1.2-1.2,1.2c-0.1,0-0.3,0-0.4-0.1l-5-1.7c-0.2-0.1-0.5-0.1-0.8,0l-4.9,1.7
	c-0.6,0.2-1.3-0.1-1.5-0.7c0-0.1-0.1-0.3-0.1-0.4l0.1-5.2c0-0.3-0.1-0.5-0.2-0.7l-3.1-4.2c-0.4-0.5-0.3-1.3,0.3-1.7
	c0.1-0.1,0.2-0.1,0.4-0.2l5-1.6c0.3-0.1,0.5-0.2,0.6-0.4l3-4.3c0.4-0.5,1.1-0.7,1.7-0.3C418,73.4,418.1,73.5,418.2,73.6z"/>
<line class="st16" x1="347.1" y1="115.9" x2="450.3" y2="115.9"/>
<line class="st16" x1="347.1" y1="131.5" x2="450.3" y2="131.5"/>
<line class="st16" x1="347.1" y1="147.2" x2="402.2" y2="147.2"/>
<ellipse transform="matrix(0.1602 -0.9871 0.9871 0.1602 143.2442 378.1564)" class="st17" cx="293.9" cy="104.9" rx="31.8" ry="31.8"/>
<polygon class="st18" points="109.9,356.5 171.7,399.8 233.5,356.5 233.4,376.6 171.7,411.6 109.3,373.1 "/>
<path class="st8" d="M272.5,412.9l-48.9,7.9l-4.3-2c-3.5-1.6-7.5-1.9-11.2-0.7l-6.1,2.1l0,0l5.8,24.8h57.7c2.9,0,5.5-1.7,6.7-4.2
	l8.2-17.4c1.7-3.7,0.1-8.1-3.6-9.9C275.6,412.9,274.1,412.7,272.5,412.9L272.5,412.9z"/>
<path class="st5" d="M211.9,427.8c3.2,0,3.2-5,0-5S208.7,427.8,211.9,427.8z"/>
<path class="st5" d="M224.2,438.4c3.2,0,3.2-5,0-5S221,438.4,224.2,438.4z"/>
<path class="st5" d="M244.1,430.7c3.2,0,3.2-5,0-5S240.9,430.7,244.1,430.7z"/>
<path class="st5" d="M243.3,420.5c3.2,0,3.2-5,0-5S240.1,420.5,243.3,420.5z"/>
<path class="st5" d="M230.6,427.3c3.2,0,3.2-5,0-5S227.4,427.3,230.6,427.3z"/>
<path class="st5" d="M253.5,439.6c3.2,0,3.2-5,0-5C250.3,434.6,250.3,439.6,253.5,439.6z"/>
<path class="st5" d="M237.8,444.7c3.2,0,3.2-5,0-5S234.6,444.7,237.8,444.7z"/>
<path class="st5" d="M271.7,444.3c3.2,0,3.2-5,0-5S268.5,444.3,271.7,444.3z"/>
<path class="st5" d="M272.1,428.2c3.2,0,3.2-5,0-5S268.9,428.2,272.1,428.2z"/>
<path class="st5" d="M262,427.8c3.2,0,3.2-5,0-5S258.7,427.8,262,427.8z"/>
<path class="st5" d="M270.4,416.3c3.2,0,3.2-5,0-5C267.2,411.3,267.2,416.3,270.4,416.3z"/>
</svg>
