<?xml version="1.0" encoding="utf-8"?>
<!-- Generator: Adobe Illustrator 25.2.3, SVG Export Plug-In . SVG Version: 6.00 Build 0)  -->
<svg version="1.1" id="Layer_1" xmlns="http://www.w3.org/2000/svg" xmlns:xlink="http://www.w3.org/1999/xlink" x="0px" y="0px"
	 viewBox="0 0 617.5 532.9" style="enable-background:new 0 0 617.5 532.9;" xml:space="preserve">
<style type="text/css">
	.st0{fill:#F7C689;}
	.st1{fill:#4B4065;}
	.st2{fill:#EF749B;}
	.st3{opacity:0.7;fill:#EF749B;enable-background:new    ;}
	.st4{fill:none;stroke:#231F20;stroke-miterlimit:10;}
	.st5{fill:#FBD7AD;}
	.st6{fill:#FFFFFF;stroke:#B9C6E4;stroke-miterlimit:10;}
	.st7{fill:#FFFFFF;stroke:#EF749B;stroke-miterlimit:10;}
	.st8{fill:none;stroke:#EF749B;stroke-miterlimit:10;}
	.st9{fill:#C2D9F0;}
	.st10{fill:#F27932;}
	.st11{fill:none;stroke:#FFFFFF;stroke-miterlimit:10;}
	.st12{fill:none;stroke:#4B4065;stroke-miterlimit:10;}
	.st13{fill:none;stroke:#F27932;stroke-width:0.75;stroke-miterlimit:10;}
	.st14{fill:none;stroke:#C2D9F0;stroke-miterlimit:10;}
	.st15{fill:#FFFFFF;}
	.st16{opacity:0.37;fill:#F27932;enable-background:new    ;}
	.st17{fill:#FFFFFF;stroke:#F7C689;stroke-miterlimit:10;}
	.st18{fill:none;stroke:#F27932;stroke-linecap:round;stroke-linejoin:round;stroke-miterlimit:10;}
	.st19{fill:none;stroke:#4B4065;stroke-linecap:round;stroke-linejoin:round;stroke-miterlimit:10;}
</style>
<rect x="310.5" y="199.4" class="st0" width="40.3" height="15.3"/>
<circle class="st1" cx="330.6" cy="85.6" r="21.9"/>
<path class="st2" d="M344.6,287.8h-64.3l-5.6,31.7C300.2,315,324.3,304.1,344.6,287.8z"/>
<polygon class="st3" points="258.4,410.2 280.2,287.8 377.1,287.8 398,410.2 "/>
<path class="st4" d="M306,286.7c0-12.2,9.9-22.1,22.1-22.1s22.1,9.9,22.1,22.1"/>
<polygon class="st5" points="80,433.8 104.5,296.4 213.1,296.4 236.5,433.8 "/>
<path class="st6" d="M133.4,295.2c0-13.7,11.1-24.8,24.8-24.8s24.8,11.1,24.8,24.8"/>
<polygon class="st6" points="350,434 375.1,293.7 486,293.7 510,434 "/>
<path class="st6" d="M404.6,292.5c0.3-14,11.9-25.1,25.9-24.9c13.6,0.3,24.6,11.2,24.9,24.9"/>
<polygon class="st7" points="163.7,466.1 178.9,380.7 246.4,380.7 261,466.1 "/>
<path class="st8" d="M196.9,379.9c0-8.5,6.9-15.4,15.4-15.4s15.4,6.9,15.4,15.4"/>
<path class="st0" d="M281.6,417.5c-0.2,1,5.5,20.8,8,29.1c0.7,2.3,0.2,4.7-1.2,6.6l-41.5,53.5l-0.2-0.7c-1.7-6.5-1.2-13.4,1.5-19.6
	l10.6-24.3l-7.4-32.7"/>
<path class="st0" d="M134.5,254.4l-9,17.7l-37.2,10.8c-5.5,2.1-10.2,5.8-13.4,10.7l-0.3,0.5h68.2c4.6-0.2,8.7-2.9,10.5-7.1
	l13.4-32.6"/>
<path class="st0" d="M220,68.6c2,7,41.8,116.6,41.8,116.6l-37.9-5.3L195.5,74.8"/>
<path class="st0" d="M317.8,110.3c0,0-2.6,24.2-7.1,30.6c0,0,11.4,13.8,24.8,1.3l-3.6-34.2"/>
<path class="st9" d="M310.7,137.4c0,0-19.8-11.5-31.6-2.7c-11.8,8.8-31.3,64.5-31.3,64.5l24.4,13L310.7,137.4z"/>
<path class="st1" d="M310.7,207.6c0,0,17.6,11.9,39.9,0c0,0,18.7,49.7,2.7,66.6c-28.4,30-98.2,23.7-98.2,23.7l28.2,120.6l-33,15.2
	l-46-133.5c-5-14.6,2.4-30.5,16.9-36l72.3-27.4L310.7,207.6z"/>
<path class="st1" d="M310.7,219.9c2.8-2.1-60.6-63.5-84.8-86.8c-5.8-5.6-13.8-8.2-21.8-7.2l0,0c-8.9,1.2-16.7,6.8-20.6,14.9
	L128,257.3h40.9l40-74.8l56.5,74.8h45.2L310.7,219.9z"/>
<path class="st10" d="M257.7,33.2L257.7,33.2c2.2,5.6,8.4,8.6,14.2,6.8l0,0c6.1-1.9,12.6,1.6,14.5,7.7c0.9,3.1,0.6,6.4-1,9.1l0,0
	c-3,5.2-1.5,11.9,3.5,15.3l0,0c5.3,3.6,6.6,10.8,3,16.1c-1.8,2.6-4.6,4.4-7.8,4.9l0,0c-6,0.9-10.2,6.3-9.8,12.3l0,0
	c0.5,6.4-4.3,11.9-10.7,12.4c-3.2,0.2-6.4-0.9-8.7-3.1l0,0c-4.4-4.1-11.3-4.1-15.7,0l0,0c-4.7,4.3-12,4.1-16.4-0.6
	c-2.2-2.4-3.3-5.5-3.1-8.7l0,0c0.4-6-3.8-11.4-9.8-12.3l0,0c-6.3-1-10.7-6.9-9.7-13.2c0.5-3.2,2.3-6,4.9-7.8l0,0
	c5-3.4,6.5-10.1,3.5-15.3l0,0c-3.2-5.6-1.2-12.6,4.3-15.8c2.8-1.6,6-1.9,9.1-1l0,0c5.8,1.8,12-1.2,14.2-6.8l0,0
	c2.3-6,9.1-8.9,15-6.6C254.1,27.8,256.5,30.2,257.7,33.2z"/>
<path class="st0" d="M198.6,86.1l-4.2-15.8c-0.9-3.5-0.9-7.3-0.1-10.8l0,0c0.4-1.9,2.1-3.2,4-3.2h1.6l-0.5-2.6
	c-0.2-0.9,0-1.9,0.5-2.8l0,0c0.7-1.2,2-1.9,3.4-1.9h0.3l-0.2-1c-0.2-1.4,0.3-2.8,1.4-3.7l0,0c1-0.8,2.3-1.1,3.5-0.8l2,0.5l20.7,7.5
	c0,0-2,5.3-6.5,4.4c0,0-1.2,4.7-5.1,4.5c-3.9-0.2-4.4-0.9-4.4-0.9l4.4,2c0,0-1,4.7-4,4.1s-10.1-2.8-10.1-2.8l5.9,1.7"/>
<path class="st9" d="M310.7,135.9c0,0-17.6,23.2-16.3,31.5c1.3,8.3,15.1,14.2,15.1,14.2l1.2,21c0,0,15.7,13.2,39.9,0l6.8-40.4
	c0,0-10.9-8.2-21.8-25.1C335.6,137.1,319,145.4,310.7,135.9z"/>
<path class="st10" d="M332.9,117l-0.9-9l-14.2,2.2c0,0-0.3,2.9-0.9,6.9c0.8,1.6,2,2.9,3.5,3.8c2.6,1.4,5.8,0.9,8.3-0.6
	C330.3,119.4,331.7,118.3,332.9,117z"/>
<path class="st0" d="M320.9,75.1c-10.7,7.8-11.8,17.6-11.4,26.7s9.6,14.5,14,13.9s19.3-6.9,19.5-25.8S326.8,70.8,320.9,75.1z"/>
<path class="st0" d="M341.2,94.5c1.1-1.6,3-2.5,4.9-2.5c2,0.1,3.7,1.2,4.6,3c0.7,1.8,0.3,3.9-1,5.3c-2.5,2.8-7,2-7.9,1.8
	c-1-0.2-1.7-0.9-2.1-1.8"/>
<rect x="73.8" y="294" class="st10" width="79.8" height="2.4"/>
<path class="st11" d="M103.3,294c-0.1-7-3.1-12.7-8.3-17.4l5.4-0.9c5.2,4.7,8.2,11.3,8.3,18.2"/>
<line class="st12" x1="259.7" y1="249.7" x2="310.8" y2="230.5"/>
<line class="st12" x1="308.1" y1="213.4" x2="293.5" y2="236.9"/>
<path class="st12" d="M323.3,181.4c7.5,5.6,18.2,4.1,23.8-3.4c1.3-1.7,2.2-3.7,2.8-5.8"/>
<path class="st1" d="M345.2,87.6c-8.5-0.8-16.2-7.8-19.4-15.6C337.6,71,344.6,78.3,345.2,87.6z"/>
<polygon class="st1" points="132,259.1 162.4,264.9 165.6,257.3 132.9,257.3 "/>
<polygon class="st11" points="128,266.5 160,273 156.8,281.8 124.1,271.4 "/>
<polygon class="st11" points="141.4,293.5 145.9,278.3 152,280.2 152,293.5 "/>
<line class="st13" x1="224.5" y1="55.9" x2="207.5" y2="50.1"/>
<line class="st13" x1="218" y1="60.5" x2="204.1" y2="55.8"/>
<line class="st13" x1="214.4" y1="65.7" x2="203.2" y2="61.9"/>
<path class="st14" d="M387.2,106.2h224.6c-9.8-13-21.5-24-37.3-27.6c-4.4-1-9-1.6-13.4-0.5s-8.4,4.3-9.5,8.7
	c-16.9-25.6-45.8-42.8-75.9-48c-8.6-1.5-17.9-1.9-25.7,1.9c-7.7,3.9-13,11.3-14.1,19.8c-1,8.5,2.3,17,8.8,22.7
	c-4-9.3-18.1-13.6-25.4-6.5c-5,4.9-6.2,12.4-9.9,18.3C404.7,102.3,395.8,106.2,387.2,106.2z"/>
<rect x="390.5" y="318.5" class="st9" width="78.4" height="46.5"/>
<path class="st15" d="M175.7,367.3c1.8-0.5,3.6-1.2,5.2-2.2c-1.6-1-3.4-1.8-5.2-2.2c-1.9-0.5-3.3-2-3.8-3.8
	c-0.5-1.9-1.2-3.6-2.2-5.2c-1,1.6-1.8,3.4-2.2,5.2c-0.5,1.9-2,3.3-3.8,3.8c-1.9,0.5-3.6,1.2-5.2,2.2c1.6,1,3.4,1.8,5.2,2.2
	c1.9,0.5,3.3,2,3.8,3.9c0.5,1.8,1.2,3.6,2.2,5.2c1-1.6,1.8-3.4,2.2-5.2C172.3,369.3,173.8,367.8,175.7,367.3z"/>
<path class="st9" d="M534.5,282.5c3.4-0.9,6.7-2.3,9.7-4.1c-3-1.9-6.3-3.3-9.7-4.1c-3.5-0.9-6.2-3.6-7.1-7.1
	c-0.9-3.4-2.3-6.7-4.1-9.7c-1.9,3-3.3,6.3-4.1,9.7c-0.9,3.5-3.6,6.2-7.1,7.1c-3.4,0.9-6.7,2.3-9.7,4.1c3,1.9,6.3,3.3,9.7,4.1
	c3.5,0.9,6.2,3.6,7.1,7.1c0.9,3.4,2.3,6.7,4.1,9.7c1.9-3,3.3-6.3,4.1-9.7C528.3,286.1,531,283.4,534.5,282.5z"/>
<path class="st14" d="M75.4,197.6l1.2-26l-21.8,13.9l-6.5-11.1l23-11.8l-23-11.8l6.5-11.1l21.8,14.2l-1.2-26h12.8l-1.2,26l21.9-14.3
	l6.5,11.1l-23.2,11.8l23.2,11.8l-6.5,11.2l-21.8-13.9l1.2,26L75.4,197.6L75.4,197.6z"/>
<polygon class="st15" points="243.6,92.1 237.3,92.1 250.1,55.4 256.5,55.4 "/>
<path class="st15" d="M232.8,56.6c-4.3,0-7.8,3.5-7.8,7.8s3.5,7.8,7.8,7.8s7.8-3.5,7.8-7.8S237.1,56.6,232.8,56.6L232.8,56.6z
	 M232.8,67.5c-1.7,0-3.1-1.4-3.1-3.1s1.4-3.1,3.1-3.1c1.7,0,3.1,1.4,3.1,3.1l0,0C236,66.1,234.5,67.5,232.8,67.5z"/>
<path class="st15" d="M261,76.6c-4.3,0-7.8,3.5-7.8,7.8s3.5,7.8,7.8,7.8s7.8-3.5,7.8-7.8l0,0C268.7,80,265.2,76.6,261,76.6z
	 M261,87.5c-1.7,0-3.1-1.4-3.1-3.1s1.4-3.1,3.1-3.1s3.1,1.4,3.1,3.1l0,0C264.1,86.1,262.7,87.5,261,87.5L261,87.5z"/>
<rect x="232" y="477.9" transform="matrix(0.6053 -0.796 0.796 0.6053 -273.9846 405.5786)" class="st10" width="79.9" height="2.4"/>
<path class="st11" d="M264.7,486.7c-5.6-4.2-12-5.2-18.8-3.9l2.6-4.8c6.8-1.3,13.9,0.3,19.5,4.4"/>
<polygon class="st1" points="252.6,434.7 283.6,425.8 281.9,419.2 252.2,432.9 "/>
<polygon class="st11" points="256.1,450.3 284,427.2 287.3,436.7 257.7,456.4 "/>
<polygon class="st11" points="287.3,456 278,443.2 283.1,439.5 293.8,447.6 "/>
<circle class="st15" cx="142.1" cy="389.8" r="2.5"/>
<circle class="st9" cx="506.1" cy="308.3" r="3.8"/>
<polygon class="st1" points="249.5,236.2 293.5,236.9 259.7,249.7 "/>
<rect x="304.3" y="379.9" class="st5" width="132.3" height="76.4"/>
<rect x="300.8" y="376.4" class="st0" width="138.7" height="15.8"/>
<polygon class="st16" points="304.3,395.6 436.6,400.6 436.6,392.2 304.3,392.2 "/>
<path class="st15" d="M382.8,392.2c0,7-5.6,12.6-12.6,12.6c-6.9,0-12.6-5.6-12.6-12.6"/>
<rect x="50" y="368.4" class="st5" width="88" height="76.4"/>
<polygon class="st16" points="50,384 138,389.1 138,380.7 50,380.7 "/>
<path class="st15" d="M107,380.7c0,7-5.6,12.6-12.6,12.6s-12.6-5.6-12.6-12.6"/>
<rect x="46.4" y="364.9" class="st17" width="94.5" height="15.8"/>
<rect x="68.1" y="417.1" class="st15" width="52.6" height="8.9"/>
<polygon class="st1" points="146.1,296.4 102.2,308.9 104.5,296.4 "/>
<path class="st12" d="M445.5,201.7c-0.5-12.3,10.6-23.8,22.9-23.7s23.2,11.8,22.5,24.1c-0.4,6.7-5.3,13.9-12,13.5
	c-6.5-0.4-10.4-7.9-10.5-14.4c-0.2-15.4,16.1-28.6,31.1-25.4"/>
<polyline class="st18" points="323.2,89.2 318.8,95.7 320.6,97.2 "/>
<path class="st19" d="M343,217.2c0,0-3.7,17.1,14.1,25.8"/>
<circle class="st1" cx="345" cy="58.1" r="14.8"/>
<path class="st19" d="M318.8,103.1c0,0,4.2,1.8,8.5-1.4"/>
<path class="st9" d="M340.8,142.7H309v-16.9c0-1,0.8-1.8,1.8-1.8H339c1,0,1.8,0.8,1.8,1.8V142.7z"/>
<path class="st0" d="M367.9,240.1c0,0-0.2,41.9,5,51.5c4.8,9,33.1,4.2,35.7,4.8c2.7,0.5,15.3,5.3,19.3,2.9
	c2.9-1.7-14.1-10.4-23.2-14.9c-2.8-1.4-11.3,0-14.2-6c-5.3-11.1,1.1-45.4,1.1-45.4"/>
<path class="st9" d="M357.1,162.3c0.9,2.4,0.5,5.9,0.7,8.4c0.5,8,1.2,16,1.9,24c1.6,17.9,3.4,35.8,4.6,53.7
	c0.7,10.1,35.5,1.4,35.2-6.8c-0.6-16.9-10.9-33.9-10.9-50.8c0-13.5,0.1-27.1,0.4-40.7c0.2-9.5-1.8-30.4-22.9-30.3
	c-5.5,0-10.1,4.1-14.9,6.9c-3.2,1.9-15.6,10.4-15.6,10.4c3,5.2,6.6,10,10.6,14.5C352.4,158.3,357,161.8,357.1,162.3z"/>
<path class="st12" d="M355.7,149.9l2.9,31.3"/>
<path class="st13" d="M387,287.8c0,0,6.5,4.1,14.1,3.8c7.6-0.3,7.1,4.7,5.5,4.8"/>
<line class="st13" x1="406.1" y1="289" x2="426.1" y2="300"/>
<g>
	<path class="st1" d="M334.9,84.3c-1-1.3-2.4-2.2-4-2.5s-3.3,0.1-4.8,1.1C329.3,83.4,331.8,83.8,334.9,84.3z"/>
	<path class="st1" d="M326.1,83.2c-0.2-0.1-0.4-0.2-0.3-0.4c0-0.1,0.1-0.2,0.2-0.3c1.4-1,3.3-1.4,5-1.1s3.2,1.3,4.3,2.7
		c0.1,0.2,0.1,0.3-0.1,0.5c-0.1,0.1-0.2,0.1-0.3,0.1c-1.6-0.2-3-0.5-4.4-0.7S327.6,83.4,326.1,83.2L326.1,83.2z M331,82.2l-0.3-0.1
		c-1.2-0.2-2.5,0-3.7,0.6l3.4,0.6l3.5,0.6C333.3,83,332.2,82.4,331,82.2L331,82.2z"/>
</g>
<g>
	<path class="st1" d="M318.6,83c-1-1.3-2.4-2.2-4-2.5s-3.3,0.1-4.8,1.1C312.9,82,315.5,82.5,318.6,83z"/>
	<path class="st1" d="M309.7,81.9c-0.2-0.1-0.4-0.2-0.3-0.4c0-0.1,0.1-0.2,0.2-0.3c1.4-1,3.3-1.4,5-1.1s3.2,1.3,4.3,2.7
		c0.1,0.2,0.1,0.3-0.1,0.5c-0.1,0.1-0.2,0.1-0.3,0.1c-1.6-0.2-3-0.5-4.4-0.7S311.3,82.1,309.7,81.9L309.7,81.9z M314.6,80.9
		l-0.3-0.1c-1.2-0.2-2.5,0-3.7,0.6L314,82l3.5,0.6C316.9,81.6,315.9,81.1,314.6,80.9L314.6,80.9z"/>
</g>
<g>
	<g>
		<path class="st1" d="M323.8,91.2c-0.1,0-0.2,0-0.3-0.1c-1.8-1.5-3.1-0.2-3.2-0.1c-0.2,0.2-0.5,0.2-0.7,0.1s-0.2-0.5-0.1-0.7
			c0.7-0.8,2.5-1.8,4.6-0.1c0.2,0.2,0.2,0.5,0.1,0.7C324.1,91.1,323.9,91.2,323.8,91.2z"/>
	</g>
	<g>
		<path class="st1" d="M329,97.3L329,97.3c-3.5-0.4-6.1-3.7-5.6-7.2l0.3-2.3c0.2-1.5,1.5-2.5,3-2.3l7.5,0.9c1.5,0.2,2.5,1.5,2.3,3
			l-0.3,2.3C335.8,95.2,332.6,97.7,329,97.3z"/>
	</g>
	<g>
		<path class="st1" d="M313.5,95.9L313.5,95.9c-3.5-0.4-6.1-3.7-5.6-7.2l0.3-2.3c0.2-1.5,1.5-2.5,3-2.3l7.5,0.9
			c1.5,0.2,2.5,1.5,2.3,3l-0.3,2.3C320.3,93.9,317,96.4,313.5,95.9z"/>
	</g>
</g>
<path class="st18" d="M342.3,97.9c0.3-0.1,2.1-3.1,6.4-1.9"/>
</svg>
