<?xml version="1.0" encoding="utf-8"?>
<!-- Generator: Adobe Illustrator 25.2.3, SVG Export Plug-In . SVG Version: 6.00 Build 0)  -->
<svg version="1.1" id="Layer_1" xmlns="http://www.w3.org/2000/svg" xmlns:xlink="http://www.w3.org/1999/xlink" x="0px" y="0px"
	 viewBox="0 0 776.7 489.1" style="enable-background:new 0 0 776.7 489.1;" xml:space="preserve">
<style type="text/css">
	.st0{opacity:0.46;fill:#EF749B;enable-background:new    ;}
	.st1{fill:none;stroke:#231F20;stroke-miterlimit:10;}
	.st2{fill:#FFFFFF;stroke:#F27932;stroke-width:2;stroke-miterlimit:10;}
	.st3{fill:none;stroke:#F27932;stroke-miterlimit:10;}
	.st4{fill:#F7C689;stroke:#F27932;stroke-miterlimit:10;}
	.st5{fill:#F7C689;}
	.st6{fill:#FFFFFF;}
	.st7{fill:#ED4F2E;}
	.st8{fill:#F7C689;stroke:#FFFFFF;stroke-miterlimit:10;}
	.st9{fill:#F27932;stroke:#FFFFFF;stroke-miterlimit:10;}
	.st10{fill:#F27932;}
	.st11{fill:#F27932;stroke:#F7C689;stroke-miterlimit:10;}
	.st12{fill:#C2D9F0;}
	.st13{fill:#B9C6E4;}
	.st14{fill:#495894;}
	.st15{fill:none;stroke:#F27932;stroke-width:0.75;stroke-linecap:round;stroke-linejoin:round;stroke-miterlimit:10;}
	.st16{fill:none;stroke:#F7C689;stroke-miterlimit:10;}
	.st17{opacity:0.31;fill:#C2D9F0;enable-background:new    ;}
	.st18{fill:none;stroke:#495894;stroke-width:2;stroke-miterlimit:10;}
	.st19{fill:#FFFFFF;stroke:#F7C689;stroke-miterlimit:10;}
	.st20{fill:#FFFFFF;stroke:#F27932;stroke-miterlimit:10;}
	.st21{fill:#EF749B;}
	.st22{fill:#FFFFFF;stroke:#C2D9F0;stroke-miterlimit:10;}
	.st23{fill:#EDF3FA;}
</style>
<polygon class="st0" points="59.8,414.9 86.3,266.4 203.8,266.4 229.1,414.9 "/>
<path class="st1" d="M117.6,265c-0.3-14.8,11.5-27.1,26.3-27.4c14.8-0.3,27.1,11.5,27.4,26.3c0,0.3,0,0.7,0,1"/>
<polyline class="st2" points="39.7,260.5 63.7,260.5 51.7,206.8 84.4,233.7 84.4,201.6 107.7,222.3 127.8,195.1 "/>
<path class="st3" d="M399.1,126.3V65.8c0-6.2,5-11.1,11.1-11.2h304.3c6.1,0,11.1,5,11.1,11.2v180.2c0,6.2-5,11.1-11.2,11.1l0,0H543"
	/>
<circle class="st4" cx="428.9" cy="79.2" r="3.7"/>
<circle class="st4" cx="451.7" cy="79.2" r="3.7"/>
<circle class="st4" cx="474.6" cy="79.2" r="3.7"/>
<rect x="567.8" y="54" class="st5" width="159.6" height="103.8"/>
<path class="st3" d="M607.6,59.7V47.6c0-4.1-3.3-7.3-7.3-7.3l0,0l0,0c-4.1,0-7.3,3.3-7.3,7.3c0,0,0,0,0,0v15.8
	c0,6.9,5.6,12.5,12.5,12.5l0,0l0,0c6.9,0,12.5-5.6,12.5-12.5c0,0,0,0,0,0V42.8c0-9.6-7.8-17.3-17.3-17.3c0,0,0,0,0,0l0,0
	c-9.6,0-17.3,7.8-17.3,17.3c0,0,0,0,0,0V54"/>
<rect x="589.6" y="87.2" class="st6" width="117.5" height="15.1"/>
<circle class="st7" cx="599.4" cy="128.2" r="9.7"/>
<circle class="st8" cx="614.7" cy="128.2" r="9.7"/>
<ellipse class="st9" cx="607.1" cy="128.2" rx="2.1" ry="6"/>
<polygon class="st10" points="567.8,157.8 725.7,192.4 725.7,157.8 "/>
<rect x="665.6" y="118.5" class="st11" width="41.5" height="15.6"/>
<path class="st12" d="M266.6,178.2c2.6-0.7,5-1.7,7.2-3.1c-2.2-1.4-4.7-2.4-7.2-3.1c-2.6-0.7-4.6-2.7-5.3-5.3
	c-0.7-2.5-1.7-5-3.1-7.2c-1.4,2.2-2.4,4.7-3.1,7.2c-0.7,2.6-2.7,4.6-5.3,5.3c-2.6,0.7-5,1.7-7.2,3.1c2.2,1.4,4.7,2.4,7.2,3.1
	c2.6,0.7,4.6,2.7,5.3,5.3c0.6,2.6,1.7,5,3.1,7.2c1.4-2.2,2.4-4.7,3.1-7.2C262,180.9,264,178.9,266.6,178.2z"/>
<path class="st5" d="M710.3,296.4c2.5-0.7,5-1.7,7.2-3.1c-2.2-1.4-4.7-2.4-7.2-3.1c-2.6-0.7-4.6-2.7-5.3-5.3c-0.7-2.6-1.7-5-3.1-7.2
	c-1.4,2.2-2.4,4.7-3.1,7.2c-0.7,2.6-2.7,4.6-5.3,5.3c-2.5,0.7-5,1.7-7.2,3.1c2.2,1.4,4.7,2.4,7.2,3.1c2.6,0.7,4.6,2.7,5.3,5.3
	c0.7,2.5,1.7,5,3.1,7.2c1.4-2.2,2.4-4.7,3.1-7.2C705.7,299.1,707.7,297.1,710.3,296.4z"/>
<path class="st5" d="M728.5,432.1c2.8-0.7,5.5-1.9,8-3.4c-2.5-1.6-5.2-2.7-8-3.4c-2.9-0.8-5.1-3-5.9-5.9c-0.7-2.8-1.9-5.5-3.4-8
	c-1.5,2.5-2.7,5.2-3.4,8c-0.8,2.9-3,5.1-5.9,5.9c-2.8,0.7-5.5,1.9-8,3.4c2.5,1.6,5.2,2.7,8,3.4c2.9,0.8,5.1,3,5.9,5.9
	c0.7,2.8,1.9,5.5,3.4,8c1.5-2.5,2.7-5.2,3.4-8C723.4,435.1,725.6,432.8,728.5,432.1z"/>
<path class="st13" d="M340.7,108.9l0.8-17.3l-14.5,9.3l-4.3-7.4l15.3-7.9l-15.3-7.9l4.3-7.4l14.5,9.4l-0.8-17.3h8.5l-0.8,17.3
	l14.5-9.4l4.3,7.4l-15.5,7.9l15.5,7.9l-4.3,7.4l-14.5-9.3l0.8,17.3L340.7,108.9z"/>
<path class="st6" d="M66.2,47.6h195.7c5,0,9.1,4.1,9.1,9.1v45.5c0,5-4.1,9.1-9.1,9.1H66.2c-5,0-9.1-4.1-9.1-9.1V56.7
	C57.1,51.7,61.2,47.6,66.2,47.6z"/>
<path class="st14" d="M261.5,111.8h-4.2v-1h4.2V111.8z M253.2,111.8h-4.2v-1h4.2V111.8z M244.9,111.8h-4.2v-1h4.2L244.9,111.8z
	 M236.6,111.8h-4.2v-1h4.2V111.8z M228.2,111.8h-4.2v-1h4.2V111.8z M219.9,111.8h-4.2v-1h4.2L219.9,111.8z M211.6,111.8h-4.2v-1h4.2
	L211.6,111.8z M203.2,111.8h-4.2v-1h4.2V111.8z M194.9,111.8h-4.2v-1h4.2L194.9,111.8z M186.6,111.8h-4.2v-1h4.2V111.8z
	 M178.2,111.8h-4.2v-1h4.2V111.8z M169.9,111.8h-4.2v-1h4.2V111.8z M161.6,111.8h-4.2v-1h4.2V111.8z M153.3,111.8h-4.2v-1h4.2V111.8
	z M144.9,111.8h-4.2v-1h4.2V111.8z M136.6,111.8h-4.2v-1h4.2L136.6,111.8z M128.3,111.8h-4.2v-1h4.2L128.3,111.8z M119.9,111.8h-4.2
	v-1h4.2L119.9,111.8z M111.6,111.8h-4.2v-1h4.2L111.6,111.8z M103.3,111.8h-4.2v-1h4.2L103.3,111.8z M95,111.8h-4.2v-1H95L95,111.8z
	 M86.6,111.8h-4.2v-1h4.2L86.6,111.8z M78.3,111.8h-4.2v-1h4.2L78.3,111.8z M70,111.8h-3.4c-0.3,0-0.6,0-0.8,0l0.1-1
	c0.2,0,0.5,0,0.7,0H70L70,111.8z M263.2,111.6l-0.2-1c1.3-0.2,2.5-0.7,3.6-1.5l0.6,0.9C266.1,110.8,264.7,111.4,263.2,111.6
	L263.2,111.6z M61.6,110.4c-1.3-0.8-2.4-1.8-3.2-3l0.8-0.6c0.8,1.1,1.7,2,2.9,2.6L61.6,110.4z M270.2,106.8l-0.9-0.5
	c0.7-1.1,1.1-2.4,1.2-3.7l1,0.1C271.4,104.1,270.9,105.5,270.2,106.8z M56.7,103.5c-0.1-0.6-0.1-1.1-0.1-1.7v-2.6h1v2.6
	c0,0.5,0,1,0.1,1.5L56.7,103.5z M271.5,98.4h-1v-4.2h1V98.4z M57.6,95.1h-1v-4.2h1V95.1z M271.5,90.1h-1v-4.2h1V90.1z M57.6,86.7h-1
	v-4.2h1V86.7z M271.5,81.7h-1v-4.2h1V81.7z M57.6,78.4h-1v-4.2h1V78.4z M271.5,73.4h-1v-4.2h1V73.4z M57.6,70.1h-1v-4.2h1V70.1z
	 M271.5,65.1h-1v-4.2h1V65.1z M57.6,61.7h-1v-4.2h1V61.7z M270.5,56.7c0-1.3-0.4-2.6-1-3.8l0.9-0.5c0.7,1.3,1,2.7,1.1,4.2
	L270.5,56.7z M58.3,53.7l-1-0.4c0.6-1.4,1.4-2.6,2.5-3.6l0.7,0.8C59.5,51.4,58.8,52.5,58.3,53.7z M267,50c-1-0.8-2.2-1.4-3.5-1.7
	l0.2-1c1.4,0.3,2.8,0.9,4,1.8L267,50z M63.9,48.5l-0.3-1c1-0.3,2-0.5,3-0.5h1.3v1.1h-1.3C65.7,48.1,64.8,48.3,63.9,48.5z
	 M259.4,48.1h-4.2v-1.1h4.2V48.1z M251.1,48.1h-4.2v-1.1h4.2V48.1z M242.8,48.1h-4.2v-1.1h4.2V48.1z M234.4,48.1h-4.2v-1.1h4.2V48.1
	z M226.1,48.1H222v-1.1h4.2V48.1z M217.8,48.1h-4.2v-1.1h4.2V48.1z M209.5,48.1h-4.2v-1.1h4.2V48.1z M201.1,48.1H197v-1.1h4.2V48.1z
	 M192.8,48.1h-4.2v-1.1h4.2V48.1z M184.5,48.1h-4.2v-1.1h4.2L184.5,48.1z M176.1,48.1H172v-1.1h4.2V48.1z M167.8,48.1h-4.2v-1.1h4.2
	V48.1z M159.5,48.1h-4.2v-1.1h4.2V48.1z M151.1,48.1H147v-1.1h4.2V48.1z M142.8,48.1h-4.1v-1.1h4.2L142.8,48.1z M134.5,48.1h-4.2
	v-1.1h4.2L134.5,48.1z M126.2,48.1H122v-1.1h4.2L126.2,48.1z M117.8,48.1h-4.1v-1.1h4.2L117.8,48.1z M109.5,48.1h-4.2v-1.1h4.2
	L109.5,48.1z M101.2,48.1H97v-1.1h4.2L101.2,48.1z M92.8,48.1h-4.1v-1.1h4.2L92.8,48.1z M84.5,48.1h-4.2v-1.1h4.2L84.5,48.1z
	 M76.2,48.1H72v-1.1h4.2L76.2,48.1z"/>
<circle class="st5" cx="221.4" cy="79.4" r="17.7"/>
<path class="st10" d="M212.9,73.8v2.2c0,0.4,0.2,0.8,0.4,1.1c0.1,0.1,0.3,0.2,0.5,0.3c0.2,0.1,0.4,0.1,0.6,0.1
	c0.4,0,0.8-0.1,1.1-0.4c0.3-0.3,0.4-0.7,0.4-1.1v-2.2c0-0.4-0.2-0.8-0.4-1.1c-0.1-0.1-0.3-0.3-0.5-0.3c-0.2-0.1-0.4-0.1-0.6-0.1
	c-0.4,0-0.8,0.2-1.1,0.4C213.1,73,213,73.4,212.9,73.8z"/>
<path class="st10" d="M225.5,73.8v2.2c0,0.4,0.2,0.8,0.4,1.1c0.3,0.3,0.7,0.4,1.1,0.4c0.4,0,0.8-0.2,1.1-0.4
	c0.3-0.3,0.4-0.7,0.4-1.1v-2.2c0-0.4-0.2-0.8-0.4-1.1c-0.1-0.1-0.3-0.3-0.5-0.3c-0.2-0.1-0.4-0.1-0.6-0.1c-0.4,0-0.8,0.2-1.1,0.4
	C225.6,73,225.5,73.4,225.5,73.8z"/>
<circle class="st5" cx="107.7" cy="79.4" r="17.7"/>
<path class="st10" d="M99.2,73.8v2.2c0,0.4,0.2,0.8,0.5,1.1c0.1,0.1,0.3,0.3,0.5,0.3c0.2,0.1,0.4,0.1,0.6,0.1c0.4,0,0.7-0.2,1-0.4
	c0.3-0.3,0.4-0.7,0.4-1.1v-2.2c0-0.4-0.2-0.8-0.4-1.1c-0.1-0.1-0.3-0.2-0.5-0.3c-0.2-0.1-0.4-0.1-0.6-0.1c-0.4,0-0.7,0.2-1,0.4
	C99.4,73,99.3,73.4,99.2,73.8L99.2,73.8z"/>
<path class="st10" d="M111.7,73.8v2.2c0,0.4,0.2,0.8,0.5,1.1c0.1,0.1,0.3,0.3,0.5,0.3c0.2,0.1,0.4,0.1,0.6,0.1
	c0.4,0,0.8-0.2,1.1-0.4c0.3-0.3,0.4-0.7,0.4-1.1v-2.2c0-0.4-0.2-0.8-0.4-1.1c-0.1-0.1-0.3-0.2-0.5-0.3c-0.2-0.1-0.4-0.1-0.6-0.1
	c-0.4,0-0.8,0.2-1.1,0.4C111.9,73,111.7,73.4,111.7,73.8z"/>
<path class="st15" d="M100.6,86.4c0.9-3.5,4.4-5.6,7.9-4.8c2.2,0.6,4,2.2,4.7,4.4"/>
<line class="st15" x1="213.6" y1="84.2" x2="228.2" y2="84.2"/>
<circle class="st5" cx="165.1" cy="79.4" r="17.7"/>
<g>
	<path class="st10" d="M156.9,73.8v2.2c0,0.4,0.2,0.8,0.4,1.1c0.1,0.1,0.3,0.3,0.5,0.3c0.2,0.1,0.4,0.1,0.6,0.1
		c0.4,0,0.8-0.2,1.1-0.4c0.3-0.3,0.4-0.7,0.4-1.1v-2.2c0-0.4-0.2-0.8-0.4-1.1c-0.1-0.1-0.3-0.2-0.5-0.3c-0.2-0.1-0.4-0.1-0.6-0.1
		c-0.4,0-0.8,0.2-1.1,0.4C157,73,156.9,73.4,156.9,73.8z"/>
	<path class="st10" d="M169.4,73.8v2.2c0,0.4,0.2,0.8,0.4,1.1c0.1,0.1,0.3,0.3,0.5,0.3c0.2,0.1,0.4,0.1,0.6,0.1
		c0.4,0,0.8-0.1,1.1-0.4c0.3-0.3,0.4-0.7,0.4-1.1v-2.2c0-0.4-0.2-0.8-0.4-1.1c-0.1-0.1-0.3-0.2-0.5-0.3c-0.2-0.1-0.4-0.1-0.6-0.1
		c-0.4,0-0.8,0.2-1.1,0.4C169.6,73,169.4,73.4,169.4,73.8L169.4,73.8z"/>
	<path class="st15" d="M170.6,81.6c-1,3.5-4.7,5.5-8.1,4.4c-2.2-0.6-3.9-2.4-4.5-4.5"/>
</g>
<path class="st16" d="M442,239.7c5.2-9.1,9.2-19,15.3-27.5s15.2-15.8,25.6-16.6c14-1,26.9,10.6,30,24.2c3.1,13.6-2,28.2-10.8,39.1
	s-20.9,18.6-33.3,25.2c-7.6,4.1-15.5,7.9-24.1,8.9s-17.9-1.2-23.7-7.6C405.9,268.8,434.4,253.2,442,239.7z"/>
<circle class="st17" cx="370.2" cy="268.9" r="83"/>
<line class="st18" x1="333.4" y1="232.9" x2="333.4" y2="315.3"/>
<line class="st18" x1="381.6" y1="232.9" x2="381.6" y2="337.7"/>
<line class="st18" x1="429.9" y1="232.9" x2="429.9" y2="314.5"/>
<circle class="st19" cx="445.3" cy="325.4" r="32.8"/>
<path class="st5" d="M456.8,320.7c-1.2-2.8-4.5-4-7.3-2.8c-2.3,1.1-4,4-4.4,6.8c-1.9-2.1-4.8-3.7-7.4-3.3c-3,0.5-5,3.3-4.6,6.3
	c0.5,2.3,2.3,4,4.2,5.2c3.4,2.1,11.5,4.4,11.5,4.4c2.2-2.5,5.5-6.4,7.2-9.9C457,325.3,457.6,322.9,456.8,320.7z"/>
<path class="st18" d="M133.7,162.4h47.6c21.2,0,39.8,14,45.7,34.3l40.7,140.4c3.5,11.9,14.4,20.2,26.8,20.2h167.7
	c12.7,0,23.8-8.6,27-20.8L521,216.1c0.7-2.7-0.9-5.5-3.6-6.2c-0.4-0.1-0.9-0.2-1.3-0.2H262.5"/>
<circle class="st18" cx="344.3" cy="394" r="14"/>
<circle class="st18" cx="436" cy="394" r="14"/>
<path class="st18" d="M304.4,357.3l5.6,13.9c2.1,5.2,7.2,8.7,12.8,8.7H436"/>
<circle class="st19" cx="379.4" cy="207.9" r="42"/>
<polygon class="st7" points="401.1,201.6 383.9,201.6 383.9,184.5 374.9,184.5 374.9,201.6 357.7,201.6 357.7,210.7 374.9,210.7 
	374.9,227.8 383.9,227.8 383.9,210.7 401.1,210.7 "/>
<polygon class="st12" points="474.7,258.2 467.7,258.2 481.8,218.1 488.8,218.1 "/>
<circle class="st12" cx="462.9" cy="227.9" r="8.5"/>
<circle class="st12" cx="493.6" cy="249.8" r="8.5"/>
<circle class="st6" cx="462.9" cy="227.9" r="3.4"/>
<circle class="st6" cx="493.6" cy="249.8" r="3.4"/>
<polygon class="st20" points="251.4,463.6 176.6,463.6 141.4,427.6 141.4,353.6 251.4,353.6 "/>
<polyline class="st21" points="141.4,353.6 122.8,414.8 141.4,414.8 "/>
<path class="st5" d="M203,387.4l2.6,7c0.6,1.7,2.2,2.9,4.1,3l7.5,0.4c2.5,0.1,4.5,2.3,4.4,4.8c-0.1,1.3-0.7,2.5-1.7,3.4l-5.9,4.7
	c-1.4,1.1-2,3-1.6,4.8l2,7.2c0.7,2.4-0.8,5-3.2,5.6c-1.3,0.3-2.6,0.1-3.7-0.6l-6.3-4.1c-1.5-1-3.5-1-5,0l-6.3,4.1
	c-2.1,1.4-5,0.8-6.4-1.3c-0.7-1.1-0.9-2.5-0.6-3.7l2-7.2c0.5-1.8-0.1-3.7-1.6-4.8l-5.9-4.7c-2-1.6-2.3-4.5-0.7-6.5
	c0.8-1,2.1-1.7,3.4-1.7l7.5-0.4c1.8-0.1,3.4-1.3,4.1-3l2.6-7c1-2.3,3.6-3.5,6-2.5C201.6,385.4,202.6,386.3,203,387.4z"/>
<circle class="st12" cx="287.3" cy="195.1" r="5.6"/>
<rect x="568" y="378.1" class="st22" width="168.5" height="77.8"/>
<rect x="546.9" y="357" class="st22" width="168.5" height="77.8"/>
<rect x="525.8" y="335.9" class="st23" width="168.5" height="77.8"/>
<path class="st13" d="M671.8,335.9c0,12.5,10.1,22.6,22.6,22.6l0,0v-22.6H671.8z"/>
<path class="st13" d="M525.8,358.5c12.5,0,22.6-10.1,22.6-22.6c0,0,0,0,0,0h-22.6V358.5z"/>
<path class="st13" d="M694.3,391.1c-12.5,0-22.6,10.1-22.6,22.6c0,0,0,0,0,0h22.6V391.1z"/>
<path class="st13" d="M525.8,391.1v22.6h22.6C548.4,401.3,538.3,391.1,525.8,391.1C525.8,391.1,525.8,391.1,525.8,391.1z"/>
<path class="st13" d="M592.7,369.1l11.7-11.7c3.2-3.2,8.3-3.2,11.4,0l11.7,11.7c3.2,3.2,3.2,8.3,0,11.4l-11.7,11.7
	c-3.2,3.2-8.3,3.2-11.4,0l-11.7-11.7C589.5,377.4,589.5,372.3,592.7,369.1z"/>
</svg>
