<?xml version="1.0" encoding="utf-8"?>
<!-- Generator: Adobe Illustrator 25.2.3, SVG Export Plug-In . SVG Version: 6.00 Build 0)  -->
<svg version="1.1" id="Layer_1" xmlns="http://www.w3.org/2000/svg" xmlns:xlink="http://www.w3.org/1999/xlink" x="0px" y="0px"
	 viewBox="0 0 535 666" style="enable-background:new 0 0 535 666;" xml:space="preserve">
<style type="text/css">
	.st0{fill:#F7C689;}
	.st1{fill:#FBD7AD;}
	.st2{fill:#FFFFFF;stroke:#B9C6E4;stroke-width:1.5303;stroke-miterlimit:10;}
	.st3{fill:#495894;}
	.st4{fill:none;stroke:#495894;stroke-width:1.5303;stroke-miterlimit:10;}
	.st5{fill:#4B4065;}
	.st6{opacity:0.49;fill:#EF749B;enable-background:new    ;}
	.st7{fill:none;stroke:#495894;stroke-width:1.5303;stroke-linecap:round;stroke-linejoin:round;stroke-miterlimit:10;}
	.st8{fill:none;stroke:#E44E85;stroke-width:1.5303;stroke-miterlimit:10;}
	.st9{fill:#B9C6E4;}
	
		.st10{opacity:0.46;fill:none;stroke:#495894;stroke-width:1.5303;stroke-miterlimit:10;stroke-dasharray:6.1211;enable-background:new    ;}
	.st11{fill:#F7C689;stroke:#F27932;stroke-width:1.5303;stroke-miterlimit:10;}
	.st12{fill:#FFFFFF;}
	.st13{clip-path:url(#SVGID_2_);}
	.st14{fill:none;stroke:#F27932;stroke-width:1.5303;stroke-miterlimit:10;}
	.st15{clip-path:url(#SVGID_4_);fill:#4B4065;}
	.st16{fill:none;stroke:#C2D9F0;stroke-miterlimit:10;}
</style>
<path class="st0" d="M428.1,98.4c2.6-0.6,5-1.7,7.3-3.2c-2.3-1.4-4.7-2.4-7.3-3.2c-2.6-0.8-4.7-2.8-5.5-5.5c-0.6-2.6-1.7-5-3.2-7.3
	c-1.4,2.3-2.4,4.7-3.2,7.3c-0.8,2.6-2.8,4.7-5.5,5.5c-2.6,0.6-5.2,1.7-7.5,3.2c2.3,1.4,4.7,2.4,7.5,3.2c2.6,0.8,4.7,2.8,5.5,5.5
	c0.6,2.6,1.7,5,3.2,7.3c1.4-2.3,2.4-4.7,3.2-7.3C423.3,101.2,425.3,99,428.1,98.4z"/>
<circle class="st0" cx="438" cy="121.7" r="4"/>
<path class="st1" d="M257.6,590l2.1,23.1l36.4,8c4.1,0.9,7.5,3.8,9,7.8l1.5,4l-90.6-1.2c-3.7-0.2-6.6-3.2-6.4-7c0-0.2,0-0.2,0-0.3
	l2-34.4"/>
<path class="st2" d="M309.5,635.1l-102.4-1.5l-0.6-18.7l27.1-0.8c3.5-1.5,6.1-4.6,8.6-7.7s4.9-6.1,8.4-7.8s8-2,10.7,0.6
	c1.2,4,2.8,8.6,3.8,12.5c11,1.8,22.6,4.4,33.8,6.6c2.8,0.5,5.4,2.1,7,4.4c2.4,3.5,3.2,7.8,4.6,10.7c0.3,0.5,0,1.2-0.5,1.4
	C309.8,635.1,309.6,635.1,309.5,635.1z"/>
<path class="st1" d="M217.8,197.1L200,256.3c-2.8,9.3,1.2,19.1,9.5,23l47.7,14.1l7.7-32.1l-22.6-10.4l16.2-41.3L217.8,197.1z"/>
<path class="st1" d="M342.1,590.9l2.1,22.8l36.4,8c4.1,0.9,7.5,3.8,9,7.8l1.5,4l-90.7-1.4c-3.7-0.2-6.6-3.2-6.4-7c0-0.2,0-0.2,0-0.3
	l2-32.9"/>
<path class="st2" d="M394,635.9l-102.4-1.7l-0.6-18.7l26.9-0.8c3.5-1.5,6.1-4.6,8.6-7.7c2.4-3.1,4.9-6.1,8.4-7.8s8-2,10.9,0.6
	c1.2,4,2.8,8.6,3.8,12.5c11,1.8,22.6,4.6,33.8,6.6c2.8,0.5,5.4,2.1,7,4.4c2.4,3.4,3.2,7.8,4.6,10.7c0.3,0.5,0,1.1-0.5,1.4
	C394.3,635.9,394.1,635.9,394,635.9z"/>
<path class="st0" d="M210.8,205.9l15.6-43c3.8-10.4,13.6-17.3,24.8-17.4l71.8-0.2c12.1,0,22.6,8.1,25.7,19.9l6.1,40.6l-42.2,6.4
	l9.8,51.9l-84.2-6.9l1.7-41.9L210.8,205.9z"/>
<path class="st1" d="M270.9,145.6l6.9-26l-10.6-14.1l46.7-29.4l13.9,41.5c0.9,2.8-0.6,5.7-3.2,6.6c-0.6,0.2-1.1,0.3-1.7,0.3
	l-12.1-0.2l3.4,21.3"/>
<path class="st3" d="M266.3,108.7L256,96.2c-2.3-3.2-2.6-7.2-0.8-10.7l8.3-16.4c3.4-6.7,10.6-10.7,18.1-9.8l21.6,2.3
	c3.7,0.3,6.9,2.8,8.4,6.1l2.8,6.6"/>
<polygon class="st0" points="293.7,105.5 281.8,112.1 284.4,102 "/>
<path class="st1" d="M317.4,92.3l8.1,3.8c1.1,0.5,1.5,1.8,1.1,2.9c-0.2,0.2-0.2,0.3-0.3,0.5l-4.1,4.9"/>
<line class="st4" x1="312.9" y1="75" x2="341.6" y2="69.7"/>
<path class="st5" d="M311,75.5c-6.4,4.4-12.5,9-19,13.5c1.7,2.1,4.3,3.4,7,3.2c2.9-0.3,5.4-2.1,6.7-4.6c7.8,4.4,18.1,5.4,23.9-2.4
	c2.8-3.7,3.7-8.4,2.6-12.9L311,75.5z"/>
<path class="st5" d="M267.3,105.5l-2.9,10.7c4.9,3.4,11.2,3.2,15.9-0.5c4.4-3.5,5.2-15.9,2.9-21.1"/>
<path class="st1" d="M297.4,95.7c-1.2-4.3-5.4-7.2-9.8-6.9c-4.3,0.5-7.8,5.2-6.7,9.3c0.8,2.6,2.8,4.6,5.2,5.7s5,1.5,7.8,1.7"/>
<circle class="st6" cx="296.5" cy="102.9" r="7.8"/>
<path class="st7" d="M311.6,102.9c3.2,2.9,7.5,4.1,11.6,3.2"/>
<polyline class="st0" points="310.7,124.3 300,122.5 312.1,131.8 "/>
<line class="st8" x1="304.7" y1="212.3" x2="299.5" y2="177.9"/>
<path class="st9" d="M238.3,257.4l-14.5,66.4L216,447.6l-15.9,142.6l65-0.3l20.8-220.5l13,37.8l-11.8,185.9l58-2.1L363,437.1
	c3.2-24.8,0.8-49.9-6.9-73.6L323.4,263L238.3,257.4z"/>
<polygon class="st3" points="322.2,275.3 235.3,269.8 238.3,257.4 323,262.8 "/>
<polyline class="st4" points="298.9,407.2 267.3,314.2 252.6,313.3 "/>
<path class="st4" d="M245.2,299.5l-7.5,22.3c-2.1,6.3-8.1,10.3-14.5,9.8l0,0"/>
<polyline class="st10" points="300.3,302.9 335.7,400.4 318.8,591.2 "/>
<rect x="349.3" y="170.4" class="st11" width="147.1" height="94.7"/>
<rect x="376.8" y="172" class="st12" width="32.9" height="37.2"/>
<rect x="443.8" y="170.4" class="st11" width="52.6" height="94.7"/>
<g>
	<g>
		<g>
			<g>
				<defs>
					<rect id="SVGID_1_" x="443.8" y="170.4" width="52.6" height="94.7"/>
				</defs>
				<clipPath id="SVGID_2_">
					<use xlink:href="#SVGID_1_"  style="overflow:visible;"/>
				</clipPath>
				<g class="st13">
					<line class="st14" x1="353.7" y1="260.6" x2="489.1" y2="125.4"/>
					<line class="st14" x1="358.6" y1="265.7" x2="494" y2="130.3"/>
					<line class="st14" x1="363.7" y1="270.6" x2="498.9" y2="135.3"/>
					<line class="st14" x1="368.6" y1="275.6" x2="504" y2="140.2"/>
					<line class="st14" x1="373.5" y1="280.5" x2="508.9" y2="145.1"/>
					<line class="st14" x1="378.5" y1="285.4" x2="513.8" y2="150.2"/>
					<line class="st14" x1="383.4" y1="290.5" x2="518.8" y2="155.1"/>
					<line class="st14" x1="388.5" y1="295.4" x2="523.7" y2="160"/>
					<line class="st14" x1="393.4" y1="300.3" x2="528.8" y2="165"/>
					<line class="st14" x1="398.2" y1="305.3" x2="533.7" y2="169.9"/>
					<line class="st14" x1="403.3" y1="310.2" x2="538.6" y2="174.9"/>
					<line class="st14" x1="408.2" y1="315.3" x2="543.6" y2="179.8"/>
					<line class="st14" x1="413.2" y1="320.2" x2="548.5" y2="184.7"/>
					<line class="st14" x1="418.1" y1="325.1" x2="553.6" y2="189.8"/>
					<line class="st14" x1="423" y1="330.1" x2="558.5" y2="194.7"/>
					<line class="st14" x1="428.1" y1="335" x2="563.4" y2="199.7"/>
					<line class="st14" x1="433" y1="340.1" x2="568.4" y2="204.6"/>
					<line class="st14" x1="437.9" y1="345" x2="573.3" y2="209.5"/>
					<line class="st14" x1="442.9" y1="349.9" x2="578.4" y2="214.6"/>
					<line class="st14" x1="447.8" y1="354.9" x2="583.3" y2="219.5"/>
					<line class="st14" x1="452.9" y1="359.8" x2="588.2" y2="224.5"/>
					<line class="st14" x1="457.8" y1="364.7" x2="593.2" y2="229.4"/>
				</g>
			</g>
		</g>
	</g>
</g>
<path class="st1" d="M310.1,210.9l10.7,78.2c1.1,8,7.5,14.1,15.5,15.1l0,0c5.4,0.6,106.7-27.4,106.7-27.4l32.3-5l0,0
	c0.5-4.1-2.4-7.8-6.4-8.3l0,0l-39.3-0.3l-4.4-16.8c-1.1-4.3-4.7-7.5-9.2-8.1l0,0l0.6,26.2l-62.6,0.8l-4.9-62.6"/>
<g>
	<g>
		<path id="SVGID_5_" class="st12" d="M300.5,93.2c2.6-3.5,7.5-4.3,11-1.8c1.4,0.9,2.3,2.4,2.9,4C309.3,97.5,304.3,96.1,300.5,93.2z
			"/>
	</g>
	<g>
		<g>
			<defs>
				<path id="SVGID_3_" d="M300.4,93.4c2.6-3.5,7.4-4.5,11-2.1c1.4,0.9,2.3,2.4,3,3.9C309.4,97.5,304.3,96.3,300.4,93.4z"/>
			</defs>
			<clipPath id="SVGID_4_">
				<use xlink:href="#SVGID_3_"  style="overflow:visible;"/>
			</clipPath>
			
				<ellipse transform="matrix(0.9999 -1.116122e-02 1.116122e-02 0.9999 -1.0275 3.47)" class="st15" cx="310.4" cy="93.8" rx="4.3" ry="5"/>
		</g>
	</g>
</g>
<path class="st16" d="M31,121h204.3c-8.9-11.8-19.5-21.8-33.9-25.1c-4-0.9-8.2-1.5-12.1-0.4s-7.6,3.9-8.7,7.9
	c-15.4-23.2-41.6-38.8-69-43.6c-7.9-1.4-16.3-1.7-23.4,1.8c-7,3.5-11.8,10.2-12.8,18c-0.9,7.8,2.1,15.5,8,20.6
	c-3.7-8.5-16.5-12.4-23.1-5.9c-4.5,4.4-5.6,11.2-9,16.6C46.9,117.5,38.8,121,31,121z"/>
</svg>
