<?xml version="1.0" encoding="utf-8"?>
<!-- Generator: Adobe Illustrator 25.2.3, SVG Export Plug-In . SVG Version: 6.00 Build 0)  -->
<svg version="1.1" id="Layer_1" xmlns="http://www.w3.org/2000/svg" xmlns:xlink="http://www.w3.org/1999/xlink" x="0px" y="0px"
	 viewBox="0 0 785.6 560.5" style="enable-background:new 0 0 785.6 560.5;" xml:space="preserve">
<style type="text/css">
	.st0{fill:none;stroke:#F27932;stroke-miterlimit:10;}
	.st1{fill:none;stroke:#B9C6E4;stroke-miterlimit:10;}
	.st2{fill:#F7C689;}
	.st3{fill:#B9C6E4;}
	.st4{fill:none;stroke:#FFFFFF;stroke-miterlimit:10;}
	.st5{fill:none;stroke:#C2D9F0;stroke-miterlimit:10;}
	.st6{fill:#ED4F2E;}
	.st7{fill:#F27932;}
	.st8{fill:none;stroke:#4B4065;stroke-width:2;stroke-miterlimit:10;}
	.st9{fill:#C2D9F0;}
	.st10{fill:none;stroke:#F7C689;stroke-miterlimit:10;}
	.st11{opacity:0.31;fill:#C2D9F0;enable-background:new    ;}
	.st12{fill:none;stroke:#495894;stroke-width:2;stroke-miterlimit:10;}
	.st13{fill:#FFFFFF;stroke:#F7C689;stroke-miterlimit:10;}
	.st14{fill:#FFFFFF;}
</style>
<path class="st0" d="M425.3,530.5h-329c-6.5,0-11.8-5.3-11.8-11.9V141.1c0-6.6,5.3-11.9,11.9-11.9l0,0h460.3"/>
<path class="st1" d="M391.8,421.2H184.2c-6.2,0-11.3-5-11.3-11.3V243.7c0-6.2,5-11.3,11.3-11.3h288.2L391.8,421.2z"/>
<line class="st1" x1="497.7" y1="173.1" x2="359" y2="498.3"/>
<circle class="st2" cx="127.7" cy="164.8" r="5.4"/>
<circle class="st2" cx="160.9" cy="164.8" r="5.4"/>
<circle class="st2" cx="194.1" cy="164.8" r="5.4"/>
<polygon class="st3" points="437.2,314.1 211.5,314.1 211.5,281.4 451.6,281.4 "/>
<line class="st4" x1="735.6" y1="542.2" x2="652.2" y2="542.2"/>
<path class="st4" d="M453.6,516.3l34.9,25.1c13.4-0.1,27.9-0.2,41.3-0.3"/>
<path class="st5" d="M51.1,97.7h204.3c-8.9-11.8-19.5-21.8-33.9-25.1c-4-0.9-8.2-1.5-12.1-0.4s-7.6,3.9-8.7,7.9
	c-15.4-23.2-41.6-38.8-69-43.6c-7.9-1.4-16.3-1.7-23.4,1.8c-7,3.5-11.8,10.2-12.8,18c-0.9,7.8,2.1,15.5,8,20.6
	C99.8,68.4,87,64.5,80.4,71c-4.5,4.4-5.6,11.2-9,16.6C67,94.2,58.9,97.7,51.1,97.7z"/>
<circle class="st6" cx="230.6" cy="378" r="19"/>
<circle class="st2" cx="260.6" cy="378" r="19"/>
<ellipse class="st7" cx="245.6" cy="378" rx="4" ry="11.7"/>
<ellipse transform="matrix(0.1602 -0.9871 0.9871 0.1602 279.7995 639.4648)" class="st2" cx="515.7" cy="155.3" rx="4.4" ry="4.4"/>
<polygon class="st1" points="403.3,395.2 348.4,395.2 348.4,361.9 417.2,361.9 "/>
<circle class="st8" cx="457.5" cy="179.4" r="11.1"/>
<path class="st9" d="M656.1,221.8c2.6-0.7,5-1.7,7.2-3.1c-2.2-1.4-4.7-2.4-7.2-3.1c-2.6-0.7-4.6-2.7-5.3-5.3c-0.7-2.5-1.7-5-3.1-7.2
	c-1.4,2.2-2.4,4.7-3.1,7.2c-0.7,2.6-2.7,4.6-5.3,5.3c-2.6,0.7-5,1.7-7.2,3.1c2.2,1.4,4.7,2.4,7.2,3.1c2.6,0.7,4.6,2.7,5.3,5.3
	c0.6,2.6,1.7,5,3.1,7.2c1.4-2.2,2.4-4.7,3.1-7.2C651.5,224.5,653.5,222.5,656.1,221.8z"/>
<path class="st10" d="M656.7,334c5.2-9.1,9.2-19,15.3-27.5s15.2-15.8,25.6-16.6c14-1,26.9,10.6,30,24.2c3.1,13.6-2,28.2-10.8,39.1
	s-20.9,18.6-33.3,25.2c-7.6,4.1-15.5,7.9-24.1,8.9c-8.6,1-17.9-1.2-23.7-7.6C620.6,363,649.1,347.5,656.7,334z"/>
<circle class="st11" cx="584.9" cy="363.1" r="83"/>
<line class="st12" x1="548.1" y1="327.1" x2="548.1" y2="409.5"/>
<line class="st12" x1="596.3" y1="327.1" x2="596.3" y2="432"/>
<line class="st12" x1="644.6" y1="327.1" x2="644.6" y2="408.8"/>
<circle class="st13" cx="660" cy="419.6" r="32.8"/>
<path class="st2" d="M671.5,415c-1.2-2.8-4.5-4-7.3-2.8c-2.3,1.1-4,4-4.4,6.8c-1.9-2.1-4.8-3.7-7.4-3.3c-3,0.5-5,3.3-4.6,6.3
	c0.5,2.3,2.3,4,4.2,5.2c3.4,2.1,11.5,4.4,11.5,4.4c2.2-2.5,5.5-6.4,7.2-9.9C671.7,419.5,672.3,417.1,671.5,415z"/>
<path class="st12" d="M348.4,256.6H396c21.2,0,39.8,14,45.7,34.3l40.7,140.4c3.5,11.9,14.4,20.2,26.8,20.2h167.7
	c12.7,0,23.8-8.6,27-20.8l31.8-120.4c0.7-2.7-0.9-5.5-3.6-6.2c-0.4-0.1-0.9-0.2-1.3-0.2H477.2"/>
<circle class="st12" cx="559" cy="488.2" r="14"/>
<circle class="st12" cx="650.7" cy="488.2" r="14"/>
<path class="st12" d="M519.1,451.5l5.6,13.9c2.1,5.2,7.2,8.7,12.8,8.7h113.2"/>
<circle class="st13" cx="594.1" cy="302.1" r="42"/>
<polygon class="st6" points="615.8,295.9 598.6,295.9 598.6,278.8 589.6,278.8 589.6,295.9 572.4,295.9 572.4,305 589.6,305 
	589.6,322.1 598.6,322.1 598.6,305 615.8,305 "/>
<circle class="st9" cx="677.6" cy="322.1" r="8.5"/>
<circle class="st14" cx="677.6" cy="322.1" r="3.4"/>
<circle class="st9" cx="679.9" cy="234.3" r="5.6"/>
</svg>
