<?xml version="1.0" encoding="utf-8"?>
<!-- Generator: Adobe Illustrator 25.2.3, SVG Export Plug-In . SVG Version: 6.00 Build 0)  -->
<svg version="1.1" id="Layer_1" xmlns="http://www.w3.org/2000/svg" xmlns:xlink="http://www.w3.org/1999/xlink" x="0px" y="0px"
	 viewBox="0 0 420 353" style="enable-background:new 0 0 420 353;" xml:space="preserve">
<style type="text/css">
	.st0{fill:#C2D9F0;}
	.st1{fill:none;stroke:#F7C689;stroke-miterlimit:10;}
	.st2{opacity:0.31;fill:#C2D9F0;enable-background:new    ;}
	.st3{fill:none;stroke:#495894;stroke-width:2;stroke-miterlimit:10;}
	.st4{fill:#FFFFFF;stroke:#F7C689;stroke-miterlimit:10;}
	.st5{fill:#F7C689;}
	.st6{fill:#ED4F2E;}
	.st7{fill:#FFFFFF;}
</style>
<path class="st0" d="M149.2,104c2.6-0.7,5-1.7,7.2-3.1c-2.2-1.4-4.7-2.4-7.2-3.1c-2.6-0.7-4.6-2.7-5.3-5.3c-0.7-2.5-1.7-5-3.1-7.2
	c-1.4,2.2-2.4,4.7-3.1,7.2c-0.7,2.6-2.7,4.6-5.3,5.3s-5,1.7-7.2,3.1c2.2,1.4,4.7,2.4,7.2,3.1c2.6,0.7,4.6,2.7,5.3,5.3
	c0.6,2.6,1.7,5,3.1,7.2c1.4-2.2,2.4-4.7,3.1-7.2C144.6,106.7,146.6,104.7,149.2,104z"/>
<path class="st1" d="M324.6,165.5c5.2-9.1,9.2-19,15.3-27.5s15.2-15.8,25.6-16.6c14-1,26.9,10.6,30,24.2c3.1,13.6-2,28.2-10.8,39.1
	s-20.9,18.6-33.3,25.2c-7.6,4.1-15.5,7.9-24.1,8.9s-17.9-1.2-23.7-7.6C288.5,194.5,317,179,324.6,165.5z"/>
<circle class="st2" cx="252.8" cy="194.6" r="83"/>
<line class="st3" x1="216" y1="158.6" x2="216" y2="241"/>
<line class="st3" x1="264.2" y1="158.6" x2="264.2" y2="263.5"/>
<line class="st3" x1="312.5" y1="158.6" x2="312.5" y2="240.2"/>
<circle class="st4" cx="327.9" cy="251.1" r="32.8"/>
<path class="st5" d="M339.4,246.5c-1.2-2.8-4.5-4-7.3-2.8c-2.3,1.1-4,4-4.4,6.8c-1.9-2.1-4.8-3.7-7.4-3.3c-3,0.5-5,3.3-4.6,6.3
	c0.5,2.3,2.3,4,4.2,5.2c3.4,2.1,11.5,4.4,11.5,4.4c2.2-2.5,5.5-6.4,7.2-9.9C339.6,251,340.2,248.6,339.4,246.5z"/>
<path class="st3" d="M16.3,88.2h47.6c21.2,0,39.8,14,45.7,34.3l40.7,140.4c3.5,11.9,14.4,20.2,26.8,20.2h167.7
	c12.7,0,23.8-8.6,27-20.8l31.8-120.4c0.7-2.7-0.9-5.5-3.6-6.2c-0.4-0.1-0.9-0.2-1.3-0.2H145.1"/>
<circle class="st3" cx="226.9" cy="319.8" r="14"/>
<circle class="st3" cx="318.6" cy="319.8" r="14"/>
<path class="st3" d="M187,283l5.6,13.9c2.1,5.2,7.2,8.7,12.8,8.7h113.2"/>
<circle class="st4" cx="262" cy="133.6" r="42"/>
<polygon class="st6" points="283.7,127.4 266.5,127.4 266.5,110.3 257.5,110.3 257.5,127.4 240.3,127.4 240.3,136.5 257.5,136.5 
	257.5,153.6 266.5,153.6 266.5,136.5 283.7,136.5 "/>
<polygon class="st0" points="357.3,184 350.3,184 364.4,143.9 371.4,143.9 "/>
<circle class="st0" cx="345.5" cy="153.6" r="8.5"/>
<circle class="st0" cx="376.2" cy="175.6" r="8.5"/>
<circle class="st7" cx="345.5" cy="153.6" r="3.4"/>
<circle class="st0" cx="169.9" cy="120.9" r="5.6"/>
</svg>
