<?xml version="1.0" encoding="utf-8"?>
<!-- Generator: Adobe Illustrator 25.2.3, SVG Export Plug-In . SVG Version: 6.00 Build 0)  -->
<svg version="1.1" id="Layer_1" xmlns="http://www.w3.org/2000/svg" xmlns:xlink="http://www.w3.org/1999/xlink" x="0px" y="0px"
	 viewBox="0 0 829 559.6" style="enable-background:new 0 0 829 559.6;" xml:space="preserve">
<style type="text/css">
	.st0{fill:#FFFFFF;stroke:#B9C6E4;stroke-miterlimit:10;}
	.st1{fill:#B9C6E4;}
	.st2{fill:#FBD7AD;}
	.st3{fill:#F7C689;stroke:#F27932;stroke-miterlimit:10;}
	.st4{fill:#FFFFFF;}
	.st5{clip-path:url(#SVGID_2_);}
	.st6{fill:none;stroke:#F27932;stroke-miterlimit:10;}
	.st7{fill:#F27932;}
	.st8{opacity:0.5;fill:#F27932;enable-background:new    ;}
	.st9{fill:#495894;}
	.st10{fill:#4B4065;}
	.st11{fill:none;stroke:#FFFFFF;stroke-miterlimit:10;}
	.st12{fill:none;stroke:#FFFFFF;stroke-width:0.75;stroke-miterlimit:10;}
	.st13{fill:#ED4F2E;}
	.st14{fill:#CC3D2E;}
	.st15{fill:#FFFFFF;stroke:#F7C689;stroke-miterlimit:10;}
	.st16{fill:none;stroke:#4B4065;stroke-width:0.75;stroke-linecap:round;stroke-linejoin:round;}
	.st17{fill:none;stroke:#ED4F2E;stroke-linecap:round;stroke-linejoin:round;}
	.st18{opacity:0.85;fill:#FFFFFF;stroke:#EF749B;stroke-miterlimit:10;enable-background:new    ;}
	.st19{fill:none;stroke:#EF749B;stroke-miterlimit:10;}
	.st20{opacity:0.3;fill:#F27932;enable-background:new    ;}
	.st21{fill:#FFFFFF;stroke:#C2D9F0;stroke-miterlimit:10;}
	.st22{fill:#C2D9F0;}
	.st23{opacity:0.26;fill:#495894;enable-background:new    ;}
	.st24{opacity:0.46;fill:#4B4065;enable-background:new    ;}
	.st25{fill:none;stroke:#4B4065;stroke-miterlimit:10;}
	.st26{opacity:0.21;fill:#EF749B;enable-background:new    ;}
	.st27{fill:#FFFFFF;stroke:#FBD7AD;stroke-miterlimit:10;}
	.st28{fill:#F7C689;}
	.st29{fill:none;stroke:#F27932;stroke-linecap:round;stroke-linejoin:round;}
	.st30{fill:none;stroke:#F7C689;stroke-miterlimit:10;}
	.st31{opacity:0.85;fill:none;stroke:#F27932;stroke-miterlimit:10;enable-background:new    ;}
	.st32{fill:none;stroke:#FBD7AD;stroke-miterlimit:10;stroke-dasharray:4;}
	.st33{fill:#FFFFFF;stroke:#EF749B;stroke-miterlimit:10;}
	.st34{opacity:0.55;fill:#495894;enable-background:new    ;}
	.st35{opacity:0.37;fill:#F27932;enable-background:new    ;}
</style>
<polygon class="st0" points="195.9,479.7 220.9,339.4 331.9,339.4 355.8,479.7 "/>
<path class="st0" d="M250.5,338.2c0-14,11.4-25.4,25.4-25.4s25.4,11.4,25.4,25.4l0,0"/>
<path class="st1" d="M483.3,262.5l36.5-27.2l24.2,43.4l15.1-56.1c0.8-4.4,3.6-8.1,7.6-10.2l28.8-4.7l-14.7,122.8l-30.6,6.3
	l-37.5-28.5L483.3,262.5z"/>
<path class="st1" d="M518.4,121.6l0.7-16.6l-13.9,8.9l-4.2-7.1l14.7-7.5L501,91.7l4.1-7.1l13.9,9L518.4,77h8.1l-0.7,16.6l13.9-9
	l4.1,7.1L529,99.2l14.8,7.5l-4.1,7.1l-13.9-8.8l0.7,16.6C526.5,121.6,518.4,121.6,518.4,121.6z"/>
<path class="st2" d="M656.4,480.5c0,0,59.3-3.6,61.1-3.8c0.9-0.1-0.9-9,2.9-12.6l-6.4-20.9c0,0-50.3-0.8-51.1-0.9
	C661.7,442,654,480,656.4,480.5z"/>
<rect x="355.8" y="343.4" class="st3" width="191" height="147.1"/>
<rect x="468.3" y="344.4" class="st4" width="42.6" height="49.4"/>
<rect x="355.8" y="343.4" class="st3" width="68.2" height="147.1"/>
<g>
	<g>
		<defs>
			<rect id="SVGID_1_" x="355.8" y="343.4" width="68.2" height="147"/>
		</defs>
		<clipPath id="SVGID_2_">
			<use xlink:href="#SVGID_1_"  style="overflow:visible;"/>
		</clipPath>
		<g class="st5">
			<line class="st6" x1="541" y1="460.7" x2="365.3" y2="284.9"/>
			<line class="st6" x1="534.6" y1="467.1" x2="358.8" y2="291.4"/>
			<line class="st6" x1="528.1" y1="473.5" x2="352.4" y2="297.8"/>
			<line class="st6" x1="521.7" y1="480" x2="346" y2="304.2"/>
			<line class="st6" x1="515.3" y1="486.4" x2="339.5" y2="310.6"/>
			<line class="st6" x1="508.8" y1="492.8" x2="333.1" y2="317.1"/>
			<line class="st6" x1="502.4" y1="499.3" x2="326.7" y2="323.5"/>
			<line class="st6" x1="496" y1="505.7" x2="320.2" y2="330"/>
			<line class="st6" x1="489.5" y1="512.1" x2="313.8" y2="336.4"/>
			<line class="st6" x1="483.1" y1="518.6" x2="307.4" y2="342.8"/>
			<line class="st6" x1="476.7" y1="525" x2="300.9" y2="349.2"/>
			<line class="st6" x1="470.2" y1="531.5" x2="294.5" y2="355.7"/>
			<line class="st6" x1="463.8" y1="537.9" x2="288" y2="362.1"/>
			<line class="st6" x1="457.4" y1="544.3" x2="281.6" y2="368.6"/>
			<line class="st6" x1="450.9" y1="550.8" x2="275.2" y2="375"/>
			<line class="st6" x1="444.5" y1="557.2" x2="268.7" y2="381.4"/>
			<line class="st6" x1="438.1" y1="563.6" x2="262.3" y2="387.9"/>
			<line class="st6" x1="431.6" y1="570.1" x2="255.9" y2="394.3"/>
			<line class="st6" x1="425.2" y1="576.5" x2="249.4" y2="400.7"/>
			<line class="st6" x1="418.8" y1="582.9" x2="243" y2="407.2"/>
			<line class="st6" x1="412.3" y1="589.4" x2="236.6" y2="413.6"/>
			<line class="st6" x1="405.9" y1="595.8" x2="230.1" y2="420"/>
		</g>
	</g>
</g>
<polygon class="st7" points="304.9,407.2 373.2,407.2 424,343.4 355.8,343.4 "/>
<polygon class="st8" points="546.8,454.1 480.8,490.6 546.8,490.6 "/>
<path class="st9" d="M555.5,427.4c1.1-0.4,120.2,12.1,120.2,12.1l15,41.4l-128.1,2.3"/>
<path class="st2" d="M550.2,421.1c0,0,10.5,46.8,11,48.5c0.3,0.9,4.3,9.9,8.1,13.1l27.5,0.5c0,0-11.8-58.3-11.8-59.2
	C585,422.8,550.3,418.6,550.2,421.1z"/>
<path class="st10" d="M598.5,478.7c0,0-0.1,5.3-0.1,7.1l-0.1,7.8c0,2.3-1.9,4.3-4.3,4.3l-89.6,2.3c-3.3,0.1-2.7-5.9-1.5-7.7
	c2.1-3.2,8.7-4.9,12-6.6c7-3.5,14-7,20.5-11.4c6.3-4.3,11.1-10.2,17.9-13.6c4-2,8.4,2.2,11,5.1s4.8,6.1,8.2,8
	C579.1,477.5,598.5,478.7,598.5,478.7z"/>
<line class="st11" x1="502.1" y1="494.4" x2="597.3" y2="492"/>
<path class="st11" d="M519.7,482.5c4.8,0.6,8.6,4.4,9,9.3"/>
<path class="st11" d="M543.3,474.2c0-0.9,0.9-1.7,1.8-1.6c0.9,0,1.7,0.9,1.6,1.8c0,0.9-0.9,1.7-1.8,1.6c-0.9,0-1.6-0.7-1.6-1.6
	V474.2z"/>
<path class="st11" d="M535.5,478.6c0-1,0.9-1.8,1.9-1.7s1.8,0.9,1.7,1.9c0,1-0.9,1.8-1.9,1.7c-0.9,0-1.7-0.8-1.7-1.7V478.6z"/>
<path class="st12" d="M536.1,477.2l-2.1-2.4"/>
<path class="st12" d="M543.8,472.9l-2.8-3.2"/>
<path class="st10" d="M784.9,481.9l-71.7-3.2c0.2-3.5-0.4-9.1-0.2-12.5l-18-24.9c0.4-1,8.4-4.4,11.8-5.7c3-1.2,6.2-1.6,8.3,0.9
	c6,7.2,13.4,14.3,18.6,21.5c16.3,3.4,27.3,4.7,37.3,7.5C777.8,467.3,784.1,474.6,784.9,481.9z"/>
<path class="st13" d="M632,207.4c13.5-3.8,30.3-10,31.9-26c0.7-7.2-1.8-14.4-6.9-19.6c-4.4-4.5-10.6-7.3-13.9-12.7
	c-2-3.3-2.8-7.3-4-11c-5.2-14.7-25.8-18.2-39.3-16.5c-10.7,1.4-20.3,8.4-26.9,16.4c-16.8,20.5-23,74.1,37.3,72.2
	C617.5,210,624.9,209.4,632,207.4z"/>
<path class="st14" d="M629.3,163.9c-4.7,4.7,1.8,12.3,4.8,16.1c4.3,5.5,7.1,11.5,4.8,18.7c-4,12.5-17.7,13.9-28.8,11.2
	c-3.9-0.9-7.7-3.1-9.8-6.6c-2.8-4.8-1.7-10.9,0-16.3c1.6-5.1,3.6-10.2,7.2-14.2c2.5-2.9,5.9-5,9.7-5.9c1.8-0.4,3.4,0.1,5.2-0.1
	c2.2-0.2,4.7-1.8,6.7-2.6"/>
<path class="st13" d="M592.9,130.7c4.9-1.9,11.3,0,13.3,5.2c2.5,6.5-3.8,13.4-0.1,19.7c1.7,2.9,5,4.7,8.4,4.5c0.6,0,0.7-1,0-1
	c-3.2,0.2-6.2-1.5-7.7-4.3c-1.7-3.3-0.5-7.1,0.3-10.4c0.7-3.1,1.2-6.4-0.2-9.4c-1.1-2.3-3.1-4.1-5.4-5c-2.8-1.1-6-1.2-8.8-0.1
	C592,130,592.3,131,592.9,130.7L592.9,130.7z"/>
<path class="st13" d="M647.2,112.8c11.4-2.8,23,4.1,25.8,15.6c1.1,4.6,0.7,9.4-1.2,13.7c-1.7,3.9-5.2,7.6-9.5,7.5
	c-4.8-0.1-8.1-4.7-10.2-9c-1.5-3.1-2.9-6.6-5.5-9c-3-2.8-7.1-2.3-10.1-4.8C629.7,121.1,642.3,114,647.2,112.8z"/>
<path class="st15" d="M627,125.5c0.3-2.7,2.7-4.6,5.3-4.3c0.1,0,0.3,0,0.4,0.1c1.6,0.6,2.9,1.5,3.9,2.8c1.7,1.8,3.2,3.7,4.7,5.7
	c0.9,1,1.5,2.3,1.7,3.6c0.1,2.3-1.8,4.2-4.1,4.2c-0.2,0-0.5,0-0.7,0"/>
<path class="st14" d="M640.8,128.7c2,0.6,4.1,1.1,5.8,2.7c2.6,2.4,4,5.9,5.5,9c1.9,3.8,4.7,7.8,8.7,8.8c3.1-1.4,5.2-4.4,5.5-7.8
	c0.2-3.4-1.1-6.8-3.5-9.2c-2.5-2.4-5.6-3.9-8.9-4.4C649.5,127.2,645.1,127.9,640.8,128.7z"/>
<path class="st2" d="M594.6,130.2c-5.2,1.1-9.7,4.2-12.5,8.6c-2.9,4.3-4.4,9.5-5.4,14.6c-1.1,6.4-1.2,12.9-0.3,19.3
	c1.2,7.6,10.3,11.7,15.1,9.2l-1.6,20.6l-12.8,4l13.4,35l27.3-12l8.9-29.5l-6.8-0.7l-1.7-23.8C618.1,175.5,633,123.2,594.6,130.2z"/>
<path class="st2" d="M615.3,159.2c1.8-1.7,3.9-3,6.1-3.9c2.3-0.9,4.9-0.7,7,0.7c2.2,1.8,2.9,4.9,1.8,7.5c-1.2,2.6-3.7,4.3-6.5,4.5
	s-5.6-0.6-7.8-2.4"/>
<path class="st4" d="M590.3,154.8c0.9-3,3.4-4.6,6.4-5.1c3.2-0.4,6.3,0.9,8.2,3.5c-1.1,2.5-4.1,3.9-6.9,4.1
	C595.2,157.5,592.5,156.6,590.3,154.8z"/>
<path class="st1" d="M590.8,154.3c0,0.1,0.1,0.1,0.1,0.2c0.4,0.8,3.7,2.5,5.9,0.9c1.5-1.1,2.5-4.6,2.1-5.8c-1.7-0.5-3.7,0.3-5.2,1.2
	C593,151.2,590.4,153.2,590.8,154.3z"/>
<path class="st10" d="M590.7,154.9c0.6-1.8,1.8-3.3,3.5-4.3c1.3-0.7,2.9-0.9,4.3-0.6c1.4,0.2,2.7,0.7,3.9,1.4c0.9,0.5,1.7,1.2,2.2,2
	c0.2,0.4,0.9,0,0.7-0.4c-1-1.7-3.1-2.7-4.9-3.3c-2.4-0.9-5.1-0.7-7.2,0.7c-1.5,1.1-2.6,2.6-3.2,4.3
	C589.8,155.2,590.5,155.4,590.7,154.9L590.7,154.9z"/>
<path class="st13" d="M604.9,146.2c-1.1-1.6-2.7-2.7-4.6-3.1c-1.9-0.4-3.9,0-5.6,1.1C598.3,144.9,601.3,145.5,604.9,146.2z"/>
<path class="st13" d="M594.6,144.6c-0.2-0.1-0.4-0.3-0.3-0.5c0-0.1,0.1-0.2,0.2-0.3c1.7-1.1,3.9-1.5,5.9-1.1s3.7,1.6,4.9,3.3
	c0.1,0.2,0.1,0.4-0.1,0.6c-0.1,0.1-0.2,0.1-0.3,0.1c-1.8-0.3-3.5-0.7-5.1-1S596.4,144.9,594.6,144.6L594.6,144.6z M600.4,143.6
	l-0.3-0.1c-1.4-0.3-2.9-0.1-4.3,0.5l3.9,0.8l4,0.8C603,144.6,601.8,143.9,600.4,143.6L600.4,143.6z"/>
<path class="st11" d="M623,167.3c-0.4-3.4-2.5-5.3-4.7-4.3s-4.4,4.4-5.2,8.2s-0.1,7.5,1.6,9.2s4.2,1.3,6.3-0.8"/>
<path class="st16" d="M585,153.2l-1.6,1.7c-0.4,0.3-0.7,0.8-0.8,1.2c-0.2,0.7,0.1,1.5,0.7,2c0.5,0.5,1.2,0.9,1.8,1.1"/>
<path class="st17" d="M580.9,163.7l11.1,1.8c-1.2,1.6-2.7,2.9-4.5,3.8c-1.7,0.7-3.6,0.6-5.1-0.3C580.9,168,580.3,165.4,580.9,163.7z
	"/>
<path class="st13" d="M581.6,139.1c-0.4,0.7-0.8,1.5-1.1,2.3l3,0.9l0,0c0.2,0.1,0.4-0.1,0.4-0.3c0-0.1,0-0.2,0-0.3
	C583.4,140.7,582.6,139.8,581.6,139.1z"/>
<path class="st13" d="M583.4,142.6c-1.1-0.3-2.1-0.6-3-0.9c-0.1,0-0.2-0.1-0.3-0.2c0-0.1,0-0.2,0-0.3c0.3-0.7,0.7-1.5,1.1-2.3
	c0.1-0.1,0.1-0.2,0.3-0.2c0.1,0,0.2,0,0.3,0.1c1,0.7,1.9,1.7,2.5,2.8c0.2,0.4,0.1,0.8-0.3,1C583.8,142.7,583.6,142.7,583.4,142.6
	L583.4,142.6z M581.1,141.1l2.5,0.7c-0.5-0.8-1.1-1.5-1.8-2.1C581.5,140.2,581.3,140.6,581.1,141.1z"/>
<path class="st4" d="M578.7,145.5c-0.6,2.1-1.2,4.2-1.6,6.4v0.2c1.4,0.2,2.9-0.2,4.1-0.9C581.1,149,580.2,147,578.7,145.5z"/>
<path class="st1" d="M578.2,152c0.7-0.8,1.2-1.8,1.2-2.9c0.2-1.1,0.1-2.3-0.4-3.3c-0.1,0-0.3-0.2-0.4-0.2c-0.8,2.1-1.4,4.3-1.7,6.5
	C577.4,152.2,577.8,152.1,578.2,152z"/>
<path class="st10" d="M578.6,145.7c1.4,1.2,2.2,3.1,2.2,5c0,0.2,0.2,0.3,0.4,0.3s0.3-0.2,0.3-0.3c0.1-2.1-0.8-4.1-2.4-5.5
	c-0.1-0.1-0.4-0.1-0.5,0S578.5,145.6,578.6,145.7L578.6,145.7z"/>
<path class="st18" d="M415.2,145.2h53.7c14.1,0,25.5,11.4,25.5,25.5v46.4c0,14.1-11.4,25.5-25.5,25.5h-53.7
	c-14.1,0-25.5-11.4-25.5-25.5v-46.4C389.7,156.6,401.1,145.2,415.2,145.2z"/>
<circle class="st19" cx="440.3" cy="184.3" r="21.8"/>
<line class="st19" x1="405" y1="227.7" x2="436.3" y2="227.7"/>
<line class="st19" x1="405" y1="216.9" x2="459.4" y2="216.9"/>
<path class="st2" d="M519.8,235.3l-9.6-20.1c-3.2-10.2-4.7-16.2-6.4-22.8c-0.6-2.3-2.2-4.2-4.4-5.1c-7.5-3.2-15.5-6.1-22.9-9.4
	c-2,2.2,0,6.4,2.5,8s5.7,2.1,7.7,4.3c2.8,2.9,2.5,7.5,2.3,11.5s0.6,8.8,4.2,10.6c0,0,1.1,22.1,1.1,30.4c1.5,2.9,2.6,6,3.4,9.2"/>
<path class="st20" d="M588.7,183.1l15.1-5.2c0,0-3.1,14.2-15.5,14.8"/>
<polyline class="st21" points="64.1,206.8 64.1,101.1 326.1,101.1 326.1,253.8 188.9,253.8 "/>
<rect x="90.7" y="73.4" class="st15" width="262" height="152.6"/>
<path class="st10" d="M273.9,76.5c2.3,5.7,0.7,12.2-4,16.1c-2.5,2-5.9,3-8.8,1.7s-4.3-4.7-4.9-7.9c-0.9-4.8-1.1-14,4-16.9
	C265.3,66.6,271.9,72,273.9,76.5z"/>
<path class="st22" d="M208.4,164.8l8-66l-1.9-2c-8.2-8.4-8-21.9,0.4-30c4.1-4,9.6-6.2,15.4-6l15.8,0.4c10.9,0.3,19.8,8.8,20.7,19.6
	c0.2,3,0.4,5.9,0.6,8.9c0,1.3,0,2.5,0.1,3.8c0.3,1.2,5.9,4.8,4.7,8.6c-0.5,1.1-1.2,2-2.1,2.7c-2,1.9-1.8,3.8-1.7,6.3
	c0,2.7,0,5.4-0.1,8.1s0.2,7.1-1.6,9.3c-4.5,5.5-15.6,4.4-17.9,3.5l6.1,44.2C254.8,176.2,214.8,192.6,208.4,164.8z"/>
<path class="st10" d="M249.8,86.7c3.2-4.5,7.8-4.8,11.7-0.7C257.6,86.3,253.7,86.5,249.8,86.7z"/>
<path class="st10" d="M250.2,86.9c1.2-1.9,3.1-3.1,5.3-3.4c2.2,0.1,4.3,1.1,5.7,2.8l0.3-0.6c-3.9,0.2-7.8,0.5-11.7,0.7
	c-0.5,0-0.5,0.8,0,0.8c3.9-0.2,7.8-0.5,11.7-0.7c0.2,0,0.4-0.2,0.4-0.4c0-0.1,0-0.2-0.1-0.2c-1.7-1.7-3.9-3.1-6.4-3
	c-2.4,0.3-4.5,1.7-5.9,3.7C249.2,87,249.9,87.3,250.2,86.9z"/>
<path class="st4" d="M259,99.7l2.6-5.4c-3.4-2.4-7.8-2.8-11.6-1.1C250.5,98.3,255,99.7,259,99.7z"/>
<path class="st10" d="M261.6,94.4c-1-0.6-2-1.1-3-1.6c-1.4,0.2-2.7,0.9-3.6,2c-0.8,1.2-1.1,2.6-1,4c1.6,0.7,3.3,1,4.9,0.9
	L261.6,94.4z"/>
<path class="st10" d="M208.3,113.9c-9.2-6.5-14.9-16.9-14.3-28.3c0.1-1.9,0.2-7.5,1.8-8.8s5.8,0.1,8-0.9c2.4-1.1,1.5-4,1.9-6.2
	c0.6-3.5,2.8-6.6,6-8.3c3.6-1.8,7.6-1.4,11.4-0.9c3.4,0.3,6.8-0.2,10-1.5c1.3-0.5,6.6-1.9,7.9-2.6c3.1-1.7,0-4.7,2.4-6.8
	c1.7-1.4,4.4-1.7,6.4-1.7c4.2-0.2,8.3,1.2,11.5,3.8c9.1,7.9,4.4,19.6,3.2,21.6c0,0-23.9,3.6-25.3,4.2c-4.1,1.6-4.4,7.1-2.7,10.6
	c0.7,1.4,1.7,2.6,2.4,3.9c0.9,1.3,1.3,2.8,1.1,4.4c-0.6,3.6-4.6,2.2-7.1,3.4c-2.8,1.4-5.3,3.2-7.4,5.4c-2.5,2.5-4.7,5.4-7.6,7.6
	C215.3,115,211.4,116.1,208.3,113.9z"/>
<path class="st23" d="M237.9,112.9c-4.4,7.1-16.5,12-24.9,12.7l1.2-10.8C221.3,113.7,230.9,114.1,237.9,112.9z"/>
<path class="st4" d="M214.4,96.8l6.3-37.8l13-0.5c0,0-2.7,37-2.8,36.5S214.4,96.8,214.4,96.8z"/>
<path class="st24" d="M221.1,79.2c-1.3,0-2.6,0.1-3.8,0.3l-2.9,17.3c0,0,16.3-2.2,16.4-1.8c0,0.2,0.5-5.2,1-11.9
	C228.8,80.7,225,79.3,221.1,79.2z"/>
<path class="st1" d="M250.2,142.5c-9.2-2.5-14.8-9.5-19.4-17.9c5.5,3.5,11.7,5.4,17.9,7.4L250.2,142.5z"/>
<circle class="st4" cx="224.6" cy="101.1" r="17.6"/>
<circle class="st21" cx="224.6" cy="101.1" r="10.4"/>
<path class="st25" d="M237.9,112.9c8.1,2.2,16.4,5,24.4,7.2c3,0.8,6.1,1.6,9.1,1.1s6-2.8,6.3-5.9"/>
<circle class="st25" cx="277.9" cy="112.8" r="3"/>
<circle class="st26" cx="249.1" cy="109.8" r="7.4"/>
<polygon class="st27" points="415.9,52.9 308.8,52.9 308.8,114.8 308.8,118.3 308.8,145.6 339.8,118.3 415.9,118.3 "/>
<circle class="st28" cx="343.6" cy="83.9" r="4.6"/>
<circle class="st28" cx="364" cy="83.9" r="4.6"/>
<circle class="st28" cx="384.3" cy="83.9" r="4.6"/>
<polyline class="st11" points="706.8,435.6 731.7,463.6 779.7,471 "/>
<line class="st11" x1="759.3" y1="480.7" x2="757.5" y2="472.9"/>
<line class="st11" x1="749" y1="480.3" x2="747.1" y2="472.5"/>
<path class="st11" d="M768.6,469.1l3.3,11.8"/>
<polygon class="st20" points="681.3,442.7 701,477.8 689.9,478.5 676.8,442.3 "/>
<polyline class="st9" points="629.4,297.9 650.5,343.4 559.2,316.9 561.4,293.3 "/>
<polygon class="st20" points="557.8,455.2 592.1,460.2 589.7,448 556,447.1 "/>
<path class="st9" d="M640.7,330.4c-9.7-4.8-94.8-44.7-94.8-44.7c-0.6-0.3-1.2-0.6-1.8-0.9l-0.2-0.1l0,0c-11.8-4.9-38.5-2-35.5,16.9
	C513,330.3,553,445.8,553,445.8c1.6,3.7,37.3,2.2,37.3,2.2s-0.7-12-2.6-29.6c13.9,6.2,29.3,9.7,43.9,6
	C692.3,408.6,666.3,343,640.7,330.4z"/>
<path class="st1" d="M663.6,202.9c-12.2-8.7-36.9-2.8-43.8-3.6c-30.9,35.2-29.5,38.5-29.5,38.5s-8.6-26.3-9.7-32.5
	c-10.8,1.2-22.2,5.2-23.2,31c-0.2,6.8,0,34.9,15.8,33.6l-3.7,24.3c4.6,3.7,62.4,7.4,62.4,7.4l-4.6-10.9l10.3-45.3l31.8-17.7
	C669.1,220.3,669.9,207.3,663.6,202.9z"/>
<path class="st2" d="M618.7,347.8c0,0-16.6,25.4-16.7,27.9s12.3,25.5,14.5,26.8s3.6-2.6,2.7-4.3l2.6,3.8c0.4,0.7,1.3,0.8,2,0.4
	c0.1-0.1,0.2-0.2,0.3-0.3c1-1.4,2.1-3.5,0.9-5.8c0,0,4.7-1.7,3.1-5.5s-5.3-13.6-5.3-13.6s17-15.6,19.1-18s1-10,1-10"/>
<path class="st29" d="M619.2,398.2l-10.1-18.8c-0.3-0.5-0.3-1.1,0-1.6l1.9-3.8"/>
<path class="st29" d="M624.9,396.3l-9.7-17.3c-0.3-0.6-0.3-1.3,0.1-1.9l3.2-4.8"/>
<path class="st2" d="M601.9,376.8c-1.5,8.3-3.7,16.4-6.5,24.3c0.9,1,2.3,1.1,3.4,0.3c0.9-0.8,1.6-1.8,2-3c2.6-5.9,4.8-12,6.5-18.1"
	/>
<polygon class="st1" points="639.9,293.7 607.7,360.9 652.6,360.9 678.8,285.5 668.9,215.2 637.1,225.4 "/>
<polygon class="st28" points="308.8,145.6 339.3,133 352.7,133 352.7,118.3 339.8,118.3 "/>
<path class="st25" d="M587.7,418.4c0,0,2.3-54.7-18.3-81.8"/>
<line class="st25" x1="561.4" y1="293.3" x2="617.3" y2="340.8"/>
<path class="st25" d="M560.7,245.5c-4.6,7.6-2.2,17.6,5.4,22.2c2.1,1.3,4.6,2.1,7.1,2.3c-1,7.4-1.5,16.8-2.5,24.2"/>
<line class="st25" x1="637.7" y1="245.5" x2="636.2" y2="223.3"/>
<line class="st30" x1="107.3" y1="103.4" x2="195.1" y2="103.4"/>
<path class="st28" d="M263,226l-9.6-68.1c0,0-49.1-12.2-50.3-10.8S175.4,226,175.4,226H263z"/>
<path class="st4" d="M267.7,110.1h-8.9c0.7,3.9,3.4,7,7.3,7.1L267.7,110.1z"/>
<path class="st28" d="M252.1,154l-23.5-6.2l-17.2-4.6c-3.7-1-8.2-2.9-12-3.1c-8.3-0.5-16.5,6.2-21.6,12.2c-6,6.8-9.6,15.3-10.4,24.3
	c-0.5,5.2,0.4,10.5,2.7,15.2c2.4,4.6,6.9,8.3,12,9.1c6.8,1,13.4-3.2,17.3-8.8s5.5-12.4,6.9-19.1c0.4-2.2,0.9-4.4,2.3-6.2
	c3.5-4.5,11.1-1.4,15.7-1.2c9.2,0.5,21,2.1,29.9-1.2C254,164.3,252.8,156.6,252.1,154z"/>
<path class="st31" d="M184.5,199.7c3.7-10.2,7.8-20.6,15.7-28.1c7.9-7.4,20.5-11,29.7-5.2c8.6,5.3,11.3,16.6,11.4,26.7
	s-1.9,20.4,0.4,30.2"/>
<path class="st22" d="M253.4,316.6c0.3,0,0.5-0.2,0.5-0.5s-0.2-0.5-0.5-0.5s-0.5,0.2-0.5,0.5S253.1,316.6,253.4,316.6z"/>
<path class="st32" d="M201.1,255c5-14.1,21.5-21.5,36.3-19.9s27.9,10.6,38.6,20.9s19.9,22.3,31,32.2c11.1,9.9,25,17.9,39.9,17.9
	c15.7,0,30.5-9.1,40.1-21.6s14.5-27.9,17.3-43.3"/>
<path class="st2" d="M83.9,277.7c-0.3-2.1-0.9-4.2-1.8-6.2c-5.4-11.9-19.3-17.2-31.2-11.8c-10.7,4.8-16.2,16.7-13,27.9
	c0.2,0.8,0.5,1.6,0.8,2.4c2.7,6.9,2.9,14.5,0.6,21.6c-5.5,18.1,4.7,37.3,22.8,42.9s37.3-4.7,42.9-22.8c1.9-6.3,2-13.1,0.2-19.5
	c-1.9-6.6-5.7-12.5-10.9-16.9C88.8,290.9,85.1,284.6,83.9,277.7z"/>
<path class="st1" d="M132.3,375.8c-0.3,17.7-14.9,31.9-32.7,31.6C82.3,407,68.3,393.1,68,375.8H132.3z"/>
<ellipse transform="matrix(3.327794e-02 -0.9994 0.9994 3.327794e-02 -349.8869 532.2693)" class="st1" cx="100.2" cy="447" rx="47.2" ry="47.2"/>
<line class="st6" x1="70.2" y1="312.9" x2="85.5" y2="375.8"/>
<path class="st33" d="M111.5,277.7c1.9-12.9,13.9-21.8,26.7-19.9c0.2,0,0.3,0,0.5,0.1c12.8,2.2,21.5,14.3,19.4,27.2
	c-0.1,0.9-0.3,1.7-0.6,2.6c-0.2,0.8-0.5,1.6-0.8,2.4c-2.7,6.9-2.9,14.5-0.6,21.6c5.5,18.1-4.7,37.3-22.8,42.9
	c-18.1,5.5-37.3-4.7-42.9-22.8c-4-13.1,0.2-27.4,10.7-36.3C106.6,290.9,110.3,284.6,111.5,277.7z"/>
<line class="st19" x1="125.2" y1="312.9" x2="110" y2="375.8"/>
<polygon class="st0" points="128.6,502.9 71.8,502.9 78.9,489.1 120.5,489.1 "/>
<path class="st9" d="M83.1,403c1.3,0,34.1,0,34.1,0l-47,7.5C70.2,410.5,77.1,403.2,83.1,403z"/>
<polygon class="st34" points="239.4,421.4 222.8,479.7 242.9,479.7 244.1,421.4 "/>
<rect x="242.9" y="425" class="st2" width="132.3" height="76.4"/>
<polygon class="st35" points="242.9,440.6 375.2,445.6 375.2,437.2 242.9,437.2 "/>
<path class="st4" d="M321.4,437.2c0,7-5.6,12.6-12.6,12.6c-6.9,0-12.6-5.6-12.6-12.6"/>
<rect x="239.4" y="421.4" class="st15" width="138.7" height="15.8"/>
<path class="st13" d="M627.6,144.6c0.3,5.2-1.7,9.4-6.6,11.1c-0.6,0.2-1.3,0.4-1.9,0.4c-4.6,0.3-8.8-2.6-10.1-7
	c-1.1-4.2,0.8-8.8-0.6-12.9c-1.2-3.2-3.9-5.6-7.2-6.4c-3.3-0.7-6.8-0.3-9.8,1.2c4.7-3.3,10.4-5,16.1-4.9c3.3,0,6.6,0.9,9.4,2.6
	C624.2,133.3,627.3,138.8,627.6,144.6z"/>
</svg>
