<?xml version="1.0" encoding="utf-8"?>
<!-- Generator: Adobe Illustrator 25.2.3, SVG Export Plug-In . SVG Version: 6.00 Build 0)  -->
<svg version="1.1" id="Layer_1" xmlns="http://www.w3.org/2000/svg" xmlns:xlink="http://www.w3.org/1999/xlink" x="0px" y="0px"
	 viewBox="0 0 496 590" style="enable-background:new 0 0 496 590;" xml:space="preserve">
<style type="text/css">
	.st0{fill:#B9C6E4;}
	.st1{fill:none;stroke:#B9C6E4;stroke-miterlimit:10;}
	.st2{fill:#FBD7AD;}
	.st3{fill:#495894;}
	.st4{fill:#F7C689;}
	.st5{fill:none;stroke:#F27932;stroke-miterlimit:10;}
	.st6{fill:#FFFFFF;stroke:#FBD7AD;stroke-width:1;stroke-miterlimit:9.9984;}
	.st7{fill:none;stroke:#FFFFFF;stroke-miterlimit:10;}
	.st8{fill:#4B4065;}
	.st9{fill:#FFFFFF;}
	.st10{fill:#F27932;}
	.st11{opacity:0.37;fill:#495894;enable-background:new    ;}
	.st12{fill:none;stroke:#4B4065;stroke-miterlimit:10;}
	.st13{opacity:0.32;fill:#F7C689;enable-background:new    ;}
	.st14{fill:none;stroke:#F27932;stroke-width:2;stroke-linecap:round;stroke-linejoin:round;stroke-miterlimit:10;}
	.st15{fill:none;stroke:#495894;stroke-miterlimit:10;}
	.st16{fill:none;stroke:#495894;stroke-width:0.25;stroke-miterlimit:10;}
	.st17{fill:none;stroke:#4B4065;stroke-linecap:round;stroke-linejoin:round;stroke-miterlimit:10;}
	.st18{fill:#4B4065;stroke:#4B4065;stroke-linecap:round;stroke-linejoin:round;}
</style>
<path class="st0" d="M344.4,96c-1.5-2.4-4.7-3.1-7.1-1.6c-0.2,0.1-0.3,0.2-0.4,0.3l-0.3,13.9v0.1l6.9-6
	C345.4,101,345.8,98.1,344.4,96z"/>
<polygon class="st0" points="207.5,174.5 208,195.3 234.3,193.9 230.1,157.3 220.3,142.6 203.1,159.2 "/>
<path class="st1" d="M17.2,345.2c0-59.8,65.5-108.3,146.2-108.3s146.2,48.5,146.2,108.3s-65.5,108.3-146.2,108.3V490
	c0,1.9-1.6,3.5-3.5,3.5c-0.7,0-1.5-0.2-2-0.7l-87.1-63.9l0,0C38,409.1,17.2,378.9,17.2,345.2z"/>
<circle class="st0" cx="207.6" cy="348.3" r="9.2"/>
<circle class="st0" cx="163.4" cy="348.3" r="9.2"/>
<circle class="st0" cx="119.1" cy="348.3" r="9.2"/>
<path class="st2" d="M215.6,125.3v56c0,2.1-1.7,3.8-3.8,3.8l0,0c-2.1,0-3.8-1.7-3.8-3.8v-56"/>
<polyline class="st0" points="306.6,155 306.3,118.3 328.9,118.3 340.4,149.1 "/>
<path class="st3" d="M328.9,118.3h-22.6l0.1,11.8c3.9,2.9,8.7,4.4,13.6,4.2l0,0c4.7-0.2,9.3-1.9,12.9-5L328.9,118.3z"/>
<path class="st0" d="M365.6,512.6l-0.5,19.8l-18.6,10.3c0,0-6.5-14.8-6.4-15s2.2-31.5,2.2-31.5L365.6,512.6z"/>
<path class="st0" d="M316.5,128.8L316.5,128.8c-10.1,0-21.5-8.4-22.3-20l-1.5-17.4c-0.9-9.9,6.4-18.6,16.3-19.5
	c0.6,0,1.1-0.1,1.7-0.1h9.7c10.5,0,17.8,9,16.9,19.5l-0.4,17.4C336.4,119.7,324.5,128.8,316.5,128.8z"/>
<path class="st4" d="M304.1,159.1V148l33.7-9.6l5.9,12l40.6-2.3c8.3-0.5,16,3.9,19.9,11.2l31.8,60.4c3.6,6.8,4.2,14.8,1.5,22.1
	l-28.7,80L384.8,303l16.4-69.8l-24.7-38.4l-4.6,66.5l-67.7-7.1l-11.7-24.1l-42.3,46.3c-6,7.3-16.8,8.4-24.1,2.4
	c-1.8-1.5-3.3-3.4-4.4-5.5l-17.6-84.2l30.4-1.6l9.5,42.7l23.5-50.7c3.7-7,10.1-12.3,17.8-14.6L304.1,159.1z"/>
<path class="st3" d="M303.8,253.5l-8.5,23.8c-4.7,13-6.6,26.8-5.7,40.6l14.2,216.6h45.4L344,482l-5.9-170.8l26.5,86.6l-20.9,81.4
	l1.9,19.2l28.9,24.8l35.1-108.4c2.7-8.3,2.8-17.2,0.3-25.6l-38.1-127.6L303.8,253.5z"/>
<line class="st5" x1="295.3" y1="236" x2="280.5" y2="200.1"/>
<ellipse transform="matrix(0.2298 -0.9732 0.9732 0.2298 72.1033 277.9487)" class="st6" cx="211.7" cy="93.4" rx="40.2" ry="40.2"/>
<path class="st0" d="M286.5,96.1c1.5-2.4,4.7-3.1,7.1-1.6c0.2,0.1,0.3,0.2,0.4,0.3l0.3,13.9v0.1l-6.9-6
	C285.5,101.1,285.1,98.2,286.5,96.1z"/>
<line class="st7" x1="341.4" y1="286.6" x2="338.1" y2="314.3"/>
<line class="st7" x1="338.9" y1="307.5" x2="350.5" y2="307.8"/>
<path class="st8" d="M293.6,101.1l-2.1-15.9c-0.3-5.7,3.2-11,8.6-12.9l8.3-3l-3.4-3.4c6.3-3.1,13.4-4.2,20.4-3.4
	c7.6,0.9,13.2,7.4,13.1,15.1l-1.2,20.2l-1-7.8c-1.4-6.7-7.5-11.3-14.3-10.8l-14.8,1c-6.7,0.4-12.1,5.6-12.8,12.3l-0.4,3.6
	L293.6,101.1z"/>
<path class="st0" d="M386.8,304.7c0,0-5.9,17.4-6.6,19.4c0,0,3.7,0.9,8.3-6.8l13.1,43.9c2.4-1.9,3.7-4.9,3.6-7.9
	c0-5.4-0.9-20.3-0.9-20.3l4.5-11"/>
<path class="st9" d="M309.1,112.4c3.9,0,10.1-0.3,13.9-0.3c-0.9,1.8-2.3,3.4-3.9,4.6c-1.6,1-3.5,1.2-5.3,0.5
	C312.1,116.5,309.3,113.9,309.1,112.4z"/>
<line class="st5" x1="243.4" y1="227" x2="248.6" y2="243.6"/>
<line class="st5" x1="401.1" y1="233.3" x2="415.9" y2="237.4"/>
<polygon class="st10" points="285.1,238.3 281.6,203.1 292.4,230.2 "/>
<line class="st5" x1="304.1" y1="159.1" x2="343.6" y2="150.5"/>
<path class="st0" d="M311.4,534l-1,17l-26.9,6.8c-3,0.8-5.5,3-6.5,6l-1.1,3l67.4-3.1c2.8-0.2,4.8-2.6,4.6-5.3c0-0.1,0-0.1,0-0.2
	l-2.3-24.5"/>
<polygon class="st3" points="347.9,521.1 298.1,517.4 300.6,534.4 349.1,534.4 "/>
<polyline class="st3" points="380.1,503.6 343.6,479 383.5,505.8 376.1,524.5 345.6,498.2 "/>
<path class="st8" d="M273.9,568.7l76.1-3.6v-13.9l-20.1,0.1c-2.6-1.1-4.7-3.3-6.5-5.4c-1.8-2.1-3.8-4.4-6.4-5.6s-6-1.3-8,0.7
	c-0.8,3-1.8,6.4-2.6,9.5c-8.1,1.7-16.8,3.9-25,5.7c-2.1,0.4-3.9,1.7-5.1,3.5c-1.7,2.6-2.2,5.9-3.2,8.1c-0.2,0.4,0,0.8,0.4,1
	C273.6,568.7,273.6,568.7,273.9,568.7z"/>
<path class="st8" d="M365.6,531.1l3.7,10.5l19.1,5.2c3.4,0.9,5.4,4.4,4.4,7.8c0,0.1,0,0.2-0.1,0.2l-0.6,1.8h-36.5
	c0,0-9.5-6.7-8.8-6.5l-0.9-13.3l6.2-1l8-6.3c1.5-1.2,3.6-1,4.8,0.5C365.3,530.4,365.5,530.7,365.6,531.1z"/>
<polygon class="st11" points="163.4,453.4 132.7,453.4 163.4,470.5 "/>
<line class="st12" x1="364.6" y1="397.7" x2="378.1" y2="400.5"/>
<ellipse transform="matrix(0.8507 -0.5257 0.5257 0.8507 -17.4328 125.2825)" class="st13" cx="211.8" cy="93.3" rx="36.6" ry="36.6"/>
<path class="st10" d="M195.6,81.5v4.4c0,0.8,0.7,1.5,1.5,1.5s1.5-0.7,1.5-1.5v-4.4c0-0.8-0.7-1.5-1.5-1.5S195.6,80.7,195.6,81.5z"/>
<path class="st10" d="M221.5,81.5v4.4c0,0.8,0.7,1.5,1.5,1.5s1.5-0.7,1.5-1.5v-4.4c0-0.8-0.7-1.5-1.5-1.5S221.5,80.7,221.5,81.5z"/>
<path class="st14" d="M222.5,94.9c-2.1,7.2-9.6,11.3-16.8,9.1c-4.5-1.3-8-4.9-9.2-9.4"/>
<circle class="st15" cx="303.1" cy="98.3" r="7.3"/>
<circle class="st15" cx="327" cy="98.3" r="7.3"/>
<path class="st15" d="M310.4,98c2.8-2,6.6-2,9.5,0"/>
<line class="st12" x1="302.6" y1="517.7" x2="347.9" y2="521.1"/>
<line class="st12" x1="383.5" y1="505.8" x2="343.8" y2="479"/>
<path class="st0" d="M203.4,144.9l13.7,8.1l0,0c-0.2,2.4-2.3,4.1-4.7,3.9c-0.6-0.1-1.2-0.3-1.8-0.6l-12.5-7.4l0.3-1.7
	c0.3-1.8,2.1-3,3.9-2.6C202.6,144.6,203.1,144.7,203.4,144.9z"/>
<path class="st0" d="M198.4,147.7l20.1,11.4l0,0c-0.2,3.2-4,4.8-7,3.1l-14.1-8.1L198.4,147.7z"/>
<path class="st0" d="M197.6,152.2l17.8,10.5l0,0c-0.2,2.4-2.3,4.1-4.7,3.9c-0.6-0.1-1.2-0.3-1.8-0.6l-12.5-7.4L197.6,152.2z"/>
<path class="st0" d="M196.6,157.7l15.5,9.2l0,0c-0.2,2.1-2,3.6-4.1,3.4c-0.5-0.1-1.1-0.2-1.6-0.5l-10.9-6.5L196.6,157.7z"/>
<path class="st0" d="M224.9,171.3l5.9-12.6c0.3-1.2,0.3-2.5-0.2-3.6l-6.2-16.3l-17.7-2.7c0,0-2.3,6.6,9.5,8.1l4.5,12.1L224.9,171.3"
	/>
<line class="st16" x1="196.6" y1="157.7" x2="212.1" y2="166.9"/>
<line class="st16" x1="197.6" y1="152.2" x2="216.3" y2="163"/>
<line class="st16" x1="198.5" y1="147.2" x2="215.9" y2="156.9"/>
<path id="XMLID_2_" class="st9" d="M309.4,99.4c-1.4-3.8-5.6-5.7-9.3-4.3c-1.4,0.5-2.7,1.5-3.5,2.8
	C300.5,100.9,305.1,100.9,309.4,99.4z"/>
<polyline class="st17" points="315,93.7 312.1,104.8 315,106.8 "/>
<path class="st8" d="M304.1,97.2c0-1-0.3-1.8-0.8-2.6c-1.1-0.1-2.2,0-3.3,0.4c-1.4,0.5-2.7,1.5-3.5,2.8c2,1.6,4.3,2.4,6.6,2.5
	C303.8,99.5,304.1,98.4,304.1,97.2z"/>
<path id="XMLID_1_" class="st9" d="M333.6,98c-2.2-3.4-6.7-4.4-10-2.2c-1.3,0.8-2.3,2-2.9,3.4C325.1,101.4,329.8,100.4,333.6,98z"/>
<path class="st8" d="M328.1,97c-0.2-0.9-0.7-1.7-1.3-2.4c-1.1,0.1-2.1,0.5-3.1,1.1c-1.3,0.8-2.3,2-2.9,3.4c2.3,1.1,4.7,1.4,7,1.1
	C328.1,99.3,328.3,98.2,328.1,97z"/>
<path class="st18" d="M307.7,89.2c-3.2-2.4-7.5-2.3-10.5,0.2C300.8,89.2,304.1,89.3,307.7,89.2z"/>
<path class="st18" d="M321.7,89.2c3.2-2.4,7.5-2.3,10.5,0.2C328.6,89.2,325.3,89.3,321.7,89.2z"/>
<path class="st13" d="M139.8,167.8c3.4-0.9,6.7-2.3,9.7-4.1c-3-1.9-6.3-3.3-9.7-4.2c-3.5-0.9-6.2-3.6-7.1-7.1
	c-0.9-3.4-2.2-6.7-4.1-9.7c-1.9,3-3.3,6.3-4.1,9.7c-0.9,3.5-3.6,6.2-7.1,7.1c-3.4,0.9-6.7,2.3-9.7,4.1c3,1.9,6.3,3.3,9.7,4.1
	c3.5,0.9,6.2,3.6,7.1,7.1c0.9,3.4,2.3,6.7,4.1,9.7c1.9-3,3.3-6.3,4.2-9.7C133.7,171.4,136.3,168.7,139.8,167.8z"/>
<path class="st13" d="M464.8,383.8c3.4-0.9,6.7-2.3,9.7-4.1c-3-1.9-6.3-3.3-9.7-4.2c-3.5-0.9-6.2-3.6-7.1-7.1
	c-0.9-3.4-2.2-6.7-4.1-9.7c-1.9,3-3.3,6.3-4.1,9.7c-0.9,3.5-3.6,6.2-7.1,7.1c-3.4,0.9-6.7,2.3-9.7,4.1c3,1.9,6.3,3.3,9.7,4.1
	c3.5,0.9,6.2,3.6,7.1,7.1c0.9,3.4,2.3,6.7,4.1,9.7c1.9-3,3.3-6.3,4.2-9.7C458.7,387.4,461.3,384.7,464.8,383.8z"/>
<path class="st4" d="M178.4,18.9l3,4.3c0.2,0.2,0.4,0.4,0.6,0.4l5,1.6c0.6,0.2,1,0.9,0.8,1.5c0,0.1-0.1,0.2-0.2,0.4l-3.1,4.2
	c-0.2,0.2-0.2,0.5-0.2,0.7l0.1,5.2c0,0.7-0.5,1.2-1.2,1.2c-0.1,0-0.3,0-0.4-0.1l-5-1.6c-0.2-0.1-0.5-0.1-0.8,0l-5,1.7
	c-0.6,0.2-1.3-0.1-1.5-0.7c0-0.1-0.1-0.3-0.1-0.4l0.1-5.2c0-0.3-0.1-0.5-0.2-0.7l-3.1-4.2c-0.4-0.5-0.3-1.3,0.2-1.7
	c0.1-0.1,0.2-0.1,0.4-0.2l5-1.6c0.3-0.1,0.5-0.2,0.6-0.4l3-4.3c0.4-0.6,1.1-0.7,1.7-0.3C178.2,18.7,178.3,18.8,178.4,18.9z"/>
<path class="st4" d="M208.3,18.9l3,4.3c0.1,0.2,0.4,0.4,0.6,0.4l5,1.6c0.6,0.2,1,0.9,0.8,1.5c0,0.1-0.1,0.2-0.2,0.4l-3.1,4.2
	c-0.2,0.2-0.2,0.5-0.2,0.7l0.1,5.2c0,0.7-0.5,1.2-1.2,1.2c-0.1,0-0.3,0-0.4-0.1l-4.9-1.6c-0.2-0.1-0.5-0.1-0.8,0l-5,1.7
	c-0.6,0.2-1.3-0.1-1.5-0.7c0-0.1-0.1-0.3-0.1-0.4l0.1-5.2c0-0.3-0.1-0.5-0.2-0.7l-3.1-4.2c-0.4-0.5-0.3-1.3,0.2-1.7
	c0.1-0.1,0.2-0.1,0.4-0.2l5-1.6c0.3-0.1,0.5-0.2,0.6-0.4l3-4.3c0.3-0.6,1.1-0.7,1.6-0.4C208,18.6,208.2,18.7,208.3,18.9z"/>
<path class="st4" d="M238.1,18.9l3,4.3c0.1,0.2,0.4,0.4,0.6,0.4l5,1.6c0.6,0.2,1,0.9,0.8,1.5c0,0.1-0.1,0.3-0.2,0.4l-3.1,4.2
	c-0.2,0.2-0.2,0.5-0.2,0.7l0.1,5.2c0,0.7-0.5,1.2-1.2,1.2c-0.1,0-0.3,0-0.4-0.1l-5-1.7c-0.2-0.1-0.5-0.1-0.8,0l-4.9,1.7
	c-0.6,0.2-1.3-0.1-1.5-0.7c0-0.1-0.1-0.3-0.1-0.4l0.1-5.2c0-0.3-0.1-0.5-0.2-0.7l-3.1-4.2c-0.4-0.5-0.3-1.3,0.3-1.7
	c0.1-0.1,0.2-0.1,0.4-0.2l5-1.6c0.3-0.1,0.5-0.2,0.6-0.4l3-4.3c0.4-0.5,1.1-0.7,1.7-0.3C237.9,18.7,238,18.8,238.1,18.9z"/>
</svg>
