<?xml version="1.0" encoding="utf-8"?>
<!-- Generator: Adobe Illustrator 25.2.3, SVG Export Plug-In . SVG Version: 6.00 Build 0)  -->
<svg version="1.1" id="Layer_1" xmlns="http://www.w3.org/2000/svg" xmlns:xlink="http://www.w3.org/1999/xlink" x="0px" y="0px"
	 viewBox="0 0 652.3 466.7" style="enable-background:new 0 0 652.3 466.7;" xml:space="preserve">
<style type="text/css">
	.st0{fill:none;stroke:#FBD7AD;stroke-miterlimit:10;}
	.st1{fill:#F7C689;}
	.st2{fill:#C2D9F0;}
	.st3{clip-path:url(#SVGID_2_);}
	.st4{fill:none;stroke:#FFFFFF;stroke-width:0.5;stroke-miterlimit:10;}
	.st5{fill:#B9C6E4;}
	.st6{fill:none;stroke:#C2D9F0;stroke-miterlimit:10;}
	.st7{fill:#4B4065;}
	.st8{fill:#EF749B;}
	.st9{opacity:0.21;fill:#495894;enable-background:new    ;}
	.st10{fill:#F27932;}
	.st11{fill:#FFFFFF;}
	.st12{fill:none;stroke:#4B4065;stroke-miterlimit:10;}
	.st13{fill:#4B4065;stroke:#4B4065;stroke-width:0.25;stroke-linejoin:round;}
	.st14{fill:none;stroke:#ED4F2E;stroke-miterlimit:10;}
	.st15{fill:#231F20;}
	.st16{fill:none;stroke:#231F20;stroke-miterlimit:10;}
	.st17{fill:#FBD7AD;}
	.st18{fill:#FFFFFF;stroke:#B9C6E4;stroke-miterlimit:10;}
	.st19{fill:#495894;}
	.st20{fill:none;stroke:#495894;stroke-miterlimit:10;}
	.st21{opacity:0.49;fill:#EF749B;enable-background:new    ;}
	.st22{fill:none;stroke:#495894;stroke-linecap:round;stroke-linejoin:round;stroke-miterlimit:10;}
	.st23{fill:none;stroke:#E44E85;stroke-miterlimit:10;}
	.st24{opacity:0.46;fill:none;stroke:#495894;stroke-miterlimit:10;stroke-dasharray:4;enable-background:new    ;}
	.st25{fill:none;stroke:#F27932;stroke-miterlimit:10;}
	.st26{opacity:0.46;fill:none;stroke:#495894;stroke-width:0.75;stroke-miterlimit:10;enable-background:new    ;}
	.st27{fill:#F7C689;stroke:#F27932;stroke-miterlimit:10;}
	.st28{clip-path:url(#SVGID_4_);}
	.st29{clip-path:url(#SVGID_7_);fill:#4B4065;}
</style>
<line class="st0" x1="181.2" y1="432" x2="537.6" y2="432"/>
<polyline class="st0" points="0,433.8 268.4,432 268.4,55.5 536.5,55.5 536.5,432 652.3,432 "/>
<path class="st1" d="M255.6,115c1.7-0.4,3.3-1.1,4.8-2.1c-1.5-0.9-3.1-1.6-4.8-2.1s-3.1-1.8-3.6-3.6c-0.4-1.7-1.1-3.3-2.1-4.8
	c-0.9,1.5-1.6,3.1-2.1,4.8c-0.5,1.7-1.8,3.1-3.6,3.6c-1.7,0.4-3.4,1.1-4.9,2.1c1.5,0.9,3.1,1.6,4.9,2.1c1.7,0.5,3.1,1.8,3.6,3.6
	c0.4,1.7,1.1,3.3,2.1,4.8c0.9-1.5,1.6-3.1,2.1-4.8C252.5,116.8,253.8,115.4,255.6,115z"/>
<circle class="st1" cx="262.1" cy="130.2" r="2.6"/>
<rect x="321.7" y="100.1" class="st2" width="166.1" height="67.1"/>
<g>
	<g>
		<g>
			<defs>
				<rect id="SVGID_1_" x="321.7" y="100.1" width="166.1" height="67.1"/>
			</defs>
			<clipPath id="SVGID_2_">
				<use xlink:href="#SVGID_1_"  style="overflow:visible;"/>
			</clipPath>
			<g class="st3">
				<line class="st4" x1="281.4" y1="148.3" x2="429.5" y2="0.2"/>
				<line class="st4" x1="286.9" y1="153.7" x2="435" y2="5.6"/>
				<line class="st4" x1="292.3" y1="159.1" x2="440.4" y2="11"/>
				<line class="st4" x1="297.7" y1="164.6" x2="445.8" y2="16.4"/>
				<line class="st4" x1="303.1" y1="170" x2="451.2" y2="21.9"/>
				<line class="st4" x1="308.5" y1="175.4" x2="456.7" y2="27.3"/>
				<line class="st4" x1="314" y1="180.8" x2="462.1" y2="32.7"/>
				<line class="st4" x1="319.4" y1="186.2" x2="467.5" y2="38.1"/>
				<line class="st4" x1="324.8" y1="191.7" x2="472.9" y2="43.5"/>
				<line class="st4" x1="330.2" y1="197.1" x2="478.4" y2="49"/>
				<line class="st4" x1="335.6" y1="202.5" x2="483.8" y2="54.4"/>
				<line class="st4" x1="341.1" y1="208" x2="489.2" y2="59.8"/>
				<line class="st4" x1="346.5" y1="213.4" x2="494.6" y2="65.3"/>
				<line class="st4" x1="351.9" y1="218.8" x2="500" y2="70.7"/>
				<line class="st4" x1="357.4" y1="224.2" x2="505.5" y2="76.1"/>
				<line class="st4" x1="362.8" y1="229.6" x2="510.9" y2="81.5"/>
				<line class="st4" x1="368.2" y1="235.1" x2="516.3" y2="86.9"/>
				<line class="st4" x1="373.6" y1="240.5" x2="521.7" y2="92.4"/>
				<line class="st4" x1="379" y1="245.9" x2="527.2" y2="97.8"/>
				<line class="st4" x1="384.5" y1="251.3" x2="532.6" y2="103.2"/>
				<line class="st4" x1="389.9" y1="256.8" x2="538" y2="108.6"/>
				<line class="st4" x1="395.3" y1="262.2" x2="543.4" y2="114.1"/>
				<line class="st4" x1="429.5" y1="262.2" x2="281.4" y2="114.1"/>
				<line class="st4" x1="435" y1="256.8" x2="286.9" y2="108.6"/>
				<line class="st4" x1="440.4" y1="251.3" x2="292.3" y2="103.2"/>
				<line class="st4" x1="445.8" y1="245.9" x2="297.7" y2="97.8"/>
				<line class="st4" x1="451.2" y1="240.5" x2="303.1" y2="92.4"/>
				<line class="st4" x1="456.7" y1="235.1" x2="308.5" y2="86.9"/>
				<line class="st4" x1="462.1" y1="229.6" x2="314" y2="81.5"/>
				<line class="st4" x1="467.5" y1="224.2" x2="319.4" y2="76.1"/>
				<line class="st4" x1="472.9" y1="218.8" x2="324.8" y2="70.7"/>
				<line class="st4" x1="478.4" y1="213.4" x2="330.2" y2="65.3"/>
				<line class="st4" x1="483.8" y1="208" x2="335.6" y2="59.8"/>
				<line class="st4" x1="489.2" y1="202.5" x2="341.1" y2="54.4"/>
				<line class="st4" x1="494.6" y1="197.1" x2="346.5" y2="49"/>
				<line class="st4" x1="500" y1="191.7" x2="351.9" y2="43.5"/>
				<line class="st4" x1="505.5" y1="186.2" x2="357.4" y2="38.1"/>
				<line class="st4" x1="510.9" y1="180.8" x2="362.8" y2="32.7"/>
				<line class="st4" x1="516.3" y1="175.4" x2="368.2" y2="27.3"/>
				<line class="st4" x1="521.7" y1="170" x2="373.6" y2="21.9"/>
				<line class="st4" x1="527.2" y1="164.6" x2="379" y2="16.4"/>
				<line class="st4" x1="532.6" y1="159.1" x2="384.5" y2="11"/>
				<line class="st4" x1="538" y1="153.7" x2="389.9" y2="5.6"/>
				<line class="st4" x1="543.4" y1="148.3" x2="395.3" y2="0.2"/>
			</g>
		</g>
	</g>
</g>
<path class="st5" d="M262.3,215c-4.2-0.4-8.1-2.4-10.9-5.5c-3.5,0.4-8.2-1.9-7.5-5.8l20.7,4.1l13.8-0.2l1.3,16.9l-23.4,2.2
	l-1.1-16.7"/>
<path class="st5" d="M260.2,211.7l-21.1-2.2c-1-0.1-1.9,0.6-2.1,1.6c-0.1,0.6,0.2,1.2,0.6,1.6c0.4,0.3,0.9,0.5,1.4,0.6
	c7.6,1.2,15.1,2.6,22.7,4.2"/>
<path class="st5" d="M259.4,215.9l-21.1-2.2c-1-0.1-1.9,0.6-2.1,1.6c-0.1,0.6,0.2,1.2,0.6,1.6c0.4,0.3,0.9,0.5,1.4,0.6
	c7.6,1.2,15.1,2.6,22.7,4.2"/>
<path class="st5" d="M261.3,220l-23.7-2.5c-0.2,0.8,0,3.5,2.5,4.1c7.4,1.6,14.9,2.6,22.4,3"/>
<path class="st5" d="M261.9,226.1c-3.9,0.1-7.7,0.9-11.3,2.4c-0.3,0.2-0.7,0.3-1,0.3c-0.4,0-0.7-0.2-0.8-0.5c-0.1-0.4,0.2-0.7,0.4-1
	c1.8-1.9,3.9-3.4,6.3-4.6"/>
<rect x="314.2" y="93.4" class="st6" width="180.3" height="80.8"/>
<path class="st7" d="M328.8,160.2c-3.9-1.7-5.7-6.2-4-10.1c0.4-0.9,1-1.8,1.7-2.5l1.7-1.6c0.9-0.7,1.6-1.7,2.1-2.7
	c0.9-2.7-1.3-6.1-1.8-8.8c-0.5-3.1-0.2-6.2,1-9.1c2.9-7.1,10.5-12.2,17.3-15.3c7.7-3.5,16.3-4.3,24.5-2.3c5,1.3,9.9,3.8,12.9,8.1
	c1.7,2.6,2.6,5.6,2.6,8.8c0,3.7-1.7,5.6-2.9,8.8c-0.4,1-0.4,2.2,0.1,3.2c0.7,1.4,2.3,1.9,3.8,2.4l7.4,2.4c4,1.3,6.2,5.6,4.9,9.7
	c-0.4,1.1-0.9,2.1-1.7,2.9c-2.3,2.4-5,4.4-7.9,6c-6.1,3.3-13,4.9-19.8,6.3C366.1,167.4,344.2,166.8,328.8,160.2z"/>
<path class="st5" d="M348.2,176.1l2.1-28.3l-2.5,0.1c-4.5,0.3-8.4-3.2-8.8-7.7l-0.9-12.9c0-1.4,0.2-2.8,0.4-4.1
	c1.3-7.2,5.5-11.5,11.9-13.5c5.9-1.8,13.2-2.4,19.9,1.3c14.6,8,3.8,22.6-2.8,28.3l5.2,21l-22.2,30.4L348.2,176.1z"/>
<path class="st7" d="M368.4,142.6c-0.8-2.5-1.2-5.4-1.9-7.9c1.8-0.6,3.4-1.6,4.7-3c1.3-1.4,1.8-3.3,1.3-5.2c-0.6-1.8-2.4-3-4.3-2.9
	c-1,0.1-1.9,0.4-2.6,1c-0.9,0.7-0.7,1.4-1.3,2.2c-0.2,0.4-0.7,0.7-1.2,0.7c-0.5-0.1-1-0.4-1.2-0.8c-0.2-0.5-0.3-1-0.4-1.5
	c-0.5-2.6-1.5-5-3-7.1c-6.8-9.5-20.3-3.6-21,4.4c1.1-4.9,4.1-9.1,8.5-11.5c4.3-2.3,9.1-3.5,14-3.6c4.5-0.2,9.3,0.2,13.2,2.4
	c5.8,3.3,8.8,10.5,7.9,17.1C380.2,133.6,374.1,139.2,368.4,142.6z"/>
<path class="st5" d="M348.8,236.9l-12.6,7.7l-13,0.8l-8.8-1.5c0,0-3.3,3.8,11.2,9c0.8,0.3,1.1,1.1,0.9,1.9c-0.1,0.4-0.5,0.7-0.9,0.9
	l-12.1,4.6L306,263c-1.1,0.4-1.6,1.6-1.2,2.6c0.2,0.4,0.4,0.8,0.8,1l0,0l12.8-2.6l23.1-4.6l10.9-5"/>
<path class="st1" d="M470.1,386.4l11.6,1.9c1.5,0.2,2.9,0.9,3.9,2l0,0c1.5,1.6,2,3.9,1.3,6L471.5,444l-4.5-1.5l1.8-21.6l-5.9-14.3
	L470.1,386.4z"/>
<path class="st8" d="M484.4,407.2c0,0-14-0.2-19.1,8.7l0.5,12.8l-1.5,8.8c-0.6,2.7-0.1,5.6,1.6,7.9l2.8,3.9
	C468.5,449.3,472.8,447.3,484.4,407.2z"/>
<rect x="449.2" y="418.2" transform="matrix(0.3079 -0.9514 0.9514 0.3079 -67.7563 748.0413)" class="st8" width="62.1" height="4.7"/>
<path class="st2" d="M458,437.7c2.1,0.7,4.4-0.1,5.7-1.8c2.8-3.6,0.7-11.4-4.6-9C455,428.7,452.9,435.8,458,437.7z"/>
<path class="st9" d="M350.1,147.8l9.2-2c-3.1,3.8-6.7,7.8-9.8,11.6"/>
<path class="st10" d="M349.5,160.4l-11.8,1.1c-4.6,0.8-8.5,4.5-10.8,8.6l-19.3,33.6h-33.4l3.3,23.8l40.6-1.6
	c4.3-0.2,8.3-2.5,10.5-6.3l22.8-39.2"/>
<polygon class="st7" points="353.8,227 344.5,434.5 397,437.7 384.1,225.1 "/>
<path class="st7" d="M370.7,259.6l-1.7,93.3l86.9,72l15.4-39.9l-56.9-50.2l-3.1-64.5l3-11.6c0.6-2.3,0.5-4.7-0.4-6.9l-11.1-28.6
	l-33.7,2.2L370.7,259.6z"/>
<path class="st10" d="M346.4,174.1l-5.8,12.5c-1.8,4-0.9,8.7,2.3,11.7l8.5,7.9l1.7,13.6c-0.1,1.2,0.8,7.2,0.8,7.2l49.3-2.1
	L376.7,159l-4.1,0.2l-19.2,26.5l-3.8-25.2"/>
<path class="st10" d="M376.6,158.9l15.8,5.9c3.2,1.2,5.7,3.8,6.7,7l16.5,50.8c1.6,4.8-0.6,10.1-5.2,12.4l-56.1,31.7L342,239.5
	l9.1-4.3l36.5-20.4l-12.4-32.1"/>
<path class="st11" d="M358.4,126.9c-2.6-2.9-7-3.1-9.9-0.4c-1,0.9-1.7,2-2,3.3C350.7,131.1,355.3,130,358.4,126.9z"/>
<path class="st12" d="M346.5,129.7c1.1-3.7,4.9-5.9,8.6-4.8c1.3,0.4,2.4,1.1,3.3,2"/>
<path class="st12" d="M342.8,129.8l-1.5,2c-0.4,0.5-0.3,1.3,0.3,1.7c0.1,0.1,0.2,0.1,0.2,0.1c0.6,0.3,1.2,0.5,1.8,0.7"/>
<path class="st7" d="M353.3,128.2c0.1-1.2-0.2-2.4-0.9-3.5c-0.3,0-0.6,0.1-0.9,0.1c-2.5,0.6-4.4,2.5-5.1,4.9c2,0.7,4.2,0.8,6.3,0.3
	C353.1,129.4,353.3,128.8,353.3,128.2z"/>
<path class="st13" d="M356.6,120.9c-2.6-2.3-6.6-2.1-8.9,0.5c0,0,0,0-0.1,0.1C350.8,121.3,353.5,121.1,356.6,120.9z"/>
<path class="st11" d="M345.4,139.4c3.2-0.5,4-2,6.2-4.4l-8.9,0.7v3.7H345.4z"/>
<path class="st14" d="M346.4,174.1l-5.8,12.5c-1.8,4-0.9,8.7,2.3,11.7l8.5,7.9l2.5,20.9"/>
<path class="st7" d="M338,130.1c0.4-0.4,0.7-0.9,0.8-1.5c0.1-0.8-0.1-1.7-0.6-2.3c0-0.4,0-0.7,0.1-1.1c1.1,0.8,1.6,2.2,1.4,3.6
	c-0.2,1-0.8,1.8-1.7,2.3C337.9,130.8,338,130.5,338,130.1z"/>
<polygon class="st15" points="393.8,384.6 378,360.4 393.8,373.4 "/>
<line class="st16" x1="370.7" y1="259.6" x2="369" y2="352.8"/>
<line class="st0" x1="11" y1="422.2" x2="268.4" y2="420.5"/>
<line class="st0" x1="535.6" y1="420.5" x2="641.6" y2="420.5"/>
<polyline class="st14" points="351.3,235.2 387.8,214.8 375.5,182.7 "/>
<polygon class="st7" points="380.8,251.8 411.1,244.7 407.9,236.4 "/>
<path class="st1" d="M388.1,436.9l1.8,10.6c0.3,1.5,0.1,3-0.7,4.3l0,0c-1.1,1.9-3.1,3.1-5.3,3.1h-50.1v-4.7l21.1-4.9l11.9-9.4
	L388.1,436.9z"/>
<path class="st8" d="M372.8,455.9c0,0-4.1-13.4-14.2-15.5l-12,4.4l-8.9,1.3c-2.8,0.2-5.3,1.7-7,3.9l-2.9,3.8
	C327.9,453.7,331.1,457.2,372.8,455.9z"/>
<rect x="327.9" y="453.7" class="st8" width="62.1" height="4.7"/>
<path class="st2" d="M335.7,440.2c0,2.2,1.4,4.2,3.5,4.9c4.2,1.5,11.1-2.8,7.2-7.2C343.4,434.6,335.9,434.7,335.7,440.2z"/>
<path class="st17" d="M144.2,436.2l1.4,15.1l23.8,5.2c2.7,0.6,4.9,2.5,5.9,5.1l1,2.6l-59.2-0.8c-2.4-0.1-4.3-2.1-4.2-4.6
	c0-0.1,0-0.1,0-0.2l1.3-22.5"/>
<path class="st18" d="M178.1,465.7l-66.9-1l-0.4-12.2l17.7-0.5c2.3-1,4-3,5.6-5s3.2-4,5.5-5.1s5.2-1.3,7,0.4
	c0.8,2.6,1.8,5.6,2.5,8.2c7.2,1.2,14.8,2.9,22.1,4.3c1.8,0.3,3.5,1.4,4.6,2.9c1.6,2.3,2.1,5.1,3,7c0.2,0.3,0,0.8-0.3,0.9
	C178.3,465.7,178.2,465.7,178.1,465.7z"/>
<path class="st17" d="M118.2,179.5l-11.6,38.7c-1.8,6.1,0.8,12.5,6.2,15l31.2,9.2l5-21l-14.8-6.8l10.6-27L118.2,179.5z"/>
<path class="st17" d="M199.4,436.8l1.4,14.9l23.8,5.2c2.7,0.6,4.9,2.5,5.9,5.1l1,2.6l-59.3-0.9c-2.4-0.1-4.3-2.1-4.2-4.6
	c0-0.1,0-0.1,0-0.2l1.3-21.5"/>
<path class="st18" d="M233.3,466.2l-66.9-1.1l-0.4-12.2l17.6-0.5c2.3-1,4-3,5.6-5s3.2-4,5.5-5.1s5.2-1.3,7.1,0.4
	c0.8,2.6,1.8,5.6,2.5,8.2c7.2,1.2,14.8,3,22.1,4.3c1.8,0.3,3.5,1.4,4.6,2.9c1.6,2.2,2.1,5.1,3,7c0.2,0.3,0,0.7-0.3,0.9
	C233.5,466.2,233.4,466.2,233.3,466.2z"/>
<path class="st8" d="M113.6,185.2l10.2-28.1c2.5-6.8,8.9-11.3,16.2-11.4l46.9-0.1c7.9,0,14.8,5.3,16.8,13l4,26.5l-27.6,4.2l6.4,33.9
	l-55-4.5l1.1-27.4L113.6,185.2z"/>
<path class="st17" d="M152.9,145.8l4.5-17l-6.9-9.2l30.5-19.2l9.1,27.1c0.6,1.8-0.4,3.7-2.1,4.3c-0.4,0.1-0.7,0.2-1.1,0.2l-7.9-0.1
	l2.2,13.9"/>
<path class="st19" d="M149.9,121.7l-6.7-8.2c-1.5-2.1-1.7-4.7-0.5-7l5.4-10.7c2.2-4.4,6.9-7,11.8-6.4l14.1,1.5
	c2.4,0.2,4.5,1.8,5.5,4l1.8,4.3"/>
<polygon class="st1" points="167.8,119.6 160,123.9 161.7,117.3 "/>
<path class="st17" d="M183.3,111l5.3,2.5c0.7,0.3,1,1.2,0.7,1.9c-0.1,0.1-0.1,0.2-0.2,0.3l-2.7,3.2"/>
<line class="st20" x1="180.3" y1="99.7" x2="199.1" y2="96.2"/>
<path class="st7" d="M179.1,100c-4.2,2.9-8.2,5.9-12.4,8.8c1.1,1.4,2.8,2.2,4.6,2.1c1.9-0.2,3.5-1.4,4.4-3
	c5.1,2.9,11.8,3.5,15.6-1.6c1.8-2.4,2.4-5.5,1.7-8.4L179.1,100z"/>
<path class="st7" d="M150.5,119.6l-1.9,7c3.2,2.2,7.3,2.1,10.4-0.3c2.9-2.3,3.4-10.4,1.9-13.8"/>
<path class="st17" d="M170.2,113.2c-0.8-2.8-3.5-4.7-6.4-4.5c-2.8,0.3-5.1,3.4-4.4,6.1c0.5,1.7,1.8,3,3.4,3.7c1.6,0.7,3.3,1,5.1,1.1
	"/>
<circle class="st21" cx="169.6" cy="117.9" r="5.1"/>
<path class="st22" d="M179.5,117.9c2.1,1.9,4.9,2.7,7.6,2.1"/>
<polyline class="st1" points="178.9,131.9 171.9,130.7 179.8,136.8 "/>
<line class="st23" x1="175" y1="189.4" x2="171.6" y2="166.9"/>
<path class="st5" d="M131.6,218.9l-9.5,43.4l-5.1,80.9l-10.4,93.2l42.5-0.2l13.6-144.1l8.5,24.7l-7.7,121.5l37.9-1.4l11.7-100.6
	c2.1-16.2,0.5-32.6-4.5-48.1l-21.4-65.7L131.6,218.9z"/>
<polygon class="st19" points="186.4,230.6 129.6,227 131.6,218.9 186.9,222.4 "/>
<polyline class="st20" points="171.2,316.8 150.5,256 140.9,255.4 "/>
<path class="st20" d="M136.1,246.4l-4.9,14.6c-1.4,4.1-5.3,6.7-9.5,6.4l0,0"/>
<polyline class="st24" points="172.1,248.6 195.2,312.3 184.2,437 "/>
<path class="st6" d="M599.3,418.4c-1.2-6-5.9-12-11.8-13.7c-6.1-1.7-12.6,0.1-16.9,4.6c0-8.2-3.9-16-10.4-21
	c-6.4-4.8-14.8-6.3-22.5-4"/>
<line class="st6" x1="570.2" y1="405.2" x2="583.7" y2="360.1"/>
<line class="st6" x1="570.5" y1="409.3" x2="606.5" y2="370"/>
<circle class="st1" cx="583.7" cy="360.1" r="4.3"/>
<circle class="st1" cx="607.6" cy="368.7" r="4.3"/>
<path class="st2" d="M577.4,382.5c-2.4-12.3-16.8-19.4-19.3-31.7c-2,6-1.3,12.6,2,18C563.8,375,571.1,378.8,577.4,382.5z"/>
<circle class="st17" cx="494.5" cy="264.5" r="12.7"/>
<rect x="558.9" y="247.3" class="st0" width="42.8" height="15.4"/>
<rect x="578" y="262.7" class="st0" width="42.8" height="15.4"/>
<rect x="11" y="344.7" class="st0" width="42.8" height="15.4"/>
<rect x="53.8" y="344.7" class="st0" width="42.8" height="15.4"/>
<rect x="32.1" y="360.1" class="st0" width="42.8" height="15.4"/>
<rect x="210.4" y="256.8" class="st0" width="42.8" height="15.4"/>
<line class="st0" x1="585.8" y1="229.7" x2="622" y2="229.7"/>
<line class="st0" x1="54.2" y1="288.5" x2="90.4" y2="288.5"/>
<polygon class="st17" points="587.7,81.4 201.1,81.4 237.7,22.3 620.8,24.1 "/>
<path class="st25" d="M206.2,75.7c6.4,2.7,8.7,8.7,18.7,8.7c12.9,0,12.9-10,25.8-10s12.9,10,25.8,10s12.9-10,25.8-10
	s12.9,10,25.8,10s12.9-10,25.8-10s12.9,10,25.8,10s12.9-10,25.8-10s12.9,10,25.8,10s12.9-10,25.8-10s12.9,10,25.8,10
	s12.9-10,25.8-10c12.9,0,12.9,10,25.8,10s12.9-10,25.8-10s12.9,10,25.8,10"/>
<path class="st25" d="M222.9,47.6c6.4,2.7,8.7,8.7,18.6,8.7c12.9,0,12.9-10,25.8-10s12.9,10,25.8,10s12.9-10,25.8-10
	s12.9,10,25.8,10s12.9-10,25.8-10s12.9,10,25.8,10s12.9-10,25.8-10s12.9,10,25.8,10s12.9-10,25.8-10s12.9,10,25.8,10
	c12.9,0,12.9-10,25.8-10s12.9,10,25.8,10s12.9-10,25.8-10s12.9,10,25.8,10"/>
<path class="st25" d="M239.5,19.5c6.4,2.7,8.7,8.7,18.7,8.7c12.9,0,12.9-10,25.8-10s12.9,10,25.8,10s12.9-10,25.8-10
	s12.9,10,25.8,10s12.9-10,25.7-10s12.9,10,25.8,10s12.9-10,25.8-10s12.9,10,25.8,10s12.9-10,25.8-10s12.9,10,25.8,10
	c12.9,0,12.9-10,25.8-10s12.9,10,25.8,10s12.9-10,25.8-10s12.9,10,25.8,10"/>
<path class="st7" d="M360,99.4c-0.2,1.6,0.5,3.2,1.8,4.2c4.2,3.7,15.7,7,13.5-2.3C373.8,95.3,361.5,92.1,360,99.4z"/>
<path class="st26" d="M252.5,210c1.8,3.8,5.5,6.4,9.7,6.8"/>
<path class="st26" d="M238.4,213.4l16.8,1.5"/>
<path class="st26" d="M237.9,217.6l18,1.8"/>
<rect x="204.1" y="162" class="st27" width="96.1" height="61.9"/>
<rect x="222.1" y="163.1" class="st11" width="21.5" height="24.3"/>
<rect x="265.9" y="162" class="st27" width="34.4" height="61.9"/>
<g>
	<g>
		<g>
			<defs>
				<rect id="SVGID_3_" x="265.9" y="162" width="34.4" height="61.9"/>
			</defs>
			<clipPath id="SVGID_4_">
				<use xlink:href="#SVGID_3_"  style="overflow:visible;"/>
			</clipPath>
			<g class="st28">
				<line class="st25" x1="207" y1="221" x2="295.5" y2="132.6"/>
				<line class="st25" x1="210.2" y1="224.3" x2="298.7" y2="135.8"/>
				<line class="st25" x1="213.5" y1="227.5" x2="301.9" y2="139.1"/>
				<line class="st25" x1="216.7" y1="230.8" x2="305.2" y2="142.3"/>
				<line class="st25" x1="219.9" y1="234" x2="308.4" y2="145.5"/>
				<line class="st25" x1="223.2" y1="237.2" x2="311.6" y2="148.8"/>
				<line class="st25" x1="226.4" y1="240.5" x2="314.9" y2="152"/>
				<line class="st25" x1="229.7" y1="243.7" x2="318.1" y2="155.2"/>
				<line class="st25" x1="232.9" y1="246.9" x2="321.4" y2="158.5"/>
				<line class="st25" x1="236.1" y1="250.2" x2="324.6" y2="161.7"/>
				<line class="st25" x1="239.4" y1="253.4" x2="327.8" y2="165"/>
				<line class="st25" x1="242.6" y1="256.7" x2="331.1" y2="168.2"/>
				<line class="st25" x1="245.9" y1="259.9" x2="334.3" y2="171.4"/>
				<line class="st25" x1="249.1" y1="263.1" x2="337.6" y2="174.7"/>
				<line class="st25" x1="252.3" y1="266.4" x2="340.8" y2="177.9"/>
				<line class="st25" x1="255.6" y1="269.6" x2="344" y2="181.2"/>
				<line class="st25" x1="258.8" y1="272.9" x2="347.3" y2="184.4"/>
				<line class="st25" x1="262" y1="276.1" x2="350.5" y2="187.6"/>
				<line class="st25" x1="265.3" y1="279.3" x2="353.8" y2="190.9"/>
				<line class="st25" x1="268.5" y1="282.6" x2="357" y2="194.1"/>
				<line class="st25" x1="271.8" y1="285.8" x2="360.2" y2="197.4"/>
				<line class="st25" x1="275" y1="289" x2="363.5" y2="200.6"/>
			</g>
		</g>
	</g>
</g>
<path class="st17" d="M178.5,188.5l7,51.1c0.7,5.2,4.9,9.2,10.1,9.9l0,0c3.5,0.4,69.7-17.9,69.7-17.9l21.1-3.3l0,0
	c0.3-2.7-1.6-5.1-4.2-5.4l0,0l-25.7-0.2l-2.9-11c-0.7-2.8-3.1-4.9-6-5.3l0,0l0.4,17.1l-40.9,0.5l-3.2-40.9"/>
<g>
	<g>
		<path id="SVGID_5_" class="st11" d="M172.2,111.6c1.7-2.3,4.9-2.8,7.2-1.2c0.9,0.6,1.5,1.6,1.9,2.6
			C178,114.4,174.7,113.5,172.2,111.6z"/>
	</g>
	<g>
		<defs>
			<path id="SVGID_6_" d="M172.2,111.7c1.7-2.3,4.9-2.9,7.2-1.3c0.9,0.6,1.5,1.6,1.9,2.6C178,114.4,174.7,113.5,172.2,111.7z"/>
		</defs>
		<clipPath id="SVGID_7_">
			<use xlink:href="#SVGID_6_"  style="overflow:visible;"/>
		</clipPath>
		
			<ellipse transform="matrix(0.9999 -1.116080e-02 1.116080e-02 0.9999 -1.2388 2.0013)" class="st29" cx="178.7" cy="112" rx="2.8" ry="3.3"/>
	</g>
</g>
</svg>
